<svg id="svg" version="1.1" xmlns="http://www.w3.org/2000/svg" xmlns:xlink="http://www.w3.org/1999/xlink" width="400" height="401.70940170940173" viewBox="0, 0, 400,401.70940170940173"><g id="svgg"><path id="path0" d="M163.200 108.256 C 161.990 108.332,159.650 108.574,158.000 108.794 C 156.350 109.014,151.310 109.380,146.800 109.606 C 142.290 109.832,137.340 110.265,135.800 110.568 C 134.260 110.871,130.785 111.239,128.078 111.385 C 125.372 111.531,122.441 111.903,121.566 112.212 C 120.691 112.521,118.316 112.884,116.288 113.021 C 114.260 113.157,111.694 113.516,110.587 113.820 C 109.480 114.123,107.010 114.549,105.097 114.767 C 103.184 114.984,101.275 115.346,100.855 115.570 C 100.436 115.795,98.497 116.240,96.546 116.559 C 86.216 118.250,80.966 121.148,78.357 126.600 L 77.400 128.600 77.292 164.817 L 77.184 201.033 78.477 202.717 L 79.771 204.400 173.986 204.420 C 268.562 204.439,277.946 204.557,280.200 205.757 C 280.860 206.108,282.030 206.404,282.800 206.415 C 283.570 206.426,284.920 206.711,285.800 207.047 C 286.680 207.384,288.210 207.850,289.200 208.082 C 290.190 208.314,291.429 208.841,291.954 209.252 C 292.479 209.663,293.222 210.000,293.605 210.000 C 293.988 210.000,294.520 210.263,294.787 210.585 C 295.054 210.906,295.661 211.291,296.136 211.441 C 296.961 211.700,300.246 213.525,302.181 214.800 C 303.845 215.895,311.398 222.050,311.530 222.418 C 311.754 223.041,313.902 225.200,314.298 225.200 C 314.506 225.200,314.980 225.536,315.353 225.948 C 316.959 227.723,322.437 227.410,323.396 225.488 C 324.111 224.054,324.274 199.873,323.588 196.901 C 323.373 195.967,323.029 192.457,322.825 189.101 C 322.591 185.266,322.236 182.554,321.868 181.800 C 321.546 181.140,321.161 179.559,321.011 178.287 C 320.862 177.015,320.484 175.485,320.172 174.887 C 319.860 174.289,319.604 173.384,319.602 172.875 C 319.601 172.366,319.041 170.746,318.358 169.275 C 317.676 167.804,316.881 166.060,316.593 165.400 C 315.335 162.516,313.466 158.863,312.399 157.200 C 310.757 154.642,310.311 153.907,309.341 152.149 C 308.869 151.293,307.519 149.494,306.341 148.150 C 305.164 146.806,303.750 145.109,303.200 144.378 C 300.446 140.720,290.660 131.904,287.200 129.963 C 286.430 129.531,285.260 128.828,284.600 128.400 C 283.940 127.972,282.770 127.251,282.000 126.796 C 281.230 126.342,279.880 125.543,279.000 125.021 C 277.310 124.019,270.095 120.347,268.400 119.627 C 267.850 119.393,267.130 119.034,266.800 118.829 C 265.644 118.111,262.589 116.845,261.400 116.590 C 260.740 116.449,259.390 116.010,258.400 115.614 C 257.410 115.218,255.702 114.766,254.605 114.608 C 253.508 114.451,252.158 114.094,251.605 113.815 C 251.052 113.535,249.458 113.182,248.063 113.029 C 246.667 112.877,245.047 112.568,244.463 112.344 C 243.878 112.119,240.923 111.685,237.896 111.379 C 234.868 111.074,232.027 110.628,231.582 110.390 C 231.136 110.152,227.665 109.788,223.867 109.581 C 220.069 109.375,216.070 109.001,214.981 108.751 C 213.119 108.323,168.885 107.900,163.200 108.256 M148.484 137.028 C 148.768 137.374,149.315 137.954,149.700 138.317 C 150.351 138.932,150.400 140.624,150.400 162.667 L 150.400 186.355 149.435 187.478 L 148.470 188.600 122.335 188.717 C 94.799 188.840,94.010 188.810,92.778 187.578 C 91.543 186.343,91.564 138.436,92.800 137.200 C 93.910 136.090,147.578 135.925,148.484 137.028 M218.224 136.968 C 218.975 137.517,219.004 138.310,219.114 161.668 C 219.240 188.546,219.314 187.426,217.372 188.237 C 214.904 189.269,163.339 188.879,162.568 187.824 C 162.092 187.174,162.000 183.148,162.000 163.104 C 162.000 138.099,162.049 137.328,163.692 136.668 C 165.060 136.117,217.454 136.405,218.224 136.968 M258.600 137.248 C 259.260 137.600,260.682 138.003,261.760 138.144 C 262.838 138.286,264.260 138.671,264.921 139.001 C 265.582 139.330,266.312 139.600,266.544 139.600 C 267.611 139.600,275.720 143.980,278.525 146.071 C 280.243 147.352,281.783 148.400,281.947 148.400 C 282.454 148.400,292.400 158.830,292.400 159.362 C 292.400 159.524,293.100 160.499,293.955 161.528 C 294.810 162.558,295.813 163.940,296.183 164.600 C 296.552 165.260,297.276 166.520,297.790 167.400 C 299.694 170.660,303.200 177.845,303.200 178.488 C 303.200 178.854,303.367 179.256,303.571 179.382 C 303.775 179.508,304.158 180.284,304.421 181.106 C 304.685 181.928,305.133 182.870,305.417 183.200 C 306.708 184.703,306.437 188.400,305.035 188.400 C 304.740 188.400,304.274 188.670,304.000 189.000 C 303.564 189.525,299.223 189.600,269.379 189.600 L 235.255 189.600 233.835 188.700 C 231.543 187.247,231.546 187.288,231.679 161.542 C 231.796 138.803,231.824 138.057,232.593 137.208 C 233.645 136.045,256.410 136.080,258.600 137.248 M79.958 221.713 C 79.384 222.201,78.574 222.799,78.158 223.043 C 77.438 223.464,77.390 224.345,77.200 240.643 C 77.006 257.293,76.975 257.841,76.144 259.200 C 74.663 261.620,74.182 264.394,74.779 267.062 C 75.798 271.614,75.759 271.589,82.000 271.588 C 87.771 271.588,87.876 271.474,88.406 264.673 C 88.656 261.468,88.988 259.751,89.578 258.615 C 90.030 257.744,90.400 256.806,90.400 256.532 C 90.400 254.407,95.024 247.782,99.538 243.441 C 101.874 241.195,102.804 240.535,105.600 239.143 C 106.150 238.869,106.870 238.427,107.200 238.160 C 107.530 237.893,108.610 237.460,109.600 237.198 C 110.590 236.936,111.620 236.541,111.889 236.321 C 112.158 236.101,113.958 235.672,115.889 235.368 C 117.820 235.065,120.038 234.660,120.819 234.469 C 121.755 234.239,122.911 234.294,124.219 234.629 C 125.308 234.908,127.280 235.262,128.600 235.415 C 129.920 235.569,131.630 236.011,132.400 236.399 C 133.170 236.786,134.373 237.226,135.072 237.377 C 135.772 237.528,136.559 237.910,136.821 238.226 C 137.083 238.542,137.612 238.800,137.995 238.800 C 138.378 238.800,139.150 239.160,139.709 239.600 C 140.269 240.040,140.843 240.400,140.986 240.400 C 142.737 240.400,149.882 247.750,151.949 251.677 C 154.618 256.746,155.307 258.878,156.766 266.563 C 157.221 268.963,157.700 271.033,157.830 271.163 C 157.960 271.294,174.425 271.400,194.419 271.400 C 236.762 271.400,232.034 272.066,232.397 266.046 C 232.529 263.864,232.837 261.836,233.082 261.539 C 233.328 261.243,233.655 260.280,233.809 259.400 C 233.963 258.520,234.312 257.440,234.584 257.000 C 234.856 256.560,235.295 255.539,235.560 254.732 C 235.824 253.925,236.302 253.048,236.620 252.783 C 236.939 252.518,237.200 251.971,237.200 251.566 C 237.200 249.461,248.134 238.800,250.292 238.800 C 250.518 238.800,250.918 238.539,251.183 238.220 C 251.448 237.902,252.325 237.436,253.132 237.186 C 253.939 236.936,255.140 236.493,255.800 236.202 C 256.460 235.912,258.440 235.543,260.200 235.384 C 261.960 235.225,263.850 234.922,264.400 234.711 C 266.550 233.884,276.705 235.038,279.088 236.379 C 279.479 236.599,280.430 237.061,281.200 237.404 C 286.846 239.923,294.530 246.665,296.137 250.510 C 296.457 251.276,296.917 252.025,297.159 252.175 C 297.402 252.325,297.600 252.772,297.600 253.170 C 297.600 253.567,297.945 254.331,298.367 254.867 C 298.789 255.404,299.263 256.553,299.421 257.421 C 299.579 258.290,300.020 259.630,300.400 260.400 C 300.816 261.241,301.174 263.167,301.297 265.225 C 301.693 271.843,301.370 271.701,315.600 271.526 C 329.925 271.349,329.400 271.864,329.400 258.000 L 329.400 248.600 328.293 246.749 C 326.984 244.559,326.483 244.404,320.650 244.390 C 318.423 244.385,315.970 244.212,315.200 244.007 C 314.430 243.801,312.935 243.412,311.879 243.144 C 310.303 242.743,309.322 242.038,306.430 239.228 C 299.715 232.701,297.737 231.096,293.417 228.665 C 292.308 228.041,290.950 227.236,290.400 226.876 C 288.553 225.668,285.523 224.397,283.855 224.132 C 282.945 223.987,281.480 223.542,280.600 223.143 C 279.720 222.744,278.248 222.414,277.329 222.409 C 276.411 222.404,273.832 222.040,271.600 221.600 C 267.611 220.814,265.948 220.800,174.271 220.813 L 81.000 220.825 79.958 221.713 M117.487 251.185 C 115.335 251.578,113.265 252.178,112.887 252.519 C 112.509 252.859,111.718 253.258,111.129 253.405 C 110.540 253.552,109.961 253.926,109.841 254.236 C 109.722 254.546,109.386 254.800,109.095 254.800 C 108.108 254.800,103.474 259.700,102.984 261.261 C 102.822 261.777,102.375 262.603,101.990 263.097 C 101.605 263.590,101.173 264.617,101.030 265.380 C 100.887 266.142,100.508 267.269,100.188 267.883 C 99.273 269.636,99.410 276.551,100.400 278.600 C 100.825 279.480,101.179 280.491,101.186 280.846 C 101.194 281.201,101.560 281.950,102.000 282.509 C 102.440 283.069,102.800 283.802,102.800 284.139 C 102.800 284.477,102.987 284.869,103.216 285.010 C 103.445 285.151,104.050 285.927,104.561 286.734 C 106.047 289.078,108.592 291.469,110.149 291.983 C 110.941 292.245,111.685 292.613,111.801 292.802 C 111.918 292.991,112.997 293.350,114.199 293.600 C 115.401 293.849,116.925 294.323,117.587 294.653 C 119.968 295.841,127.992 294.953,131.200 293.146 C 131.530 292.960,132.503 292.428,133.363 291.964 C 135.577 290.768,140.690 285.564,141.447 283.737 C 141.797 282.892,142.284 281.954,142.529 281.654 C 144.705 278.987,144.544 267.126,142.283 263.549 C 141.953 263.027,141.557 262.177,141.402 261.661 C 141.248 261.144,140.824 260.397,140.461 260.001 C 140.097 259.605,139.349 258.768,138.798 258.140 C 137.343 256.485,133.217 253.200,132.592 253.200 C 132.298 253.200,131.794 252.936,131.471 252.614 C 129.834 250.977,122.650 250.243,117.487 251.185 M262.305 251.187 C 260.163 251.576,258.135 252.122,257.800 252.400 C 257.109 252.974,255.220 254.058,253.300 254.984 C 252.585 255.329,252.000 255.759,252.000 255.941 C 252.000 256.123,251.550 256.477,251.000 256.727 C 250.450 256.978,250.000 257.435,250.000 257.742 C 250.000 258.050,249.702 258.549,249.338 258.851 C 248.974 259.153,248.432 259.985,248.133 260.700 C 247.834 261.415,247.426 262.000,247.226 262.000 C 247.027 262.000,246.737 262.578,246.582 263.284 C 246.426 263.990,245.955 265.229,245.534 266.036 C 244.893 267.266,244.770 268.359,244.772 272.783 C 244.775 278.212,244.969 279.071,247.032 282.800 C 247.337 283.350,247.849 284.354,248.170 285.032 C 248.491 285.709,249.034 286.496,249.377 286.781 C 249.720 287.065,250.000 287.456,250.000 287.649 C 250.000 289.161,256.333 293.160,259.683 293.763 C 260.499 293.910,261.669 294.292,262.283 294.612 C 264.066 295.543,270.074 295.395,272.792 294.355 C 276.024 293.118,279.183 291.513,280.187 290.600 C 280.670 290.160,281.718 289.208,282.515 288.484 C 284.237 286.921,285.786 284.680,287.411 281.400 C 288.890 278.414,289.266 266.822,287.931 265.342 C 287.563 264.934,287.131 264.060,286.970 263.400 C 286.810 262.740,286.256 261.691,285.739 261.069 C 285.223 260.447,284.800 259.768,284.800 259.560 C 284.800 259.116,280.770 255.200,280.313 255.200 C 280.141 255.200,279.677 254.877,279.283 254.483 C 276.194 251.394,268.931 249.984,262.305 251.187 M125.728 261.925 C 125.987 262.132,126.647 262.440,127.194 262.608 C 133.657 264.596,136.307 274.808,131.682 279.903 C 129.365 282.455,127.309 283.999,126.222 284.002 C 125.770 284.004,124.884 284.274,124.254 284.602 C 122.831 285.345,122.245 285.348,120.213 284.628 C 119.326 284.313,118.144 283.959,117.586 283.842 C 112.753 282.823,108.618 272.082,111.600 268.291 C 112.040 267.731,112.400 267.091,112.400 266.868 C 112.400 266.645,113.345 265.673,114.500 264.708 C 116.314 263.194,117.716 262.416,120.400 261.435 C 121.263 261.120,125.169 261.479,125.728 261.925 M271.623 262.353 C 277.901 265.163,280.829 272.567,277.844 278.084 C 276.390 280.772,272.697 283.812,270.417 284.197 C 269.530 284.347,268.703 284.634,268.578 284.835 C 268.231 285.397,266.222 285.268,264.946 284.602 C 264.316 284.274,263.478 284.004,263.084 284.002 C 260.537 283.994,256.463 279.076,255.806 275.216 C 254.641 268.377,257.387 264.350,265.200 261.439 C 266.296 261.031,269.774 261.526,271.623 262.353 " stroke="none" fill="#f8f8f8" fill-rule="evenodd"></path><path id="path1" d="M21.680 2.880 C 21.416 3.144,21.200 3.594,21.200 3.880 C 21.200 4.249,20.503 4.400,18.800 4.400 C 16.667 4.400,16.400 4.489,16.400 5.200 C 16.400 5.787,16.133 6.000,15.400 6.000 C 14.667 6.000,14.400 6.213,14.400 6.800 C 14.400 7.333,14.133 7.600,13.600 7.600 C 13.013 7.600,12.800 7.867,12.800 8.600 C 12.800 9.333,12.587 9.600,12.000 9.600 C 11.467 9.600,11.200 9.867,11.200 10.400 C 11.200 10.933,10.933 11.200,10.400 11.200 C 9.867 11.200,9.600 11.467,9.600 12.000 C 9.600 12.587,9.333 12.800,8.600 12.800 C 7.867 12.800,7.600 13.013,7.600 13.600 C 7.600 14.133,7.333 14.400,6.800 14.400 C 6.213 14.400,6.000 14.667,6.000 15.400 C 6.000 16.133,5.787 16.400,5.200 16.400 C 4.489 16.400,4.400 16.667,4.400 18.800 C 4.400 20.120,4.233 21.200,4.029 21.200 C 2.307 21.200,2.400 10.895,2.405 201.329 C 2.411 385.549,2.387 382.000,3.647 382.000 C 4.299 382.000,4.400 382.315,4.400 384.353 C 4.400 386.370,4.514 386.737,5.200 386.916 C 5.679 387.041,6.000 387.462,6.000 387.963 C 6.000 388.533,6.255 388.800,6.800 388.800 C 7.333 388.800,7.600 389.067,7.600 389.600 C 7.600 390.187,7.867 390.400,8.600 390.400 C 9.333 390.400,9.600 390.613,9.600 391.200 C 9.600 391.733,9.867 392.000,10.400 392.000 C 10.987 392.000,11.200 392.267,11.200 393.000 C 11.200 393.733,11.413 394.000,12.000 394.000 C 12.533 394.000,12.800 394.267,12.800 394.800 C 12.800 395.333,13.067 395.600,13.600 395.600 C 14.133 395.600,14.400 395.867,14.400 396.400 C 14.400 396.987,14.667 397.200,15.400 397.200 C 16.114 397.200,16.400 397.416,16.400 397.957 C 16.400 398.888,17.150 399.200,19.386 399.200 C 20.770 399.200,21.148 399.356,21.316 400.000 C 21.525 400.799,21.862 400.800,201.763 400.800 C 381.733 400.800,382.000 400.799,382.000 400.000 C 382.000 399.326,382.268 399.199,383.700 399.195 C 386.170 399.187,387.200 398.821,387.200 397.953 C 387.200 397.467,387.483 397.200,388.000 397.200 C 388.533 397.200,388.800 396.933,388.800 396.400 C 388.800 395.867,389.067 395.600,389.600 395.600 C 390.133 395.600,390.400 395.333,390.400 394.800 C 390.400 394.213,390.667 394.000,391.400 394.000 C 392.200 394.000,392.400 393.800,392.400 393.000 C 392.400 392.267,392.613 392.000,393.200 392.000 C 393.733 392.000,394.000 391.733,394.000 391.200 C 394.000 390.667,394.267 390.400,394.800 390.400 C 395.324 390.400,395.600 390.133,395.600 389.628 C 395.600 389.132,395.922 388.810,396.500 388.728 C 397.063 388.648,397.446 388.279,397.522 387.741 C 397.590 387.268,397.995 386.790,398.422 386.678 C 399.076 386.507,399.200 386.117,399.200 384.237 C 399.200 383.007,399.380 382.000,399.600 382.000 C 399.866 382.000,400.000 321.600,400.000 201.600 C 400.000 81.600,399.866 21.200,399.600 21.200 C 399.380 21.200,399.200 20.193,399.200 18.963 C 399.200 17.083,399.076 16.693,398.422 16.522 C 397.995 16.410,397.590 15.932,397.522 15.459 C 397.446 14.921,397.063 14.552,396.500 14.472 C 395.922 14.390,395.600 14.068,395.600 13.572 C 395.600 13.067,395.324 12.800,394.800 12.800 C 394.267 12.800,394.000 12.533,394.000 12.000 C 394.000 11.467,393.733 11.200,393.200 11.200 C 392.667 11.200,392.400 10.933,392.400 10.400 C 392.400 9.813,392.133 9.600,391.400 9.600 C 390.600 9.600,390.400 9.400,390.400 8.600 C 390.400 7.867,390.187 7.600,389.600 7.600 C 389.067 7.600,388.800 7.333,388.800 6.800 C 388.800 6.267,388.533 6.000,388.000 6.000 C 387.467 6.000,387.200 5.733,387.200 5.200 C 387.200 4.483,386.933 4.400,384.628 4.400 C 382.265 4.400,382.045 4.327,381.928 3.500 L 381.800 2.600 201.980 2.500 C 62.451 2.422,22.053 2.507,21.680 2.880 M202.200 106.426 C 203.080 106.649,208.401 106.993,214.025 107.189 C 221.339 107.445,224.698 107.715,225.825 108.139 C 226.691 108.466,229.301 108.826,231.625 108.940 C 233.949 109.053,236.559 109.414,237.425 109.742 C 238.291 110.069,240.790 110.454,242.978 110.598 C 245.197 110.744,247.461 111.121,248.100 111.452 C 248.730 111.777,250.556 112.191,252.158 112.371 C 253.761 112.550,255.505 112.969,256.036 113.301 C 256.566 113.633,257.887 114.017,258.971 114.154 C 260.055 114.292,261.239 114.673,261.602 115.002 C 261.966 115.331,262.627 115.600,263.072 115.600 C 263.517 115.600,264.727 116.050,265.762 116.600 C 266.796 117.150,267.829 117.600,268.058 117.600 C 268.287 117.600,268.931 117.960,269.491 118.400 C 270.050 118.840,270.819 119.200,271.200 119.200 C 271.581 119.200,272.321 119.533,272.846 119.939 C 273.371 120.345,274.282 120.796,274.872 120.940 C 275.462 121.083,276.182 121.428,276.472 121.705 C 276.762 121.983,277.450 122.431,278.000 122.702 C 278.976 123.182,279.597 123.547,281.561 124.791 C 283.870 126.254,285.489 127.186,286.700 127.752 C 287.415 128.086,288.000 128.529,288.000 128.736 C 288.000 128.944,288.405 129.216,288.900 129.341 C 289.395 129.466,291.010 130.701,292.488 132.084 C 293.967 133.468,295.630 134.960,296.185 135.400 C 298.426 137.179,301.600 140.120,301.600 140.418 C 301.600 140.592,302.275 141.456,303.100 142.339 C 307.655 147.209,309.441 149.286,309.800 150.128 C 310.020 150.644,310.515 151.380,310.900 151.762 C 311.285 152.144,311.600 152.686,311.600 152.967 C 311.600 153.247,311.960 153.802,312.400 154.200 C 312.840 154.598,313.200 155.228,313.200 155.600 C 313.200 155.972,313.555 156.598,313.990 156.991 C 314.424 157.384,314.899 158.087,315.045 158.553 C 315.191 159.019,315.645 159.829,316.055 160.354 C 316.465 160.879,316.800 161.660,316.800 162.091 C 316.800 162.521,317.160 163.331,317.600 163.891 C 318.040 164.450,318.400 165.312,318.400 165.805 C 318.400 166.298,318.669 166.925,318.997 167.198 C 319.326 167.470,319.790 168.419,320.029 169.307 C 320.268 170.194,320.705 171.162,320.999 171.457 C 321.294 171.751,321.650 173.209,321.789 174.696 C 321.928 176.183,322.320 177.907,322.659 178.526 C 322.998 179.145,323.428 181.399,323.613 183.535 C 323.799 185.670,324.182 187.954,324.465 188.609 C 324.996 189.837,325.515 224.290,325.032 226.217 C 324.901 226.739,324.277 227.299,323.505 227.590 C 322.787 227.860,321.810 228.265,321.333 228.491 C 320.456 228.905,319.599 228.823,316.490 228.028 C 315.139 227.683,314.081 226.878,311.452 224.196 C 309.622 222.328,308.015 220.800,307.880 220.800 C 307.535 220.800,304.746 218.880,303.921 218.073 C 302.266 216.456,300.723 215.451,297.744 214.047 C 296.833 213.617,295.968 213.071,295.820 212.833 C 295.673 212.595,295.228 212.400,294.830 212.400 C 294.433 212.400,293.664 212.051,293.122 211.625 C 292.580 211.198,291.663 210.731,291.085 210.586 C 290.506 210.440,289.833 210.081,289.588 209.786 C 289.344 209.492,288.122 209.130,286.872 208.983 C 285.622 208.836,284.183 208.452,283.673 208.131 C 283.163 207.809,281.109 207.377,279.109 207.170 C 277.110 206.963,274.569 206.525,273.464 206.197 C 271.707 205.675,259.359 205.600,175.186 205.600 L 78.917 205.600 77.763 204.531 C 75.987 202.885,75.829 199.581,75.825 164.000 C 75.821 130.180,75.990 126.313,77.552 124.651 C 78.018 124.155,78.400 123.613,78.400 123.448 C 78.400 122.937,82.423 119.200,82.973 119.200 C 83.258 119.200,83.921 118.866,84.446 118.458 C 84.971 118.050,86.120 117.583,86.999 117.421 C 87.879 117.259,88.707 116.950,88.841 116.734 C 89.160 116.217,91.792 115.622,93.811 115.610 C 94.697 115.604,95.833 115.312,96.335 114.961 C 96.906 114.561,98.476 114.241,100.524 114.107 C 102.326 113.988,104.340 113.615,105.000 113.276 C 105.720 112.906,108.015 112.535,110.737 112.348 C 113.232 112.177,115.531 111.823,115.847 111.561 C 116.162 111.299,118.801 110.886,121.710 110.643 C 124.620 110.399,127.231 110.050,127.514 109.867 C 128.259 109.386,134.718 108.823,139.636 108.811 C 142.367 108.804,144.571 108.576,145.836 108.170 C 147.333 107.690,150.846 107.453,160.600 107.177 C 167.640 106.978,174.120 106.652,175.000 106.453 C 177.241 105.947,200.224 105.924,202.200 106.426 M94.800 137.591 C 93.930 138.141,93.673 186.430,94.535 187.146 C 94.943 187.484,102.110 187.579,121.644 187.503 L 148.200 187.400 148.303 163.131 L 148.406 138.863 147.349 138.031 C 146.183 137.114,96.218 136.696,94.800 137.591 M163.857 139.237 L 162.800 141.274 162.800 163.455 L 162.800 185.636 163.782 186.618 L 164.764 187.600 190.507 187.600 L 216.250 187.600 217.338 186.465 L 218.425 185.330 218.313 162.432 L 218.200 139.534 216.894 138.367 L 215.587 137.200 190.250 137.200 L 164.914 137.200 163.857 139.237 M233.887 138.225 L 232.781 139.250 232.891 162.857 C 232.996 185.698,233.025 186.483,233.776 187.032 C 234.580 187.620,302.264 187.934,303.767 187.357 C 304.756 186.978,304.071 182.216,302.923 181.489 C 302.653 181.318,302.311 180.508,302.163 179.689 C 302.015 178.870,301.558 177.878,301.147 177.484 C 300.736 177.091,300.400 176.399,300.400 175.948 C 300.400 175.496,300.040 174.669,299.600 174.109 C 299.160 173.550,298.800 172.784,298.800 172.408 C 298.800 172.032,298.456 171.413,298.036 171.033 C 297.616 170.652,297.155 169.874,297.011 169.302 C 296.868 168.731,296.402 167.820,295.975 167.278 C 295.549 166.736,295.200 166.074,295.200 165.808 C 295.200 165.542,294.840 164.998,294.400 164.600 C 293.960 164.202,293.600 163.700,293.600 163.484 C 293.600 163.268,293.195 162.683,292.700 162.184 C 291.436 160.908,290.805 160.101,290.266 159.068 C 289.689 157.962,289.315 157.532,285.687 153.798 C 284.085 152.149,282.628 150.800,282.449 150.800 C 282.270 150.800,281.798 150.440,281.400 150.000 C 281.002 149.560,280.508 149.200,280.302 149.200 C 280.096 149.200,278.999 148.413,277.864 147.450 C 276.729 146.488,275.411 145.581,274.936 145.435 C 274.461 145.289,273.854 144.906,273.587 144.585 C 273.320 144.263,272.788 144.000,272.405 144.000 C 272.022 144.000,271.279 143.667,270.754 143.261 C 270.229 142.855,269.318 142.404,268.728 142.260 C 268.138 142.117,267.401 141.744,267.090 141.433 C 266.779 141.122,265.642 140.743,264.562 140.591 C 263.483 140.438,262.178 140.048,261.663 139.723 C 261.147 139.398,259.008 138.970,256.910 138.772 C 254.812 138.573,251.776 138.138,250.164 137.805 C 244.857 136.709,235.254 136.957,233.887 138.225 M278.104 220.900 C 278.691 221.285,279.770 221.600,280.501 221.600 C 281.233 221.600,282.506 221.944,283.330 222.365 C 284.155 222.785,285.724 223.252,286.816 223.402 C 287.909 223.552,288.937 223.909,289.101 224.195 C 289.266 224.480,290.030 225.000,290.800 225.349 C 291.570 225.698,292.560 226.211,293.000 226.488 C 293.440 226.765,294.591 227.485,295.558 228.089 C 297.743 229.452,300.003 231.288,302.223 233.500 C 303.161 234.435,304.020 235.200,304.132 235.200 C 304.243 235.200,305.204 236.062,306.267 237.115 C 307.330 238.168,309.066 239.729,310.125 240.584 L 312.051 242.138 318.525 242.317 C 330.276 242.642,330.162 242.494,330.317 257.603 L 330.434 269.007 329.026 270.543 C 327.034 272.718,325.822 272.939,315.000 273.097 C 301.118 273.300,300.616 273.105,300.306 267.387 C 300.196 265.361,299.847 263.252,299.512 262.587 C 299.182 261.934,298.805 260.703,298.674 259.850 C 298.542 258.998,298.188 258.008,297.886 257.650 C 297.585 257.293,297.120 256.235,296.853 255.300 C 296.586 254.365,296.224 253.600,296.047 253.600 C 295.871 253.600,295.517 252.901,295.261 252.047 C 295.006 251.194,294.527 250.272,294.198 249.998 C 293.869 249.725,293.600 249.330,293.600 249.121 C 293.600 248.638,288.064 243.200,287.573 243.200 C 287.371 243.200,286.982 242.840,286.707 242.400 C 286.432 241.960,285.900 241.600,285.524 241.600 C 285.149 241.600,284.356 241.150,283.762 240.600 C 283.169 240.050,282.377 239.600,282.004 239.600 C 281.630 239.600,280.998 239.240,280.600 238.800 C 280.202 238.360,279.430 238.000,278.885 238.000 C 278.340 238.000,277.293 237.629,276.559 237.174 C 274.693 236.022,260.007 235.908,258.760 237.036 C 258.338 237.419,257.086 237.800,255.904 237.907 C 254.747 238.012,253.497 238.363,253.128 238.686 C 252.499 239.236,251.176 240.026,248.800 241.270 C 248.250 241.559,247.451 242.111,247.025 242.497 C 246.598 242.884,246.120 243.200,245.962 243.200 C 245.300 243.200,241.622 247.172,241.376 248.153 C 241.229 248.741,240.769 249.403,240.354 249.625 C 239.939 249.847,239.600 250.297,239.600 250.627 C 239.600 250.956,239.341 251.324,239.024 251.446 C 238.708 251.567,238.328 252.237,238.181 252.933 C 238.034 253.630,237.597 254.560,237.211 255.000 C 236.824 255.440,236.391 256.418,236.249 257.174 C 236.107 257.929,235.723 258.843,235.397 259.204 C 234.999 259.643,234.675 261.426,234.417 264.597 C 234.205 267.202,233.885 269.439,233.707 269.567 C 233.529 269.695,233.169 270.290,232.905 270.889 C 232.636 271.503,231.985 272.089,231.414 272.232 C 230.856 272.372,230.400 272.647,230.400 272.843 C 230.400 273.521,159.919 273.293,158.286 272.610 C 155.848 271.592,155.347 270.551,155.096 265.993 C 154.939 263.157,154.687 261.739,154.255 261.261 C 153.916 260.886,153.512 259.774,153.359 258.790 C 153.205 257.805,152.746 256.571,152.340 256.046 C 151.933 255.521,151.600 254.706,151.600 254.235 C 151.600 253.764,151.240 253.070,150.800 252.693 C 150.360 252.316,150.000 251.654,150.000 251.222 C 150.000 250.790,149.595 250.013,149.100 249.495 C 148.605 248.978,147.442 247.755,146.515 246.777 C 144.348 244.491,142.866 243.200,142.409 243.200 C 142.209 243.200,141.810 242.864,141.523 242.454 C 141.235 242.043,140.403 241.576,139.673 241.416 C 138.943 241.256,138.253 240.883,138.140 240.587 C 138.026 240.291,137.363 239.928,136.667 239.780 C 135.970 239.632,135.127 239.271,134.794 238.978 C 134.460 238.685,133.293 238.245,132.200 238.000 C 131.107 237.755,129.914 237.284,129.549 236.954 C 128.393 235.907,115.512 236.096,114.134 237.180 C 113.561 237.631,112.514 238.000,111.807 238.000 C 111.097 238.000,110.110 238.357,109.600 238.800 C 109.093 239.240,108.380 239.600,108.017 239.600 C 107.653 239.600,106.745 240.050,106.000 240.600 C 105.255 241.150,104.363 241.600,104.019 241.600 C 103.674 241.600,103.168 241.960,102.893 242.400 C 102.618 242.840,102.222 243.200,102.013 243.200 C 101.804 243.200,100.771 244.114,99.717 245.232 C 98.662 246.349,97.395 247.641,96.900 248.104 C 96.405 248.566,96.000 249.182,96.000 249.472 C 96.000 249.762,95.828 250.000,95.619 250.000 C 95.409 250.000,94.889 250.787,94.464 251.748 C 94.039 252.710,93.490 253.621,93.245 253.772 C 93.000 253.923,92.800 254.372,92.800 254.770 C 92.800 255.167,92.467 255.921,92.060 256.446 C 91.654 256.971,91.195 258.205,91.041 259.190 C 90.888 260.174,90.523 261.254,90.231 261.590 C 89.894 261.978,89.624 263.792,89.489 266.585 C 89.261 271.312,89.475 270.832,86.619 273.006 C 85.521 273.841,77.277 273.867,76.959 273.036 C 76.839 272.726,76.305 272.363,75.771 272.228 C 75.237 272.094,74.800 271.836,74.800 271.654 C 74.800 271.471,74.440 270.907,74.000 270.400 C 72.878 269.106,72.783 260.273,73.884 259.657 C 75.275 258.878,75.565 255.604,75.589 240.400 C 75.615 224.213,75.723 223.355,78.000 221.288 L 79.400 220.017 178.218 220.109 C 271.567 220.195,277.094 220.239,278.104 220.900 M128.696 250.000 C 129.516 250.440,130.658 250.800,131.232 250.800 C 131.806 250.800,132.602 251.160,133.000 251.600 C 133.398 252.040,133.965 252.400,134.259 252.400 C 134.553 252.400,135.018 252.760,135.293 253.200 C 135.568 253.640,136.018 254.000,136.293 254.000 C 136.568 254.000,137.018 254.360,137.293 254.800 C 137.568 255.240,137.943 255.600,138.127 255.600 C 138.566 255.600,140.800 257.840,140.800 258.280 C 140.800 258.468,141.160 258.930,141.600 259.307 C 142.040 259.684,142.400 260.242,142.400 260.547 C 142.400 260.852,142.669 261.325,142.997 261.598 C 143.326 261.870,143.781 262.837,144.009 263.747 C 144.237 264.656,144.707 265.910,145.053 266.533 C 146.114 268.438,145.969 277.909,144.851 279.717 C 144.383 280.475,144.000 281.454,144.000 281.893 C 144.000 282.333,143.685 283.123,143.300 283.651 C 142.915 284.178,142.420 284.897,142.200 285.248 C 141.080 287.039,140.112 288.297,139.161 289.200 C 137.523 290.755,134.883 292.800,134.512 292.800 C 134.328 292.800,133.870 293.160,133.493 293.600 C 133.116 294.040,132.369 294.400,131.832 294.400 C 131.296 294.400,130.550 294.707,130.175 295.082 C 128.393 296.864,116.528 296.856,113.979 295.070 C 113.453 294.702,112.546 294.400,111.965 294.400 C 111.384 294.400,110.450 294.040,109.891 293.600 C 109.331 293.160,108.691 292.800,108.467 292.800 C 107.978 292.800,104.000 288.926,104.000 288.450 C 104.000 288.267,103.550 287.631,103.000 287.038 C 102.450 286.444,102.000 285.651,102.000 285.276 C 102.000 284.900,101.665 284.383,101.256 284.128 C 100.847 283.873,100.395 283.076,100.252 282.358 C 100.108 281.640,99.678 280.707,99.295 280.284 C 98.103 278.966,98.269 266.602,99.500 265.036 C 99.995 264.407,100.400 263.494,100.400 263.008 C 100.400 262.522,100.760 261.798,101.200 261.400 C 101.640 261.002,102.003 260.479,102.007 260.238 C 102.031 258.793,106.524 254.000,107.855 254.000 C 108.155 254.000,108.400 253.816,108.400 253.591 C 108.400 253.367,108.895 252.969,109.500 252.707 C 110.105 252.446,111.029 251.910,111.554 251.516 C 112.079 251.122,112.891 250.800,113.360 250.800 C 113.829 250.800,114.840 250.450,115.606 250.023 C 117.697 248.857,126.534 248.842,128.696 250.000 M273.496 250.000 C 274.316 250.440,275.372 250.800,275.840 250.800 C 276.309 250.800,277.150 251.160,277.709 251.600 C 278.269 252.040,278.878 252.402,279.063 252.405 C 279.248 252.408,280.167 253.123,281.105 253.994 C 282.043 254.865,283.168 255.769,283.605 256.003 C 284.042 256.237,284.400 256.692,284.400 257.014 C 284.400 257.336,284.658 257.600,284.973 257.600 C 285.288 257.600,285.653 257.936,285.783 258.347 C 285.914 258.758,286.376 259.416,286.810 259.809 C 287.245 260.202,287.600 260.832,287.600 261.208 C 287.600 261.584,287.943 262.329,288.363 262.862 C 288.782 263.395,289.257 264.706,289.417 265.775 C 289.577 266.843,289.953 268.186,290.252 268.759 C 290.972 270.139,290.972 275.861,290.252 277.241 C 289.953 277.814,289.585 279.104,289.435 280.108 C 289.284 281.113,288.909 282.144,288.601 282.399 C 288.293 282.655,287.843 283.464,287.601 284.197 C 287.359 284.930,286.900 285.630,286.581 285.752 C 286.261 285.875,286.000 286.206,286.000 286.487 C 285.999 286.769,285.453 287.540,284.785 288.200 C 284.117 288.860,283.185 289.805,282.713 290.300 C 282.242 290.795,281.618 291.200,281.328 291.200 C 281.038 291.200,280.800 291.458,280.800 291.773 C 280.800 292.088,280.422 292.466,279.961 292.613 C 279.499 292.759,278.779 293.221,278.361 293.639 C 277.942 294.058,277.209 294.400,276.731 294.400 C 276.254 294.400,275.527 294.705,275.115 295.077 C 273.135 296.869,261.352 296.873,258.796 295.082 C 258.260 294.707,257.346 294.400,256.765 294.400 C 256.184 294.400,255.250 294.040,254.691 293.600 C 254.131 293.160,253.511 292.800,253.312 292.800 C 252.040 292.800,245.600 284.749,245.600 283.160 C 245.600 282.840,245.240 282.270,244.800 281.893 C 244.333 281.493,244.000 280.713,244.000 280.018 C 244.000 279.363,243.708 277.967,243.350 276.914 C 242.529 274.496,242.535 270.646,243.363 268.713 C 243.713 267.895,244.015 266.725,244.033 266.113 C 244.050 265.501,244.676 263.920,245.422 262.600 C 246.168 261.280,247.046 259.637,247.374 258.949 C 247.702 258.260,248.247 257.591,248.585 257.461 C 248.923 257.331,249.200 256.949,249.200 256.613 C 249.200 256.276,249.354 256.000,249.542 256.000 C 249.729 256.000,250.355 255.595,250.931 255.100 C 253.060 253.272,254.341 252.400,254.901 252.400 C 255.217 252.400,255.802 252.040,256.200 251.600 C 256.598 251.160,257.394 250.800,257.968 250.800 C 258.543 250.800,259.640 250.450,260.406 250.023 C 262.497 248.857,271.334 248.842,273.496 250.000 M119.149 263.607 C 114.580 264.379,110.382 271.538,112.347 275.206 C 112.757 275.973,113.214 277.140,113.362 277.800 C 113.639 279.036,115.069 280.485,117.718 282.211 C 119.523 283.387,125.104 283.680,125.964 282.643 C 126.219 282.337,126.993 281.852,127.684 281.565 C 129.071 280.991,131.200 278.954,131.200 278.203 C 131.200 277.939,131.560 277.398,132.000 277.000 C 133.025 276.072,133.190 270.421,132.215 269.613 C 131.894 269.346,131.510 268.746,131.362 268.279 C 131.053 267.305,129.062 265.200,128.451 265.200 C 128.225 265.200,127.872 264.900,127.667 264.534 C 127.070 263.467,122.756 262.997,119.149 263.607 M264.138 263.560 C 262.397 263.811,258.400 266.794,258.400 267.841 C 258.400 268.127,258.102 268.527,257.737 268.731 C 256.788 269.263,256.509 274.982,257.363 276.400 C 257.695 276.950,258.134 277.765,258.339 278.211 C 258.855 279.331,261.022 281.600,261.577 281.600 C 261.827 281.600,262.546 281.980,263.174 282.444 C 264.435 283.376,270.529 283.462,271.117 282.556 C 271.273 282.316,271.840 281.888,272.377 281.604 C 274.273 280.605,276.317 278.367,276.571 277.012 C 276.709 276.280,277.086 275.460,277.411 275.191 C 278.243 274.501,278.142 272.262,277.200 270.504 C 276.760 269.684,276.400 268.800,276.400 268.540 C 276.400 268.132,275.066 266.678,272.755 264.565 C 272.400 264.241,271.050 263.802,269.755 263.590 C 267.261 263.182,266.775 263.179,264.138 263.560 " stroke="none" fill="#040404" fill-rule="evenodd"></path><path id="path2" d="M167.200 107.641 C 162.250 107.816,156.220 108.156,153.800 108.397 C 151.380 108.638,145.877 109.091,141.571 109.403 C 137.265 109.715,133.485 110.064,133.171 110.178 C 132.857 110.292,129.900 110.656,126.600 110.987 C 123.300 111.318,119.970 111.763,119.200 111.977 C 118.430 112.191,115.925 112.554,113.634 112.785 C 111.342 113.016,108.744 113.400,107.860 113.638 C 106.976 113.876,104.801 114.306,103.027 114.594 C 87.189 117.167,81.356 119.787,78.087 125.800 L 77.000 127.800 76.883 163.800 C 76.757 202.479,76.734 201.785,78.242 203.577 L 79.253 204.778 176.926 204.923 C 243.862 205.022,275.166 205.201,276.400 205.492 C 277.390 205.725,279.730 206.272,281.600 206.708 C 288.401 208.292,290.127 208.902,295.118 211.487 C 300.742 214.400,301.946 215.158,304.000 217.082 C 304.770 217.803,305.512 218.395,305.649 218.397 C 306.045 218.402,310.366 222.044,313.114 224.687 C 315.787 227.259,316.625 227.600,320.269 227.600 C 322.101 227.600,322.591 227.435,323.419 226.542 L 324.400 225.483 324.400 211.007 C 324.400 200.200,324.248 195.525,323.802 192.565 C 323.474 190.384,323.204 187.694,323.202 186.587 C 323.201 185.480,322.928 183.590,322.597 182.387 C 322.265 181.184,321.726 178.886,321.399 177.279 C 320.444 172.582,316.336 162.173,314.116 158.830 C 313.741 158.263,312.285 155.914,310.883 153.608 C 309.480 151.303,307.673 148.686,306.866 147.794 C 306.060 146.902,304.770 145.396,304.000 144.447 C 299.573 138.995,291.407 131.844,285.600 128.334 C 283.730 127.204,281.295 125.693,280.189 124.977 C 277.182 123.030,264.343 116.878,261.066 115.813 C 254.722 113.751,243.975 111.339,239.561 110.986 C 237.889 110.852,235.819 110.575,234.961 110.368 C 225.042 107.987,193.422 106.715,167.200 107.641 M214.981 108.751 C 216.070 109.001,220.069 109.375,223.867 109.581 C 227.665 109.788,231.136 110.152,231.582 110.390 C 232.027 110.628,234.868 111.074,237.896 111.379 C 240.923 111.685,243.878 112.119,244.463 112.344 C 245.047 112.568,246.667 112.877,248.063 113.029 C 249.458 113.182,251.052 113.535,251.605 113.815 C 252.158 114.094,253.508 114.451,254.605 114.608 C 255.702 114.766,257.410 115.218,258.400 115.614 C 259.390 116.010,260.740 116.449,261.400 116.590 C 262.589 116.845,265.644 118.111,266.800 118.829 C 267.130 119.034,267.850 119.393,268.400 119.627 C 270.095 120.347,277.310 124.019,279.000 125.021 C 279.880 125.543,281.230 126.342,282.000 126.796 C 282.770 127.251,283.940 127.972,284.600 128.400 C 285.260 128.828,286.430 129.531,287.200 129.963 C 290.660 131.904,300.446 140.720,303.200 144.378 C 303.750 145.109,305.164 146.806,306.341 148.150 C 307.519 149.494,308.869 151.293,309.341 152.149 C 310.311 153.907,310.757 154.642,312.399 157.200 C 313.466 158.863,315.335 162.516,316.593 165.400 C 316.881 166.060,317.676 167.804,318.358 169.275 C 319.041 170.746,319.601 172.366,319.602 172.875 C 319.604 173.384,319.860 174.289,320.172 174.887 C 320.484 175.485,320.862 177.015,321.011 178.287 C 321.161 179.559,321.546 181.140,321.868 181.800 C 322.236 182.554,322.591 185.266,322.825 189.101 C 323.029 192.457,323.373 195.967,323.588 196.901 C 324.274 199.873,324.111 224.054,323.396 225.488 C 322.437 227.410,316.959 227.723,315.353 225.948 C 314.980 225.536,314.506 225.200,314.298 225.200 C 313.902 225.200,311.754 223.041,311.530 222.418 C 311.398 222.050,303.845 215.895,302.181 214.800 C 300.246 213.525,296.961 211.700,296.136 211.441 C 295.661 211.291,295.054 210.906,294.787 210.585 C 294.520 210.263,293.988 210.000,293.605 210.000 C 293.222 210.000,292.479 209.663,291.954 209.252 C 291.429 208.841,290.190 208.314,289.200 208.082 C 288.210 207.850,286.680 207.384,285.800 207.047 C 284.920 206.711,283.570 206.426,282.800 206.415 C 282.030 206.404,280.860 206.108,280.200 205.757 C 277.946 204.557,268.562 204.439,173.986 204.420 L 79.771 204.400 78.477 202.717 L 77.184 201.033 77.292 164.817 L 77.400 128.600 78.357 126.600 C 80.966 121.148,86.216 118.250,96.546 116.559 C 98.497 116.240,100.436 115.795,100.855 115.570 C 101.275 115.346,103.184 114.984,105.097 114.767 C 107.010 114.549,109.480 114.123,110.587 113.820 C 111.694 113.516,114.260 113.157,116.288 113.021 C 118.316 112.884,120.691 112.521,121.566 112.212 C 122.441 111.903,125.372 111.531,128.078 111.385 C 130.785 111.239,134.260 110.871,135.800 110.568 C 137.340 110.265,142.290 109.832,146.800 109.606 C 151.310 109.380,156.350 109.014,158.000 108.794 C 162.887 108.142,164.346 108.114,189.200 108.207 C 205.261 108.267,213.644 108.443,214.981 108.751 M92.800 137.200 C 91.564 138.436,91.543 186.343,92.778 187.578 C 94.010 188.810,94.799 188.840,122.335 188.717 L 148.470 188.600 149.435 187.478 L 150.400 186.355 150.400 162.667 C 150.400 140.624,150.351 138.932,149.700 138.317 C 149.315 137.954,148.768 137.374,148.484 137.028 C 147.578 135.925,93.910 136.090,92.800 137.200 M163.692 136.668 C 162.049 137.328,162.000 138.099,162.000 163.104 C 162.000 183.148,162.092 187.174,162.568 187.824 C 163.339 188.879,214.904 189.269,217.372 188.237 C 219.314 187.426,219.240 188.546,219.114 161.668 C 219.004 138.310,218.975 137.517,218.224 136.968 C 217.454 136.405,165.060 136.117,163.692 136.668 M232.593 137.208 C 231.824 138.057,231.796 138.803,231.679 161.542 C 231.546 187.288,231.543 187.247,233.835 188.700 L 235.255 189.600 269.379 189.600 C 299.223 189.600,303.564 189.525,304.000 189.000 C 304.274 188.670,304.740 188.400,305.035 188.400 C 306.437 188.400,306.708 184.703,305.417 183.200 C 305.133 182.870,304.685 181.928,304.421 181.106 C 304.158 180.284,303.775 179.508,303.571 179.382 C 303.367 179.256,303.200 178.854,303.200 178.488 C 303.200 177.845,299.694 170.660,297.790 167.400 C 297.276 166.520,296.552 165.260,296.183 164.600 C 295.813 163.940,294.810 162.558,293.955 161.528 C 293.100 160.499,292.400 159.524,292.400 159.362 C 292.400 158.830,282.454 148.400,281.947 148.400 C 281.783 148.400,280.243 147.352,278.525 146.071 C 275.720 143.980,267.611 139.600,266.544 139.600 C 266.312 139.600,265.582 139.330,264.921 139.001 C 264.260 138.671,262.838 138.286,261.760 138.144 C 260.682 138.003,259.260 137.600,258.600 137.248 C 256.410 136.080,233.645 136.045,232.593 137.208 M147.809 137.106 C 149.646 138.425,149.625 138.115,149.509 163.186 C 149.407 185.208,149.353 186.819,148.686 187.486 C 147.750 188.422,97.332 188.819,94.582 187.911 C 92.412 187.195,92.484 188.056,92.440 162.526 C 92.400 139.889,92.501 137.892,93.725 137.114 C 94.338 136.725,147.267 136.717,147.809 137.106 M217.656 137.564 L 218.600 138.329 218.709 161.914 C 218.829 187.721,218.862 187.323,216.519 187.974 C 214.520 188.529,166.352 188.560,164.425 188.007 C 162.353 187.413,162.413 188.144,162.406 163.274 C 162.400 139.513,162.417 139.215,163.913 137.500 C 164.904 136.364,216.249 136.426,217.656 137.564 M258.000 137.792 C 265.366 139.520,273.445 142.915,277.337 145.917 C 278.109 146.513,279.789 147.753,281.070 148.673 C 288.713 154.160,298.817 168.261,303.087 179.400 C 303.340 180.060,304.008 181.680,304.572 183.000 C 306.005 186.358,305.935 187.292,304.186 188.126 C 302.129 189.107,236.056 189.166,234.096 188.188 C 232.025 187.155,231.999 186.833,232.017 163.240 C 232.035 140.853,232.180 138.255,233.460 137.289 C 234.600 136.430,253.876 136.824,258.000 137.792 M79.078 221.631 C 78.045 222.316,77.165 222.903,77.121 222.938 C 77.078 222.972,76.943 230.560,76.821 239.800 L 76.600 256.600 75.233 259.324 C 71.498 266.769,74.169 272.396,81.440 272.399 C 87.834 272.401,88.793 271.505,88.809 265.513 C 88.815 263.186,89.033 261.724,89.542 260.600 C 89.941 259.720,90.393 258.496,90.546 257.881 C 90.803 256.848,92.196 253.844,93.718 251.040 C 96.493 245.926,105.832 238.477,110.816 237.402 C 111.577 237.238,112.679 236.859,113.265 236.560 C 114.108 236.129,120.256 235.134,122.200 235.114 C 128.022 235.052,138.011 238.624,143.077 242.578 C 144.220 243.470,145.616 244.524,146.180 244.921 C 148.325 246.428,153.141 254.201,153.806 257.227 C 153.958 257.918,154.403 259.230,154.794 260.142 C 155.186 261.054,155.625 263.188,155.769 264.884 C 156.056 268.274,156.590 270.226,157.524 271.306 C 158.101 271.973,160.175 272.006,194.653 271.906 C 236.614 271.784,232.253 272.304,232.835 267.354 C 233.630 260.598,237.107 251.330,239.795 248.805 C 240.348 248.285,240.800 247.643,240.800 247.376 C 240.800 246.281,249.368 239.200,250.692 239.200 C 250.918 239.200,251.325 238.931,251.598 238.602 C 251.872 238.273,252.839 237.802,253.747 237.555 C 254.656 237.309,256.063 236.864,256.874 236.567 C 260.843 235.114,272.943 234.920,276.582 236.253 C 277.472 236.579,278.679 236.998,279.265 237.185 C 289.969 240.595,300.010 254.248,300.965 266.689 C 301.393 272.275,300.700 272.000,314.359 272.000 C 326.399 272.000,327.011 271.893,328.664 269.507 L 329.800 267.867 329.800 258.034 C 329.800 244.031,329.866 244.129,320.000 243.570 C 311.077 243.065,311.241 243.142,303.574 235.810 C 300.215 232.597,295.625 228.800,295.101 228.800 C 294.914 228.800,293.798 228.184,292.621 227.431 C 289.701 225.563,286.521 224.113,284.600 223.775 C 283.720 223.620,282.546 223.264,281.991 222.983 C 281.436 222.703,278.916 222.057,276.391 221.549 L 271.800 220.624 176.378 220.506 L 80.957 220.387 79.078 221.631 M271.600 221.600 C 273.832 222.040,276.411 222.404,277.329 222.409 C 278.248 222.414,279.720 222.744,280.600 223.143 C 281.480 223.542,282.945 223.987,283.855 224.132 C 285.523 224.397,288.553 225.668,290.400 226.876 C 290.950 227.236,292.308 228.041,293.417 228.665 C 297.737 231.096,299.715 232.701,306.430 239.228 C 309.322 242.038,310.303 242.743,311.879 243.144 C 312.935 243.412,314.430 243.801,315.200 244.007 C 315.970 244.212,318.423 244.385,320.650 244.390 C 326.483 244.404,326.984 244.559,328.293 246.749 L 329.400 248.600 329.400 258.000 C 329.400 271.864,329.925 271.349,315.600 271.526 C 301.370 271.701,301.693 271.843,301.297 265.225 C 301.174 263.167,300.816 261.241,300.400 260.400 C 300.020 259.630,299.579 258.290,299.421 257.421 C 299.263 256.553,298.789 255.404,298.367 254.867 C 297.945 254.331,297.600 253.567,297.600 253.170 C 297.600 252.772,297.402 252.325,297.159 252.175 C 296.917 252.025,296.457 251.276,296.137 250.510 C 295.139 248.123,291.895 244.722,286.800 240.722 C 284.949 239.269,283.636 238.491,281.200 237.404 C 280.430 237.061,279.479 236.599,279.088 236.379 C 276.705 235.038,266.550 233.884,264.400 234.711 C 263.850 234.922,261.960 235.225,260.200 235.384 C 258.440 235.543,256.460 235.912,255.800 236.202 C 255.140 236.493,253.939 236.936,253.132 237.186 C 252.325 237.436,251.448 237.902,251.183 238.220 C 250.918 238.539,250.518 238.800,250.292 238.800 C 248.134 238.800,237.200 249.461,237.200 251.566 C 237.200 251.971,236.939 252.518,236.620 252.783 C 236.302 253.048,235.824 253.925,235.560 254.732 C 235.295 255.539,234.856 256.560,234.584 257.000 C 234.312 257.440,233.963 258.520,233.809 259.400 C 233.655 260.280,233.328 261.243,233.082 261.539 C 232.837 261.836,232.529 263.864,232.397 266.046 C 232.034 272.066,236.762 271.400,194.419 271.400 C 174.425 271.400,157.960 271.294,157.830 271.163 C 157.700 271.033,157.221 268.963,156.766 266.563 C 154.365 253.911,151.128 247.956,143.470 242.100 C 142.247 241.165,141.130 240.400,140.986 240.400 C 140.843 240.400,140.269 240.040,139.709 239.600 C 139.150 239.160,138.378 238.800,137.995 238.800 C 137.612 238.800,137.083 238.542,136.821 238.226 C 136.559 237.910,135.772 237.528,135.072 237.377 C 134.373 237.226,133.170 236.786,132.400 236.399 C 131.630 236.011,129.920 235.569,128.600 235.415 C 127.280 235.262,125.308 234.908,124.219 234.629 C 122.911 234.294,121.755 234.239,120.819 234.469 C 120.038 234.660,117.820 235.065,115.889 235.368 C 113.958 235.672,112.158 236.101,111.889 236.321 C 111.620 236.541,110.590 236.936,109.600 237.198 C 108.610 237.460,107.530 237.893,107.200 238.160 C 106.870 238.427,106.150 238.869,105.600 239.143 C 102.804 240.535,101.874 241.195,99.538 243.441 C 95.024 247.782,90.400 254.407,90.400 256.532 C 90.400 256.806,90.030 257.744,89.578 258.615 C 88.988 259.751,88.656 261.468,88.406 264.673 C 87.876 271.474,87.771 271.588,82.000 271.588 C 75.759 271.589,75.798 271.614,74.779 267.062 C 74.182 264.394,74.663 261.620,76.144 259.200 C 76.975 257.841,77.006 257.293,77.200 240.643 C 77.390 224.345,77.438 223.464,78.158 223.043 C 78.574 222.799,79.384 222.201,79.958 221.713 L 81.000 220.825 174.271 220.813 C 265.948 220.800,267.611 220.814,271.600 221.600 M120.200 250.019 C 118.880 250.193,117.293 250.531,116.674 250.768 C 116.055 251.006,115.197 251.200,114.768 251.200 C 114.339 251.200,112.984 251.785,111.758 252.500 C 110.531 253.215,108.959 254.132,108.264 254.538 C 105.841 255.953,103.835 258.407,101.674 262.600 C 98.114 269.507,98.207 277.543,101.917 283.586 C 106.357 290.818,107.799 292.053,114.400 294.272 C 119.306 295.922,126.812 296.232,128.554 294.856 C 128.799 294.663,129.698 294.279,130.551 294.004 C 138.163 291.551,144.989 281.579,144.930 273.000 C 144.865 263.496,137.583 253.139,129.622 251.228 C 128.840 251.040,127.127 250.597,125.816 250.243 C 124.505 249.889,123.245 249.623,123.016 249.651 C 122.787 249.679,121.520 249.844,120.200 250.019 M265.000 250.040 C 263.680 250.203,262.093 250.531,261.474 250.768 C 260.855 251.006,259.998 251.200,259.571 251.200 C 254.388 251.200,245.612 261.073,244.349 268.324 C 239.647 295.323,275.086 306.559,287.682 282.063 C 293.080 271.564,285.728 253.793,274.993 251.395 C 274.337 251.249,272.990 250.891,272.000 250.601 C 269.407 249.839,267.720 249.704,265.000 250.040 M127.943 251.380 C 129.561 251.737,131.149 252.292,131.471 252.614 C 131.794 252.936,132.298 253.200,132.592 253.200 C 133.217 253.200,137.343 256.485,138.798 258.140 C 139.349 258.768,140.097 259.605,140.461 260.001 C 140.824 260.397,141.248 261.144,141.402 261.661 C 141.557 262.177,141.953 263.027,142.283 263.549 C 144.544 267.126,144.705 278.987,142.529 281.654 C 142.284 281.954,141.797 282.892,141.447 283.737 C 140.690 285.564,135.577 290.768,133.363 291.964 C 132.503 292.428,131.530 292.960,131.200 293.146 C 127.992 294.953,119.968 295.841,117.587 294.653 C 116.925 294.323,115.401 293.849,114.199 293.600 C 112.997 293.350,111.918 292.991,111.801 292.802 C 111.685 292.613,110.941 292.245,110.149 291.983 C 108.592 291.469,106.047 289.078,104.561 286.734 C 104.050 285.927,103.445 285.151,103.216 285.010 C 102.987 284.869,102.800 284.477,102.800 284.139 C 102.800 283.802,102.440 283.069,102.000 282.509 C 101.560 281.950,101.194 281.201,101.186 280.846 C 101.179 280.491,100.825 279.480,100.400 278.600 C 99.410 276.551,99.273 269.636,100.188 267.883 C 100.508 267.269,100.887 266.142,101.030 265.380 C 101.173 264.617,101.605 263.590,101.990 263.097 C 102.375 262.603,102.822 261.777,102.984 261.261 C 103.474 259.700,108.108 254.800,109.095 254.800 C 109.386 254.800,109.722 254.546,109.841 254.236 C 109.961 253.926,110.540 253.552,111.129 253.405 C 111.718 253.258,112.509 252.859,112.887 252.519 C 114.758 250.832,122.725 250.230,127.943 251.380 M272.400 251.329 C 275.178 251.968,278.112 253.312,279.283 254.483 C 279.677 254.877,280.141 255.200,280.313 255.200 C 280.770 255.200,284.800 259.116,284.800 259.560 C 284.800 259.768,285.223 260.447,285.739 261.069 C 286.256 261.691,286.810 262.740,286.970 263.400 C 287.131 264.060,287.563 264.934,287.931 265.342 C 289.266 266.822,288.890 278.414,287.411 281.400 C 285.786 284.680,284.237 286.921,282.515 288.484 C 281.718 289.208,280.670 290.160,280.187 290.600 C 279.183 291.513,276.024 293.118,272.792 294.355 C 270.074 295.395,264.066 295.543,262.283 294.612 C 261.669 294.292,260.499 293.910,259.683 293.763 C 256.333 293.160,250.000 289.161,250.000 287.649 C 250.000 287.456,249.720 287.065,249.377 286.781 C 249.034 286.496,248.491 285.709,248.170 285.032 C 247.849 284.354,247.337 283.350,247.032 282.800 C 244.969 279.071,244.775 278.212,244.772 272.783 C 244.770 268.359,244.893 267.266,245.534 266.036 C 245.955 265.229,246.426 263.990,246.582 263.284 C 246.737 262.578,247.027 262.000,247.226 262.000 C 247.426 262.000,247.834 261.415,248.133 260.700 C 248.432 259.985,248.974 259.153,249.338 258.851 C 249.702 258.549,250.000 258.050,250.000 257.742 C 250.000 257.435,250.450 256.978,251.000 256.727 C 251.550 256.477,252.000 256.123,252.000 255.941 C 252.000 255.759,252.585 255.329,253.300 254.984 C 255.220 254.058,257.109 252.974,257.800 252.400 C 259.656 250.860,267.771 250.264,272.400 251.329 M120.400 261.435 C 117.716 262.416,116.314 263.194,114.500 264.708 C 113.345 265.673,112.400 266.645,112.400 266.868 C 112.400 267.091,112.040 267.731,111.600 268.291 C 108.618 272.082,112.753 282.823,117.586 283.842 C 118.144 283.959,119.326 284.313,120.213 284.628 C 122.245 285.348,122.831 285.345,124.254 284.602 C 124.884 284.274,125.770 284.004,126.222 284.002 C 127.309 283.999,129.365 282.455,131.682 279.903 C 136.307 274.808,133.657 264.596,127.194 262.608 C 126.647 262.440,125.987 262.132,125.728 261.925 C 125.169 261.479,121.263 261.120,120.400 261.435 M265.200 261.439 C 257.387 264.350,254.641 268.377,255.806 275.216 C 256.463 279.076,260.537 283.994,263.084 284.002 C 263.478 284.004,264.316 284.274,264.946 284.602 C 266.222 285.268,268.231 285.397,268.578 284.835 C 268.703 284.634,269.530 284.347,270.417 284.197 C 277.023 283.081,281.307 273.355,277.607 267.872 C 274.391 263.107,268.677 260.144,265.200 261.439 M125.753 262.784 C 134.027 265.630,136.293 274.670,130.224 280.621 C 125.343 285.406,118.795 285.414,114.268 280.641 C 106.394 272.337,114.933 259.061,125.753 262.784 M270.174 262.610 C 278.461 265.019,281.206 275.200,275.082 280.819 C 270.401 285.115,264.323 285.264,259.869 281.193 C 251.106 273.184,258.803 259.304,270.174 262.610 " stroke="none" fill="#848484" fill-rule="evenodd"></path><path id="path3" d="M175.000 106.453 C 174.120 106.652,167.640 106.978,160.600 107.177 C 150.846 107.453,147.333 107.690,145.836 108.170 C 144.571 108.576,142.367 108.804,139.636 108.811 C 134.718 108.823,128.259 109.386,127.514 109.867 C 127.231 110.050,124.620 110.399,121.710 110.643 C 118.801 110.886,116.162 111.299,115.847 111.561 C 115.531 111.823,113.232 112.177,110.737 112.348 C 108.015 112.535,105.720 112.906,105.000 113.276 C 104.340 113.615,102.326 113.988,100.524 114.107 C 98.476 114.241,96.906 114.561,96.335 114.961 C 95.833 115.312,94.697 115.604,93.811 115.610 C 91.792 115.622,89.160 116.217,88.841 116.734 C 88.707 116.950,87.879 117.259,86.999 117.421 C 86.120 117.583,84.971 118.050,84.446 118.458 C 83.921 118.866,83.258 119.200,82.973 119.200 C 82.423 119.200,78.400 122.937,78.400 123.448 C 78.400 123.613,78.018 124.155,77.552 124.651 C 75.990 126.313,75.821 130.180,75.825 164.000 C 75.829 199.581,75.987 202.885,77.763 204.531 L 78.917 205.600 175.186 205.600 C 259.359 205.600,271.707 205.675,273.464 206.197 C 274.569 206.525,277.110 206.963,279.109 207.170 C 281.109 207.377,283.163 207.809,283.673 208.131 C 284.183 208.452,285.622 208.836,286.872 208.983 C 288.122 209.130,289.344 209.492,289.588 209.786 C 289.833 210.081,290.506 210.440,291.085 210.586 C 291.663 210.731,292.580 211.198,293.122 211.625 C 293.664 212.051,294.433 212.400,294.830 212.400 C 295.228 212.400,295.673 212.595,295.820 212.833 C 295.968 213.071,296.833 213.617,297.744 214.047 C 300.723 215.451,302.266 216.456,303.921 218.073 C 304.746 218.880,307.535 220.800,307.880 220.800 C 308.015 220.800,309.622 222.328,311.452 224.196 C 314.081 226.878,315.139 227.683,316.490 228.028 C 319.599 228.823,320.456 228.905,321.333 228.491 C 321.810 228.265,322.787 227.860,323.505 227.590 C 324.277 227.299,324.901 226.739,325.032 226.217 C 325.515 224.290,324.996 189.837,324.465 188.609 C 324.182 187.954,323.799 185.670,323.613 183.535 C 323.428 181.399,322.998 179.145,322.659 178.526 C 322.320 177.907,321.928 176.183,321.789 174.696 C 321.650 173.209,321.294 171.751,320.999 171.457 C 320.705 171.162,320.268 170.194,320.029 169.307 C 319.790 168.419,319.326 167.470,318.997 167.198 C 318.669 166.925,318.400 166.298,318.400 165.805 C 318.400 165.312,318.040 164.450,317.600 163.891 C 317.160 163.331,316.800 162.521,316.800 162.091 C 316.800 161.660,316.465 160.879,316.055 160.354 C 315.645 159.829,315.191 159.019,315.045 158.553 C 314.899 158.087,314.424 157.384,313.990 156.991 C 313.555 156.598,313.200 155.972,313.200 155.600 C 313.200 155.228,312.840 154.598,312.400 154.200 C 311.960 153.802,311.600 153.247,311.600 152.967 C 311.600 152.686,311.285 152.144,310.900 151.762 C 310.515 151.380,310.020 150.644,309.800 150.128 C 309.441 149.286,307.655 147.209,303.100 142.339 C 302.275 141.456,301.600 140.592,301.600 140.418 C 301.600 140.120,298.426 137.179,296.185 135.400 C 295.630 134.960,293.967 133.468,292.488 132.084 C 291.010 130.701,289.395 129.466,288.900 129.341 C 288.405 129.216,288.000 128.944,288.000 128.736 C 288.000 128.529,287.415 128.086,286.700 127.752 C 285.489 127.186,283.870 126.254,281.561 124.791 C 279.597 123.547,278.976 123.182,278.000 122.702 C 277.450 122.431,276.762 121.983,276.472 121.705 C 276.182 121.428,275.462 121.083,274.872 120.940 C 274.282 120.796,273.371 120.345,272.846 119.939 C 272.321 119.533,271.581 119.200,271.200 119.200 C 270.819 119.200,270.050 118.840,269.491 118.400 C 268.931 117.960,268.287 117.600,268.058 117.600 C 267.829 117.600,266.796 117.150,265.762 116.600 C 264.727 116.050,263.517 115.600,263.072 115.600 C 262.627 115.600,261.966 115.331,261.602 115.002 C 261.239 114.673,260.055 114.292,258.971 114.154 C 257.887 114.017,256.566 113.633,256.036 113.301 C 255.505 112.969,253.761 112.550,252.158 112.371 C 250.556 112.191,248.730 111.777,248.100 111.452 C 247.461 111.121,245.197 110.744,242.978 110.598 C 240.790 110.454,238.291 110.069,237.425 109.742 C 236.559 109.414,233.949 109.053,231.625 108.940 C 229.301 108.826,226.691 108.466,225.825 108.139 C 224.698 107.715,221.339 107.445,214.025 107.189 C 208.401 106.993,203.080 106.649,202.200 106.426 C 200.224 105.924,177.241 105.947,175.000 106.453 M210.400 107.594 C 214.690 107.803,219.460 108.149,221.000 108.363 C 222.540 108.577,225.915 108.946,228.499 109.182 C 231.084 109.418,234.324 109.862,235.699 110.168 C 237.075 110.474,239.726 110.847,241.590 110.997 C 243.455 111.148,245.705 111.509,246.590 111.800 C 247.476 112.090,249.010 112.446,250.000 112.590 C 258.275 113.791,271.579 119.373,282.800 126.352 C 285.330 127.925,287.670 129.330,288.000 129.474 C 289.307 130.045,297.834 137.384,300.461 140.200 C 304.032 144.026,309.289 150.205,309.652 151.000 C 309.852 151.440,310.550 152.610,311.202 153.600 C 311.854 154.590,312.507 155.670,312.653 156.000 C 312.799 156.330,313.297 157.140,313.759 157.800 C 314.573 158.962,315.757 161.291,317.214 164.600 C 317.601 165.480,318.371 167.190,318.923 168.400 C 320.215 171.229,321.048 173.949,321.615 177.190 C 321.864 178.614,322.246 180.112,322.463 180.519 C 322.681 180.925,323.112 183.630,323.421 186.529 C 323.730 189.428,324.160 193.060,324.378 194.600 C 325.064 199.457,324.916 224.615,324.193 226.014 C 323.533 227.291,322.329 227.771,319.800 227.767 C 316.260 227.761,315.311 227.308,312.118 224.105 C 310.445 222.426,308.159 220.434,307.038 219.676 C 305.917 218.919,304.370 217.724,303.600 217.021 C 301.998 215.558,300.851 214.813,297.433 213.012 C 289.351 208.755,289.858 208.942,279.800 206.515 L 275.400 205.453 177.335 205.320 L 79.271 205.186 78.078 203.828 C 76.419 201.938,76.308 198.910,76.468 160.000 L 76.600 128.200 77.681 126.000 C 80.692 119.871,85.143 117.694,100.600 114.787 C 101.920 114.539,104.620 113.999,106.600 113.589 C 108.580 113.178,111.550 112.728,113.200 112.589 C 114.850 112.450,117.280 112.092,118.600 111.793 C 119.920 111.494,122.350 111.133,124.000 110.991 C 125.650 110.849,128.620 110.485,130.600 110.182 C 132.581 109.879,137.411 109.439,141.334 109.204 C 145.257 108.969,149.331 108.592,150.388 108.365 C 154.886 107.400,195.655 106.876,210.400 107.594 M93.773 137.791 L 92.782 138.782 92.891 162.823 C 92.996 186.093,93.025 186.883,93.776 187.432 C 94.429 187.909,98.828 188.000,121.254 188.000 L 147.955 188.000 148.577 187.111 C 149.486 185.814,149.522 140.184,148.616 138.431 C 147.761 136.778,148.347 136.811,120.482 136.805 L 94.764 136.800 93.773 137.791 M164.009 137.683 C 163.556 138.168,163.004 139.244,162.780 140.073 C 162.135 142.469,162.453 186.613,163.120 187.280 C 163.820 187.980,215.203 188.261,216.862 187.574 C 218.822 186.762,218.839 186.527,218.716 162.179 C 218.592 137.748,218.610 137.964,216.550 137.181 C 215.954 136.954,205.277 136.800,190.190 136.800 L 164.831 136.800 164.009 137.683 M234.126 137.203 C 232.421 137.890,232.400 138.199,232.405 162.274 C 232.411 187.394,232.384 186.964,234.031 187.816 C 235.770 188.715,302.679 188.690,304.420 187.790 C 305.818 187.066,305.910 186.176,304.800 184.104 C 304.360 183.284,304.000 182.316,304.000 181.955 C 304.000 181.594,303.748 181.089,303.439 180.833 C 303.131 180.577,302.766 179.919,302.628 179.370 C 302.263 177.915,298.349 170.027,295.858 165.726 C 292.802 160.449,283.934 150.861,278.563 147.028 C 275.458 144.812,266.235 140.000,265.092 140.000 C 264.682 140.000,264.024 139.827,263.629 139.616 C 259.932 137.637,237.585 135.809,234.126 137.203 M147.349 138.031 L 148.406 138.863 148.303 163.131 L 148.200 187.400 121.644 187.503 C 102.110 187.579,94.943 187.484,94.535 187.146 C 93.673 186.430,93.930 138.141,94.800 137.591 C 96.218 136.696,146.183 137.114,147.349 138.031 M216.894 138.367 L 218.200 139.534 218.313 162.432 L 218.425 185.330 217.338 186.465 L 216.250 187.600 190.507 187.600 L 164.764 187.600 163.782 186.618 L 162.800 185.636 162.800 163.455 L 162.800 141.274 163.857 139.237 L 164.914 137.200 190.250 137.200 L 215.587 137.200 216.894 138.367 M250.164 137.805 C 251.776 138.138,254.812 138.573,256.910 138.772 C 259.008 138.970,261.147 139.398,261.663 139.723 C 262.178 140.048,263.483 140.438,264.562 140.591 C 265.642 140.743,266.779 141.122,267.090 141.433 C 267.401 141.744,268.138 142.117,268.728 142.260 C 269.318 142.404,270.229 142.855,270.754 143.261 C 271.279 143.667,272.022 144.000,272.405 144.000 C 272.788 144.000,273.320 144.263,273.587 144.585 C 273.854 144.906,274.461 145.289,274.936 145.435 C 275.411 145.581,276.729 146.488,277.864 147.450 C 278.999 148.413,280.096 149.200,280.302 149.200 C 280.508 149.200,281.002 149.560,281.400 150.000 C 281.798 150.440,282.270 150.800,282.449 150.800 C 282.628 150.800,284.085 152.149,285.687 153.798 C 289.315 157.532,289.689 157.962,290.266 159.068 C 290.805 160.101,291.436 160.908,292.700 162.184 C 293.195 162.683,293.600 163.268,293.600 163.484 C 293.600 163.700,293.960 164.202,294.400 164.600 C 294.840 164.998,295.200 165.542,295.200 165.808 C 295.200 166.074,295.549 166.736,295.975 167.278 C 296.402 167.820,296.868 168.731,297.011 169.302 C 297.155 169.874,297.616 170.652,298.036 171.033 C 298.456 171.413,298.800 172.032,298.800 172.408 C 298.800 172.784,299.160 173.550,299.600 174.109 C 300.040 174.669,300.400 175.496,300.400 175.948 C 300.400 176.399,300.736 177.091,301.147 177.484 C 301.558 177.878,302.015 178.870,302.163 179.689 C 302.311 180.508,302.653 181.318,302.923 181.489 C 304.071 182.216,304.756 186.978,303.767 187.357 C 302.264 187.934,234.580 187.620,233.776 187.032 C 233.025 186.483,232.996 185.698,232.891 162.857 L 232.781 139.250 233.887 138.225 C 235.254 136.957,244.857 136.709,250.164 137.805 M78.000 221.288 C 75.723 223.355,75.615 224.213,75.589 240.400 C 75.565 255.604,75.275 258.878,73.884 259.657 C 72.783 260.273,72.878 269.106,74.000 270.400 C 74.440 270.907,74.800 271.471,74.800 271.654 C 74.800 271.836,75.237 272.094,75.771 272.228 C 76.305 272.363,76.839 272.726,76.959 273.036 C 77.277 273.867,85.521 273.841,86.619 273.006 C 89.475 270.832,89.261 271.312,89.489 266.585 C 89.624 263.792,89.894 261.978,90.231 261.590 C 90.523 261.254,90.888 260.174,91.041 259.190 C 91.195 258.205,91.654 256.971,92.060 256.446 C 92.467 255.921,92.800 255.167,92.800 254.770 C 92.800 254.372,93.000 253.923,93.245 253.772 C 93.490 253.621,94.039 252.710,94.464 251.748 C 94.889 250.787,95.409 250.000,95.619 250.000 C 95.828 250.000,96.000 249.762,96.000 249.472 C 96.000 249.182,96.405 248.566,96.900 248.104 C 97.395 247.641,98.662 246.349,99.717 245.232 C 100.771 244.114,101.804 243.200,102.013 243.200 C 102.222 243.200,102.618 242.840,102.893 242.400 C 103.168 241.960,103.674 241.600,104.019 241.600 C 104.363 241.600,105.255 241.150,106.000 240.600 C 106.745 240.050,107.653 239.600,108.017 239.600 C 108.380 239.600,109.093 239.240,109.600 238.800 C 110.110 238.357,111.097 238.000,111.807 238.000 C 112.514 238.000,113.561 237.631,114.134 237.180 C 115.512 236.096,128.393 235.907,129.549 236.954 C 129.914 237.284,131.107 237.755,132.200 238.000 C 133.293 238.245,134.460 238.685,134.794 238.978 C 135.127 239.271,135.970 239.632,136.667 239.780 C 137.363 239.928,138.026 240.291,138.140 240.587 C 138.253 240.883,138.943 241.256,139.673 241.416 C 140.403 241.576,141.235 242.043,141.523 242.454 C 141.810 242.864,142.209 243.200,142.409 243.200 C 142.866 243.200,144.348 244.491,146.515 246.777 C 147.442 247.755,148.605 248.978,149.100 249.495 C 149.595 250.013,150.000 250.790,150.000 251.222 C 150.000 251.654,150.360 252.316,150.800 252.693 C 151.240 253.070,151.600 253.764,151.600 254.235 C 151.600 254.706,151.933 255.521,152.340 256.046 C 152.746 256.571,153.205 257.805,153.359 258.790 C 153.512 259.774,153.916 260.886,154.255 261.261 C 154.687 261.739,154.939 263.157,155.096 265.993 C 155.347 270.551,155.848 271.592,158.286 272.610 C 159.919 273.293,230.400 273.521,230.400 272.843 C 230.400 272.647,230.856 272.372,231.414 272.232 C 231.985 272.089,232.636 271.503,232.905 270.889 C 233.169 270.290,233.529 269.695,233.707 269.567 C 233.885 269.439,234.205 267.202,234.417 264.597 C 234.675 261.426,234.999 259.643,235.397 259.204 C 235.723 258.843,236.107 257.929,236.249 257.174 C 236.391 256.418,236.824 255.440,237.211 255.000 C 237.597 254.560,238.034 253.630,238.181 252.933 C 238.328 252.237,238.708 251.567,239.024 251.446 C 239.341 251.324,239.600 250.956,239.600 250.627 C 239.600 250.297,239.939 249.847,240.354 249.625 C 240.769 249.403,241.229 248.741,241.376 248.153 C 241.622 247.172,245.300 243.200,245.962 243.200 C 246.120 243.200,246.598 242.884,247.025 242.497 C 247.451 242.111,248.250 241.559,248.800 241.270 C 251.176 240.026,252.499 239.236,253.128 238.686 C 253.497 238.363,254.747 238.012,255.904 237.907 C 257.086 237.800,258.338 237.419,258.760 237.036 C 260.007 235.908,274.693 236.022,276.559 237.174 C 277.293 237.629,278.340 238.000,278.885 238.000 C 279.430 238.000,280.202 238.360,280.600 238.800 C 280.998 239.240,281.630 239.600,282.004 239.600 C 282.377 239.600,283.169 240.050,283.762 240.600 C 284.356 241.150,285.149 241.600,285.524 241.600 C 285.900 241.600,286.432 241.960,286.707 242.400 C 286.982 242.840,287.371 243.200,287.573 243.200 C 288.064 243.200,293.600 248.638,293.600 249.121 C 293.600 249.330,293.869 249.725,294.198 249.998 C 294.527 250.272,295.006 251.194,295.261 252.047 C 295.517 252.901,295.871 253.600,296.047 253.600 C 296.224 253.600,296.586 254.365,296.853 255.300 C 297.120 256.235,297.585 257.293,297.886 257.650 C 298.188 258.008,298.542 258.998,298.674 259.850 C 298.805 260.703,299.182 261.934,299.512 262.587 C 299.847 263.252,300.196 265.361,300.306 267.387 C 300.616 273.105,301.118 273.300,315.000 273.097 C 325.822 272.939,327.034 272.718,329.026 270.543 L 330.434 269.007 330.317 257.603 C 330.162 242.494,330.276 242.642,318.525 242.317 L 312.051 242.138 310.125 240.584 C 309.066 239.729,307.330 238.168,306.267 237.115 C 305.204 236.062,304.243 235.200,304.132 235.200 C 304.020 235.200,303.161 234.435,302.223 233.500 C 300.003 231.288,297.743 229.452,295.558 228.089 C 294.591 227.485,293.440 226.765,293.000 226.488 C 292.560 226.211,291.570 225.698,290.800 225.349 C 290.030 225.000,289.266 224.480,289.101 224.195 C 288.937 223.909,287.909 223.552,286.816 223.402 C 285.724 223.252,284.155 222.785,283.330 222.365 C 282.506 221.944,281.233 221.600,280.501 221.600 C 279.770 221.600,278.691 221.285,278.104 220.900 C 277.094 220.239,271.567 220.195,178.218 220.109 L 79.400 220.017 78.000 221.288 M276.358 221.392 C 279.254 221.938,281.964 222.567,282.381 222.790 C 282.798 223.013,284.097 223.399,285.269 223.648 C 287.974 224.222,296.330 229.003,299.447 231.759 C 300.716 232.882,303.335 235.307,305.266 237.149 C 311.107 242.719,312.270 243.171,320.916 243.222 C 329.526 243.273,330.072 244.192,329.914 258.400 L 329.800 268.600 328.611 270.086 C 326.952 272.159,325.352 272.409,314.080 272.353 C 300.635 272.286,301.225 272.541,300.725 266.571 C 300.526 264.187,300.186 262.025,299.972 261.766 C 299.757 261.507,299.315 260.274,298.990 259.025 C 296.511 249.510,289.037 241.635,278.000 236.913 C 274.425 235.383,260.917 235.273,257.285 236.743 C 256.122 237.215,254.880 237.600,254.524 237.600 C 252.428 237.600,241.200 245.631,241.200 247.131 C 241.200 247.347,240.615 248.225,239.900 249.081 C 238.644 250.586,237.020 253.640,235.264 257.800 C 234.314 260.050,233.200 265.231,233.200 267.396 C 233.200 269.677,232.270 271.427,230.783 271.946 C 229.337 272.450,160.207 272.545,158.414 272.045 C 156.819 271.601,155.981 269.638,155.581 265.414 C 155.383 263.316,154.968 261.105,154.658 260.500 C 154.349 259.895,153.964 258.786,153.802 258.036 C 153.503 256.649,150.195 249.777,149.423 248.941 C 149.191 248.689,148.370 247.661,147.600 246.656 C 146.830 245.652,145.996 244.823,145.746 244.815 C 145.496 244.807,144.326 244.006,143.146 243.037 C 135.321 236.607,119.598 233.435,113.000 236.955 C 112.340 237.307,111.473 237.596,111.074 237.598 C 109.196 237.604,98.006 244.748,97.998 245.945 C 97.997 246.085,97.217 247.060,96.264 248.110 C 94.647 249.894,91.208 256.146,90.604 258.400 C 90.457 258.950,90.098 259.940,89.806 260.600 C 89.514 261.260,89.154 263.600,89.006 265.800 C 88.585 272.078,87.862 272.775,81.749 272.791 C 74.015 272.812,71.176 267.086,74.963 259.106 L 76.400 256.077 76.400 240.498 C 76.400 225.884,76.619 222.401,77.539 222.400 C 77.683 222.399,78.323 221.949,78.962 221.400 L 80.124 220.400 175.609 220.400 L 271.093 220.400 276.358 221.392 M115.606 250.023 C 114.840 250.450,113.829 250.800,113.360 250.800 C 112.891 250.800,112.079 251.122,111.554 251.516 C 111.029 251.910,110.105 252.446,109.500 252.707 C 108.895 252.969,108.400 253.367,108.400 253.591 C 108.400 253.816,108.155 254.000,107.855 254.000 C 106.524 254.000,102.031 258.793,102.007 260.238 C 102.003 260.479,101.640 261.002,101.200 261.400 C 100.760 261.798,100.400 262.522,100.400 263.008 C 100.400 263.494,99.995 264.407,99.500 265.036 C 98.269 266.602,98.103 278.966,99.295 280.284 C 99.678 280.707,100.108 281.640,100.252 282.358 C 100.395 283.076,100.847 283.873,101.256 284.128 C 101.665 284.383,102.000 284.900,102.000 285.276 C 102.000 285.651,102.450 286.444,103.000 287.038 C 103.550 287.631,104.000 288.267,104.000 288.450 C 104.000 288.926,107.978 292.800,108.467 292.800 C 108.691 292.800,109.331 293.160,109.891 293.600 C 110.450 294.040,111.384 294.400,111.965 294.400 C 112.546 294.400,113.453 294.702,113.979 295.070 C 116.528 296.856,128.393 296.864,130.175 295.082 C 130.550 294.707,131.296 294.400,131.832 294.400 C 132.369 294.400,133.116 294.040,133.493 293.600 C 133.870 293.160,134.328 292.800,134.512 292.800 C 134.883 292.800,137.523 290.755,139.161 289.200 C 140.112 288.297,141.080 287.039,142.200 285.248 C 142.420 284.897,142.915 284.178,143.300 283.651 C 143.685 283.123,144.000 282.333,144.000 281.893 C 144.000 281.454,144.383 280.475,144.851 279.717 C 145.969 277.909,146.114 268.438,145.053 266.533 C 144.707 265.910,144.237 264.656,144.009 263.747 C 143.781 262.837,143.326 261.870,142.997 261.598 C 142.669 261.325,142.400 260.852,142.400 260.547 C 142.400 260.242,142.040 259.684,141.600 259.307 C 141.160 258.930,140.800 258.468,140.800 258.280 C 140.800 257.840,138.566 255.600,138.127 255.600 C 137.943 255.600,137.568 255.240,137.293 254.800 C 137.018 254.360,136.568 254.000,136.293 254.000 C 136.018 254.000,135.568 253.640,135.293 253.200 C 135.018 252.760,134.553 252.400,134.259 252.400 C 133.965 252.400,133.398 252.040,133.000 251.600 C 132.602 251.160,131.806 250.800,131.232 250.800 C 130.658 250.800,129.516 250.440,128.696 250.000 C 126.534 248.842,117.697 248.857,115.606 250.023 M260.406 250.023 C 259.640 250.450,258.543 250.800,257.968 250.800 C 257.394 250.800,256.598 251.160,256.200 251.600 C 255.802 252.040,255.217 252.400,254.901 252.400 C 254.341 252.400,253.060 253.272,250.931 255.100 C 250.355 255.595,249.729 256.000,249.542 256.000 C 249.354 256.000,249.200 256.276,249.200 256.613 C 249.200 256.949,248.923 257.331,248.585 257.461 C 248.247 257.591,247.702 258.260,247.374 258.949 C 247.046 259.637,246.168 261.280,245.422 262.600 C 244.676 263.920,244.050 265.501,244.033 266.113 C 244.015 266.725,243.713 267.895,243.363 268.713 C 242.535 270.646,242.529 274.496,243.350 276.914 C 243.708 277.967,244.000 279.363,244.000 280.018 C 244.000 280.713,244.333 281.493,244.800 281.893 C 245.240 282.270,245.600 282.840,245.600 283.160 C 245.600 284.749,252.040 292.800,253.312 292.800 C 253.511 292.800,254.131 293.160,254.691 293.600 C 255.250 294.040,256.184 294.400,256.765 294.400 C 257.346 294.400,258.260 294.707,258.796 295.082 C 261.352 296.873,273.135 296.869,275.115 295.077 C 275.527 294.705,276.254 294.400,276.731 294.400 C 277.209 294.400,277.942 294.058,278.361 293.639 C 278.779 293.221,279.499 292.759,279.961 292.613 C 280.422 292.466,280.800 292.088,280.800 291.773 C 280.800 291.458,281.038 291.200,281.328 291.200 C 281.618 291.200,282.242 290.795,282.713 290.300 C 283.185 289.805,284.117 288.860,284.785 288.200 C 285.453 287.540,285.999 286.769,286.000 286.487 C 286.000 286.206,286.261 285.875,286.581 285.752 C 286.900 285.630,287.359 284.930,287.601 284.197 C 287.843 283.464,288.293 282.655,288.601 282.399 C 288.909 282.144,289.284 281.113,289.435 280.108 C 289.585 279.104,289.953 277.814,290.252 277.241 C 290.972 275.861,290.972 270.139,290.252 268.759 C 289.953 268.186,289.577 266.843,289.417 265.775 C 289.257 264.706,288.782 263.395,288.363 262.862 C 287.943 262.329,287.600 261.584,287.600 261.208 C 287.600 260.832,287.245 260.202,286.810 259.809 C 286.376 259.416,285.914 258.758,285.783 258.347 C 285.653 257.936,285.288 257.600,284.973 257.600 C 284.658 257.600,284.400 257.336,284.400 257.014 C 284.400 256.692,284.042 256.237,283.605 256.003 C 283.168 255.769,282.043 254.865,281.105 253.994 C 280.167 253.123,279.248 252.408,279.063 252.405 C 278.878 252.402,278.269 252.040,277.709 251.600 C 277.150 251.160,276.309 250.800,275.840 250.800 C 275.372 250.800,274.316 250.440,273.496 250.000 C 271.334 248.842,262.497 248.857,260.406 250.023 M127.972 250.432 C 143.700 255.414,150.161 273.029,141.011 285.982 C 140.163 287.184,134.699 292.400,134.290 292.400 C 134.055 292.400,133.579 292.651,133.231 292.957 C 128.050 297.524,112.922 296.336,106.969 290.894 C 105.609 289.651,102.400 285.421,102.400 284.871 C 102.400 284.671,102.079 284.079,101.688 283.554 C 98.151 278.819,97.920 268.193,101.237 262.800 C 101.440 262.470,101.824 261.750,102.091 261.200 C 103.263 258.787,105.820 255.849,107.931 254.490 C 112.001 251.869,113.014 251.427,118.200 250.010 C 120.564 249.364,125.236 249.566,127.972 250.432 M272.906 250.561 C 284.771 254.000,291.599 264.964,289.434 277.102 C 289.052 279.246,288.504 281.270,288.217 281.600 C 287.930 281.930,287.565 282.624,287.407 283.141 C 286.751 285.291,280.332 292.400,279.048 292.400 C 278.836 292.400,278.379 292.651,278.031 292.957 C 274.791 295.813,265.444 296.778,259.800 294.837 C 252.801 292.431,250.976 290.974,246.975 284.600 C 242.840 278.012,242.605 268.301,246.428 262.000 C 246.628 261.670,247.145 260.750,247.576 259.955 C 248.579 258.106,251.451 255.075,253.000 254.229 C 253.660 253.869,255.010 253.111,256.000 252.544 C 257.613 251.621,259.178 251.054,263.000 250.010 C 265.419 249.349,269.507 249.577,272.906 250.561 M119.486 262.800 C 110.033 265.768,108.501 276.628,116.735 282.303 C 121.146 285.344,129.513 283.390,131.740 278.800 C 131.900 278.470,132.292 277.750,132.610 277.200 C 134.543 273.857,132.838 267.771,129.132 264.793 C 127.873 263.782,122.926 261.869,122.001 262.036 C 121.891 262.057,120.759 262.400,119.486 262.800 M264.453 262.725 C 256.306 264.758,253.607 274.793,259.593 280.803 C 267.566 288.810,282.108 279.381,277.396 269.260 C 276.123 266.526,273.193 263.728,271.034 263.184 C 270.135 262.958,268.987 262.599,268.481 262.386 C 267.414 261.938,267.708 261.913,264.453 262.725 M125.147 263.564 C 126.491 263.755,127.434 264.118,127.667 264.534 C 127.872 264.900,128.225 265.200,128.451 265.200 C 129.062 265.200,131.053 267.305,131.362 268.279 C 131.510 268.746,131.894 269.346,132.215 269.613 C 133.190 270.421,133.025 276.072,132.000 277.000 C 131.560 277.398,131.200 277.939,131.200 278.203 C 131.200 278.954,129.071 280.991,127.684 281.565 C 126.993 281.852,126.219 282.337,125.964 282.643 C 125.104 283.680,119.523 283.387,117.718 282.211 C 115.069 280.485,113.639 279.036,113.362 277.800 C 113.214 277.140,112.757 275.973,112.347 275.206 C 111.348 273.342,111.403 272.372,112.660 269.675 C 115.131 264.373,118.667 262.643,125.147 263.564 M269.755 263.590 C 271.050 263.802,272.400 264.241,272.755 264.565 C 275.066 266.678,276.400 268.132,276.400 268.540 C 276.400 268.800,276.760 269.684,277.200 270.504 C 278.142 272.262,278.243 274.501,277.411 275.191 C 277.086 275.460,276.709 276.280,276.571 277.012 C 276.317 278.367,274.273 280.605,272.377 281.604 C 271.840 281.888,271.273 282.316,271.117 282.556 C 270.529 283.462,264.435 283.376,263.174 282.444 C 262.546 281.980,261.827 281.600,261.577 281.600 C 261.022 281.600,258.855 279.331,258.339 278.211 C 258.134 277.765,257.695 276.950,257.363 276.400 C 256.509 274.982,256.788 269.263,257.737 268.731 C 258.102 268.527,258.400 268.127,258.400 267.841 C 258.400 266.794,262.397 263.811,264.138 263.560 C 266.775 263.179,267.261 263.182,269.755 263.590 " stroke="none" fill="#4a4a4a" fill-rule="evenodd"></path><path id="path4" d="M171.700 107.491 C 172.525 107.578,173.875 107.578,174.700 107.491 C 175.525 107.405,174.850 107.334,173.200 107.334 C 171.550 107.334,170.875 107.405,171.700 107.491 M202.307 107.490 C 203.026 107.579,204.106 107.577,204.707 107.486 C 205.308 107.395,204.720 107.322,203.400 107.324 C 202.080 107.326,201.588 107.401,202.307 107.490 M158.700 107.893 C 159.635 107.977,161.165 107.977,162.100 107.893 C 163.035 107.809,162.270 107.740,160.400 107.740 C 158.530 107.740,157.765 107.809,158.700 107.893 M211.907 107.890 C 212.626 107.979,213.706 107.977,214.307 107.886 C 214.908 107.795,214.320 107.722,213.000 107.724 C 211.680 107.726,211.188 107.801,211.907 107.890 M150.200 108.402 C 149.519 108.576,150.385 108.618,152.200 108.498 C 153.960 108.383,155.475 108.223,155.567 108.144 C 155.875 107.877,151.412 108.091,150.200 108.402 M217.100 108.282 C 217.595 108.378,218.405 108.378,218.900 108.282 C 219.395 108.187,218.990 108.109,218.000 108.109 C 217.010 108.109,216.605 108.187,217.100 108.282 M220.705 108.683 C 221.202 108.779,221.922 108.775,222.305 108.675 C 222.687 108.575,222.280 108.496,221.400 108.501 C 220.520 108.505,220.207 108.587,220.705 108.683 M145.905 109.083 C 146.402 109.179,147.122 109.175,147.505 109.075 C 147.887 108.975,147.480 108.896,146.600 108.901 C 145.720 108.905,145.407 108.987,145.905 109.083 M224.500 109.076 C 224.885 109.176,225.515 109.176,225.900 109.076 C 226.285 108.975,225.970 108.893,225.200 108.893 C 224.430 108.893,224.115 108.975,224.500 109.076 M138.500 109.487 C 139.105 109.578,140.095 109.578,140.700 109.487 C 141.305 109.395,140.810 109.320,139.600 109.320 C 138.390 109.320,137.895 109.395,138.500 109.487 M229.105 109.483 C 229.602 109.579,230.322 109.575,230.705 109.475 C 231.087 109.375,230.680 109.296,229.800 109.301 C 228.920 109.305,228.607 109.387,229.105 109.483 M132.000 110.000 C 130.001 110.421,132.052 110.438,134.400 110.020 C 136.024 109.732,136.063 109.700,134.800 109.703 C 134.030 109.704,132.770 109.838,132.000 110.000 M233.000 110.000 C 234.692 110.431,236.144 110.431,234.800 110.000 C 234.250 109.824,233.350 109.683,232.800 109.687 C 231.902 109.694,231.922 109.726,233.000 110.000 M128.500 110.676 C 128.885 110.776,129.515 110.776,129.900 110.676 C 130.285 110.575,129.970 110.493,129.200 110.493 C 128.430 110.493,128.115 110.575,128.500 110.676 M124.305 111.083 C 124.802 111.179,125.522 111.175,125.905 111.075 C 126.287 110.975,125.880 110.896,125.000 110.901 C 124.120 110.905,123.807 110.987,124.305 111.083 M239.905 111.083 C 240.402 111.179,241.122 111.175,241.505 111.075 C 241.887 110.975,241.480 110.896,240.600 110.901 C 239.720 110.905,239.407 110.987,239.905 111.083 M117.600 112.000 C 116.808 112.254,116.767 112.320,117.400 112.320 C 117.840 112.320,118.650 112.176,119.200 112.000 C 119.992 111.746,120.033 111.680,119.400 111.680 C 118.960 111.680,118.150 111.824,117.600 112.000 M106.600 113.600 C 105.581 114.038,106.632 114.038,108.000 113.600 C 108.804 113.343,108.843 113.277,108.200 113.268 C 107.760 113.262,107.040 113.411,106.600 113.600 M253.400 113.600 C 253.840 113.789,254.470 113.944,254.800 113.944 C 255.178 113.944,255.104 113.817,254.600 113.600 C 254.160 113.411,253.530 113.256,253.200 113.256 C 252.822 113.256,252.896 113.383,253.400 113.600 M82.900 120.046 C 81.095 121.202,81.263 121.468,83.100 120.363 C 84.960 119.245,85.018 119.198,84.567 119.207 C 84.365 119.210,83.615 119.588,82.900 120.046 M77.781 125.637 C 77.429 126.318,77.212 126.945,77.299 127.032 C 77.386 127.119,77.756 126.562,78.122 125.795 C 78.944 124.070,78.659 123.938,77.781 125.637 M76.591 164.200 C 76.591 182.460,76.640 189.988,76.700 180.930 C 76.760 171.871,76.760 156.931,76.700 147.730 C 76.640 138.528,76.591 145.940,76.591 164.200 M93.429 137.429 C 93.083 137.774,92.805 138.269,92.812 138.529 C 92.819 138.788,93.005 138.691,93.225 138.313 C 93.445 137.935,93.935 137.445,94.313 137.225 C 94.691 137.005,94.788 136.819,94.529 136.812 C 94.269 136.805,93.774 137.083,93.429 137.429 M249.305 137.087 C 249.914 137.179,250.814 137.177,251.305 137.082 C 251.797 136.987,251.300 136.911,250.200 136.914 C 249.100 136.917,248.697 136.995,249.305 137.087 M254.100 137.476 C 254.485 137.576,255.115 137.576,255.500 137.476 C 255.885 137.375,255.570 137.293,254.800 137.293 C 254.030 137.293,253.715 137.375,254.100 137.476 M149.200 162.520 L 149.400 186.200 149.503 162.823 C 149.560 149.966,149.470 139.310,149.303 139.143 C 149.136 138.976,149.090 149.496,149.200 162.520 M263.146 139.416 C 263.886 139.737,264.696 139.993,264.946 139.984 C 265.196 139.976,264.794 139.706,264.054 139.384 C 263.314 139.063,262.504 138.807,262.254 138.816 C 262.004 138.824,262.406 139.094,263.146 139.416 M92.587 162.400 C 92.587 175.270,92.638 180.535,92.700 174.100 C 92.762 167.665,92.762 157.135,92.700 150.700 C 92.638 144.265,92.587 149.530,92.587 162.400 M232.187 163.200 C 232.187 175.630,232.238 180.715,232.300 174.500 C 232.362 168.285,232.362 158.115,232.300 151.900 C 232.238 145.685,232.187 150.770,232.187 163.200 M306.800 147.800 C 307.546 148.570,308.247 149.200,308.357 149.200 C 308.467 149.200,307.946 148.570,307.200 147.800 C 306.454 147.030,305.753 146.400,305.643 146.400 C 305.533 146.400,306.054 147.030,306.800 147.800 M278.400 146.911 C 278.400 146.987,278.985 147.478,279.700 148.001 C 280.504 148.590,280.784 148.687,280.433 148.255 C 279.900 147.599,278.400 146.607,278.400 146.911 M282.046 149.700 C 282.145 149.755,284.110 151.600,286.413 153.800 L 290.600 157.800 286.608 153.700 C 284.412 151.445,282.447 149.600,282.241 149.600 C 282.035 149.600,281.947 149.645,282.046 149.700 M312.802 156.822 C 312.801 156.945,313.250 157.655,313.800 158.400 C 314.350 159.145,314.794 159.585,314.786 159.378 C 314.770 158.976,312.805 156.445,312.802 156.822 M292.794 161.403 C 294.387 163.321,294.521 163.445,294.086 162.596 C 293.859 162.153,293.252 161.434,292.737 160.998 C 291.833 160.234,291.835 160.248,292.794 161.403 M317.124 165.000 C 317.326 165.440,317.592 166.070,317.714 166.400 C 317.907 166.918,317.941 166.915,317.968 166.376 C 317.986 166.034,317.720 165.404,317.378 164.976 C 316.766 164.212,316.762 164.213,317.124 165.000 M300.834 175.000 C 300.834 175.220,301.178 176.030,301.600 176.800 C 302.022 177.570,302.366 178.020,302.366 177.800 C 302.366 177.580,302.022 176.770,301.600 176.000 C 301.178 175.230,300.834 174.780,300.834 175.000 M218.000 186.672 C 218.000 186.895,217.595 187.273,217.100 187.512 C 216.605 187.751,216.391 187.958,216.624 187.973 C 217.296 188.016,218.630 186.896,218.299 186.566 C 218.135 186.401,218.000 186.449,218.000 186.672 M323.301 188.200 C 323.305 189.080,323.387 189.393,323.483 188.895 C 323.579 188.398,323.575 187.678,323.475 187.295 C 323.375 186.913,323.296 187.320,323.301 188.200 M108.300 188.300 C 115.395 188.361,127.005 188.361,134.100 188.300 C 141.195 188.239,135.390 188.189,121.200 188.189 C 107.010 188.189,101.205 188.239,108.300 188.300 M177.700 188.300 C 184.685 188.361,196.115 188.361,203.100 188.300 C 210.085 188.239,204.370 188.188,190.400 188.188 C 176.430 188.188,170.715 188.239,177.700 188.300 M234.742 188.502 C 234.908 188.669,250.425 188.758,269.222 188.702 L 303.400 188.600 268.920 188.400 C 249.956 188.290,234.576 188.336,234.742 188.502 M323.670 191.400 C 323.657 191.840,323.795 192.920,323.977 193.800 C 324.255 195.145,324.308 195.209,324.307 194.200 C 324.305 192.799,323.708 190.170,323.670 191.400 M324.581 210.800 C 324.581 218.830,324.634 222.115,324.699 218.100 C 324.765 214.085,324.765 207.515,324.699 203.500 C 324.634 199.485,324.581 202.770,324.581 210.800 M76.816 201.686 C 76.807 202.063,77.359 203.008,78.041 203.786 L 79.283 205.200 174.541 205.101 L 269.800 205.002 174.631 204.900 C 68.712 204.787,78.624 205.062,77.361 202.200 C 77.046 201.487,76.825 201.278,76.816 201.686 M273.105 205.483 C 273.602 205.579,274.322 205.575,274.705 205.475 C 275.087 205.375,274.680 205.296,273.800 205.301 C 272.920 205.305,272.607 205.387,273.105 205.483 M276.033 205.747 C 276.125 205.828,276.920 206.004,277.800 206.138 C 278.915 206.307,279.158 206.271,278.600 206.019 C 277.832 205.671,275.690 205.444,276.033 205.747 M285.000 207.814 C 285.660 208.117,286.470 208.358,286.800 208.352 C 287.130 208.345,286.770 208.097,286.000 207.800 C 284.174 207.097,283.455 207.107,285.000 207.814 M296.800 212.596 C 296.800 212.870,299.249 214.084,299.432 213.901 C 299.519 213.814,298.962 213.444,298.195 213.078 C 297.428 212.712,296.800 212.495,296.800 212.596 M305.600 218.511 C 305.600 218.587,306.185 219.078,306.900 219.601 C 307.704 220.190,307.984 220.287,307.633 219.855 C 307.100 219.199,305.600 218.207,305.600 218.511 M269.905 220.683 C 270.402 220.779,271.122 220.775,271.505 220.675 C 271.887 220.575,271.480 220.496,270.600 220.501 C 269.720 220.505,269.407 220.587,269.905 220.683 M282.000 223.000 C 282.550 223.314,283.270 223.571,283.600 223.570 C 283.930 223.569,283.594 223.306,282.854 222.984 C 281.151 222.245,280.694 222.253,282.000 223.000 M287.800 224.800 C 289.799 225.819,290.139 225.819,288.600 224.800 C 287.940 224.363,287.137 224.004,286.815 224.003 C 286.494 224.001,286.937 224.360,287.800 224.800 M76.582 240.000 C 76.582 248.690,76.635 252.245,76.700 247.900 C 76.764 243.555,76.764 236.445,76.700 232.100 C 76.635 227.755,76.582 231.310,76.582 240.000 M312.400 224.533 C 312.400 224.643,313.120 225.303,314.000 226.000 C 314.880 226.697,315.600 227.177,315.600 227.067 C 315.600 226.957,314.880 226.297,314.000 225.600 C 313.120 224.903,312.400 224.423,312.400 224.533 M292.000 226.935 C 292.000 227.206,294.874 228.859,295.046 228.687 C 295.126 228.608,294.473 228.139,293.596 227.646 C 292.718 227.152,292.000 226.833,292.000 226.935 M121.000 235.228 C 120.124 235.409,120.421 235.485,122.100 235.510 C 123.365 235.528,124.400 235.486,124.400 235.417 C 124.400 235.126,122.109 234.999,121.000 235.228 M266.512 235.495 C 267.564 235.577,269.184 235.576,270.112 235.492 C 271.040 235.408,270.180 235.341,268.200 235.342 C 266.220 235.343,265.460 235.412,266.512 235.495 M116.705 235.883 C 117.202 235.979,117.922 235.975,118.305 235.875 C 118.687 235.775,118.280 235.696,117.400 235.701 C 116.520 235.705,116.207 235.787,116.705 235.883 M126.100 235.876 C 126.485 235.976,127.115 235.976,127.500 235.876 C 127.885 235.775,127.570 235.693,126.800 235.693 C 126.030 235.693,125.715 235.775,126.100 235.876 M261.100 235.882 C 261.595 235.978,262.405 235.978,262.900 235.882 C 263.395 235.787,262.990 235.709,262.000 235.709 C 261.010 235.709,260.605 235.787,261.100 235.882 M305.183 237.300 C 306.164 238.345,307.019 239.200,307.083 239.200 C 307.384 239.200,307.066 238.841,305.300 237.183 L 303.400 235.400 305.183 237.300 M130.400 236.600 C 130.950 236.914,131.580 237.172,131.800 237.172 C 132.020 237.172,131.750 236.914,131.200 236.600 C 130.650 236.286,130.020 236.028,129.800 236.028 C 129.580 236.028,129.850 236.286,130.400 236.600 M108.200 238.400 C 106.636 239.436,107.192 239.437,108.890 238.401 C 109.611 237.962,110.020 237.604,109.800 237.604 C 109.580 237.605,108.860 237.963,108.200 238.400 M251.944 238.424 L 251.000 239.247 252.200 238.545 C 253.779 237.620,253.803 237.600,253.311 237.600 C 253.079 237.600,252.464 237.971,251.944 238.424 M249.144 240.024 L 248.200 240.847 249.400 240.145 C 250.979 239.220,251.003 239.200,250.511 239.200 C 250.279 239.200,249.664 239.571,249.144 240.024 M284.000 239.785 C 284.000 239.872,284.849 240.516,285.886 241.216 C 286.923 241.916,287.539 242.208,287.254 241.865 C 286.733 241.237,284.000 239.490,284.000 239.785 M144.087 243.700 C 144.706 244.305,145.435 244.795,145.706 244.788 C 145.978 244.781,145.840 244.577,145.400 244.333 C 144.960 244.090,144.231 243.600,143.781 243.245 C 143.330 242.890,143.468 243.095,144.087 243.700 M314.100 243.076 C 314.485 243.176,315.115 243.176,315.500 243.076 C 315.885 242.975,315.570 242.893,314.800 242.893 C 314.030 242.893,313.715 242.975,314.100 243.076 M317.000 243.436 C 318.769 243.718,326.008 243.811,325.329 243.543 C 324.928 243.385,322.710 243.268,320.400 243.283 C 318.090 243.297,316.560 243.366,317.000 243.436 M98.323 245.100 C 97.618 245.921,97.090 246.800,97.301 246.800 C 97.383 246.800,97.849 246.260,98.337 245.600 C 99.301 244.296,99.292 243.972,98.323 245.100 M291.397 245.601 C 293.293 247.818,293.320 247.842,292.886 247.000 C 292.659 246.560,291.962 245.751,291.337 245.201 L 290.200 244.203 291.397 245.601 M328.525 245.968 C 329.000 246.835,329.450 247.484,329.524 247.409 C 329.718 247.216,328.477 244.895,328.034 244.621 C 327.829 244.494,328.050 245.100,328.525 245.968 M119.900 249.882 C 120.395 249.978,121.205 249.978,121.700 249.882 C 122.195 249.787,121.790 249.709,120.800 249.709 C 119.810 249.709,119.405 249.787,119.900 249.882 M125.800 250.192 C 126.900 250.487,127.854 250.676,127.920 250.611 C 128.141 250.394,125.493 249.600,124.640 249.627 C 124.178 249.642,124.700 249.896,125.800 250.192 M264.700 249.882 C 265.195 249.978,266.005 249.978,266.500 249.882 C 266.995 249.787,266.590 249.709,265.600 249.709 C 264.610 249.709,264.205 249.787,264.700 249.882 M268.500 249.876 C 268.885 249.976,269.515 249.976,269.900 249.876 C 270.285 249.775,269.970 249.693,269.200 249.693 C 268.430 249.693,268.115 249.775,268.500 249.876 M116.800 250.418 C 116.362 250.715,116.524 250.752,117.400 250.556 C 118.871 250.227,119.190 249.998,118.167 250.006 C 117.745 250.009,117.130 250.195,116.800 250.418 M261.600 250.418 C 261.162 250.715,261.324 250.752,262.200 250.556 C 263.671 250.227,263.990 249.998,262.967 250.006 C 262.545 250.009,261.930 250.195,261.600 250.418 M93.014 252.235 C 92.641 252.804,92.405 253.338,92.489 253.422 C 92.573 253.507,92.958 253.041,93.344 252.388 C 94.206 250.928,93.948 250.809,93.014 252.235 M109.256 253.613 C 108.016 254.646,108.575 254.635,109.891 253.600 C 110.450 253.160,110.749 252.806,110.554 252.813 C 110.359 252.821,109.775 253.181,109.256 253.613 M278.400 252.911 C 278.400 252.987,278.985 253.478,279.700 254.001 C 280.504 254.590,280.784 254.687,280.433 254.255 C 279.900 253.599,278.400 252.607,278.400 252.911 M105.375 256.500 L 104.200 257.800 105.500 256.625 C 106.712 255.530,106.984 255.200,106.675 255.200 C 106.606 255.200,106.021 255.785,105.375 256.500 M138.800 257.400 C 139.546 258.170,140.247 258.800,140.357 258.800 C 140.467 258.800,139.946 258.170,139.200 257.400 C 138.454 256.630,137.753 256.000,137.643 256.000 C 137.533 256.000,138.054 256.630,138.800 257.400 M235.072 257.419 C 234.132 259.389,234.264 259.724,235.247 257.862 C 235.693 257.016,235.987 256.254,235.901 256.167 C 235.814 256.081,235.441 256.644,235.072 257.419 M249.200 257.600 C 248.503 258.480,248.023 259.200,248.133 259.200 C 248.243 259.200,248.903 258.480,249.600 257.600 C 250.297 256.720,250.777 256.000,250.667 256.000 C 250.557 256.000,249.897 256.720,249.200 257.600 M103.275 259.184 C 102.794 259.835,102.400 260.500,102.400 260.662 C 102.400 260.823,102.850 260.345,103.400 259.600 C 103.950 258.855,104.400 258.190,104.400 258.122 C 104.400 257.795,104.075 258.102,103.275 259.184 M74.778 259.498 C 73.874 261.301,73.887 261.479,74.820 260.083 C 75.304 259.359,75.617 258.683,75.515 258.582 C 75.413 258.480,75.081 258.892,74.778 259.498 M154.028 259.000 C 154.028 259.220,154.286 259.850,154.600 260.400 C 154.914 260.950,155.172 261.220,155.172 261.000 C 155.172 260.780,154.914 260.150,154.600 259.600 C 154.286 259.050,154.028 258.780,154.028 259.000 M299.232 260.024 C 299.214 260.366,299.480 260.996,299.822 261.424 C 300.434 262.188,300.438 262.187,300.076 261.400 C 299.874 260.960,299.608 260.330,299.486 260.000 C 299.293 259.482,299.259 259.485,299.232 260.024 M73.693 262.800 C 73.693 263.570,73.775 263.885,73.876 263.500 C 73.976 263.115,73.976 262.485,73.876 262.100 C 73.775 261.715,73.693 262.030,73.693 262.800 M88.914 263.800 C 88.917 264.900,88.995 265.303,89.087 264.695 C 89.179 264.086,89.177 263.186,89.082 262.695 C 88.987 262.203,88.911 262.700,88.914 263.800 M119.800 262.400 C 119.296 262.617,119.222 262.744,119.600 262.744 C 119.930 262.744,120.560 262.589,121.000 262.400 C 121.504 262.183,121.578 262.056,121.200 262.056 C 120.870 262.056,120.240 262.211,119.800 262.400 M264.600 262.400 C 263.581 262.838,264.632 262.838,266.000 262.400 C 266.804 262.143,266.843 262.077,266.200 262.068 C 265.760 262.062,265.040 262.211,264.600 262.400 M260.095 264.701 C 258.078 266.474,256.394 268.706,256.416 269.578 C 256.424 269.920,256.691 269.603,257.008 268.873 C 257.325 268.143,258.602 266.568,259.846 265.373 C 262.453 262.868,262.585 262.512,260.095 264.701 M100.065 265.417 C 99.395 266.888,99.523 267.202,100.247 265.865 C 100.586 265.240,100.788 264.654,100.696 264.563 C 100.605 264.471,100.321 264.856,100.065 265.417 M113.804 265.996 C 113.174 266.654,112.735 267.256,112.829 267.334 C 112.923 267.412,113.513 266.874,114.139 266.138 C 115.554 264.477,115.345 264.388,113.804 265.996 M155.693 266.800 C 155.693 267.570,155.775 267.885,155.876 267.500 C 155.976 267.115,155.976 266.485,155.876 266.100 C 155.775 265.715,155.693 266.030,155.693 266.800 M73.761 267.515 C 73.919 269.142,75.589 272.000,76.381 272.000 C 76.568 272.000,76.204 271.447,75.573 270.771 C 74.942 270.096,74.315 268.881,74.180 268.071 C 73.815 265.881,73.571 265.558,73.761 267.515 M232.909 267.600 C 232.909 268.590,232.987 268.995,233.082 268.500 C 233.178 268.005,233.178 267.195,233.082 266.700 C 232.987 266.205,232.909 266.610,232.909 267.600 M131.202 266.822 C 131.201 266.945,131.650 267.655,132.200 268.400 C 132.750 269.145,133.194 269.585,133.186 269.378 C 133.170 268.976,131.205 266.445,131.202 266.822 M300.893 268.800 C 300.893 269.570,300.975 269.885,301.076 269.500 C 301.176 269.115,301.176 268.485,301.076 268.100 C 300.975 267.715,300.893 268.030,300.893 268.800 M277.524 269.400 C 277.726 269.840,277.992 270.470,278.114 270.800 C 278.307 271.318,278.341 271.315,278.368 270.776 C 278.386 270.434,278.120 269.804,277.778 269.376 C 277.166 268.612,277.162 268.613,277.524 269.400 M88.100 270.500 C 87.670 271.675,87.680 271.726,88.212 271.024 C 88.721 270.352,89.021 269.200,88.688 269.200 C 88.626 269.200,88.361 269.785,88.100 270.500 M144.893 270.400 C 144.893 271.170,144.975 271.485,145.076 271.100 C 145.176 270.715,145.176 270.085,145.076 269.700 C 144.975 269.315,144.893 269.630,144.893 270.400 M98.940 272.800 C 98.940 274.670,99.009 275.435,99.093 274.500 C 99.177 273.565,99.177 272.035,99.093 271.100 C 99.009 270.165,98.940 270.930,98.940 272.800 M243.724 272.600 C 243.726 273.920,243.801 274.412,243.890 273.693 C 243.979 272.974,243.977 271.894,243.886 271.293 C 243.795 270.692,243.722 271.280,243.724 272.600 M133.328 273.200 C 133.328 274.630,133.401 275.215,133.489 274.500 C 133.578 273.785,133.578 272.615,133.489 271.900 C 133.401 271.185,133.328 271.770,133.328 273.200 M256.114 272.600 C 256.117 273.700,256.195 274.103,256.287 273.495 C 256.379 272.886,256.377 271.986,256.282 271.495 C 256.187 271.003,256.111 271.500,256.114 272.600 M289.724 273.000 C 289.726 274.320,289.801 274.812,289.890 274.093 C 289.979 273.374,289.977 272.294,289.886 271.693 C 289.795 271.092,289.722 271.680,289.724 273.000 M176.930 272.300 C 186.792 272.360,202.812 272.359,212.530 272.300 C 222.249 272.240,214.180 272.191,194.600 272.192 C 175.020 272.192,167.069 272.240,176.930 272.300 M309.300 272.299 C 312.105 272.368,316.695 272.368,319.500 272.299 C 322.305 272.230,320.010 272.174,314.400 272.174 C 308.790 272.174,306.495 272.230,309.300 272.299 M79.700 272.694 C 80.745 272.776,82.455 272.776,83.500 272.694 C 84.545 272.612,83.690 272.544,81.600 272.544 C 79.510 272.544,78.655 272.612,79.700 272.694 M99.228 278.200 C 99.228 278.420,99.486 279.050,99.800 279.600 C 100.114 280.150,100.372 280.420,100.372 280.200 C 100.372 279.980,100.114 279.350,99.800 278.800 C 99.486 278.250,99.228 277.980,99.228 278.200 M274.594 280.712 C 273.931 281.310,272.941 282.120,272.394 282.512 C 271.670 283.029,271.629 283.116,272.242 282.829 C 273.277 282.344,276.605 279.596,276.138 279.612 C 275.952 279.618,275.257 280.113,274.594 280.712 M114.800 281.350 C 114.800 281.444,115.441 281.899,116.224 282.361 C 117.007 282.823,117.536 283.020,117.399 282.798 C 117.131 282.364,114.800 281.066,114.800 281.350 M142.778 282.298 C 141.874 284.101,141.887 284.279,142.820 282.883 C 143.304 282.159,143.617 281.483,143.515 281.382 C 143.413 281.280,143.081 281.692,142.778 282.298 M286.015 285.124 C 285.483 285.936,284.497 287.228,283.824 287.996 C 282.625 289.364,282.623 289.372,283.736 288.396 C 284.880 287.394,287.348 284.014,287.110 283.776 C 287.040 283.706,286.547 284.313,286.015 285.124 M102.414 285.022 C 102.430 285.424,104.395 287.955,104.398 287.578 C 104.399 287.455,103.950 286.745,103.400 286.000 C 102.850 285.255,102.406 284.815,102.414 285.022 M249.196 287.994 C 249.890 288.871,250.667 289.718,250.923 289.876 C 251.178 290.034,250.693 289.316,249.845 288.281 C 248.997 287.247,248.220 286.400,248.118 286.400 C 248.016 286.400,248.501 287.118,249.196 287.994 M139.362 287.657 C 138.943 288.129,137.556 289.389,136.279 290.457 C 135.003 291.526,134.115 292.400,134.307 292.400 C 134.704 292.400,140.727 286.848,140.362 286.819 C 140.231 286.809,139.781 287.186,139.362 287.657 M280.444 291.004 C 279.478 291.772,278.848 292.393,279.044 292.385 C 279.416 292.369,282.749 289.613,282.400 289.610 C 282.290 289.609,281.410 290.236,280.444 291.004 M107.215 291.184 C 107.977 291.835,108.760 292.375,108.955 292.384 C 109.150 292.393,108.631 291.860,107.800 291.200 C 105.851 289.651,105.408 289.639,107.215 291.184 M110.600 293.200 C 111.260 293.637,112.063 293.996,112.385 293.997 C 112.706 293.999,112.263 293.640,111.400 293.200 C 109.401 292.181,109.061 292.181,110.600 293.200 M255.400 293.200 C 256.060 293.637,256.780 293.995,257.000 293.996 C 257.220 293.996,256.811 293.638,256.090 293.199 C 254.392 292.163,253.836 292.164,255.400 293.200 M277.000 293.227 C 276.340 293.650,276.005 293.997,276.256 293.998 C 276.506 293.999,277.136 293.646,277.656 293.213 C 278.845 292.223,278.559 292.229,277.000 293.227 M272.600 295.014 C 271.940 295.317,271.670 295.566,272.000 295.568 C 272.330 295.570,273.050 295.314,273.600 295.000 C 274.865 294.277,274.189 294.287,272.600 295.014 M119.700 295.876 C 120.085 295.976,120.715 295.976,121.100 295.876 C 121.485 295.775,121.170 295.693,120.400 295.693 C 119.630 295.693,119.315 295.775,119.700 295.876 M123.700 295.876 C 124.085 295.976,124.715 295.976,125.100 295.876 C 125.485 295.775,125.170 295.693,124.400 295.693 C 123.630 295.693,123.315 295.775,123.700 295.876 M268.500 295.876 C 268.885 295.976,269.515 295.976,269.900 295.876 C 270.285 295.775,269.970 295.693,269.200 295.693 C 268.430 295.693,268.115 295.775,268.500 295.876 " stroke="none" fill="#7c7c7c" fill-rule="evenodd"></path></g></svg>