<?xml version="1.0" encoding="UTF-8"?>
<svg xmlns="http://www.w3.org/2000/svg" xmlns:xlink="http://www.w3.org/1999/xlink" width="1000px" height="px" viewBox="0 0 999 263" version="1.1">
<defs>
<filter id="alpha" filterUnits="objectBoundingBox" x="0%" y="0%" width="100%" height="100%">
  <feColorMatrix type="matrix" in="SourceGraphic" values="0 0 0 0 1 0 0 0 0 1 0 0 0 0 1 0 0 0 1 0"/>
</filter>
<mask id="mask0">
  <g filter="url(#alpha)">
<rect x="0" y="0" width="999" height="263" style="fill:rgb(0%,0%,0%);fill-opacity:0.976471;stroke:none;"/>
  </g>
</mask>
<clipPath id="clip1">
  <rect x="0" y="0" width="1000" height="263"/>
</clipPath>
<g id="surface5" clip-path="url(#clip1)">
<path style=" stroke:none;fill-rule:evenodd;fill:rgb(99.607843%,99.607843%,99.607843%);fill-opacity:1;" d="M 16.367188 5.808594 C 90.996094 5.632812 165.621094 5.808594 240.246094 6.335938 C 248.578125 6.546875 254.386719 10.59375 257.671875 18.484375 C 258.375 89.601562 258.375 160.722656 257.671875 231.839844 C 257.320312 237.828125 256.964844 243.8125 256.613281 249.796875 C 254.367188 253.101562 251.726562 256.09375 248.695312 258.773438 C 170.988281 260.527344 93.191406 260.882812 15.3125 259.832031 C 12.007812 257.582031 9.015625 254.941406 6.335938 251.910156 C 4.960938 228.742188 4.257812 205.503906 4.222656 182.199219 C 3.519531 127.273438 3.519531 72.351562 4.222656 17.425781 C 6.796875 11.855469 10.847656 7.984375 16.367188 5.808594 Z M 98.738281 73.40625 C 113.527344 73.230469 128.3125 73.40625 143.089844 73.9375 C 163.171875 74.917969 180.59375 82.132812 195.363281 95.589844 C 207.171875 111.316406 211.394531 128.921875 208.035156 148.398438 C 207.277344 149.402344 206.398438 149.578125 205.398438 148.925781 C 198.5625 143.511719 191.171875 138.9375 183.21875 135.195312 C 139.574219 134.339844 95.925781 133.8125 52.273438 133.613281 C 51.9375 116.664062 52.289062 99.761719 53.328125 82.914062 C 56.839844 80.535156 60.710938 78.949219 64.945312 78.160156 C 76.316406 76.214844 87.582031 74.628906 98.738281 73.40625 Z M 52.273438 145.230469 C 95.226562 144.984375 138.171875 145.515625 181.109375 146.816406 C 183.695312 147.582031 186.160156 148.636719 188.5 149.984375 C 192.890625 153.414062 197.46875 156.582031 202.230469 159.488281 C 211.476562 159.179688 214.820312 163.582031 212.261719 172.691406 C 211.972656 174.625 211.09375 176.207031 209.621094 177.445312 C 205.003906 178.320312 200.429688 178.144531 195.894531 176.917969 C 191.636719 156.953125 180.019531 150.441406 161.042969 157.378906 C 154.597656 162.347656 150.726562 168.859375 149.425781 176.917969 C 135.714844 178.148438 121.984375 178.324219 108.242188 177.445312 C 106.203125 177.179688 104.265625 176.652344 102.433594 175.863281 C 97.90625 155.566406 86.113281 149.753906 67.058594 158.433594 C 61.828125 163.085938 58.660156 168.894531 57.554688 175.863281 C 55.523438 177.066406 53.414062 177.242188 51.21875 176.390625 C 50.574219 175.089844 50.222656 173.679688 50.160156 172.164062 C 51.246094 163.214844 51.949219 154.234375 52.273438 145.230469 Z M 169.492188 164.242188 C 185.519531 166.042969 189.917969 174.140625 182.691406 188.535156 C 176.46875 193.808594 169.957031 194.160156 163.15625 189.59375 C 158.304688 183.253906 157.777344 176.5625 161.570312 169.523438 C 163.863281 167.070312 166.503906 165.308594 169.492188 164.242188 Z M 74.449219 165.300781 C 91.492188 164.207031 96.945312 171.597656 90.816406 187.480469 C 84.382812 193.734375 77.519531 194.261719 70.226562 189.0625 C 63.660156 179.550781 65.066406 171.628906 74.449219 165.300781 Z M 74.449219 165.300781 "/>
</g>
<mask id="mask1">
  <g filter="url(#alpha)">
<rect x="0" y="0" width="999" height="263" style="fill:rgb(0%,0%,0%);fill-opacity:0.956863;stroke:none;"/>
  </g>
</mask>
<clipPath id="clip2">
  <rect x="0" y="0" width="1000" height="263"/>
</clipPath>
<g id="surface8" clip-path="url(#clip2)">
<path style=" stroke:none;fill-rule:evenodd;fill:rgb(99.607843%,100%,99.607843%);fill-opacity:1;" d="M 322.617188 74.464844 C 330.007812 74.464844 337.398438 74.464844 344.792969 74.464844 C 344.429688 104.410156 344.957031 134.335938 346.375 164.242188 C 346.851562 166.375 347.730469 168.3125 349.015625 170.050781 C 353.128906 171.390625 357.355469 171.917969 361.6875 171.636719 C 361.863281 176.578125 361.6875 181.507812 361.160156 186.421875 C 360.824219 188.074219 359.945312 189.304688 358.519531 190.121094 C 352.183594 190.824219 345.847656 190.824219 339.511719 190.121094 C 329.828125 187.125 324.371094 180.609375 323.144531 170.582031 C 322.617188 138.542969 322.4375 106.503906 322.617188 74.464844 Z M 322.617188 74.464844 "/>
</g>
<mask id="mask2">
  <g filter="url(#alpha)">
<rect x="0" y="0" width="999" height="263" style="fill:rgb(0%,0%,0%);fill-opacity:0.929412;stroke:none;"/>
  </g>
</mask>
<clipPath id="clip3">
  <rect x="0" y="0" width="1000" height="263"/>
</clipPath>
<g id="surface11" clip-path="url(#clip3)">
<path style=" stroke:none;fill-rule:evenodd;fill:rgb(99.607843%,100%,99.607843%);fill-opacity:1;" d="M 66 90.308594 C 76.578125 90.257812 87.140625 90.609375 97.683594 91.363281 C 97.683594 102.628906 97.683594 113.894531 97.683594 125.164062 C 85.363281 125.164062 73.042969 125.164062 60.722656 125.164062 C 60.546875 114.242188 60.722656 103.328125 61.25 92.417969 C 62.960938 91.785156 64.546875 91.082031 66 90.308594 Z M 66 90.308594 "/>
</g>
<mask id="mask3">
  <g filter="url(#alpha)">
<rect x="0" y="0" width="999" height="263" style="fill:rgb(0%,0%,0%);fill-opacity:0.92549;stroke:none;"/>
  </g>
</mask>
<clipPath id="clip4">
  <rect x="0" y="0" width="1000" height="263"/>
</clipPath>
<g id="surface14" clip-path="url(#clip4)">
<path style=" stroke:none;fill-rule:evenodd;fill:rgb(99.607843%,100%,99.607843%);fill-opacity:1;" d="M 109.296875 90.308594 C 120.230469 90.199219 131.140625 90.554688 142.035156 91.363281 C 142.035156 102.628906 142.035156 113.894531 142.035156 125.164062 C 130.066406 125.164062 118.097656 125.164062 106.128906 125.164062 C 105.34375 114.253906 105.167969 103.339844 105.601562 92.417969 C 106.976562 91.800781 108.210938 91.097656 109.296875 90.308594 Z M 109.296875 90.308594 "/>
</g>
<mask id="mask4">
  <g filter="url(#alpha)">
<rect x="0" y="0" width="999" height="263" style="fill:rgb(0%,0%,0%);fill-opacity:0.937255;stroke:none;"/>
  </g>
</mask>
<clipPath id="clip5">
  <rect x="0" y="0" width="1000" height="263"/>
</clipPath>
<g id="surface17" clip-path="url(#clip5)">
<path style=" stroke:none;fill-rule:evenodd;fill:rgb(99.607843%,100%,99.607843%);fill-opacity:1;" d="M 151.539062 90.308594 C 174.589844 89.253906 189.726562 99.640625 196.949219 121.464844 C 196.679688 122.867188 195.976562 123.921875 194.835938 124.632812 C 180.054688 125.164062 165.273438 125.339844 150.484375 125.164062 C 150.15625 113.457031 150.507812 101.839844 151.539062 90.308594 Z M 151.539062 90.308594 "/>
</g>
<mask id="mask5">
  <g filter="url(#alpha)">
<rect x="0" y="0" width="999" height="263" style="fill:rgb(0%,0%,0%);fill-opacity:0.952941;stroke:none;"/>
  </g>
</mask>
<clipPath id="clip6">
  <rect x="0" y="0" width="1000" height="263"/>
</clipPath>
<g id="surface20" clip-path="url(#clip6)">
<path style=" stroke:none;fill-rule:evenodd;fill:rgb(99.607843%,100%,99.607843%);fill-opacity:1;" d="M 398.648438 99.8125 C 425.902344 97.003906 443.328125 108.625 450.921875 134.667969 C 451.878906 140.621094 452.40625 146.605469 452.507812 152.625 C 432.4375 152.449219 412.375 152.625 392.3125 153.152344 C 390.324219 153.378906 388.5625 154.085938 387.035156 155.265625 C 394.054688 169.875 404.964844 174.101562 419.769531 167.941406 C 422.9375 166.179688 425.402344 163.714844 427.164062 160.546875 C 434.90625 159.839844 442.652344 159.839844 450.394531 160.546875 C 442.324219 182.6875 426.484375 192.894531 402.875 191.175781 C 383.90625 188.753906 371.761719 178.367188 366.441406 160.019531 C 361.285156 138.878906 366.742188 121.101562 382.808594 106.679688 C 387.949219 103.75 393.230469 101.460938 398.648438 99.8125 Z M 402.875 118.824219 C 414.425781 117.910156 422.875 122.484375 428.21875 132.554688 C 419.085938 133.519531 409.933594 134.222656 400.761719 134.667969 C 396.390625 134.761719 392.167969 134.054688 388.089844 132.554688 C 391.050781 125.71875 395.980469 121.140625 402.875 118.824219 Z M 402.875 118.824219 "/>
</g>
<mask id="mask6">
  <g filter="url(#alpha)">
<rect x="0" y="0" width="999" height="263" style="fill:rgb(0%,0%,0%);fill-opacity:0.952941;stroke:none;"/>
  </g>
</mask>
<clipPath id="clip7">
  <rect x="0" y="0" width="1000" height="263"/>
</clipPath>
<g id="surface23" clip-path="url(#clip7)">
<path style=" stroke:none;fill-rule:evenodd;fill:rgb(99.607843%,100%,99.607843%);fill-opacity:1;" d="M 853.796875 99.8125 C 881.558594 98.453125 898.984375 111.128906 906.070312 137.835938 C 908.46875 164.992188 896.675781 182.417969 870.691406 190.121094 C 841.207031 193.246094 823.078125 180.394531 816.308594 151.566406 C 814.511719 134.765625 819.96875 120.859375 832.675781 109.847656 C 839.40625 105.597656 846.445312 102.253906 853.796875 99.8125 Z M 854.851562 123.050781 C 874.6875 121.589844 884.367188 130.746094 883.894531 150.511719 C 877.234375 168.882812 865.089844 173.636719 847.460938 164.769531 C 835.28125 152.753906 834.929688 140.429688 846.40625 127.804688 C 849.148438 125.90625 851.964844 124.324219 854.851562 123.050781 Z M 854.851562 123.050781 "/>
</g>
<mask id="mask7">
  <g filter="url(#alpha)">
<rect x="0" y="0" width="999" height="263" style="fill:rgb(0%,0%,0%);fill-opacity:0.956863;stroke:none;"/>
  </g>
</mask>
<clipPath id="clip8">
  <rect x="0" y="0" width="1000" height="263"/>
</clipPath>
<g id="surface26" clip-path="url(#clip8)">
<path style=" stroke:none;fill-rule:evenodd;fill:rgb(99.607843%,100%,99.607843%);fill-opacity:1;" d="M 651.039062 100.871094 C 664.542969 98.542969 676.6875 101.359375 687.472656 109.320312 C 687.996094 106.878906 688.171875 104.414062 688 101.925781 C 695.042969 101.925781 702.082031 101.925781 709.121094 101.925781 C 709.121094 131.148438 709.121094 160.371094 709.121094 189.59375 C 702.082031 189.59375 695.042969 189.59375 688 189.59375 C 688.214844 186.964844 687.6875 184.5 686.417969 182.199219 C 676.335938 190.199219 664.894531 192.839844 652.09375 190.121094 C 639.277344 187.160156 630.300781 179.589844 625.167969 167.410156 C 616.5625 144.832031 620.609375 124.9375 637.3125 107.734375 C 641.691406 104.839844 646.265625 102.550781 651.039062 100.871094 Z M 659.488281 120.9375 C 674.617188 119.34375 683.59375 126.035156 686.417969 141.007812 C 687.730469 162.9375 677.699219 172.265625 656.320312 168.996094 C 644.847656 160.628906 641.152344 149.539062 645.230469 135.726562 C 646.722656 132.386719 648.484375 129.21875 650.511719 126.21875 C 653.34375 124.015625 656.335938 122.257812 659.488281 120.9375 Z M 659.488281 120.9375 "/>
</g>
<mask id="mask8">
  <g filter="url(#alpha)">
<rect x="0" y="0" width="999" height="263" style="fill:rgb(0%,0%,0%);fill-opacity:0.952941;stroke:none;"/>
  </g>
</mask>
<clipPath id="clip9">
  <rect x="0" y="0" width="1000" height="263"/>
</clipPath>
<g id="surface29" clip-path="url(#clip9)">
<path style=" stroke:none;fill-rule:evenodd;fill:rgb(99.607843%,100%,99.607843%);fill-opacity:1;" d="M 749.25 100.871094 C 762.414062 98.570312 774.207031 101.386719 784.625 109.320312 C 785.152344 106.878906 785.328125 104.414062 785.15625 101.925781 C 792.195312 101.925781 799.234375 101.925781 806.273438 101.925781 C 806.453125 130.796875 806.273438 159.667969 805.746094 188.535156 C 804.542969 205.894531 795.917969 218.039062 779.875 224.976562 C 759.578125 231 742.503906 226.246094 728.65625 210.71875 C 727.675781 208.648438 726.792969 206.535156 726.015625 204.378906 C 731.738281 200.726562 737.546875 197.207031 743.441406 193.816406 C 748.375 200.589844 754.886719 204.816406 762.976562 206.492188 C 778.292969 203.976562 784.804688 195.175781 782.515625 180.085938 C 778.589844 183.308594 774.191406 185.597656 769.316406 186.953125 C 742.003906 190.96875 725.285156 179.527344 719.152344 152.625 C 716.683594 135.546875 721.433594 120.9375 733.410156 108.792969 C 738.210938 104.980469 743.488281 102.339844 749.25 100.871094 Z M 758.753906 120.9375 C 778.113281 121.222656 786.386719 131.078125 783.570312 150.511719 C 777.21875 166.441406 766.128906 170.84375 750.304688 163.714844 C 742.363281 156.394531 739.722656 147.417969 742.386719 136.78125 C 743.632812 132.699219 745.570312 129.003906 748.195312 125.691406 C 751.695312 123.757812 755.214844 122.171875 758.753906 120.9375 Z M 758.753906 120.9375 "/>
</g>
<mask id="mask9">
  <g filter="url(#alpha)">
<rect x="0" y="0" width="999" height="263" style="fill:rgb(0%,0%,0%);fill-opacity:0.960784;stroke:none;"/>
  </g>
</mask>
<clipPath id="clip10">
  <rect x="0" y="0" width="1000" height="263"/>
</clipPath>
<g id="surface32" clip-path="url(#clip10)">
<path style=" stroke:none;fill-rule:evenodd;fill:rgb(99.607843%,100%,99.607843%);fill-opacity:1;" d="M 952.007812 100.871094 C 971.121094 96.828125 984.671875 103.519531 992.664062 120.9375 C 994.175781 143.78125 994.703125 166.664062 994.246094 189.59375 C 986.855469 189.59375 979.464844 189.59375 972.070312 189.59375 C 972.464844 169.84375 971.9375 150.125 970.488281 130.445312 C 969.121094 123.023438 964.542969 119.5 956.757812 119.882812 C 949.804688 120.363281 944.523438 123.53125 940.917969 129.386719 C 939.519531 149.414062 938.640625 169.484375 938.277344 189.59375 C 931.238281 189.59375 924.199219 189.59375 917.15625 189.59375 C 917.15625 160.371094 917.15625 131.148438 917.15625 101.925781 C 923.503906 101.75 929.839844 101.925781 936.167969 102.453125 C 937.453125 104.195312 938.332031 106.128906 938.804688 108.261719 C 942.753906 104.796875 947.15625 102.332031 952.007812 100.871094 Z M 952.007812 100.871094 "/>
</g>
<mask id="mask10">
  <g filter="url(#alpha)">
<rect x="0" y="0" width="999" height="263" style="fill:rgb(0%,0%,0%);fill-opacity:0.94902;stroke:none;"/>
  </g>
</mask>
<clipPath id="clip11">
  <rect x="0" y="0" width="1000" height="263"/>
</clipPath>
<g id="surface35" clip-path="url(#clip11)">
<path style=" stroke:none;fill-rule:evenodd;fill:rgb(99.607843%,100%,99.607843%);fill-opacity:1;" d="M 485.242188 102.980469 C 492.445312 101.761719 499.839844 101.585938 507.421875 102.453125 C 507.949219 102.980469 508.476562 103.511719 509.003906 104.039062 C 514.800781 121.238281 520.429688 138.492188 525.902344 155.792969 C 532.238281 138.1875 538.574219 120.585938 544.910156 102.980469 C 551.679688 101.949219 558.542969 101.597656 565.5 101.925781 C 570.367188 119.863281 576.171875 137.46875 582.925781 154.738281 C 588.707031 137.210938 594.164062 119.605469 599.292969 101.925781 C 606.6875 101.925781 614.078125 101.925781 621.472656 101.925781 C 621.640625 103.71875 621.464844 105.480469 620.941406 107.207031 C 611.886719 134.8125 602.558594 162.273438 592.957031 189.59375 C 585.917969 189.59375 578.878906 189.59375 571.835938 189.59375 C 566.28125 171.859375 560.296875 154.253906 553.886719 136.78125 C 547.476562 154.253906 541.492188 171.859375 535.933594 189.59375 C 528.890625 189.59375 521.851562 189.59375 514.8125 189.59375 C 505.140625 160.566406 495.285156 131.695312 485.242188 102.980469 Z M 485.242188 102.980469 "/>
</g>
<mask id="mask11">
  <g filter="url(#alpha)">
<rect x="0" y="0" width="999" height="263" style="fill:rgb(0%,0%,0%);fill-opacity:0.870588;stroke:none;"/>
  </g>
</mask>
<clipPath id="clip12">
  <rect x="0" y="0" width="1000" height="263"/>
</clipPath>
<g id="surface38" clip-path="url(#clip12)">
<path style=" stroke:none;fill-rule:evenodd;fill:rgb(99.607843%,100%,99.607843%);fill-opacity:1;" d="M 76.5625 171.636719 C 84.828125 170.574219 88.171875 174.09375 86.59375 182.199219 C 81.117188 188.21875 76.539062 187.515625 72.867188 180.085938 C 72.160156 178.679688 72.160156 177.269531 72.867188 175.863281 C 74.320312 174.589844 75.550781 173.179688 76.5625 171.636719 Z M 76.5625 171.636719 "/>
</g>
<mask id="mask12">
  <g filter="url(#alpha)">
<rect x="0" y="0" width="999" height="263" style="fill:rgb(0%,0%,0%);fill-opacity:0.858824;stroke:none;"/>
  </g>
</mask>
<clipPath id="clip13">
  <rect x="0" y="0" width="1000" height="263"/>
</clipPath>
<g id="surface41" clip-path="url(#clip13)">
<path style=" stroke:none;fill-rule:evenodd;fill:rgb(99.607843%,100%,99.607843%);fill-opacity:1;" d="M 169.492188 171.636719 C 177.757812 170.574219 181.101562 174.09375 179.523438 182.199219 C 173.039062 188.613281 168.289062 187.558594 165.269531 179.03125 C 165.894531 176.0625 167.304688 173.601562 169.492188 171.636719 Z M 169.492188 171.636719 "/>
</g>
</defs>
<g id="surface1">
<use xlink:href="#surface5" mask="url(#mask0)"/>
<use xlink:href="#surface8" mask="url(#mask1)"/>
<use xlink:href="#surface11" mask="url(#mask2)"/>
<use xlink:href="#surface14" mask="url(#mask3)"/>
<use xlink:href="#surface17" mask="url(#mask4)"/>
<use xlink:href="#surface20" mask="url(#mask5)"/>
<use xlink:href="#surface23" mask="url(#mask6)"/>
<use xlink:href="#surface26" mask="url(#mask7)"/>
<use xlink:href="#surface29" mask="url(#mask8)"/>
<use xlink:href="#surface32" mask="url(#mask9)"/>
<use xlink:href="#surface35" mask="url(#mask10)"/>
<use xlink:href="#surface38" mask="url(#mask11)"/>
<use xlink:href="#surface41" mask="url(#mask12)"/>
</g>
</svg>
