<svg id="svg" version="1.1" xmlns="http://www.w3.org/2000/svg" xmlns:xlink="http://www.w3.org/1999/xlink" width="400" height="402" viewBox="0, 0, 400,402"><g id="svgg"><path id="path0" d="M171.400 108.294 C 152.909 108.912,138.557 109.967,130.800 111.277 C 129.370 111.519,126.670 111.860,124.800 112.034 C 118.909 112.585,111.911 113.504,108.800 114.135 C 107.150 114.470,104.810 114.867,103.600 115.017 C 102.390 115.167,101.220 115.425,101.000 115.591 C 100.780 115.756,99.880 116.004,99.000 116.142 C 95.801 116.642,93.155 117.163,91.891 117.541 C 91.181 117.754,89.880 118.143,89.000 118.406 C 84.229 119.831,80.013 123.058,78.455 126.479 C 77.650 128.246,77.625 129.104,77.352 164.455 L 77.072 200.623 78.162 202.270 L 79.251 203.917 85.726 204.168 C 89.287 204.305,133.510 204.484,184.000 204.566 C 245.747 204.665,276.455 204.850,277.800 205.132 C 279.557 205.499,285.051 206.843,289.200 207.921 C 290.640 208.295,291.723 208.850,300.588 213.763 C 303.396 215.320,309.541 220.276,311.959 222.934 C 315.250 226.552,318.890 227.905,321.594 226.516 C 323.543 225.515,323.695 224.372,323.738 210.400 C 323.789 193.607,322.955 185.880,319.792 173.800 C 315.834 158.691,296.726 134.035,284.939 128.830 C 284.465 128.620,283.959 128.257,283.813 128.022 C 283.668 127.787,282.886 127.266,282.075 126.866 C 281.264 126.466,279.160 125.356,277.400 124.400 C 275.640 123.444,273.300 122.237,272.200 121.716 C 271.100 121.196,269.480 120.385,268.600 119.915 C 264.919 117.946,263.194 117.194,259.687 116.029 C 257.652 115.353,255.586 114.800,255.094 114.800 C 254.602 114.800,253.300 114.463,252.200 114.053 C 250.226 113.315,245.016 112.437,237.600 111.590 C 235.510 111.352,232.900 110.910,231.800 110.609 C 230.700 110.308,227.010 109.859,223.600 109.612 C 220.190 109.364,215.330 108.993,212.800 108.788 C 208.564 108.443,177.870 108.077,171.400 108.294 M144.189 136.408 C 147.638 136.744,148.315 136.933,149.189 137.807 L 150.200 138.818 150.328 162.611 L 150.456 186.405 149.232 187.629 L 148.008 188.853 121.329 188.612 C 90.043 188.330,92.704 188.753,92.340 183.996 C 92.000 179.559,91.924 140.478,92.253 138.836 C 92.570 137.249,93.563 136.686,96.600 136.371 C 100.566 135.960,139.893 135.991,144.189 136.408 M217.416 136.743 C 219.022 137.372,219.000 136.995,219.000 164.535 L 219.000 186.870 217.840 187.868 L 216.679 188.866 196.040 188.617 C 168.424 188.284,163.227 188.120,162.555 187.563 C 161.824 186.956,161.720 139.694,162.447 138.274 C 163.696 135.831,162.073 135.957,190.400 136.119 C 209.112 136.226,216.534 136.397,217.416 136.743 M257.000 136.716 C 257.660 136.931,259.010 137.319,260.000 137.578 C 263.411 138.470,266.203 139.294,267.200 139.703 C 268.903 140.400,270.990 141.390,271.200 141.600 C 271.310 141.710,272.472 142.340,273.782 143.000 C 275.092 143.660,277.072 144.865,278.182 145.678 C 279.292 146.491,280.869 147.646,281.686 148.244 C 283.217 149.365,292.288 158.758,293.000 159.960 C 293.220 160.331,294.135 161.617,295.034 162.817 C 296.773 165.139,299.881 170.958,302.397 176.600 C 302.888 177.700,303.876 179.860,304.593 181.400 C 306.809 186.160,306.819 187.527,304.647 188.717 C 303.072 189.580,237.349 190.022,234.800 189.187 C 231.637 188.151,231.800 189.615,231.800 162.320 C 231.800 135.459,231.582 137.416,234.676 136.551 C 236.923 135.922,254.970 136.056,257.000 136.716 M166.060 221.101 L 80.721 221.202 79.560 222.029 C 77.474 223.514,77.476 223.501,77.199 241.200 C 77.036 251.661,76.783 258.096,76.514 258.600 C 74.793 261.834,74.690 262.268,74.877 265.434 C 75.219 271.199,75.612 271.517,82.112 271.283 C 87.673 271.082,87.724 271.038,88.175 266.000 C 88.481 262.588,89.135 258.945,89.609 258.024 C 89.785 257.681,90.218 256.590,90.572 255.600 C 92.197 251.051,99.458 242.595,103.887 240.094 C 109.778 236.768,113.297 235.399,116.913 235.027 C 118.185 234.897,120.019 234.578,120.988 234.319 C 122.488 233.918,122.948 233.949,124.075 234.527 C 124.804 234.901,126.930 235.454,128.800 235.757 C 130.670 236.061,133.100 236.671,134.200 237.115 C 135.300 237.558,137.010 238.250,138.000 238.652 C 138.990 239.053,140.248 239.791,140.796 240.291 C 141.344 240.791,141.974 241.200,142.196 241.200 C 142.714 241.201,144.375 242.605,147.443 245.636 C 151.970 250.109,155.254 257.460,156.846 266.681 C 157.417 269.992,157.817 270.715,159.281 271.085 C 161.956 271.762,229.872 271.386,230.567 270.690 C 230.907 270.350,231.401 270.000,231.664 269.912 C 231.966 269.811,232.174 268.659,232.230 266.776 C 232.282 265.032,232.667 262.771,233.159 261.313 C 233.622 259.945,234.000 258.574,234.000 258.268 C 234.000 257.961,234.720 256.311,235.600 254.600 C 236.480 252.889,237.200 251.272,237.200 251.006 C 237.200 249.069,246.926 240.118,251.200 238.122 C 255.675 236.032,257.169 235.678,266.400 234.527 C 268.170 234.306,273.460 234.893,276.600 235.659 C 282.731 237.155,292.734 244.640,295.967 250.152 C 298.073 253.741,299.091 255.888,299.596 257.800 C 299.887 258.900,300.260 259.980,300.426 260.200 C 300.592 260.420,301.015 262.670,301.366 265.200 C 302.266 271.682,301.246 271.234,314.800 271.104 C 330.086 270.958,329.000 271.996,329.000 257.522 L 329.000 247.644 327.659 246.260 C 326.382 244.944,326.150 244.865,322.859 244.647 C 311.243 243.878,311.356 243.924,303.850 237.007 C 296.887 230.591,289.291 225.763,283.956 224.362 C 282.426 223.960,281.013 223.531,280.814 223.409 C 280.335 223.112,277.212 222.464,274.000 221.994 C 272.570 221.785,270.443 221.440,269.274 221.227 C 268.104 221.014,263.604 220.876,259.274 220.920 C 254.943 220.964,212.997 221.045,166.060 221.101 M115.800 251.519 C 102.192 255.597,95.912 270.497,102.442 283.218 C 105.036 288.271,110.324 293.200,113.152 293.200 C 113.510 293.200,115.063 293.666,116.602 294.235 C 120.621 295.722,127.242 295.204,131.000 293.110 C 131.660 292.742,132.580 292.266,133.045 292.052 C 135.015 291.142,140.611 285.260,141.902 282.740 C 147.345 272.121,142.398 257.743,131.638 252.914 C 127.289 250.961,119.848 250.306,115.800 251.519 M260.825 251.434 C 259.629 251.774,258.189 252.377,257.625 252.775 C 257.061 253.172,255.610 253.950,254.400 254.503 C 250.988 256.062,249.111 258.216,246.650 263.400 C 244.798 267.302,244.715 267.758,244.863 273.255 L 245.006 278.600 246.751 282.000 C 250.716 289.727,253.109 291.876,259.790 293.710 C 267.522 295.832,270.694 295.645,276.129 292.746 C 276.530 292.532,277.608 291.966,278.523 291.489 C 285.214 288.002,288.665 280.577,288.776 269.429 C 288.889 258.195,273.012 247.974,260.825 251.434 M125.806 261.950 C 129.395 263.301,129.790 263.504,130.670 264.458 C 133.784 267.830,134.857 273.838,133.034 277.692 C 131.676 280.562,128.056 284.000,126.391 284.000 C 125.762 284.000,125.142 284.170,125.014 284.377 C 124.554 285.122,121.313 285.315,120.029 284.674 C 119.357 284.339,118.287 283.951,117.651 283.811 C 113.884 282.984,109.791 275.299,110.668 270.699 C 111.848 264.509,120.032 259.778,125.806 261.950 M269.572 261.649 C 270.357 261.896,271.270 262.256,271.600 262.450 C 271.930 262.643,272.574 262.965,273.030 263.165 C 274.096 263.630,277.380 267.277,278.183 268.885 C 279.709 271.945,278.774 276.878,276.020 280.298 C 272.979 284.073,266.300 286.376,264.220 284.367 C 264.011 284.165,263.332 284.000,262.711 284.000 C 261.900 284.000,261.039 283.461,259.644 282.081 C 255.225 277.709,254.187 271.799,257.031 267.200 C 259.442 263.300,265.829 260.473,269.572 261.649 " stroke="none" fill="#080808" fill-rule="evenodd"></path><path id="path1" d="M21.600 2.000 C 21.600 2.220,21.330 2.400,21.000 2.400 C 20.670 2.400,20.400 2.670,20.400 3.000 C 20.400 3.467,19.867 3.600,18.000 3.600 C 15.707 3.600,15.600 3.644,15.600 4.600 C 15.600 5.400,15.400 5.600,14.600 5.600 C 14.050 5.600,13.600 5.780,13.600 6.000 C 13.600 6.220,13.330 6.400,13.000 6.400 C 12.670 6.400,12.400 6.593,12.400 6.829 C 12.400 7.382,11.382 8.400,10.829 8.400 C 10.593 8.400,10.400 8.850,10.400 9.400 C 10.400 10.108,10.183 10.400,9.656 10.400 C 9.247 10.400,8.574 10.850,8.161 11.400 C 7.748 11.950,7.183 12.400,6.905 12.400 C 6.627 12.400,6.400 12.670,6.400 13.000 C 6.400 13.330,6.220 13.600,6.000 13.600 C 5.780 13.600,5.600 14.050,5.600 14.600 C 5.600 15.400,5.400 15.600,4.600 15.600 C 3.644 15.600,3.600 15.707,3.600 18.000 C 3.600 19.867,3.467 20.400,3.000 20.400 C 2.627 20.400,2.400 20.778,2.400 21.400 C 2.400 21.950,2.220 22.400,2.000 22.400 C 1.734 22.400,1.600 82.667,1.600 202.400 L 1.600 382.400 2.600 382.400 C 3.557 382.400,3.600 382.505,3.600 384.829 C 3.600 387.189,4.133 388.400,5.171 388.400 C 5.407 388.400,5.600 388.593,5.600 388.829 C 5.600 389.382,6.618 390.400,7.171 390.400 C 7.407 390.400,7.600 390.593,7.600 390.829 C 7.600 391.534,8.686 392.400,9.571 392.400 C 10.189 392.400,10.400 392.655,10.400 393.400 C 10.400 394.022,10.627 394.400,11.000 394.400 C 11.330 394.400,11.600 394.593,11.600 394.829 C 11.600 395.382,12.618 396.400,13.171 396.400 C 13.407 396.400,13.600 396.850,13.600 397.400 C 13.600 398.200,13.800 398.400,14.600 398.400 C 15.150 398.400,15.600 398.593,15.600 398.829 C 15.600 399.751,16.809 400.400,18.529 400.400 C 19.747 400.400,20.388 400.591,20.545 401.000 C 20.895 401.914,382.400 401.914,382.400 401.000 C 382.400 400.557,382.864 400.400,384.176 400.400 C 385.153 400.400,386.064 400.220,386.200 400.000 C 386.336 399.780,386.802 399.600,387.236 399.600 C 387.670 399.600,388.129 399.330,388.255 399.000 C 388.382 398.670,388.736 398.400,389.043 398.400 C 389.366 398.400,389.600 397.992,389.600 397.428 C 389.600 396.724,389.849 396.420,390.500 396.328 C 391.078 396.246,391.446 395.878,391.528 395.300 C 391.620 394.649,391.924 394.400,392.628 394.400 C 393.345 394.400,393.600 394.182,393.600 393.571 C 393.600 393.116,393.857 392.486,394.171 392.171 C 394.486 391.857,395.116 391.600,395.571 391.600 C 396.189 391.600,396.400 391.345,396.400 390.600 C 396.400 389.800,396.600 389.600,397.400 389.600 C 398.200 389.600,398.400 389.400,398.400 388.600 C 398.400 388.015,398.630 387.600,398.953 387.600 C 399.981 387.600,399.989 386.071,399.995 201.333 C 400.000 16.702,399.994 15.600,398.957 15.600 C 398.630 15.600,398.400 15.188,398.400 14.600 C 398.400 13.800,398.200 13.600,397.400 13.600 C 396.850 13.600,396.400 13.407,396.400 13.171 C 396.400 12.618,395.382 11.600,394.829 11.600 C 394.593 11.600,394.400 11.330,394.400 11.000 C 394.400 10.670,394.233 10.400,394.028 10.400 C 393.823 10.400,393.598 9.995,393.528 9.500 C 393.447 8.930,393.079 8.554,392.525 8.475 C 391.979 8.398,391.602 8.021,391.525 7.475 C 391.446 6.921,391.070 6.553,390.500 6.472 C 390.005 6.402,389.600 6.177,389.600 5.972 C 389.600 5.767,389.330 5.600,389.000 5.600 C 388.627 5.600,388.400 5.222,388.400 4.600 C 388.400 3.622,388.333 3.600,385.400 3.600 C 382.467 3.600,382.400 3.578,382.400 2.600 L 382.400 1.600 202.000 1.600 C 82.000 1.600,21.600 1.734,21.600 2.000 M201.000 106.415 C 202.540 106.620,207.760 106.971,212.600 107.194 C 217.440 107.418,223.020 107.880,225.000 108.222 C 226.980 108.564,230.130 108.943,232.000 109.063 C 233.870 109.184,236.288 109.534,237.373 109.841 C 238.458 110.149,240.093 110.400,241.006 110.400 C 243.033 110.400,247.139 111.117,248.115 111.641 C 248.509 111.853,250.039 112.181,251.515 112.371 C 252.992 112.561,255.010 113.020,256.000 113.390 C 256.990 113.760,258.430 114.214,259.200 114.398 C 263.097 115.329,265.691 116.382,269.800 118.700 C 270.240 118.948,271.950 119.779,273.600 120.546 C 275.250 121.313,278.498 123.079,280.817 124.470 C 283.137 125.862,285.702 127.356,286.517 127.791 C 287.333 128.226,288.000 128.721,288.000 128.891 C 288.000 129.061,288.206 129.200,288.459 129.200 C 288.905 129.200,291.494 131.191,293.572 133.132 C 294.137 133.660,295.950 135.287,297.600 136.746 C 299.250 138.206,300.844 139.727,301.142 140.127 C 301.440 140.527,303.455 142.828,305.619 145.241 C 307.784 147.654,309.667 149.981,309.804 150.414 C 309.942 150.846,310.222 151.200,310.427 151.200 C 310.632 151.200,310.800 151.408,310.800 151.662 C 310.800 151.916,311.250 152.714,311.800 153.436 C 312.350 154.157,312.800 154.856,312.800 154.989 C 312.800 155.122,313.430 156.167,314.200 157.310 C 314.970 158.454,315.600 159.595,315.600 159.846 C 315.600 160.097,315.870 160.526,316.200 160.800 C 316.530 161.074,316.800 161.591,316.799 161.949 C 316.798 162.307,317.184 163.410,317.657 164.400 C 318.129 165.390,318.736 166.740,319.006 167.400 C 319.275 168.060,319.732 169.140,320.021 169.800 C 321.112 172.295,321.588 173.835,321.594 174.892 C 321.597 175.492,321.856 176.662,322.168 177.492 C 322.481 178.321,322.939 180.260,323.186 181.800 C 323.433 183.340,323.821 185.500,324.048 186.600 C 324.624 189.395,325.235 212.462,324.940 220.278 L 324.695 226.756 322.491 227.800 C 320.339 228.818,320.232 228.829,317.966 228.254 C 314.932 227.484,314.773 227.383,311.443 224.110 C 309.879 222.573,307.880 220.839,307.000 220.257 C 306.120 219.675,304.200 218.254,302.734 217.099 C 301.267 215.945,298.657 214.316,296.934 213.480 C 295.210 212.644,293.530 211.796,293.200 211.597 C 290.961 210.241,287.386 208.800,286.260 208.800 C 285.525 208.800,284.400 208.550,283.761 208.244 C 283.123 207.939,281.070 207.469,279.200 207.200 C 277.330 206.932,275.260 206.543,274.600 206.338 C 271.400 205.340,252.219 205.176,167.488 205.421 C 69.968 205.704,78.453 205.922,76.908 203.096 C 76.245 201.882,76.200 199.449,76.200 164.800 L 76.200 127.800 77.384 125.463 C 78.963 122.347,81.961 119.663,85.438 118.253 C 86.957 117.636,88.709 116.859,89.331 116.525 C 89.952 116.192,91.572 115.822,92.931 115.705 C 94.289 115.587,95.850 115.270,96.400 114.999 C 96.950 114.728,98.570 114.379,100.000 114.223 C 101.430 114.067,104.040 113.594,105.800 113.172 C 107.560 112.751,109.901 112.404,111.003 112.403 C 112.104 112.401,113.634 112.213,114.403 111.984 C 115.171 111.755,117.060 111.401,118.600 111.197 C 123.246 110.583,128.246 109.742,128.635 109.509 C 128.836 109.389,132.060 109.168,135.800 109.019 C 139.540 108.869,144.220 108.568,146.200 108.349 C 148.180 108.129,151.330 107.784,153.200 107.582 C 155.070 107.380,159.210 107.196,162.400 107.174 C 165.590 107.153,170.630 106.904,173.600 106.622 C 180.004 106.013,197.026 105.884,201.000 106.415 M95.064 137.496 C 93.865 139.437,93.398 186.202,94.568 187.173 C 95.231 187.724,147.045 187.629,147.900 187.076 C 148.291 186.823,148.400 181.481,148.400 162.590 L 148.400 138.428 147.500 137.914 C 146.413 137.293,95.440 136.887,95.064 137.496 M167.000 137.462 C 162.613 138.390,162.819 137.124,162.810 163.200 C 162.803 184.235,162.831 185.046,163.596 186.300 L 164.388 187.600 190.324 187.600 L 216.261 187.600 217.230 186.567 L 218.200 185.533 218.163 162.584 C 218.123 137.463,218.255 138.801,215.713 137.738 C 214.484 137.224,169.334 136.968,167.000 137.462 M235.600 137.459 C 235.050 137.575,234.195 138.046,233.700 138.505 L 232.800 139.339 232.800 162.251 C 232.800 178.786,232.929 185.446,233.264 186.181 L 233.728 187.200 239.964 187.223 C 245.257 187.243,255.027 187.361,280.200 187.711 C 291.493 187.868,303.628 187.401,304.032 186.794 C 304.554 186.011,304.151 183.406,303.231 181.625 C 302.827 180.841,301.914 178.940,301.202 177.400 C 299.313 173.310,298.692 172.070,297.199 169.400 C 296.461 168.080,295.664 166.633,295.428 166.184 C 293.162 161.863,283.681 151.301,280.000 148.996 C 279.010 148.376,278.020 147.663,277.800 147.412 C 276.387 145.797,266.124 140.400,264.466 140.400 C 264.058 140.400,262.679 140.040,261.400 139.600 C 260.121 139.160,258.338 138.792,257.437 138.782 C 256.537 138.773,255.080 138.500,254.200 138.177 C 252.567 137.577,237.752 137.006,235.600 137.459 M277.651 220.676 C 277.967 220.938,279.558 221.431,281.186 221.770 C 282.815 222.110,284.331 222.571,284.554 222.794 C 284.777 223.017,285.357 223.200,285.843 223.200 C 289.064 223.200,298.361 229.782,308.866 239.500 C 310.352 240.875,311.620 242.025,311.684 242.056 C 311.748 242.087,314.680 242.252,318.200 242.424 C 330.450 243.020,329.920 242.349,330.273 257.717 L 330.524 268.631 329.244 270.089 C 327.026 272.615,325.718 272.828,313.193 272.707 L 302.231 272.600 301.376 271.330 C 300.776 270.440,300.454 269.183,300.298 267.130 C 299.308 254.057,289.670 241.572,277.259 237.285 C 273.369 235.941,262.015 235.680,258.800 236.861 C 257.810 237.224,256.460 237.618,255.800 237.736 C 251.716 238.466,240.800 246.629,240.800 248.954 C 240.800 249.108,240.350 249.720,239.800 250.313 C 239.250 250.906,238.521 252.023,238.181 252.796 C 237.840 253.568,237.409 254.483,237.222 254.828 C 236.080 256.944,234.815 261.068,234.408 264.000 C 234.149 265.870,233.857 267.963,233.759 268.651 C 233.598 269.790,232.750 270.931,231.043 272.311 C 229.733 273.369,158.595 272.918,157.127 271.842 C 155.946 270.978,155.200 268.873,155.200 266.410 C 155.200 264.943,154.869 263.073,154.364 261.690 C 153.905 260.431,153.385 258.822,153.210 258.116 C 151.506 251.247,144.522 243.314,137.200 239.933 C 133.367 238.163,131.970 237.600,131.411 237.600 C 131.059 237.600,130.373 237.342,129.886 237.027 C 127.956 235.777,116.159 235.891,113.663 237.183 C 113.298 237.371,111.521 238.084,109.714 238.765 C 104.011 240.916,96.970 246.777,94.534 251.400 C 92.758 254.770,91.652 257.158,91.200 258.600 C 90.924 259.480,90.475 260.650,90.203 261.200 C 89.931 261.750,89.597 263.982,89.461 266.160 C 89.172 270.784,88.793 271.538,86.128 272.793 C 81.923 274.774,75.165 273.130,73.769 269.786 C 72.748 267.344,73.004 261.405,74.218 259.333 L 75.236 257.595 75.630 241.898 C 76.097 223.225,76.054 223.598,77.994 221.558 L 79.492 219.983 178.285 220.091 C 253.990 220.175,277.211 220.311,277.651 220.676 M126.640 249.567 C 127.278 249.770,128.880 250.254,130.200 250.643 C 132.357 251.280,133.460 251.962,138.187 255.581 C 144.129 260.131,147.347 271.980,144.711 279.600 C 144.368 280.590,143.983 281.850,143.854 282.400 C 143.726 282.950,143.166 283.923,142.610 284.562 C 142.055 285.201,141.600 285.866,141.600 286.039 C 141.600 286.795,136.921 291.311,134.811 292.594 C 128.499 296.428,119.511 297.485,114.400 294.994 C 113.850 294.726,112.743 294.388,111.940 294.243 C 111.137 294.098,110.260 293.714,109.991 293.389 C 109.722 293.065,109.179 292.800,108.783 292.800 C 107.446 292.800,103.037 287.408,100.830 283.072 C 97.481 276.495,97.505 269.004,100.896 262.245 C 103.501 257.054,104.984 255.534,110.800 252.096 C 114.693 249.793,123.113 248.450,126.640 249.567 M273.584 250.269 C 278.009 251.508,279.673 252.535,283.693 256.507 C 286.326 259.108,286.978 259.988,287.761 262.000 C 287.890 262.330,288.159 262.870,288.359 263.200 C 288.559 263.530,288.931 264.610,289.186 265.600 C 289.441 266.590,289.848 267.940,290.092 268.600 C 290.827 270.593,290.922 274.613,290.283 276.695 C 289.961 277.743,289.464 279.410,289.178 280.400 C 288.892 281.390,288.420 282.484,288.129 282.831 C 287.838 283.179,287.600 283.610,287.600 283.790 C 287.600 285.194,281.836 291.483,279.562 292.561 C 279.143 292.760,278.800 293.060,278.800 293.228 C 278.800 293.396,277.945 293.836,276.900 294.204 C 275.855 294.573,274.531 295.123,273.958 295.426 C 273.385 295.729,272.395 295.963,271.758 295.946 C 271.121 295.930,269.610 296.042,268.400 296.195 C 266.337 296.457,262.494 295.955,258.353 294.883 C 246.106 291.712,238.954 273.412,245.658 262.400 C 245.859 262.070,246.129 261.485,246.258 261.100 C 246.388 260.715,246.652 260.400,246.847 260.400 C 247.041 260.400,247.200 260.157,247.200 259.860 C 247.200 258.612,249.804 255.885,253.090 253.691 C 259.727 249.261,266.154 248.188,273.584 250.269 M118.625 263.469 C 114.873 264.104,110.230 272.436,112.187 275.024 C 112.510 275.451,112.780 276.105,112.787 276.477 C 112.884 281.610,122.263 285.080,127.292 281.844 C 138.231 274.806,131.830 261.233,118.625 263.469 M263.729 263.452 C 263.250 263.560,262.643 263.907,262.380 264.224 C 262.117 264.541,261.675 264.800,261.398 264.800 C 260.764 264.800,258.251 267.555,257.423 269.156 C 255.872 272.156,257.166 278.101,259.887 280.475 C 263.185 283.351,269.445 284.212,271.695 282.098 C 272.221 281.604,272.844 281.200,273.079 281.200 C 273.907 281.200,276.244 278.156,277.173 275.867 L 278.112 273.552 277.379 271.129 C 275.539 265.053,270.133 262.013,263.729 263.452 " stroke="none" fill="#fbfbfb" fill-rule="evenodd"></path><path id="path2" d="M173.600 106.622 C 170.630 106.904,165.590 107.153,162.400 107.174 C 159.210 107.196,155.070 107.380,153.200 107.582 C 151.330 107.784,148.180 108.129,146.200 108.349 C 144.220 108.568,139.540 108.869,135.800 109.019 C 132.060 109.168,128.836 109.389,128.635 109.509 C 128.246 109.742,123.246 110.583,118.600 111.197 C 117.060 111.401,115.171 111.755,114.403 111.984 C 113.634 112.213,112.104 112.401,111.003 112.403 C 109.901 112.404,107.560 112.751,105.800 113.172 C 104.040 113.594,101.430 114.067,100.000 114.223 C 98.570 114.379,96.950 114.728,96.400 114.999 C 95.850 115.270,94.289 115.587,92.931 115.705 C 91.572 115.822,89.952 116.192,89.331 116.525 C 88.709 116.859,86.957 117.636,85.438 118.253 C 81.961 119.663,78.963 122.347,77.384 125.463 L 76.200 127.800 76.200 164.800 C 76.200 205.545,76.071 203.380,78.599 205.036 C 79.565 205.669,249.765 205.573,250.392 204.939 C 250.506 204.823,212.140 204.790,165.133 204.864 L 79.665 205.000 78.665 204.060 C 76.745 202.258,76.781 203.052,76.893 164.400 L 77.000 127.800 78.000 125.803 C 80.025 121.759,84.157 118.922,90.509 117.216 C 94.200 116.224,106.088 113.810,110.000 113.257 C 125.519 111.066,133.275 110.066,138.400 109.599 C 157.489 107.856,158.842 107.807,187.600 107.811 C 217.283 107.815,217.436 107.822,231.200 109.817 C 233.510 110.152,236.930 110.609,238.800 110.832 C 245.564 111.641,253.886 113.443,259.746 115.369 C 267.402 117.884,284.987 127.159,290.400 131.536 C 310.834 148.059,321.053 166.231,323.605 190.583 C 324.412 198.284,324.753 219.712,324.140 224.187 C 323.456 229.173,317.373 228.914,311.831 223.662 C 298.249 210.789,286.263 205.781,268.200 205.433 C 260.002 205.275,259.852 205.284,266.000 205.567 C 269.630 205.733,273.500 206.076,274.600 206.328 C 275.700 206.580,278.212 207.060,280.182 207.396 C 282.153 207.731,283.944 208.184,284.162 208.402 C 284.381 208.621,285.244 208.800,286.079 208.800 C 287.371 208.800,290.817 210.153,293.200 211.597 C 293.530 211.796,295.210 212.644,296.934 213.480 C 298.657 214.316,301.267 215.945,302.734 217.099 C 304.200 218.254,306.120 219.675,307.000 220.257 C 307.880 220.839,309.879 222.573,311.443 224.110 C 314.773 227.383,314.932 227.484,317.966 228.254 C 320.232 228.829,320.339 228.818,322.491 227.800 L 324.695 226.756 324.940 220.278 C 325.235 212.462,324.624 189.395,324.048 186.600 C 323.821 185.500,323.433 183.340,323.186 181.800 C 322.939 180.260,322.481 178.321,322.168 177.492 C 321.856 176.662,321.597 175.492,321.594 174.892 C 321.588 173.835,321.112 172.295,320.021 169.800 C 319.732 169.140,319.275 168.060,319.006 167.400 C 318.736 166.740,318.129 165.390,317.657 164.400 C 317.184 163.410,316.798 162.307,316.799 161.949 C 316.800 161.591,316.530 161.074,316.200 160.800 C 315.870 160.526,315.600 160.097,315.600 159.846 C 315.600 159.595,314.970 158.454,314.200 157.310 C 313.430 156.167,312.800 155.122,312.800 154.989 C 312.800 154.856,312.350 154.157,311.800 153.436 C 311.250 152.714,310.800 151.916,310.800 151.662 C 310.800 151.408,310.632 151.200,310.427 151.200 C 310.222 151.200,309.942 150.846,309.804 150.414 C 309.667 149.981,307.784 147.654,305.619 145.241 C 303.455 142.828,301.440 140.527,301.142 140.127 C 300.844 139.727,299.250 138.206,297.600 136.746 C 295.950 135.287,294.137 133.660,293.572 133.132 C 291.494 131.191,288.905 129.200,288.459 129.200 C 288.206 129.200,288.000 129.061,288.000 128.891 C 288.000 128.721,287.333 128.226,286.517 127.791 C 285.702 127.356,283.137 125.862,280.817 124.470 C 278.498 123.079,275.250 121.313,273.600 120.546 C 271.950 119.779,270.240 118.948,269.800 118.700 C 265.691 116.382,263.097 115.329,259.200 114.398 C 258.430 114.214,256.990 113.760,256.000 113.390 C 255.010 113.020,252.992 112.561,251.515 112.371 C 250.039 112.181,248.509 111.853,248.115 111.641 C 247.139 111.117,243.033 110.400,241.006 110.400 C 240.093 110.400,238.458 110.149,237.373 109.841 C 236.288 109.534,233.870 109.184,232.000 109.063 C 230.130 108.943,226.980 108.564,225.000 108.222 C 223.020 107.880,217.440 107.418,212.600 107.194 C 207.760 106.971,202.540 106.620,201.000 106.415 C 197.026 105.884,180.004 106.013,173.600 106.622 M102.313 136.780 C 92.744 137.047,93.228 136.769,92.732 142.271 C 92.379 146.175,92.638 183.398,93.035 185.918 C 93.365 188.008,93.249 188.000,121.564 188.000 C 147.394 188.000,147.889 187.985,148.602 187.198 C 149.761 185.917,149.725 139.134,148.565 138.014 C 147.092 136.592,127.628 136.073,102.313 136.780 M166.085 136.759 C 162.354 137.409,162.400 137.078,162.400 163.000 C 162.400 185.245,162.537 187.600,163.833 187.600 C 164.258 187.600,164.202 187.295,163.596 186.300 C 162.831 185.046,162.803 184.227,162.801 163.308 C 162.800 139.874,162.867 139.081,164.948 137.888 C 166.087 137.235,213.084 136.939,215.235 137.571 C 218.311 138.476,218.122 136.860,218.163 162.568 L 218.200 185.533 217.233 186.564 L 216.266 187.594 190.633 187.700 L 165.000 187.806 190.900 187.903 C 220.811 188.015,218.121 188.410,218.611 183.831 C 218.767 182.379,218.824 171.774,218.738 160.264 C 218.564 137.007,218.635 137.589,215.927 137.043 C 214.034 136.661,168.147 136.400,166.085 136.759 M236.085 136.867 C 231.978 137.532,232.287 134.928,232.360 168.256 C 232.408 190.118,231.719 187.977,238.809 188.268 C 249.887 188.723,302.974 188.588,304.089 188.103 C 306.524 187.042,305.965 185.182,299.132 171.600 C 290.293 154.033,275.593 141.691,259.400 138.242 C 253.320 136.947,240.324 136.180,236.085 136.867 M147.500 137.914 L 148.400 138.428 148.400 162.590 C 148.400 181.481,148.291 186.823,147.900 187.076 C 147.045 187.629,95.231 187.724,94.568 187.173 C 93.398 186.202,93.865 139.437,95.064 137.496 C 95.440 136.887,146.413 137.293,147.500 137.914 M254.200 138.177 C 255.080 138.500,256.537 138.773,257.437 138.782 C 258.338 138.792,260.121 139.160,261.400 139.600 C 262.679 140.040,264.058 140.400,264.466 140.400 C 266.124 140.400,276.387 145.797,277.800 147.412 C 278.020 147.663,279.010 148.376,280.000 148.996 C 283.681 151.301,293.162 161.863,295.428 166.184 C 295.664 166.633,296.461 168.080,297.199 169.400 C 298.692 172.070,299.313 173.310,301.202 177.400 C 301.914 178.940,302.827 180.841,303.231 181.625 C 304.151 183.406,304.554 186.011,304.032 186.794 C 303.628 187.401,291.493 187.868,280.200 187.711 C 255.027 187.361,245.257 187.243,239.964 187.223 L 233.728 187.200 233.264 186.181 C 232.929 185.446,232.800 178.786,232.800 162.251 L 232.800 139.339 233.700 138.505 C 235.251 137.067,250.513 136.823,254.200 138.177 M77.994 221.558 C 76.054 223.598,76.097 223.225,75.630 241.898 L 75.236 257.595 74.218 259.333 C 73.004 261.405,72.748 267.344,73.769 269.786 C 75.165 273.130,81.923 274.774,86.128 272.793 C 88.793 271.538,89.172 270.784,89.461 266.160 C 89.597 263.982,89.931 261.750,90.203 261.200 C 90.475 260.650,90.924 259.480,91.200 258.600 C 91.652 257.158,92.758 254.770,94.534 251.400 C 96.970 246.777,104.011 240.916,109.714 238.765 C 111.521 238.084,113.298 237.371,113.663 237.183 C 114.978 236.502,121.447 235.907,125.184 236.123 C 128.254 236.301,128.648 236.267,127.200 235.951 C 109.392 232.059,91.048 246.448,88.780 266.084 C 88.100 271.976,87.850 272.203,82.067 272.191 C 77.075 272.181,75.714 271.660,74.561 269.318 C 73.416 266.993,73.583 262.838,74.941 259.839 C 76.364 256.697,76.352 256.836,76.583 239.488 C 76.802 223.031,76.743 223.426,79.281 221.587 L 80.920 220.400 175.467 220.400 L 270.013 220.400 274.907 221.386 C 289.361 224.300,294.026 226.901,307.777 239.712 C 310.861 242.585,312.984 243.269,319.786 243.582 C 329.672 244.037,329.635 243.982,329.723 258.187 C 329.811 272.307,330.423 271.738,314.922 271.929 C 301.148 272.099,301.433 272.215,300.803 266.185 C 297.945 238.838,265.891 225.680,244.829 243.208 C 238.900 248.142,233.200 259.270,233.200 265.912 C 233.200 268.457,232.393 270.562,231.164 271.219 C 229.433 272.146,163.957 272.661,158.901 271.788 C 157.219 271.498,156.531 270.170,155.966 266.121 C 154.312 254.258,148.123 244.849,138.811 240.042 C 135.904 238.541,130.429 236.400,129.500 236.400 C 128.743 236.400,130.547 237.574,131.325 237.587 C 131.959 237.598,133.325 238.143,137.200 239.933 C 144.522 243.314,151.506 251.247,153.210 258.116 C 153.385 258.822,153.905 260.431,154.364 261.690 C 154.869 263.073,155.200 264.943,155.200 266.410 C 155.200 268.873,155.946 270.978,157.127 271.842 C 158.595 272.918,229.733 273.369,231.043 272.311 C 232.750 270.931,233.598 269.790,233.759 268.651 C 233.857 267.963,234.149 265.870,234.408 264.000 C 234.815 261.068,236.080 256.944,237.222 254.828 C 237.409 254.483,237.840 253.568,238.181 252.796 C 238.521 252.023,239.250 250.906,239.800 250.313 C 240.350 249.720,240.800 249.108,240.800 248.954 C 240.800 246.629,251.716 238.466,255.800 237.736 C 256.460 237.618,257.810 237.224,258.800 236.861 C 262.015 235.680,273.369 235.941,277.259 237.285 C 289.670 241.572,299.308 254.057,300.298 267.130 C 300.454 269.183,300.776 270.440,301.376 271.330 L 302.231 272.600 313.193 272.707 C 325.718 272.828,327.026 272.615,329.244 270.089 L 330.524 268.631 330.273 257.717 C 329.920 242.349,330.450 243.020,318.200 242.424 C 314.680 242.252,311.748 242.087,311.684 242.056 C 311.620 242.025,310.352 240.875,308.866 239.500 C 298.361 229.782,289.064 223.200,285.843 223.200 C 285.357 223.200,284.777 223.017,284.554 222.794 C 284.331 222.571,282.815 222.110,281.186 221.770 C 279.558 221.431,277.967 220.938,277.651 220.676 C 277.211 220.311,253.990 220.175,178.285 220.091 L 79.492 219.983 77.994 221.558 M118.400 249.475 C 110.592 250.768,104.382 255.299,100.896 262.245 C 97.505 269.004,97.481 276.495,100.830 283.072 C 103.037 287.408,107.446 292.800,108.783 292.800 C 109.179 292.800,109.722 293.065,109.991 293.389 C 110.260 293.714,111.137 294.098,111.940 294.243 C 112.743 294.388,113.850 294.726,114.400 294.994 C 119.511 297.485,128.499 296.428,134.811 292.594 C 136.921 291.311,141.600 286.795,141.600 286.039 C 141.600 285.866,142.055 285.201,142.610 284.562 C 143.166 283.923,143.726 282.950,143.854 282.400 C 143.983 281.850,144.368 280.590,144.711 279.600 C 147.347 271.980,144.129 260.131,138.187 255.581 C 133.460 251.962,132.357 251.280,130.200 250.643 C 128.880 250.254,127.278 249.770,126.640 249.567 C 125.502 249.207,120.366 249.149,118.400 249.475 M263.200 249.477 C 256.775 250.560,247.200 256.773,247.200 259.860 C 247.200 260.157,247.041 260.400,246.847 260.400 C 246.652 260.400,246.388 260.715,246.258 261.100 C 246.129 261.485,245.859 262.070,245.658 262.400 C 238.954 273.412,246.106 291.712,258.353 294.883 C 262.494 295.955,266.337 296.457,268.400 296.195 C 269.610 296.042,271.121 295.930,271.758 295.946 C 272.395 295.963,273.385 295.729,273.958 295.426 C 274.531 295.123,275.855 294.573,276.900 294.204 C 277.945 293.836,278.800 293.396,278.800 293.228 C 278.800 293.060,279.143 292.760,279.562 292.561 C 281.836 291.483,287.600 285.194,287.600 283.790 C 287.600 283.610,287.838 283.179,288.129 282.831 C 288.420 282.484,288.892 281.390,289.178 280.400 C 289.464 279.410,289.961 277.743,290.283 276.695 C 290.922 274.613,290.827 270.593,290.092 268.600 C 289.848 267.940,289.441 266.590,289.186 265.600 C 288.931 264.610,288.559 263.530,288.359 263.200 C 288.159 262.870,287.890 262.330,287.761 262.000 C 286.978 259.988,286.326 259.108,283.693 256.507 C 277.748 250.634,270.696 248.214,263.200 249.477 M126.480 250.427 C 140.945 253.341,149.025 269.633,142.537 282.800 C 134.873 298.353,112.893 300.270,103.543 286.200 C 99.381 279.937,98.204 274.072,99.772 267.412 C 102.526 255.723,114.614 248.036,126.480 250.427 M272.566 250.791 C 284.633 253.877,291.468 265.437,288.844 278.322 C 284.875 297.819,256.802 301.904,247.116 284.394 C 237.133 266.347,252.753 245.724,272.566 250.791 M120.000 262.351 C 112.579 264.789,109.481 271.109,112.516 277.621 C 116.912 287.055,130.383 285.696,133.172 275.537 C 135.123 268.430,126.815 260.112,120.000 262.351 M264.178 262.757 C 255.860 265.753,253.561 274.117,259.270 280.618 C 265.429 287.633,278.200 282.628,278.200 273.200 C 278.200 265.887,270.796 260.373,264.178 262.757 M128.285 264.919 C 136.511 270.975,132.423 283.200,122.173 283.200 C 117.933 283.200,112.845 279.555,112.787 276.477 C 112.780 276.105,112.510 275.451,112.187 275.024 C 110.230 272.436,114.873 264.104,118.625 263.469 C 122.237 262.857,126.316 263.470,128.285 264.919 M272.860 264.592 C 274.948 265.974,276.496 268.213,277.379 271.129 L 278.112 273.552 277.173 275.867 C 276.244 278.156,273.907 281.200,273.079 281.200 C 272.844 281.200,272.221 281.604,271.695 282.098 C 269.445 284.212,263.185 283.351,259.887 280.475 C 257.166 278.101,255.872 272.156,257.423 269.156 C 258.251 267.555,260.764 264.800,261.398 264.800 C 261.675 264.800,262.117 264.541,262.380 264.224 C 263.568 262.793,270.510 263.037,272.860 264.592 " stroke="none" fill="#a0a0a0" fill-rule="evenodd"></path><path id="path3" d="M206.500 107.891 C 207.325 107.978,208.675 107.978,209.500 107.891 C 210.325 107.805,209.650 107.734,208.000 107.734 C 206.350 107.734,205.675 107.805,206.500 107.891 M157.100 108.282 C 157.595 108.378,158.405 108.378,158.900 108.282 C 159.395 108.187,158.990 108.109,158.000 108.109 C 157.010 108.109,156.605 108.187,157.100 108.282 M214.707 108.290 C 215.426 108.379,216.506 108.377,217.107 108.286 C 217.708 108.195,217.120 108.122,215.800 108.124 C 214.480 108.126,213.988 108.201,214.707 108.290 M219.505 108.683 C 220.002 108.779,220.722 108.775,221.105 108.675 C 221.487 108.575,221.080 108.496,220.200 108.501 C 219.320 108.505,219.007 108.587,219.505 108.683 M145.700 109.087 C 146.305 109.178,147.295 109.178,147.900 109.087 C 148.505 108.995,148.010 108.920,146.800 108.920 C 145.590 108.920,145.095 108.995,145.700 109.087 M222.905 109.087 C 223.514 109.179,224.414 109.177,224.905 109.082 C 225.397 108.987,224.900 108.911,223.800 108.914 C 222.700 108.917,222.297 108.995,222.905 109.087 M133.300 110.276 C 133.685 110.376,134.315 110.376,134.700 110.276 C 135.085 110.175,134.770 110.093,134.000 110.093 C 133.230 110.093,132.915 110.175,133.300 110.276 M232.500 110.276 C 232.885 110.376,233.515 110.376,233.900 110.276 C 234.285 110.175,233.970 110.093,233.200 110.093 C 232.430 110.093,232.115 110.175,232.500 110.276 M240.905 111.487 C 241.514 111.579,242.414 111.577,242.905 111.482 C 243.397 111.387,242.900 111.311,241.800 111.314 C 240.700 111.317,240.297 111.395,240.905 111.487 M274.000 121.735 C 274.000 122.006,276.874 123.659,277.046 123.487 C 277.126 123.408,276.473 122.939,275.596 122.446 C 274.718 121.952,274.000 121.633,274.000 121.735 M299.000 139.600 C 301.192 141.800,303.075 143.600,303.185 143.600 C 303.295 143.600,301.592 141.800,299.400 139.600 C 297.208 137.400,295.325 135.600,295.215 135.600 C 295.105 135.600,296.808 137.400,299.000 139.600 M108.100 136.676 C 108.485 136.776,109.115 136.776,109.500 136.676 C 109.885 136.575,109.570 136.493,108.800 136.493 C 108.030 136.493,107.715 136.575,108.100 136.676 M137.500 136.689 C 138.215 136.778,139.385 136.778,140.100 136.689 C 140.815 136.601,140.230 136.528,138.800 136.528 C 137.370 136.528,136.785 136.601,137.500 136.689 M165.700 136.676 C 166.085 136.776,166.715 136.776,167.100 136.676 C 167.485 136.575,167.170 136.493,166.400 136.493 C 165.630 136.493,165.315 136.575,165.700 136.676 M202.300 136.697 C 203.895 136.773,206.505 136.773,208.100 136.697 C 209.695 136.621,208.390 136.559,205.200 136.559 C 202.010 136.559,200.705 136.621,202.300 136.697 M244.100 136.676 C 244.485 136.776,245.115 136.776,245.500 136.676 C 245.885 136.575,245.570 136.493,244.800 136.493 C 244.030 136.493,243.715 136.575,244.100 136.676 M143.905 137.083 C 144.402 137.179,145.122 137.175,145.505 137.075 C 145.887 136.975,145.480 136.896,144.600 136.901 C 143.720 136.905,143.407 136.987,143.905 137.083 M251.100 137.082 C 251.595 137.178,252.405 137.178,252.900 137.082 C 253.395 136.987,252.990 136.909,252.000 136.909 C 251.010 136.909,250.605 136.987,251.100 137.082 M149.368 146.200 C 149.368 150.600,149.426 152.455,149.498 150.321 C 149.570 148.188,149.570 144.588,149.499 142.321 C 149.427 140.055,149.368 141.800,149.368 146.200 M218.531 143.000 C 218.533 144.540,218.605 145.121,218.692 144.291 C 218.779 143.461,218.777 142.201,218.689 141.491 C 218.600 140.781,218.529 141.460,218.531 143.000 M92.514 142.600 C 92.517 143.700,92.595 144.103,92.687 143.495 C 92.779 142.886,92.777 141.986,92.682 141.495 C 92.587 141.003,92.511 141.500,92.514 142.600 M232.142 145.400 C 232.141 147.380,232.208 148.240,232.292 147.312 C 232.376 146.384,232.377 144.764,232.295 143.712 C 232.212 142.660,232.143 143.420,232.142 145.400 M303.200 144.125 C 303.200 144.194,303.785 144.779,304.500 145.425 L 305.800 146.600 304.625 145.300 C 303.530 144.088,303.200 143.816,303.200 144.125 M285.200 152.600 C 287.060 154.470,288.672 156.000,288.782 156.000 C 288.892 156.000,287.460 154.470,285.600 152.600 C 283.740 150.730,282.128 149.200,282.018 149.200 C 281.908 149.200,283.340 150.730,285.200 152.600 M232.183 167.000 C 232.183 176.240,232.236 179.963,232.300 175.273 C 232.364 170.583,232.364 163.023,232.299 158.473 C 232.235 153.923,232.183 157.760,232.183 167.000 M291.375 159.332 C 291.991 160.139,292.576 160.800,292.675 160.800 C 292.953 160.800,291.221 158.460,290.709 158.144 C 290.459 157.989,290.759 158.524,291.375 159.332 M314.436 159.800 C 314.436 160.020,314.870 161.010,315.400 162.000 C 315.930 162.990,316.364 163.620,316.364 163.400 C 316.364 163.180,315.930 162.190,315.400 161.200 C 314.870 160.210,314.436 159.580,314.436 159.800 M293.624 162.300 C 294.154 162.905,294.748 163.580,294.943 163.800 C 295.451 164.373,294.521 162.736,293.863 161.900 C 293.560 161.515,293.165 161.200,292.986 161.200 C 292.807 161.200,293.094 161.695,293.624 162.300 M92.514 164.200 C 92.517 165.300,92.595 165.703,92.687 165.095 C 92.779 164.486,92.777 163.586,92.682 163.095 C 92.587 162.603,92.511 163.100,92.514 164.200 M296.039 165.776 C 296.501 166.559,296.956 167.200,297.050 167.200 C 297.334 167.200,296.036 164.869,295.602 164.601 C 295.380 164.464,295.577 164.993,296.039 165.776 M92.567 175.800 C 92.567 179.980,92.626 181.636,92.698 179.479 C 92.771 177.323,92.770 173.903,92.698 171.879 C 92.625 169.856,92.566 171.620,92.567 175.800 M149.291 178.369 C 149.213 185.403,149.105 186.652,148.515 187.369 L 147.830 188.200 148.723 187.380 C 149.600 186.576,149.615 186.408,149.500 178.380 L 149.382 170.200 149.291 178.369 M110.300 188.300 C 116.955 188.361,127.845 188.361,134.500 188.300 C 141.155 188.238,135.710 188.188,122.400 188.188 C 109.090 188.188,103.645 188.238,110.300 188.300 M189.500 188.300 C 194.175 188.364,201.825 188.364,206.500 188.300 C 211.175 188.236,207.350 188.183,198.000 188.183 C 188.650 188.183,184.825 188.236,189.500 188.300 M235.738 188.500 C 235.636 188.665,240.918 188.773,247.476 188.740 C 254.034 188.707,258.950 188.623,258.400 188.554 C 256.154 188.271,235.910 188.222,235.738 188.500 M260.500 188.687 C 261.105 188.778,262.095 188.778,262.700 188.687 C 263.305 188.595,262.810 188.520,261.600 188.520 C 260.390 188.520,259.895 188.595,260.500 188.687 M288.900 188.676 C 289.285 188.776,289.915 188.776,290.300 188.676 C 290.685 188.575,290.370 188.493,289.600 188.493 C 288.830 188.493,288.515 188.575,288.900 188.676 M297.300 188.676 C 297.685 188.776,298.315 188.776,298.700 188.676 C 299.085 188.575,298.770 188.493,298.000 188.493 C 297.230 188.493,296.915 188.575,297.300 188.676 M271.300 189.087 C 271.905 189.178,272.895 189.178,273.500 189.087 C 274.105 188.995,273.610 188.920,272.400 188.920 C 271.190 188.920,270.695 188.995,271.300 189.087 M277.700 189.091 C 278.525 189.178,279.875 189.178,280.700 189.091 C 281.525 189.005,280.850 188.934,279.200 188.934 C 277.550 188.934,276.875 189.005,277.700 189.091 M323.709 194.000 C 323.709 194.990,323.787 195.395,323.882 194.900 C 323.978 194.405,323.978 193.595,323.882 193.100 C 323.787 192.605,323.709 193.010,323.709 194.000 M78.370 203.700 C 78.903 204.305,79.713 204.779,80.170 204.754 C 80.974 204.709,80.975 204.701,80.200 204.514 C 79.760 204.407,78.950 203.933,78.400 203.460 L 77.400 202.600 78.370 203.700 M100.070 205.100 C 108.139 205.160,121.459 205.160,129.670 205.100 C 137.882 205.039,131.280 204.990,115.000 204.990 C 98.720 204.990,92.002 205.039,100.070 205.100 M234.705 205.083 C 235.202 205.179,235.922 205.175,236.305 205.075 C 236.687 204.975,236.280 204.896,235.400 204.901 C 234.520 204.905,234.207 204.987,234.705 205.083 M252.500 205.096 C 253.765 205.175,255.835 205.175,257.100 205.096 C 258.365 205.016,257.330 204.951,254.800 204.951 C 252.270 204.951,251.235 205.016,252.500 205.096 M272.500 205.491 C 273.325 205.578,274.675 205.578,275.500 205.491 C 276.325 205.405,275.650 205.334,274.000 205.334 C 272.350 205.334,271.675 205.405,272.500 205.491 M304.600 217.387 C 305.260 217.967,306.520 218.988,307.400 219.658 L 309.000 220.876 307.400 219.422 C 306.520 218.623,305.260 217.601,304.600 217.151 L 303.400 216.334 304.600 217.387 M324.114 221.800 C 324.117 222.900,324.195 223.303,324.287 222.695 C 324.379 222.086,324.377 221.186,324.282 220.695 C 324.187 220.203,324.111 220.700,324.114 221.800 M123.500 220.700 C 147.095 220.757,185.705 220.757,209.300 220.700 C 232.895 220.643,213.590 220.596,166.400 220.596 C 119.210 220.596,99.905 220.643,123.500 220.700 M261.320 220.698 C 263.255 220.772,266.315 220.771,268.120 220.697 C 269.924 220.623,268.340 220.563,264.600 220.564 C 260.860 220.564,259.384 220.625,261.320 220.698 M286.800 224.686 C 287.130 224.808,287.760 225.074,288.200 225.276 C 288.987 225.638,288.988 225.634,288.224 225.022 C 287.796 224.680,287.166 224.414,286.824 224.432 C 286.285 224.459,286.282 224.493,286.800 224.686 M318.500 227.487 C 319.105 227.578,320.095 227.578,320.700 227.487 C 321.305 227.395,320.810 227.320,319.600 227.320 C 318.390 227.320,317.895 227.395,318.500 227.487 M76.548 237.600 C 76.548 239.910,76.614 240.855,76.695 239.700 C 76.776 238.545,76.776 236.655,76.695 235.500 C 76.614 234.345,76.548 235.290,76.548 237.600 M121.400 235.200 C 121.840 235.389,122.740 235.544,123.400 235.544 C 124.423 235.544,124.482 235.493,123.800 235.200 C 123.360 235.011,122.460 234.856,121.800 234.856 C 120.777 234.856,120.718 234.907,121.400 235.200 M267.500 235.493 C 268.435 235.577,269.965 235.577,270.900 235.493 C 271.835 235.409,271.070 235.340,269.200 235.340 C 267.330 235.340,266.565 235.409,267.500 235.493 M302.800 235.325 C 302.800 235.394,303.385 235.979,304.100 236.625 L 305.400 237.800 304.225 236.500 C 303.130 235.288,302.800 235.016,302.800 235.325 M76.563 249.200 C 76.563 252.830,76.623 254.315,76.698 252.500 C 76.772 250.685,76.772 247.715,76.698 245.900 C 76.623 244.085,76.563 245.570,76.563 249.200 M98.981 244.500 L 97.400 246.200 99.100 244.619 C 100.681 243.148,100.984 242.800,100.681 242.800 C 100.616 242.800,99.851 243.565,98.981 244.500 M321.507 243.890 C 322.226 243.979,323.306 243.977,323.907 243.886 C 324.508 243.795,323.920 243.722,322.600 243.724 C 321.280 243.726,320.788 243.801,321.507 243.890 M327.603 245.478 C 328.145 246.095,328.746 246.780,328.940 247.000 C 329.133 247.220,329.007 246.837,328.660 246.148 C 328.313 245.460,327.712 244.775,327.324 244.626 C 326.789 244.421,326.856 244.626,327.603 245.478 M292.400 246.609 C 292.400 246.766,292.895 247.462,293.500 248.157 C 294.105 248.851,294.920 249.865,295.312 250.409 C 295.835 251.139,295.919 251.178,295.629 250.558 C 295.168 249.575,292.400 246.190,292.400 246.609 M238.829 249.491 C 238.153 250.311,237.600 251.161,237.600 251.380 C 237.600 251.599,237.898 251.333,238.262 250.789 C 238.627 250.245,239.288 249.395,239.732 248.900 C 240.176 248.405,240.431 248.000,240.299 248.000 C 240.167 248.000,239.505 248.671,238.829 249.491 M120.711 250.293 C 121.651 250.378,123.091 250.377,123.911 250.291 C 124.730 250.205,123.960 250.136,122.200 250.137 C 120.440 250.139,119.770 250.209,120.711 250.293 M265.511 250.293 C 266.451 250.378,267.891 250.377,268.711 250.291 C 269.530 250.205,268.760 250.136,267.000 250.137 C 265.240 250.139,264.570 250.209,265.511 250.293 M296.678 252.995 C 297.044 253.762,297.414 254.319,297.501 254.232 C 297.684 254.049,296.470 251.600,296.196 251.600 C 296.095 251.600,296.312 252.228,296.678 252.995 M279.200 253.746 C 279.200 253.856,279.740 254.330,280.400 254.800 C 281.060 255.270,281.600 255.564,281.600 255.454 C 281.600 255.344,281.060 254.870,280.400 254.400 C 279.740 253.930,279.200 253.636,279.200 253.746 M138.383 257.300 C 140.041 259.066,140.400 259.384,140.400 259.083 C 140.400 259.019,139.545 258.164,138.500 257.183 L 136.600 255.400 138.383 257.300 M234.865 257.417 C 234.195 258.888,234.323 259.202,235.047 257.865 C 235.386 257.240,235.588 256.654,235.496 256.563 C 235.405 256.471,235.121 256.856,234.865 257.417 M329.740 260.000 C 329.740 261.870,329.809 262.635,329.893 261.700 C 329.977 260.765,329.977 259.235,329.893 258.300 C 329.809 257.365,329.740 258.130,329.740 260.000 M73.794 263.710 C 73.649 264.870,73.696 266.445,73.899 267.210 C 74.200 268.344,74.265 267.956,74.253 265.100 C 74.236 261.045,74.157 260.804,73.794 263.710 M120.421 261.979 C 120.046 262.216,120.470 262.265,121.621 262.118 C 122.599 261.992,123.475 261.825,123.567 261.745 C 123.942 261.419,120.955 261.640,120.421 261.979 M265.304 261.927 C 265.029 262.102,265.770 262.233,266.965 262.221 C 268.151 262.209,268.914 262.068,268.660 261.906 C 268.051 261.517,265.929 261.530,265.304 261.927 M88.893 263.600 C 88.893 264.370,88.975 264.685,89.076 264.300 C 89.176 263.915,89.176 263.285,89.076 262.900 C 88.975 262.515,88.893 262.830,88.893 263.600 M129.781 265.138 C 130.651 266.052,131.424 266.800,131.500 266.800 C 131.836 266.800,130.147 264.884,129.223 264.216 C 128.620 263.780,128.849 264.159,129.781 265.138 M113.781 266.100 L 112.200 267.800 113.900 266.219 C 115.481 264.748,115.784 264.400,115.481 264.400 C 115.416 264.400,114.651 265.165,113.781 266.100 M232.920 266.400 C 232.920 267.610,232.995 268.105,233.087 267.500 C 233.178 266.895,233.178 265.905,233.087 265.300 C 232.995 264.695,232.920 265.190,232.920 266.400 M244.148 272.800 C 244.148 275.110,244.214 276.055,244.295 274.900 C 244.376 273.745,244.376 271.855,244.295 270.700 C 244.214 269.545,244.148 270.490,244.148 272.800 M87.126 270.888 C 86.535 271.499,86.188 272.000,86.356 272.000 C 86.735 272.000,88.599 270.045,88.368 269.889 C 88.276 269.826,87.716 270.276,87.126 270.888 M144.537 273.000 C 144.539 274.760,144.609 275.430,144.693 274.489 C 144.778 273.549,144.777 272.109,144.691 271.289 C 144.605 270.470,144.536 271.240,144.537 273.000 M218.300 271.897 C 219.895 271.973,222.505 271.973,224.100 271.897 C 225.695 271.821,224.390 271.759,221.200 271.759 C 218.010 271.759,216.705 271.821,218.300 271.897 M80.711 272.293 C 81.651 272.378,83.091 272.377,83.911 272.291 C 84.730 272.205,83.960 272.136,82.200 272.137 C 80.440 272.139,79.770 272.209,80.711 272.293 M166.500 272.276 C 166.885 272.376,167.515 272.376,167.900 272.276 C 168.285 272.175,167.970 272.093,167.200 272.093 C 166.430 272.093,166.115 272.175,166.500 272.276 M187.900 272.289 C 188.615 272.378,189.785 272.378,190.500 272.289 C 191.215 272.201,190.630 272.128,189.200 272.128 C 187.770 272.128,187.185 272.201,187.900 272.289 M200.118 272.298 C 201.833 272.373,204.533 272.372,206.118 272.297 C 207.703 272.221,206.300 272.159,203.000 272.160 C 199.700 272.161,198.403 272.222,200.118 272.298 M258.400 280.125 C 258.400 280.194,258.985 280.779,259.700 281.425 L 261.000 282.600 259.825 281.300 C 258.730 280.088,258.400 279.816,258.400 280.125 M273.600 281.660 C 272.830 282.335,272.562 282.705,273.004 282.481 C 273.735 282.111,275.547 280.378,275.162 280.416 C 275.073 280.425,274.370 280.985,273.600 281.660 M246.200 282.800 C 246.541 283.460,246.911 284.000,247.021 284.000 C 247.131 284.000,246.941 283.460,246.600 282.800 C 246.259 282.140,245.889 281.600,245.779 281.600 C 245.669 281.600,245.859 282.140,246.200 282.800 M121.305 284.287 C 121.914 284.379,122.814 284.377,123.305 284.282 C 123.797 284.187,123.300 284.111,122.200 284.114 C 121.100 284.117,120.697 284.195,121.305 284.287 M266.105 284.287 C 266.714 284.379,267.614 284.377,268.105 284.282 C 268.597 284.187,268.100 284.111,267.000 284.114 C 265.900 284.117,265.497 284.195,266.105 284.287 M138.073 288.333 C 137.123 289.294,136.415 290.148,136.498 290.231 C 136.582 290.315,137.437 289.581,138.400 288.600 C 139.363 287.619,140.071 286.765,139.975 286.702 C 139.879 286.639,139.023 287.373,138.073 288.333 M268.300 295.482 C 268.795 295.578,269.605 295.578,270.100 295.482 C 270.595 295.387,270.190 295.309,269.200 295.309 C 268.210 295.309,267.805 295.387,268.300 295.482 " stroke="none" fill="#7c7c7c" fill-rule="evenodd"></path><path id="path4" d="M164.400 107.807 C 164.070 107.897,160.560 108.179,156.600 108.433 C 146.195 109.103,141.475 109.600,147.800 109.361 C 150.440 109.261,155.750 109.001,159.600 108.782 C 167.892 108.311,207.744 108.314,213.200 108.786 C 215.290 108.967,219.880 109.329,223.400 109.590 C 226.920 109.850,230.700 110.310,231.800 110.610 C 232.900 110.911,235.510 111.352,237.600 111.590 C 245.016 112.437,250.226 113.315,252.200 114.053 C 253.300 114.463,254.602 114.800,255.094 114.800 C 255.586 114.800,257.652 115.353,259.687 116.029 C 263.194 117.194,264.919 117.946,268.600 119.915 C 269.480 120.385,271.100 121.196,272.200 121.716 C 273.300 122.237,275.640 123.444,277.400 124.400 C 279.160 125.356,281.264 126.466,282.075 126.866 C 282.886 127.266,283.668 127.787,283.813 128.022 C 283.959 128.257,284.465 128.620,284.939 128.830 C 294.482 133.044,308.737 149.447,316.031 164.608 C 317.584 167.837,318.941 170.392,319.047 170.287 C 319.152 170.181,318.150 167.806,316.819 165.007 C 315.489 162.209,314.400 159.845,314.400 159.753 C 314.400 159.256,308.745 150.595,306.857 148.200 C 302.817 143.075,288.766 129.600,287.462 129.600 C 287.353 129.600,285.782 128.681,283.971 127.558 C 280.362 125.320,276.126 123.008,271.800 120.916 C 270.260 120.171,268.640 119.361,268.200 119.115 C 262.787 116.088,247.376 111.592,242.400 111.589 C 241.630 111.588,238.840 111.226,236.200 110.784 C 233.560 110.341,228.880 109.709,225.800 109.378 C 222.720 109.047,218.490 108.594,216.400 108.370 C 212.761 107.980,165.640 107.470,164.400 107.807 M132.800 110.425 C 129.830 110.819,126.140 111.251,124.600 111.385 C 123.060 111.520,121.170 111.789,120.400 111.983 C 119.630 112.177,117.830 112.448,116.400 112.585 C 112.815 112.927,108.921 113.534,104.200 114.485 C 94.538 116.433,92.875 116.786,90.763 117.338 C 83.078 119.348,78.209 123.478,77.190 128.850 C 76.952 130.108,76.826 144.539,76.866 165.955 L 76.932 201.000 77.283 164.640 C 77.625 129.198,77.655 128.235,78.456 126.476 C 80.013 123.058,84.231 119.830,89.000 118.406 C 89.880 118.143,91.181 117.754,91.891 117.541 C 93.155 117.163,95.801 116.642,99.000 116.142 C 99.880 116.004,100.780 115.756,101.000 115.591 C 101.220 115.425,102.390 115.167,103.600 115.017 C 104.810 114.867,107.150 114.470,108.800 114.135 C 112.091 113.467,119.235 112.550,125.274 112.019 C 127.405 111.832,129.322 111.572,129.535 111.440 C 129.888 111.222,132.719 110.846,140.200 110.025 L 143.000 109.717 140.600 109.713 C 139.280 109.711,135.770 110.031,132.800 110.425 M96.600 136.371 C 91.657 136.883,91.979 135.127,92.087 160.950 L 92.174 181.800 92.391 160.400 C 92.617 138.172,92.649 137.790,94.336 137.148 C 98.274 135.651,147.407 136.412,148.880 137.993 C 150.098 139.301,149.983 186.329,148.759 187.438 C 147.980 188.143,146.971 188.216,135.259 188.418 L 122.600 188.636 135.331 188.718 L 148.062 188.800 149.259 187.603 L 150.456 186.405 150.328 162.611 L 150.200 138.818 149.189 137.807 C 148.315 136.933,147.638 136.744,144.189 136.408 C 139.893 135.991,100.566 135.960,96.600 136.371 M163.747 136.709 C 162.000 138.124,162.000 138.120,162.000 163.094 C 162.000 188.652,161.952 188.046,163.980 187.954 C 164.810 187.916,164.851 187.871,164.200 187.711 C 162.347 187.255,162.400 187.976,162.400 163.411 C 162.400 139.060,162.467 138.051,164.142 137.092 C 164.781 136.726,170.825 136.547,187.800 136.394 L 210.600 136.187 187.600 136.102 C 166.329 136.024,164.536 136.070,163.747 136.709 M234.676 136.551 C 231.582 137.416,231.800 135.459,231.800 162.320 C 231.800 189.615,231.637 188.151,234.800 189.187 C 237.349 190.022,303.072 189.580,304.647 188.717 C 306.819 187.527,306.809 186.160,304.593 181.400 C 303.876 179.860,302.888 177.700,302.397 176.600 C 299.881 170.958,296.773 165.139,295.034 162.817 C 294.135 161.617,293.220 160.331,293.000 159.960 C 292.288 158.758,283.217 149.365,281.686 148.244 C 280.869 147.646,279.292 146.491,278.182 145.678 C 277.072 144.865,275.092 143.660,273.782 143.000 C 272.472 142.340,271.310 141.710,271.200 141.600 C 270.990 141.390,268.903 140.400,267.200 139.703 C 266.203 139.294,263.411 138.470,260.000 137.578 C 259.010 137.319,257.660 136.931,257.000 136.716 C 254.970 136.056,236.923 135.922,234.676 136.551 M213.945 136.779 C 216.413 136.968,217.419 137.212,217.784 137.711 C 218.242 138.337,218.800 138.261,218.800 137.572 C 218.800 136.950,216.159 136.403,213.440 136.462 L 210.600 136.524 213.945 136.779 M256.000 137.400 C 264.959 138.869,274.795 143.011,279.307 147.214 C 279.766 147.641,280.424 148.084,280.771 148.197 C 281.753 148.519,289.507 156.539,292.902 160.744 C 295.659 164.160,300.147 172.409,303.594 180.400 C 304.306 182.050,305.048 183.571,305.244 183.780 C 305.912 184.493,305.660 187.541,304.900 187.936 C 303.179 188.832,240.913 189.386,235.277 188.556 C 232.040 188.079,232.200 189.447,232.200 162.332 C 232.200 135.541,231.968 137.498,235.222 136.808 C 237.612 136.301,251.758 136.704,256.000 137.400 M218.792 164.289 L 218.600 186.378 217.689 187.289 C 216.810 188.169,216.464 188.208,207.689 188.426 L 198.600 188.653 207.678 188.726 C 216.745 188.800,216.757 188.799,217.878 187.835 L 219.000 186.870 219.114 169.535 C 219.177 160.001,219.174 149.950,219.106 147.200 C 219.038 144.450,218.897 152.140,218.792 164.289 M319.230 171.400 C 319.218 171.840,319.489 173.100,319.831 174.200 C 322.645 183.242,323.788 193.832,323.738 210.400 C 323.695 224.381,323.543 225.522,321.594 226.499 C 320.504 227.046,320.386 227.199,321.056 227.199 C 322.935 227.201,323.683 225.987,324.028 222.374 C 324.479 217.647,324.477 199.565,324.025 196.633 C 323.819 195.295,323.447 191.846,323.199 188.969 C 322.950 186.092,322.592 183.122,322.402 182.369 C 322.212 181.616,321.610 179.110,321.063 176.800 C 319.946 172.084,319.264 170.076,319.230 171.400 M92.544 185.197 C 92.613 187.907,93.104 188.208,98.000 188.542 C 102.274 188.834,101.735 188.552,97.077 188.060 C 92.940 187.623,93.091 187.727,92.753 185.075 L 92.488 183.000 92.544 185.197 M172.518 188.298 C 174.233 188.373,176.933 188.372,178.518 188.297 C 180.103 188.221,178.700 188.159,175.400 188.160 C 172.100 188.161,170.803 188.222,172.518 188.298 M77.213 201.494 C 77.206 201.765,77.725 202.575,78.367 203.294 L 79.534 204.600 166.067 204.610 L 252.600 204.619 166.049 204.410 C 80.058 204.201,79.494 204.195,78.966 203.400 C 77.809 201.658,77.225 201.023,77.213 201.494 M256.800 204.792 C 259.880 205.104,276.666 205.322,276.367 205.047 C 276.275 204.962,271.160 204.802,265.000 204.691 C 258.840 204.580,255.150 204.625,256.800 204.792 M281.400 206.408 C 288.100 208.072,289.053 208.374,292.000 209.756 C 299.978 213.499,306.785 218.187,311.600 223.254 C 313.925 225.701,316.241 227.214,317.556 227.146 L 318.600 227.091 317.616 226.907 C 316.296 226.659,313.671 224.816,311.959 222.934 C 309.541 220.276,303.396 215.320,300.588 213.763 C 291.723 208.850,290.640 208.295,289.200 207.921 C 282.852 206.272,279.565 205.511,278.200 205.375 C 277.320 205.287,278.760 205.752,281.400 206.408 M253.511 220.693 C 254.451 220.778,255.891 220.777,256.711 220.691 C 257.530 220.605,256.760 220.536,255.000 220.537 C 253.240 220.539,252.570 220.609,253.511 220.693 M78.852 221.986 C 76.938 223.622,76.827 224.666,76.891 240.400 L 76.948 254.200 77.190 239.400 C 77.448 223.586,77.456 223.527,79.560 222.029 L 80.721 221.202 166.060 221.100 L 251.400 220.998 165.800 220.915 L 80.200 220.833 78.852 221.986 M269.600 221.220 C 270.590 221.428,272.570 221.773,274.000 221.986 C 277.256 222.473,280.342 223.117,280.814 223.409 C 281.013 223.531,282.426 223.960,283.956 224.362 C 289.291 225.763,296.887 230.591,303.850 237.007 C 311.356 243.924,311.243 243.878,322.859 244.647 C 326.150 244.865,326.382 244.944,327.659 246.260 L 329.000 247.644 329.000 257.522 C 329.000 271.996,330.086 270.958,314.800 271.104 C 301.246 271.234,302.266 271.682,301.366 265.200 C 301.015 262.670,300.592 260.420,300.426 260.200 C 300.260 259.980,299.887 258.900,299.596 257.800 C 298.874 255.067,295.949 249.602,294.000 247.346 C 290.146 242.885,281.782 237.096,277.349 235.822 C 273.422 234.693,265.529 234.070,264.400 234.800 C 263.990 235.065,265.040 235.190,267.717 235.194 C 284.677 235.220,299.411 248.834,300.962 265.910 C 301.493 271.757,301.492 271.757,312.600 271.935 C 329.862 272.212,329.751 272.312,329.526 256.536 L 329.400 247.672 328.173 246.158 C 326.664 244.293,326.039 244.121,319.681 243.813 C 311.566 243.419,311.301 243.281,301.847 234.529 C 293.449 226.755,281.561 221.697,270.000 220.979 L 267.800 220.842 269.600 221.220 M120.527 234.402 C 120.047 234.596,118.517 234.868,117.127 235.008 C 114.031 235.318,112.332 235.849,108.400 237.734 C 103.960 239.862,101.518 241.455,99.087 243.808 C 96.081 246.719,91.457 253.123,90.572 255.600 C 90.218 256.590,89.785 257.681,89.609 258.024 C 89.135 258.945,88.481 262.588,88.175 266.000 C 87.729 270.987,87.519 271.195,82.890 271.228 C 80.750 271.244,78.640 271.411,78.200 271.600 C 77.684 271.822,78.939 271.954,81.731 271.972 C 87.675 272.010,88.073 271.636,88.713 265.400 C 89.212 260.538,91.302 253.891,92.801 252.400 C 92.912 252.290,93.653 251.203,94.448 249.986 C 97.549 245.237,103.248 240.440,108.600 238.072 C 113.550 235.882,121.275 234.392,123.735 235.152 C 124.431 235.367,126.350 235.746,128.000 235.993 C 130.996 236.442,132.333 236.870,136.311 238.654 C 137.472 239.174,138.505 239.600,138.607 239.600 C 138.709 239.600,140.021 240.388,141.523 241.350 C 149.003 246.145,153.854 253.988,155.809 264.449 C 156.775 269.617,157.155 270.745,158.114 271.293 C 158.812 271.692,166.595 271.794,194.759 271.770 L 230.518 271.741 231.659 270.464 C 232.609 269.401,232.800 268.833,232.800 267.070 C 232.800 252.858,245.789 237.943,259.905 235.945 C 261.723 235.688,263.130 235.396,263.031 235.298 C 262.706 234.973,256.073 236.011,254.519 236.630 C 250.817 238.103,248.385 239.532,245.439 241.963 C 242.220 244.619,237.200 250.129,237.200 251.006 C 237.200 251.272,236.480 252.889,235.600 254.600 C 234.720 256.311,234.000 257.961,234.000 258.268 C 234.000 258.574,233.622 259.945,233.159 261.313 C 232.667 262.771,232.282 265.032,232.230 266.776 C 232.174 268.659,231.966 269.811,231.664 269.912 C 231.401 270.000,230.907 270.350,230.567 270.690 C 229.872 271.386,161.956 271.762,159.281 271.085 C 157.817 270.715,157.417 269.992,156.846 266.681 C 155.254 257.460,151.970 250.109,147.443 245.636 C 144.375 242.605,142.714 241.201,142.196 241.200 C 141.974 241.200,141.344 240.791,140.796 240.291 C 140.248 239.791,138.990 239.053,138.000 238.652 C 137.010 238.250,135.300 237.560,134.200 237.119 C 133.100 236.677,130.445 236.011,128.300 235.638 C 126.155 235.265,124.184 234.744,123.920 234.480 C 123.367 233.927,121.795 233.891,120.527 234.402 M115.800 251.046 C 98.739 256.082,93.776 277.014,106.618 289.771 C 109.104 292.240,113.411 294.400,115.848 294.400 C 116.284 294.400,116.837 294.597,117.078 294.838 C 117.318 295.078,117.836 295.213,118.228 295.138 C 118.952 294.998,114.192 293.200,113.098 293.200 C 110.323 293.200,105.012 288.225,102.442 283.218 C 93.370 265.545,109.291 246.244,128.400 251.749 C 141.367 255.485,148.032 270.782,141.902 282.740 C 140.603 285.275,134.976 291.181,133.045 292.036 C 132.580 292.242,131.660 292.730,131.000 293.120 C 129.406 294.064,126.131 294.852,122.205 295.236 L 119.000 295.550 122.800 295.400 C 126.660 295.248,131.139 294.115,132.431 292.963 C 132.779 292.653,133.249 292.400,133.475 292.400 C 134.715 292.400,141.119 285.280,142.630 282.221 C 150.842 265.596,133.758 245.745,115.800 251.046 M260.400 251.164 C 257.557 252.096,252.335 254.950,251.363 256.103 L 250.606 257.000 251.603 256.143 C 252.151 255.672,253.500 254.884,254.600 254.393 C 255.700 253.901,257.057 253.177,257.616 252.782 C 265.452 247.252,281.444 252.649,286.642 262.578 C 287.268 263.774,287.847 264.686,287.929 264.604 C 288.291 264.242,285.333 259.451,283.653 257.681 C 277.606 251.306,268.096 248.641,260.400 251.164 M76.460 256.289 C 76.427 256.777,75.926 258.217,75.346 259.489 C 73.612 263.294,73.995 269.761,76.030 271.019 C 76.270 271.167,76.151 270.683,75.765 269.944 C 74.783 268.059,74.495 262.669,75.289 261.034 C 75.618 260.355,76.108 259.334,76.377 258.765 C 76.646 258.196,76.788 257.206,76.693 256.565 C 76.567 255.720,76.503 255.644,76.460 256.289 M248.810 258.700 C 247.129 261.226,244.699 266.296,244.892 266.876 C 244.977 267.130,245.275 266.722,245.556 265.969 C 246.458 263.548,248.052 260.493,249.765 257.900 C 250.165 257.295,250.398 256.800,250.284 256.800 C 250.169 256.800,249.506 257.655,248.810 258.700 M118.036 262.541 C 110.562 266.404,108.903 270.982,112.264 278.472 C 113.435 281.081,115.774 283.399,117.651 283.811 C 118.287 283.951,119.357 284.339,120.029 284.674 C 121.313 285.315,124.554 285.122,125.014 284.377 C 125.142 284.170,125.762 284.000,126.391 284.000 C 128.056 284.000,131.676 280.562,133.034 277.692 C 135.275 272.955,132.901 264.778,128.800 263.108 C 123.006 260.748,121.643 260.677,118.036 262.541 M262.400 262.865 C 257.899 265.277,256.622 266.752,255.659 270.650 C 254.461 275.496,258.989 284.000,262.768 284.000 C 263.420 284.000,264.051 284.159,264.171 284.354 C 264.292 284.548,265.192 284.828,266.172 284.975 C 271.203 285.729,277.986 280.235,278.637 274.880 C 278.775 273.739,278.677 273.890,278.206 275.542 C 274.208 289.563,253.782 285.113,256.208 270.750 C 257.187 264.960,264.591 260.423,269.898 262.363 C 274.529 264.055,277.408 267.009,278.353 271.036 C 278.703 272.530,278.721 272.545,278.760 271.361 C 278.829 269.217,275.288 264.151,273.030 263.165 C 272.574 262.965,271.930 262.643,271.600 262.450 C 268.743 260.773,266.078 260.893,262.400 262.865 M124.800 262.169 C 133.752 264.956,136.500 274.594,130.154 280.941 C 128.453 282.642,127.918 282.940,124.772 283.944 C 118.142 286.060,111.200 280.116,111.200 272.324 C 111.200 266.037,118.858 260.319,124.800 262.169 M288.858 269.400 C 288.335 281.342,285.220 287.998,278.523 291.489 C 277.608 291.966,276.530 292.531,276.129 292.745 C 274.928 293.384,272.317 294.489,271.224 294.821 C 270.359 295.083,270.329 295.137,271.031 295.166 C 272.100 295.210,276.393 293.466,278.537 292.117 C 286.245 287.265,289.509 280.544,289.099 270.369 C 288.982 267.476,288.948 267.339,288.858 269.400 M244.558 273.200 L 244.623 279.000 246.066 281.800 C 248.151 285.844,248.960 287.195,249.300 287.197 C 249.465 287.199,249.600 287.447,249.600 287.749 C 249.600 290.111,258.353 294.601,263.800 295.033 L 265.400 295.160 264.000 294.824 C 253.338 292.266,251.196 290.673,246.754 282.000 L 245.012 278.600 244.753 273.000 L 244.493 267.400 244.558 273.200 " stroke="none" fill="#747474" fill-rule="evenodd"></path></g></svg>