<svg width="400" height="267" viewBox="0 0 400 267" fill="none" xmlns="http://www.w3.org/2000/svg">
<path fill-rule="evenodd" clip-rule="evenodd" d="M208.508 0.640151C192.361 3.53115 179.975 16.4441 178.049 32.3971C177.661 35.6091 177.929 42.6232 178.516 44.5972C178.712 45.2572 179.16 46.7872 179.512 47.9972C183.165 60.5612 194.745 70.6282 208.308 73.0292C212.475 73.7672 364.118 73.8861 368.475 73.1551C389.974 69.5481 403.87 48.0632 398.2 27.1972C394.823 14.7712 383.209 3.53315 371.327 1.19415C370.216 0.976152 368.394 0.617147 367.277 0.397147C363.9 -0.267853 212.286 -0.0368489 208.508 0.640151ZM214.508 96.6672C201.386 97.5432 187.859 108.12 183.521 120.897C176.418 141.82 188.209 163.278 209.996 169.075C214.162 170.184 281.252 170.185 285.417 169.076C319.509 160.003 324.688 114.38 293.25 100.069C290.676 98.8981 289.672 98.5341 285.708 97.3391C283.63 96.7131 222.474 96.1362 214.508 96.6672ZM30.108 193.392C16.08 196.116 4.366 206.992 1.237 220.197C0.2 224.575 0 226.093 0 229.597C0 262.092 40.011 278.414 62.852 255.237C76.985 240.895 76.937 218.55 62.74 203.666C58.77 199.504 52.237 195.68 46.308 194.048C41.487 192.72 34.931 192.455 30.108 193.392ZM122.908 193.41C113.187 195.365 106.157 199.655 100.011 207.38C94.583 214.203 91.348 226.593 92.938 234.466C93.583 237.657 94.602 241.718 94.929 242.397C95.088 242.727 95.721 244.077 96.337 245.397C99.014 251.143 103.332 256.178 108.615 259.713C111.48 261.63 113.024 262.451 116.708 264.017C117.737 264.454 121.632 265.396 124.732 265.958C128.151 266.577 278.865 266.577 282.284 265.958C291.596 264.271 299.911 259.868 304.955 253.951C323.957 231.662 311.907 198.113 283.135 193.202C279.275 192.543 126.228 192.742 122.908 193.41Z" fill="white"/>
</svg>
