<svg width="396" height="278" viewBox="0 0 396 278" fill="none" xmlns="http://www.w3.org/2000/svg">
<path fill-rule="evenodd" clip-rule="evenodd" d="M153.39 0.16344C139.86 0.30944 124.56 0.623439 119.39 0.860439C108.598 1.35444 86.2339 2.40844 75.3899 2.93344C71.3199 3.13044 64.3899 3.46344 59.9899 3.67344C52.0699 4.05244 46.7109 4.62244 44.3899 5.33444C35.8829 7.94244 29.9169 10.8394 25.7899 14.3644C25.2399 14.8344 23.4919 16.3234 21.9059 17.6734C18.0119 20.9894 13.1089 28.0854 11.3729 32.9194C11.0959 33.6894 10.6089 34.9494 10.2889 35.7194C9.20586 38.3304 9.07086 38.7174 8.39786 41.1194C8.02786 42.4394 7.56486 43.9694 7.36886 44.5194C7.17186 45.0694 6.57986 47.2294 6.05286 49.3194C4.10186 57.0534 3.26286 62.2114 2.15086 73.3194C0.283861 91.9544 -0.668139 151.215 0.533861 173.919C1.69286 195.812 2.58186 207.149 3.65286 213.719C3.77886 214.489 4.02486 216.199 4.19886 217.519C4.47986 219.633 4.86986 221.672 6.19086 227.919C6.74586 230.542 8.46986 236.374 9.38486 238.719C11.9739 245.359 13.8179 249.071 16.1419 252.319C18.8029 256.038 24.3519 261.719 25.3249 261.719C25.5039 261.719 26.0729 262.169 26.5899 262.719C27.1069 263.269 27.6609 263.719 27.8209 263.719C27.9819 263.719 29.1649 264.309 30.4519 265.031C34.9629 267.562 40.7919 269.665 46.1899 270.71C48.0599 271.071 50.2409 271.537 51.0359 271.743C51.8319 271.95 52.9809 272.119 53.5899 272.119C54.1989 272.119 55.3479 272.287 56.1439 272.492C61.0849 273.765 80.7529 274.62 147.99 276.484C156.57 276.721 168 277.112 173.39 277.352C186.022 277.914 214.136 277.915 225.294 277.354C230.077 277.114 240.47 276.722 248.39 276.483C342.618 273.639 339.671 273.795 350.79 271.06C364.686 267.642 373.555 261.516 380.745 250.372C383.132 246.671 385.687 241.534 386.055 239.694C386.186 239.039 386.45 238.405 386.642 238.287C386.833 238.169 386.99 237.72 386.99 237.29C386.99 236.86 387.169 236.196 387.388 235.814C388.027 234.7 389.604 228.853 390.597 223.919C393.221 210.884 393.983 202.133 395.492 167.719C396.301 149.279 396.028 112.146 394.976 97.5194C394.755 94.4394 394.384 88.9494 394.152 85.3194C393.012 67.5164 391.787 57.5064 389.792 49.7194C389.595 48.9494 389.176 47.2394 388.861 45.9194C388.283 43.4984 388 42.5814 387.376 41.1194C387.189 40.6794 386.571 38.9694 386.004 37.3194C385.438 35.6694 384.815 33.9594 384.622 33.5194C384.428 33.0794 383.876 31.8194 383.395 30.7194C379.595 22.0304 371.263 13.5124 362.51 9.36644C359.281 7.83744 352.981 5.71944 351.661 5.71944C351.138 5.71944 350.188 5.54844 349.55 5.33844C348.912 5.12844 346.41 4.75144 343.99 4.50044C341.57 4.24944 338.06 3.87644 336.19 3.67244C323.587 2.29744 303.358 1.32544 279.19 0.933437C266.43 0.727437 252.84 0.460441 248.99 0.342441C237.415 -0.0145592 179.677 -0.12256 153.39 0.16344ZM160.03 79.5654C164.124 81.7514 180.152 90.0984 185.79 92.9814C187.66 93.9374 189.28 94.8094 189.39 94.9194C189.5 95.0294 191.84 96.2694 194.59 97.6744C197.34 99.0804 201.12 101.03 202.99 102.008C204.86 102.986 209.09 105.186 212.39 106.897C215.69 108.608 219.83 110.779 221.59 111.721C223.35 112.663 227.13 114.643 229.99 116.121C240.883 121.752 246.485 124.669 249.19 126.121C250.73 126.947 254.51 128.92 257.59 130.504C264.755 134.19 264.772 134.207 262.541 135.341C259.591 136.842 245.552 144.112 234.39 149.918C231.53 151.406 226.67 153.922 223.59 155.511C220.51 157.099 216.1 159.394 213.79 160.611C211.48 161.829 206.8 164.261 203.39 166.017C199.98 167.773 195.21 170.247 192.79 171.514C190.37 172.782 185.51 175.305 181.99 177.121C178.47 178.937 173.34 181.594 170.59 183.024C160.698 188.17 157.626 189.719 157.31 189.719C157.134 189.719 156.99 164.699 156.99 134.119C156.99 87.6884 157.079 78.5194 157.53 78.5194C157.828 78.5194 158.953 78.9904 160.03 79.5654Z" fill="white"/>
</svg>
