<svg xmlns="http://www.w3.org/2000/svg" xmlns:xlink="http://www.w3.org/1999/xlink" version="1.1" width="1000" height="1000" viewBox="0 0 1000 1000" xml:space="preserve">
<desc>Created with Fabric.js 3.5.0</desc>
<defs>
</defs>
<rect x="0" y="0" width="100%" height="100%" fill="rgba(255,255,255,0)"/>
<g transform="matrix(28.4109 0 0 28.4109 500.0005 500.0004)" id="503515">
<path style="stroke: none; stroke-width: 1; stroke-dasharray: none; stroke-linecap: butt; stroke-dashoffset: 0; stroke-linejoin: miter; stroke-miterlimit: 4; is-custom-font: none; font-file-url: none; fill: rgb(255,255,255); fill-rule: nonzero; opacity: 1;" vector-effect="non-scaling-stroke" transform=" translate(-16, -15.9995)" d="M 31.771 26.307 h -7.464 c -0.125 0 -0.224 0.078 -0.224 0.229 v 2.021 c 0 0.125 0.078 0.224 0.229 0.224 h 7.458 c 0.13 0 0.229 -0.057 0.229 -0.219 v -2.021 c 0 -0.135 -0.078 -0.219 -0.229 -0.219 v -0.021 z M 21.953 3.286 c 0.021 0.047 0.036 0.089 0.063 0.161 v 25.052 c 0 0.083 -0.031 0.13 -0.052 0.151 c -0.042 0.052 -0.109 0.083 -0.177 0.083 h -21.583 c -0.052 0 -0.099 0 -0.13 -0.031 c -0.047 -0.047 -0.073 -0.109 -0.073 -0.177 v -25.104 c 0 -0.104 0.052 -0.177 0.13 -0.203 h 21.656 c 0.052 0 0.125 0.026 0.151 0.047 v 0.021 z M 2.422 26.099 c 0 0.099 0.052 0.182 0.13 0.203 h 16.859 c 0.073 -0.021 0.125 -0.099 0.125 -0.203 v -20.229 c 0 -0.094 -0.052 -0.177 -0.13 -0.198 h -16.854 c -0.073 0.026 -0.125 0.099 -0.125 0.198 z M 9.323 14.932 c 0.865 0 1.354 0.24 1.859 0.828 c 0.078 0.099 0.203 0.125 0.307 0.047 l 1.38 -1.229 c 0.099 -0.057 0.078 -0.219 0.026 -0.297 c -0.849 -1.021 -2.073 -1.656 -3.651 -1.656 c -2.12 0 -3.724 1.057 -4.344 2.938 c -0.219 0.661 -0.318 1.505 -0.318 2.641 c 0 1.141 0.099 1.979 0.339 2.641 c 0.62 1.901 2.219 2.938 4.339 2.938 c 1.604 0 2.823 -0.641 3.661 -1.62 c 0.063 -0.099 0.083 -0.219 -0.021 -0.302 l -1.38 -1.219 c -0.099 -0.063 -0.219 -0.063 -0.302 0.036 c -0.516 0.599 -1.057 0.917 -1.938 0.917 c -0.938 0 -1.656 -0.458 -1.958 -1.38 c -0.182 -0.516 -0.224 -1.156 -0.224 -1.974 c 0 -0.823 0.063 -1.427 0.245 -1.964 c 0.318 -0.875 1.021 -1.344 1.979 -1.344 z" stroke-linecap="round"/>
</g>
</svg>