<svg width="400" height="332" viewBox="0 0 400 332" fill="none" xmlns="http://www.w3.org/2000/svg">
<path fill-rule="evenodd" clip-rule="evenodd" d="M0 165.999V322.4H134.41H268.82L269.186 321.438C269.387 320.909 270.103 318.231 270.778 315.488L272.005 310.5L271.903 164.95L271.8 19.4L270.4 14.6L269 9.8L134.5 9.699L0 9.599V165.999ZM236.29 35.923C243.177 37.724 246.744 40.205 249.052 44.8L250.158 47L250.179 166L250.2 285L248.828 287.53C246.536 291.758 242.989 294.162 236.2 296.091L233 297L139.4 297.127C39.816 297.261 42.511 297.308 35.6 295.326C30.018 293.726 27.185 291.501 25.224 287.177C24.421 285.408 24.418 284.839 24.409 166.2L24.401 47L25.541 44.6C27.706 40.046 30.389 38.052 36.687 36.316C41.336 35.035 49.243 34.94 146.6 35.005L233 35.063L236.29 35.923ZM110.6 130.8C96.109 131.643 91.124 132.855 88.769 136.106C87.185 138.293 85.565 139.605 82.6 141.102C79.938 142.446 76.177 146.11 74.885 148.618C73.921 150.491 71.965 152.555 69.943 153.834C66.688 155.893 65.783 158.159 64.822 166.65C62.268 189.237 63.184 217.663 66.79 227.692L68.478 232.384L72.018 235.617C75.741 239.015 77.026 240.879 78.444 244.934C79.613 248.28 80.426 248.921 84.858 250.002C86.916 250.504 89.77 251.318 91.2 251.812C92.63 252.305 95.584 253.108 97.764 253.598C99.944 254.087 102.734 254.84 103.964 255.271C105.194 255.703 107.55 256.405 109.2 256.832C110.85 257.259 113.683 258.142 115.495 258.795C118.631 259.924 118.941 259.962 121.895 259.577C123.603 259.355 126.44 258.988 128.2 258.762C130.281 258.494 131.68 258.095 132.2 257.62C133.724 256.23 137.416 254.454 140.812 253.479C142.689 252.94 145.417 251.769 146.875 250.877C148.332 249.984 150.307 248.86 151.263 248.378C152.218 247.896 153.054 247.455 153.119 247.398C153.185 247.342 152.79 245.519 152.242 243.348C151.694 241.176 151.125 238.478 150.978 237.351C150.831 236.224 150.596 235.122 150.455 234.902C150.06 234.282 145.143 231.201 144.152 230.952C142.705 230.589 134.631 234.085 132.605 235.953C131.326 237.131 130.027 237.81 127.542 238.595C120.912 240.691 119.423 240.857 113.154 240.195C110.052 239.868 107.171 239.6 106.75 239.6C106.33 239.6 104.59 238.205 102.884 236.5C100.111 233.728 98.073 232.043 92.012 227.513C88.154 224.63 87.289 222.832 85.994 215.003C84.384 205.264 84.536 178.312 86.24 171.4C87.035 168.176 89.04 164.908 91.214 163.292C94.078 161.163 94.638 160.539 95.778 158.209C97.2 155.303 98.835 153.732 101.997 152.233L104.6 151L112.728 150.87C123.927 150.691 135.61 152.421 141.851 155.181L143.598 155.954L146.699 152.875C148.414 151.172 150.836 149.246 152.119 148.566L154.438 147.336L151.877 145.68C149.321 144.027 147.709 142.565 142.8 137.45C139.934 134.464 139.506 134.189 134.71 132.256C130.934 130.733 121.514 130.164 110.6 130.8ZM311.4 298.675C305.583 300.372 306.27 299.693 304.869 305.133L303.703 309.661L304.882 314.326C306.255 319.759 305.602 319.148 311.975 320.963L317.023 322.4L352.812 322.399C372.495 322.398 391.165 322.28 394.3 322.136L400 321.876V309.538V297.2L358.1 297.237L316.2 297.274L311.4 298.675Z" fill="white"/>
<path fill-rule="evenodd" clip-rule="evenodd" d="M0 4.59998V5.59998H134.515H269.03L270.945 7.54398C275.447 12.114 275.134 0.436966 275.187 166L275.233 309L274.183 315.185C273.004 322.125 272.723 322.853 270.425 324.93L268.798 326.4H134.399H0V327.4V328.4L134.5 328.39L269 328.38L270.894 326.991C273.504 325.076 274.701 323.088 275.486 319.367C276.524 314.441 276.798 23.932 275.772 15.409C275.381 12.157 274.839 9.39598 274.477 8.80898C273.466 7.17098 271.902 5.57498 270.308 4.55498L268.816 3.59998H134.408H0V4.59998ZM40.8 39.841C36.676 41.244 33.307 43.095 31.367 45.023L29.733 46.646L29.467 94.423C29.32 120.7 29.2 174.25 29.2 213.422V284.645L30.192 285.989C31.781 288.142 35.872 290.522 40.97 292.257L43.74 293.2L137.57 293.193L231.4 293.187L234.6 291.883C238.21 290.412 242.175 287.858 243.746 285.991L244.8 284.739V165.95V47.162L242.888 45.25C240.735 43.097 236.862 40.791 233.397 39.599C231.101 38.809 230.01 38.8 137.437 38.81L43.8 38.82L40.8 39.841ZM234.177 42.202C235.802 42.973 238.137 44.423 239.366 45.424L241.6 47.244V165.991V284.738L239.7 286.37C238.655 287.268 236.333 288.722 234.539 289.601L231.278 291.2H137.689C55.504 291.2 43.893 291.127 42.399 290.6C39.834 289.695 36.037 287.689 33.834 286.075L31.868 284.635L32.124 166.071C32.304 82.413 32.506 47.354 32.81 46.988C33.726 45.885 37.547 43.539 40.602 42.206L43.8 40.81L137.511 40.805L231.223 40.8L234.177 42.202ZM115.4 124.842C113.86 125.042 108.82 125.667 104.2 126.23C90.179 127.938 86.403 129.104 81.835 133.138C80.426 134.382 78.173 136.361 76.829 137.535C67.643 145.558 61.991 153.354 60.582 159.942C60.222 161.624 59.491 164.98 58.956 167.4C55.381 183.587 54.944 201.685 57.847 213.322C58.385 215.479 59.099 218.719 59.434 220.522C60.162 224.44 62.051 231.437 63.235 234.601C63.93 236.458 64.811 237.597 67.988 240.74C70.522 243.248 72.466 245.602 73.539 247.462C75.825 251.423 77.989 253.205 82.717 255.023C87.232 256.76 92.615 259.377 93.021 260.034C93.985 261.594 103.026 264.265 110 265.052C125.505 266.799 137.286 265.236 143.34 260.628C145.16 259.243 152.081 254.881 155.678 252.852C159.337 250.787 161.657 247.929 161.353 245.859C159.433 232.794 159.039 232.186 149.326 227.319C143.904 224.602 144.075 224.602 136.371 227.319C132.409 228.717 128.087 229.898 124.297 230.618L118.394 231.739L112.336 231.071L106.277 230.404L104.039 228.737C94.66 221.753 91.11 215.793 90.377 205.8C89.429 192.879 90.01 182.251 92.195 172.564C92.298 172.104 93.646 170.492 95.19 168.982C97.194 167.021 98.468 165.318 99.65 163.018C103.087 156.329 104.246 155.684 113.047 155.567C121.045 155.461 130.169 157.553 133.2 160.187C134.186 161.044 138.012 162.851 140.976 163.86L143.751 164.804L145.315 163.72C146.175 163.124 147.647 161.638 148.586 160.418C150.721 157.643 153.094 155.445 156.31 153.261C157.685 152.327 159.526 150.659 160.399 149.553L161.988 147.544L161.206 146.072C160.192 144.164 158.597 142.393 156.6 140.961C153.507 138.742 151.095 136.581 149.557 134.651C145.482 129.534 136.927 126.133 125.8 125.205C122.94 124.967 120.06 124.706 119.4 124.625C118.74 124.545 116.94 124.642 115.4 124.842ZM126.6 127.188C130.781 127.502 132.583 127.845 135.8 128.939C143.066 131.411 144.134 132.036 147.932 136.039C149.839 138.05 152.788 140.756 154.484 142.053C160.735 146.834 160.748 147.979 154.6 151.986C153.5 152.703 150.6 155.364 148.156 157.9L143.711 162.51L138.156 159.871C128.009 155.05 122.939 153.851 113.223 153.974C104.162 154.089 101.442 155.431 98.293 161.341C97.582 162.676 95.826 165.035 94.392 166.584C89.299 172.084 88.413 176.053 88.341 193.698C88.247 216.67 89.935 220.885 103.178 230.732L106.156 232.947L112.504 233.851C115.995 234.348 119.148 234.641 119.509 234.503C119.871 234.364 123.054 233.491 126.583 232.563C130.113 231.636 135.398 229.949 138.33 228.814L143.66 226.753L146.33 228.001C149.578 229.519 152.392 231.26 154.838 233.264L156.676 234.771L157.987 241.058L159.297 247.346L157.549 248.924C153.218 252.834 134.88 262.622 130.797 263.203C124.199 264.143 110.077 263.393 104.8 261.824C101.775 260.924 94.388 258.016 91.004 256.393C89.242 255.549 86.129 254.28 84.086 253.573C78.914 251.786 76.952 250.116 74.444 245.367C73.637 243.838 71.712 241.459 69.265 238.967L65.371 235L63.907 230.4C61.71 223.501 60.164 216.174 59.098 207.6C58.316 201.315 58.551 184.638 59.525 177.2C61.885 159.191 63.191 155.018 68.14 149.673C69.501 148.203 71.657 145.79 72.931 144.312C80.639 135.366 89.186 130.033 97.855 128.762C105.267 127.675 117.811 126.468 119.8 126.651C120.68 126.732 123.74 126.974 126.6 127.188ZM309.8 291.57C305.651 291.835 305.131 292.07 302.703 294.77C300.745 296.947 300.525 297.669 299.431 305.5C298.838 309.741 299.038 312.655 300.452 320.395C301.018 323.493 304.228 327.224 306.809 327.785C307.574 327.951 328.855 328.17 354.1 328.272L400 328.457V327.428V326.4L359.3 326.403C333.462 326.405 316.336 326.244 312.4 325.962L306.2 325.518L304.529 323.859C299.961 319.323 299.89 300.239 304.424 295.723C306.69 293.467 305.606 293.518 354.7 293.33L400 293.156V292.178V291.2L356.7 291.27C332.885 291.309 311.78 291.444 309.8 291.57Z" fill="white"/>
<path fill-rule="evenodd" clip-rule="evenodd" d="M0 7.59898V9.59898L134.5 9.69898L269 9.79998L270.4 14.6L271.8 19.4L271.903 164.95L272.005 310.5L270.778 315.488C270.103 318.231 269.387 320.909 269.186 321.438L268.82 322.4H134.41H0V324.4V326.4H134.399H268.798L270.425 324.93C272.723 322.853 273.004 322.125 274.183 315.185L275.233 309L275.187 166C275.134 0.436966 275.447 12.114 270.945 7.54398L269.03 5.59998H134.515H0V7.59898ZM50 35.203C33.866 35.606 28.912 37.51 25.541 44.6L24.401 47L24.409 166.2C24.418 284.839 24.421 285.408 25.224 287.177C27.185 291.501 30.018 293.726 35.6 295.326C42.511 297.308 39.816 297.261 139.4 297.127L233 297L236.2 296.091C242.989 294.162 246.536 291.758 248.828 287.53L250.2 285L250.179 166L250.158 47L249.052 44.8C246.744 40.205 243.177 37.724 236.29 35.923L233 35.063L146.6 35.005C99.08 34.973 55.61 35.062 50 35.203ZM233.397 39.599C236.862 40.791 240.735 43.097 242.888 45.25L244.8 47.162V165.95V284.739L243.746 285.991C242.175 287.858 238.21 290.412 234.6 291.883L231.4 293.187L137.57 293.193L43.74 293.2L40.97 292.257C35.872 290.522 31.781 288.142 30.192 285.989L29.2 284.645V213.422C29.2 174.25 29.32 120.7 29.467 94.423L29.733 46.646L31.367 45.023C33.307 43.095 36.676 41.244 40.8 39.841L43.8 38.82L137.437 38.81C230.01 38.8 231.101 38.809 233.397 39.599ZM110.8 127.226C97.254 128.549 92.74 129.366 89.055 131.162C85.233 133.025 76.564 140.095 72.931 144.312C71.657 145.79 69.501 148.203 68.14 149.673C63.191 155.018 61.885 159.191 59.525 177.2C58.551 184.638 58.316 201.315 59.098 207.6C60.164 216.174 61.71 223.501 63.907 230.4L65.371 235L69.265 238.967C71.712 241.459 73.637 243.838 74.444 245.367C76.952 250.116 78.914 251.786 84.086 253.573C86.129 254.28 89.242 255.549 91.004 256.393C94.388 258.016 101.775 260.924 104.8 261.824C110.077 263.393 124.199 264.143 130.797 263.203C134.88 262.622 153.218 252.834 157.549 248.924L159.297 247.346L157.987 241.058L156.676 234.771L154.838 233.264C152.392 231.26 149.578 229.519 146.33 228.001L143.66 226.753L138.33 228.814C135.398 229.949 130.113 231.636 126.583 232.563C123.054 233.491 119.871 234.364 119.509 234.503C119.148 234.641 115.995 234.348 112.504 233.851L106.156 232.947L103.178 230.732C89.935 220.885 88.247 216.67 88.341 193.698C88.413 176.053 89.299 172.084 94.392 166.584C95.826 165.035 97.582 162.676 98.293 161.341C101.442 155.431 104.162 154.089 113.223 153.974C122.939 153.851 128.009 155.05 138.156 159.871L143.711 162.51L148.156 157.9C150.6 155.364 153.5 152.703 154.6 151.986C160.748 147.979 160.735 146.834 154.484 142.053C152.788 140.756 149.839 138.05 147.932 136.039C144.134 132.036 143.066 131.411 135.8 128.939C132.583 127.845 130.781 127.502 126.6 127.188C123.74 126.974 120.68 126.732 119.8 126.651C118.92 126.57 114.87 126.829 110.8 127.226ZM134.71 132.256C139.506 134.189 139.934 134.464 142.8 137.45C147.709 142.565 149.321 144.027 151.877 145.68L154.438 147.336L152.119 148.566C150.836 149.246 148.414 151.172 146.699 152.875L143.598 155.954L141.851 155.181C135.61 152.421 123.927 150.691 112.728 150.87L104.6 151L101.997 152.233C98.835 153.732 97.2 155.303 95.778 158.209C94.638 160.539 94.078 161.163 91.214 163.292C89.04 164.908 87.035 168.176 86.24 171.4C84.536 178.312 84.384 205.264 85.994 215.003C87.289 222.832 88.154 224.63 92.012 227.513C98.073 232.043 100.111 233.728 102.884 236.5C104.59 238.205 106.33 239.6 106.75 239.6C107.171 239.6 110.052 239.868 113.154 240.195C119.423 240.857 120.912 240.691 127.542 238.595C130.027 237.81 131.326 237.131 132.605 235.953C134.631 234.085 142.705 230.589 144.152 230.952C145.143 231.201 150.06 234.282 150.455 234.902C150.596 235.122 150.831 236.224 150.978 237.351C151.125 238.478 151.694 241.176 152.242 243.348C152.79 245.519 153.185 247.342 153.119 247.398C153.054 247.455 152.218 247.896 151.263 248.378C150.307 248.86 148.332 249.984 146.875 250.877C145.417 251.769 142.689 252.94 140.812 253.479C137.416 254.454 133.724 256.23 132.2 257.62C131.68 258.095 130.281 258.494 128.2 258.762C126.44 258.988 123.603 259.355 121.895 259.577C118.941 259.962 118.631 259.924 115.495 258.795C113.683 258.142 110.85 257.259 109.2 256.832C107.55 256.405 105.194 255.703 103.964 255.271C102.734 254.84 99.944 254.087 97.764 253.598C95.584 253.108 92.63 252.305 91.2 251.812C89.77 251.318 86.916 250.504 84.858 250.002C80.426 248.921 79.613 248.28 78.444 244.934C77.026 240.879 75.741 239.015 72.018 235.617L68.478 232.384L66.79 227.692C63.184 217.663 62.268 189.237 64.822 166.65C65.783 158.159 66.688 155.893 69.943 153.834C71.965 152.555 73.921 150.491 74.885 148.618C76.177 146.11 79.938 142.446 82.6 141.102C85.565 139.605 87.185 138.293 88.769 136.106C90.656 133.501 92.811 132.647 99.6 131.814C114.631 129.97 129.504 130.157 134.71 132.256ZM313.2 293.462C312.43 293.535 310.509 293.7 308.931 293.829C306.246 294.047 305.962 294.164 304.477 295.665C299.89 300.297 299.926 319.289 304.529 323.859L306.2 325.518L312.4 325.962C316.336 326.244 333.462 326.405 359.3 326.403L400 326.4V324.3V322.2L358.625 322.332L317.249 322.464L312.088 320.995C305.584 319.143 306.257 319.765 304.882 314.326L303.703 309.661L304.869 305.133C306.273 299.683 305.546 300.378 311.655 298.639L316.71 297.2H358.355H400V295.2V293.2L357.3 293.264C333.815 293.299 313.97 293.388 313.2 293.462Z" fill="white"/>
<path fill-rule="evenodd" clip-rule="evenodd" d="M0 1.99999V3.59999H134.408H268.816L270.308 4.55499C271.902 5.57499 273.466 7.17099 274.477 8.80899C274.839 9.39599 275.381 12.157 275.772 15.409C276.798 23.932 276.524 314.441 275.486 319.367C274.701 323.088 273.504 325.076 270.894 326.991L269 328.38L134.5 328.39L0 328.4V330V331.6H134.7L269.4 331.599L271.8 330.45C276.231 328.328 277.8 325.628 278.536 318.86C279.213 312.64 279.2 17.848 278.523 12.274C277.766 6.03999 275.684 2.83699 271.333 1.20899C269.177 0.402992 268.712 0.399994 134.585 0.399994H0V1.99999ZM40.602 42.206C37.547 43.539 33.726 45.885 32.81 46.988C32.506 47.354 32.304 82.413 32.124 166.071L31.868 284.635L33.834 286.075C36.037 287.689 39.834 289.695 42.399 290.6C43.893 291.127 55.504 291.2 137.689 291.2H231.278L234.539 289.601C236.333 288.722 238.655 287.268 239.7 286.37L241.6 284.738V165.991V47.244L239.366 45.424C238.137 44.423 235.802 42.973 234.177 42.202L231.223 40.8L137.511 40.805L43.8 40.81L40.602 42.206ZM233.9 45.594L236.4 47.18V165.98V284.781L233.9 286.382L231.4 287.983L137.6 287.985L43.8 287.988L41 286.464L38.2 284.941L38.075 219.97C38.006 184.237 38.073 130.682 38.224 100.961L38.497 46.921L41.149 45.469L43.8 44.018L137.6 44.013L231.4 44.008L233.9 45.594ZM115.354 120.749C112.258 122.247 111.721 122.36 100.145 123.954C82.327 126.407 78.501 127.772 75.556 132.728C74.284 134.867 69.249 139.931 67.483 140.847C65.146 142.059 63.161 144.38 61.323 148.05C59.716 151.259 59.117 153.304 57.176 162.2C56.417 165.684 56.107 166.414 54.78 167.86C51.034 171.943 49.824 178.303 49.846 193.8C49.867 209.239 50.445 212.173 54.523 217.562C56.26 219.857 56.538 220.522 57.204 223.962C60.034 238.591 61.607 242.017 66.583 244.392C69.351 245.713 69.948 246.402 70.95 249.438C72.245 253.359 74.557 255.533 78.796 256.814C84.004 258.389 86.168 259.506 86.999 261.05C89.693 266.053 95.717 267.93 112 268.842C134.233 270.087 147.297 267.326 149.995 260.812C150.458 259.694 154.373 257.144 157.465 255.948C163.891 253.462 165.461 250.307 164.78 241.253C163.989 230.749 161.242 227.718 148.4 223.188C146.97 222.684 145.343 221.853 144.785 221.342L143.769 220.413L142.785 221.355C139.476 224.522 125.062 227.051 113.006 226.579L106.213 226.313L103.843 224.333C101.754 222.587 101.362 222.02 100.527 219.542C99.106 215.321 96.064 211.149 93.715 210.198C93.322 210.039 92.739 199.444 92.769 193C92.814 183.404 93.219 180.902 95.13 178.413C95.895 177.416 96.959 175.615 97.495 174.41C98.031 173.206 99.1 171.522 99.872 170.668C101.634 168.718 103.327 165.17 103.992 162.037C104.711 158.652 105.011 158.515 112.489 158.173C120.36 157.813 123.398 158.52 125.564 161.215C127.295 163.369 129.567 164.98 132.329 166.014C142.548 169.837 149.059 168.563 152.165 162.132C153.69 158.973 154.932 157.741 158 156.345C167.349 152.088 167.335 141.703 157.974 137.426C155.361 136.232 154.454 135.332 153.06 132.545C151.781 129.988 149.344 127.863 146.432 126.765C142.832 125.407 134.324 123.312 130.313 122.796C127.922 122.488 125.461 121.848 123.4 120.998C118.626 119.03 118.893 119.038 115.354 120.749ZM125.8 125.205C136.927 126.133 145.482 129.534 149.557 134.651C151.095 136.581 153.507 138.742 156.6 140.961C158.597 142.393 160.192 144.164 161.206 146.072L161.988 147.544L160.399 149.553C159.526 150.659 157.685 152.327 156.31 153.261C153.094 155.445 150.721 157.643 148.586 160.418C147.647 161.638 146.175 163.124 145.315 163.72L143.751 164.804L140.976 163.86C138.012 162.851 134.186 161.044 133.2 160.187C130.169 157.553 121.045 155.461 113.047 155.567C104.246 155.684 103.087 156.329 99.65 163.018C98.468 165.318 97.194 167.021 95.19 168.982C93.646 170.492 92.298 172.104 92.195 172.564C90.01 182.251 89.429 192.879 90.377 205.8C91.11 215.793 94.66 221.753 104.039 228.737L106.277 230.404L112.336 231.071L118.394 231.739L124.297 230.618C128.087 229.898 132.409 228.717 136.371 227.319C144.075 224.602 143.904 224.602 149.326 227.319C159.039 232.186 159.433 232.794 161.353 245.859C161.657 247.929 159.337 250.787 155.678 252.852C152.081 254.881 145.16 259.243 143.34 260.628C137.286 265.236 125.505 266.799 110 265.052C103.026 264.265 93.985 261.594 93.021 260.034C92.615 259.377 87.232 256.76 82.717 255.023C77.989 253.205 75.825 251.423 73.539 247.462C72.466 245.602 70.522 243.248 67.988 240.74C64.811 237.597 63.93 236.458 63.235 234.601C62.051 231.437 60.162 224.44 59.434 220.522C59.099 218.719 58.385 215.479 57.847 213.322C54.944 201.685 55.381 183.587 58.956 167.4C59.491 164.98 60.222 161.624 60.582 159.942C61.991 153.354 67.643 145.558 76.829 137.535C78.173 136.361 80.426 134.382 81.835 133.138C86.403 129.104 90.179 127.938 104.2 126.23C108.82 125.667 113.86 125.042 115.4 124.842C116.94 124.642 118.74 124.545 119.4 124.625C120.06 124.706 122.94 124.967 125.8 125.205ZM303.8 289.152C298.65 291.622 297.374 294.146 296.731 303.136C295.533 319.887 297.516 327.655 303.703 330.452L305.8 331.4L352.9 331.514L400 331.628V330.042V328.457L354.1 328.272C328.855 328.17 307.574 327.951 306.809 327.785C304.228 327.224 301.018 323.493 300.452 320.395C299.038 312.655 298.838 309.741 299.431 305.5C300.526 297.665 300.745 296.948 302.708 294.765C306.03 291.069 300.979 291.416 353.5 291.275L400 291.149V289.575V288H353.1L306.2 288.001L303.8 289.152Z" fill="white"/>
</svg>
