<svg xmlns="http://www.w3.org/2000/svg" xmlns:xlink="http://www.w3.org/1999/xlink" version="1.1" id="layer" x="0px" y="0px" style="enable-background:new 0 0 652 652;" xml:space="preserve" viewBox="26.3 262.1 599.84 126.7">
<style type="text/css">
	.st0{fill:#10162F;}
</style>
<title>Codecademy Logo</title>
<path class="st0" d="M51.2,349.1c-1.1-3.3-1.6-7.4-1.6-13c0-5.6,0.5-9.7,1.6-13c3-9.3,11-14.5,21.5-14.5c7.8,0,13.9,3.2,18.1,8.2  c0.4,0.4,0.4,1.1-0.1,1.5c0,0,0,0-0.1,0.1l-6.8,6.1c-0.5,0.4-1.1,0.4-1.5-0.3c-2.7-2.9-5.3-4.5-9.6-4.5c-4.7,0-8.2,2.3-9.7,6.8  c-0.8,2.6-1,5.7-1,9.7c0,4,0.3,7.2,1.1,9.8c1.5,4.4,5.1,6.8,9.7,6.8c4.3,0,7.1-1.6,9.6-4.5c0.4-0.5,1-0.5,1.5-0.1l6.8,6.1  c0.5,0.4,0.4,1,0.1,1.5c-4.2,4.9-10.2,8.1-18.1,8.1C62.3,363.6,54.2,358.6,51.2,349.1 M285.6,349.1c-1.1-3.3-1.6-7.4-1.6-13  c0-5.6,0.5-9.7,1.6-13c3-9.3,11-14.5,21.5-14.5c7.8,0,14,3.2,18.1,8.2c0.4,0.4,0.4,1.1-0.1,1.5c0,0,0,0-0.1,0.1l-6.8,6.1  c-0.5,0.4-1.1,0.4-1.5-0.3c-2.7-2.9-5.3-4.5-9.6-4.5c-4.7,0-8.2,2.3-9.7,6.8c-0.9,2.6-1.1,5.7-1.1,9.7c0,4,0.3,7.2,1.1,9.8  c1.5,4.4,5.1,6.8,9.7,6.8c4.3,0,7.1-1.6,9.6-4.5c0.4-0.5,1-0.5,1.5-0.1l6.8,6.1c0.5,0.4,0.4,1,0.1,1.5c-4.2,4.9-10.2,8.1-18.1,8.1  C296.6,363.6,288.7,358.6,285.6,349.1 M560.6,362.4c-0.6,0-1.1-0.4-1.1-1.1v-30.3c0-6.8-3.4-11.5-9.9-11.5c-6.3,0-10,4.7-10,11.5  v30.3c0,0.6-0.4,1.1-1.1,1.1h-10c-0.6,0-1.1-0.4-1.1-1.1v-30.3c0-6.8-3.4-11.5-9.9-11.5c-6.3,0-10,4.7-10,11.5v30.3  c0,0.6-0.4,1.1-1.1,1.1h-10c-0.6,0-1.1-0.4-1.1-1.1v-50.4c0-0.6,0.4-1.1,1.1-1.1h10c0.6,0,1.1,0.4,1.1,1.1v3.8h0.1  c2.3-3.3,6.8-6.1,13.8-6.1c6.2,0,11.1,2.5,14.3,6.9h0.1c4-4.4,9.2-6.9,16.7-6.9c12.1,0,19,8.3,19,19.6v33.2c0,0.6-0.4,1.1-1.1,1.1  L560.6,362.4L560.6,362.4z M585.5,380.9c-0.6,0-1.1-0.4-1.1-1.1v-8.7c0-0.6,0.4-1.1,1.1-1.1h1.9c4.2,0,6.2-1.9,7.8-6.2l1.5-4.4  l-19.1-49.6c-0.2-0.6,0.3-1.1,0.9-1.1h10.7c0.6,0,1.1,0.4,1.3,1.1l11.7,34.3h0.3l11.2-34.3c0.3-0.6,0.6-1.1,1.3-1.1h10.2  c0.6,0,1.1,0.4,0.9,1.1l-19.7,54.9c-4.5,12.5-8.8,16.4-17.6,16.4L585.5,380.9L585.5,380.9z M131.2,345.8c0.9-2.8,1.1-5.3,1.1-9.7  c0-4.4-0.3-6.8-1.1-9.7c-1.5-4.4-4.9-6.8-9.7-6.8c-4.8,0-8.3,2.5-9.9,6.8c-0.9,2.8-1.1,5.2-1.1,9.7c0,4.4,0.3,6.9,1.1,9.7  c1.5,4.4,4.9,6.8,9.9,6.8C126.3,352.8,129.7,350.2,131.2,345.8 M99.9,349.1c-1.1-3.7-1.8-7.2-1.8-13c0-5.8,0.5-9.2,1.8-13  c2.9-9.2,10.9-14.5,21.5-14.5c10.5,0,18.4,5.3,21.4,14.5c1.1,3.7,1.8,7.2,1.8,13c0,5.8-0.5,9.2-1.8,13c-2.9,9.2-10.9,14.5-21.4,14.5  S102.9,358.3,99.9,349.1 M354.3,308.6c-8.6,0-14.3,2-18.4,5.2c-0.4,0.4-0.5,0.9-0.3,1.4l4,7.2c0.4,0.5,1,0.6,1.5,0.3  c2.5-2,6.1-3.7,11.9-3.7c8.5,0,11.4,2.5,11.6,8.2v17.5c0,6.1-4.2,9-11.6,9c-5.8,0-9-2.1-9-6.6c0-4.9,3.4-7.1,11.2-7.1h2.4  c0.6,0,1.1-0.4,1.1-1.1v-6.9c0-0.6-0.4-1.1-1.1-1.1h-4.3c-12.9,0-20.8,5.3-20.8,16.7c0,11,8,16,17.6,16c7.3,0,12.3-2.5,14.7-6.1h0.1  v3.8c0,0.6,0.4,1.1,1.1,1.1h9.1c0.6,0,1.1-0.4,1.1-1.1V327C376,314.2,370.2,308.6,354.3,308.6 M226.4,330.8c-0.3,0-0.5,0.1-0.5,0.5  v8.2c0,0.3,0.1,0.5,0.5,0.5h26.8c0.8,0,1.1-0.4,1.1-1.1c0-8.5-0.5-12.1-1.8-15.8c-2.9-9-10.7-14.5-21.5-14.5  c-10.4,0-18.4,5.3-21.4,14.5c-1.1,3.4-1.8,7.6-1.8,13c0,5.4,0.8,9.5,1.9,12.9c2.9,9.2,10.7,14.6,21.7,14.6c9.6,0,16.9-3.7,21.5-9  c0.4-0.5,0.4-1.1-0.1-1.5l-6.3-5.7c-0.5-0.4-1.1-0.4-1.6,0.3c-2.7,2.9-6.3,5-12.3,5c-5.8,0-10-2.8-11.6-8c-0.3-0.8-0.5-1.5-0.6-2.3  c-0.4-2.5-0.6-5-0.6-7.6c0.1-3,0.3-4.9,0.6-7.3v-0.3c0.1-0.6,0.2-1.1,0.4-1.6c1.4-4.3,5.3-6.8,10.2-6.8c4.9,0,8.7,2.5,10.1,6.8  c0.4,1.4,0.6,2.9,0.6,4.4c0,0.4-0.3,0.6-0.6,0.6L226.4,330.8L226.4,330.8z M197.9,287.5h-10c-0.6,0-1.1,0.4-1.1,1.1v49.6  c-0.1,3-0.5,5-1,6.8c-1.4,4.4-4.8,6.7-9.7,6.7c-4.8,0-8.2-2.4-9.6-6.7c-0.8-2.4-1.1-5-1.1-9.8s0.4-7.4,1.1-9.8  c1.4-4.3,4.7-6.7,9.3-6.8h4.3c0.2,0,0.4-0.3,0.4-0.5v-10c0-0.3-0.1-0.4-0.4-0.5h-7.5c-8.7,0.1-15,4.3-17.7,12.6  c-1.3,4-1.9,7.7-1.9,14.8c0,7.1,0.5,10.7,1.9,14.8c2.7,8.5,9.2,12.6,18.1,12.6c7.1,0,11.4-2.7,13.8-6.2h0.1v3.9  c0,0.6,0.4,1.1,1.1,1.1h10c0.6,0,1.1-0.4,1.1-1.1v-71.9C199,287.9,198.5,287.5,197.9,287.5 M458.8,330.8c-0.3,0-0.5,0.1-0.5,0.5v8.2  c0,0.3,0.1,0.5,0.5,0.5h26.8c0.8,0,1.1-0.4,1.1-1.1c0-8.5-0.5-12.1-1.8-15.8c-2.9-9-10.7-14.5-21.5-14.5c-10.4,0-18.4,5.3-21.4,14.5  c-1.1,3.4-1.8,7.6-1.8,13c0,5.4,0.8,9.5,1.9,12.9c2.9,9.2,10.7,14.6,21.7,14.6c9.6,0,16.9-3.7,21.5-9c0.4-0.5,0.4-1.1-0.1-1.5  l-6.3-5.7c-0.5-0.4-1.1-0.4-1.6,0.3c-2.7,2.9-6.3,5-12.3,5c-5.8,0-10-2.8-11.6-8c-0.3-0.8-0.5-1.5-0.6-2.3c-0.4-2.5-0.6-5-0.6-7.6  c0.1-3,0.3-4.9,0.6-7.3v-0.3c0.1-0.6,0.2-1.1,0.4-1.6c1.4-4.3,5.3-6.8,10.2-6.8c4.9,0,8.7,2.5,10.1,6.8c0.4,1.4,0.6,2.9,0.6,4.4  c0,0.4-0.3,0.6-0.6,0.6L458.8,330.8L458.8,330.8z M430.2,287.5h-10c-0.6,0-1.1,0.4-1.1,1.1v49.7c-0.1,3-0.5,5-1,6.8  c-1.4,4.4-4.8,6.8-9.7,6.8c-4.9,0-8.2-2.4-9.6-6.8c-0.8-2.4-1.1-5-1.1-9.8s0.4-7.4,1.1-9.8c1.4-4.3,4.7-6.7,9.3-6.8h4.3  c0.6,0,1.1-0.4,1.1-1.1v-8.7c0-0.6-0.4-1.1-1.1-1.1h-7.3c-8.7,0.1-15.2,4.3-17.8,12.6c-1.3,4-1.9,7.7-1.9,14.9  c0,7.1,0.5,10.9,1.9,14.9c2.7,8.5,9.2,12.6,18.1,12.6c7.1,0,11.4-2.7,13.9-6.2h0.1v3.9c0,0.6,0.4,1.1,1.1,1.1h10  c0.6,0,1.1-0.4,1.1-1.1v-71.9C431.4,287.9,430.9,287.5,430.2,287.5 M286.1,378.3v8.4c0,1.6,0.4,2.1,2.1,2.1H322  c1.6,0,2.1-0.4,2.1-2.1v-8.4c0-1.6-0.4-2.1-2.1-2.1h-35.9C286.5,376.2,286.1,376.6,286.1,378.3 M41,376.2H39c0.3-0.1,0-0.5,0,0  V274.8c0,0.5,0.3,0.1,0,0h226c-0.3,0.1,0,0.5,0,0v99.3c0,1.5-0.3,1.9,0,2.1H41z M277.7,262.1C277.4,262.5,277.4,262.4,277.7,262.1  C277.4,262.4,277.4,262.4,277.7,262.1c-0.5,0.1-0.8,0-2.1,0H26.3c0.3,0.3,0,0.6,0,2.1v124.6c0-0.6,0.1-0.4,0,0h249.3  c1.4,0,1.6-0.1,2.1,0c-0.1-0.5,0-0.8,0-2.1V262.1z"/>
</svg>