<svg id="svg" version="1.1" xmlns="http://www.w3.org/2000/svg" xmlns:xlink="http://www.w3.org/1999/xlink" width="400" height="400" viewBox="0, 0, 400,400"><g id="svgg"><path id="path0" d="M0.000 199.999 L 0.000 356.400 134.410 356.400 L 268.820 356.400 269.186 355.438 C 269.387 354.909,270.103 352.231,270.778 349.488 L 272.005 344.500 271.903 198.950 L 271.800 53.400 270.400 48.600 L 269.000 43.800 134.500 43.699 L 0.000 43.599 0.000 199.999 M236.290 69.923 C 243.177 71.724,246.744 74.205,249.052 78.800 L 250.158 81.000 250.179 200.000 L 250.200 319.000 248.828 321.530 C 246.536 325.758,242.989 328.162,236.200 330.091 L 233.000 331.000 139.400 331.127 C 39.816 331.261,42.511 331.308,35.600 329.326 C 30.018 327.726,27.185 325.501,25.224 321.177 C 24.421 319.408,24.418 318.839,24.409 200.200 L 24.401 81.000 25.541 78.600 C 27.706 74.046,30.389 72.052,36.687 70.316 C 41.336 69.035,49.243 68.940,146.600 69.005 L 233.000 69.063 236.290 69.923 M110.600 164.800 C 96.109 165.643,91.124 166.855,88.769 170.106 C 87.185 172.293,85.565 173.605,82.600 175.102 C 79.938 176.446,76.177 180.110,74.885 182.618 C 73.921 184.491,71.965 186.555,69.943 187.834 C 66.688 189.893,65.783 192.159,64.822 200.650 C 62.268 223.237,63.184 251.663,66.790 261.692 L 68.478 266.384 72.018 269.617 C 75.741 273.015,77.026 274.879,78.444 278.934 C 79.613 282.280,80.426 282.921,84.858 284.002 C 86.916 284.504,89.770 285.318,91.200 285.812 C 92.630 286.305,95.584 287.108,97.764 287.598 C 99.944 288.087,102.734 288.840,103.964 289.271 C 105.194 289.703,107.550 290.405,109.200 290.832 C 110.850 291.259,113.683 292.142,115.495 292.795 C 118.631 293.924,118.941 293.962,121.895 293.577 C 123.603 293.355,126.440 292.988,128.200 292.762 C 130.281 292.494,131.680 292.095,132.200 291.620 C 133.724 290.230,137.416 288.454,140.812 287.479 C 142.689 286.940,145.417 285.769,146.875 284.877 C 148.332 283.984,150.307 282.860,151.263 282.378 C 152.218 281.896,153.054 281.455,153.119 281.398 C 153.185 281.342,152.790 279.519,152.242 277.348 C 151.694 275.176,151.125 272.478,150.978 271.351 C 150.831 270.224,150.596 269.122,150.455 268.902 C 150.060 268.282,145.143 265.201,144.152 264.952 C 142.705 264.589,134.631 268.085,132.605 269.953 C 131.326 271.131,130.027 271.810,127.542 272.595 C 120.912 274.691,119.423 274.857,113.154 274.195 C 110.052 273.868,107.171 273.600,106.750 273.600 C 106.330 273.600,104.590 272.205,102.884 270.500 C 100.111 267.728,98.073 266.043,92.012 261.513 C 88.154 258.630,87.289 256.832,85.994 249.003 C 84.384 239.264,84.536 212.312,86.240 205.400 C 87.035 202.176,89.040 198.908,91.214 197.292 C 94.078 195.163,94.638 194.539,95.778 192.209 C 97.200 189.303,98.835 187.732,101.997 186.233 L 104.600 185.000 112.728 184.870 C 123.927 184.691,135.610 186.421,141.851 189.181 L 143.598 189.954 146.699 186.875 C 148.414 185.172,150.836 183.246,152.119 182.566 L 154.438 181.336 151.877 179.680 C 149.321 178.027,147.709 176.565,142.800 171.450 C 139.934 168.464,139.506 168.189,134.710 166.256 C 130.934 164.733,121.514 164.164,110.600 164.800 M311.400 332.675 C 305.583 334.372,306.270 333.693,304.869 339.133 L 303.703 343.661 304.882 348.326 C 306.255 353.759,305.602 353.148,311.975 354.963 L 317.023 356.400 352.812 356.399 C 372.495 356.398,391.165 356.280,394.300 356.136 L 400.000 355.876 400.000 343.538 L 400.000 331.200 358.100 331.237 L 316.200 331.274 311.400 332.675 " stroke="none" fill="#e8e8e8" fill-rule="evenodd"></path><path id="path1" d="M0.000 38.600 L 0.000 39.600 134.515 39.600 L 269.030 39.600 270.945 41.544 C 275.447 46.114,275.134 34.437,275.187 200.000 L 275.233 343.000 274.183 349.185 C 273.004 356.125,272.723 356.853,270.425 358.930 L 268.798 360.400 134.399 360.400 L 0.000 360.400 0.000 361.400 L 0.000 362.400 134.500 362.390 L 269.000 362.380 270.894 360.991 C 273.504 359.076,274.701 357.088,275.486 353.367 C 276.524 348.441,276.798 57.932,275.772 49.409 C 275.381 46.157,274.839 43.396,274.477 42.809 C 273.466 41.171,271.902 39.575,270.308 38.555 L 268.816 37.600 134.408 37.600 L 0.000 37.600 0.000 38.600 M40.800 73.841 C 36.676 75.244,33.307 77.095,31.367 79.023 L 29.733 80.646 29.467 128.423 C 29.320 154.700,29.200 208.250,29.200 247.422 L 29.200 318.645 30.192 319.989 C 31.781 322.142,35.872 324.522,40.970 326.257 L 43.740 327.200 137.570 327.193 L 231.400 327.187 234.600 325.883 C 238.210 324.412,242.175 321.858,243.746 319.991 L 244.800 318.739 244.800 199.950 L 244.800 81.162 242.888 79.250 C 240.735 77.097,236.862 74.791,233.397 73.599 C 231.101 72.809,230.010 72.800,137.437 72.810 L 43.800 72.820 40.800 73.841 M234.177 76.202 C 235.802 76.973,238.137 78.423,239.366 79.424 L 241.600 81.244 241.600 199.991 L 241.600 318.738 239.700 320.370 C 238.655 321.268,236.333 322.722,234.539 323.601 L 231.278 325.200 137.689 325.200 C 55.504 325.200,43.893 325.127,42.399 324.600 C 39.834 323.695,36.037 321.689,33.834 320.075 L 31.868 318.635 32.124 200.071 C 32.304 116.413,32.506 81.354,32.810 80.988 C 33.726 79.885,37.547 77.539,40.602 76.206 L 43.800 74.810 137.511 74.805 L 231.223 74.800 234.177 76.202 M115.400 158.842 C 113.860 159.042,108.820 159.667,104.200 160.230 C 90.179 161.938,86.403 163.104,81.835 167.138 C 80.426 168.382,78.173 170.361,76.829 171.535 C 67.643 179.558,61.991 187.354,60.582 193.942 C 60.222 195.624,59.491 198.980,58.956 201.400 C 55.381 217.587,54.944 235.685,57.847 247.322 C 58.385 249.479,59.099 252.719,59.434 254.522 C 60.162 258.440,62.051 265.437,63.235 268.601 C 63.930 270.458,64.811 271.597,67.988 274.740 C 70.522 277.248,72.466 279.602,73.539 281.462 C 75.825 285.423,77.989 287.205,82.717 289.023 C 87.232 290.760,92.615 293.377,93.021 294.034 C 93.985 295.594,103.026 298.265,110.000 299.052 C 125.505 300.799,137.286 299.236,143.340 294.628 C 145.160 293.243,152.081 288.881,155.678 286.852 C 159.337 284.787,161.657 281.929,161.353 279.859 C 159.433 266.794,159.039 266.186,149.326 261.319 C 143.904 258.602,144.075 258.602,136.371 261.319 C 132.409 262.717,128.087 263.898,124.297 264.618 L 118.394 265.739 112.336 265.071 L 106.277 264.404 104.039 262.737 C 94.660 255.753,91.110 249.793,90.377 239.800 C 89.429 226.879,90.010 216.251,92.195 206.564 C 92.298 206.104,93.646 204.492,95.190 202.982 C 97.194 201.021,98.468 199.318,99.650 197.018 C 103.087 190.329,104.246 189.684,113.047 189.567 C 121.045 189.461,130.169 191.553,133.200 194.187 C 134.186 195.044,138.012 196.851,140.976 197.860 L 143.751 198.804 145.315 197.720 C 146.175 197.124,147.647 195.638,148.586 194.418 C 150.721 191.643,153.094 189.445,156.310 187.261 C 157.685 186.327,159.526 184.659,160.399 183.553 L 161.988 181.544 161.206 180.072 C 160.192 178.164,158.597 176.393,156.600 174.961 C 153.507 172.742,151.095 170.581,149.557 168.651 C 145.482 163.534,136.927 160.133,125.800 159.205 C 122.940 158.967,120.060 158.706,119.400 158.625 C 118.740 158.545,116.940 158.642,115.400 158.842 M126.600 161.188 C 130.781 161.502,132.583 161.845,135.800 162.939 C 143.066 165.411,144.134 166.036,147.932 170.039 C 149.839 172.050,152.788 174.756,154.484 176.053 C 160.735 180.834,160.748 181.979,154.600 185.986 C 153.500 186.703,150.600 189.364,148.156 191.900 L 143.711 196.510 138.156 193.871 C 128.009 189.050,122.939 187.851,113.223 187.974 C 104.162 188.089,101.442 189.431,98.293 195.341 C 97.582 196.676,95.826 199.035,94.392 200.584 C 89.299 206.084,88.413 210.053,88.341 227.698 C 88.247 250.670,89.935 254.885,103.178 264.732 L 106.156 266.947 112.504 267.851 C 115.995 268.348,119.148 268.641,119.509 268.503 C 119.871 268.364,123.054 267.491,126.583 266.563 C 130.113 265.636,135.398 263.949,138.330 262.814 L 143.660 260.753 146.330 262.001 C 149.578 263.519,152.392 265.260,154.838 267.264 L 156.676 268.771 157.987 275.058 L 159.297 281.346 157.549 282.924 C 153.218 286.834,134.880 296.622,130.797 297.203 C 124.199 298.143,110.077 297.393,104.800 295.824 C 101.775 294.924,94.388 292.016,91.004 290.393 C 89.242 289.549,86.129 288.280,84.086 287.573 C 78.914 285.786,76.952 284.116,74.444 279.367 C 73.637 277.838,71.712 275.459,69.265 272.967 L 65.371 269.000 63.907 264.400 C 61.710 257.501,60.164 250.174,59.098 241.600 C 58.316 235.315,58.551 218.638,59.525 211.200 C 61.885 193.191,63.191 189.018,68.140 183.673 C 69.501 182.203,71.657 179.790,72.931 178.312 C 80.639 169.366,89.186 164.033,97.855 162.762 C 105.267 161.675,117.811 160.468,119.800 160.651 C 120.680 160.732,123.740 160.974,126.600 161.188 M309.800 325.570 C 305.651 325.835,305.131 326.070,302.703 328.770 C 300.745 330.947,300.525 331.669,299.431 339.500 C 298.838 343.741,299.038 346.655,300.452 354.395 C 301.018 357.493,304.228 361.224,306.809 361.785 C 307.574 361.951,328.855 362.170,354.100 362.272 L 400.000 362.457 400.000 361.428 L 400.000 360.400 359.300 360.403 C 333.462 360.405,316.336 360.244,312.400 359.962 L 306.200 359.518 304.529 357.859 C 299.961 353.323,299.890 334.239,304.424 329.723 C 306.690 327.467,305.606 327.518,354.700 327.330 L 400.000 327.156 400.000 326.178 L 400.000 325.200 356.700 325.270 C 332.885 325.309,311.780 325.444,309.800 325.570 " stroke="none" fill="#82848a" fill-rule="evenodd"></path><path id="path2" d="M0.000 41.599 L 0.000 43.599 134.500 43.699 L 269.000 43.800 270.400 48.600 L 271.800 53.400 271.903 198.950 L 272.005 344.500 270.778 349.488 C 270.103 352.231,269.387 354.909,269.186 355.438 L 268.820 356.400 134.410 356.400 L 0.000 356.400 0.000 358.400 L 0.000 360.400 134.399 360.400 L 268.798 360.400 270.425 358.930 C 272.723 356.853,273.004 356.125,274.183 349.185 L 275.233 343.000 275.187 200.000 C 275.134 34.437,275.447 46.114,270.945 41.544 L 269.030 39.600 134.515 39.600 L 0.000 39.600 0.000 41.599 M50.000 69.203 C 33.866 69.606,28.912 71.510,25.541 78.600 L 24.401 81.000 24.409 200.200 C 24.418 318.839,24.421 319.408,25.224 321.177 C 27.185 325.501,30.018 327.726,35.600 329.326 C 42.511 331.308,39.816 331.261,139.400 331.127 L 233.000 331.000 236.200 330.091 C 242.989 328.162,246.536 325.758,248.828 321.530 L 250.200 319.000 250.179 200.000 L 250.158 81.000 249.052 78.800 C 246.744 74.205,243.177 71.724,236.290 69.923 L 233.000 69.063 146.600 69.005 C 99.080 68.973,55.610 69.062,50.000 69.203 M233.397 73.599 C 236.862 74.791,240.735 77.097,242.888 79.250 L 244.800 81.162 244.800 199.950 L 244.800 318.739 243.746 319.991 C 242.175 321.858,238.210 324.412,234.600 325.883 L 231.400 327.187 137.570 327.193 L 43.740 327.200 40.970 326.257 C 35.872 324.522,31.781 322.142,30.192 319.989 L 29.200 318.645 29.200 247.422 C 29.200 208.250,29.320 154.700,29.467 128.423 L 29.733 80.646 31.367 79.023 C 33.307 77.095,36.676 75.244,40.800 73.841 L 43.800 72.820 137.437 72.810 C 230.010 72.800,231.101 72.809,233.397 73.599 M110.800 161.226 C 97.254 162.549,92.740 163.366,89.055 165.162 C 85.233 167.025,76.564 174.095,72.931 178.312 C 71.657 179.790,69.501 182.203,68.140 183.673 C 63.191 189.018,61.885 193.191,59.525 211.200 C 58.551 218.638,58.316 235.315,59.098 241.600 C 60.164 250.174,61.710 257.501,63.907 264.400 L 65.371 269.000 69.265 272.967 C 71.712 275.459,73.637 277.838,74.444 279.367 C 76.952 284.116,78.914 285.786,84.086 287.573 C 86.129 288.280,89.242 289.549,91.004 290.393 C 94.388 292.016,101.775 294.924,104.800 295.824 C 110.077 297.393,124.199 298.143,130.797 297.203 C 134.880 296.622,153.218 286.834,157.549 282.924 L 159.297 281.346 157.987 275.058 L 156.676 268.771 154.838 267.264 C 152.392 265.260,149.578 263.519,146.330 262.001 L 143.660 260.753 138.330 262.814 C 135.398 263.949,130.113 265.636,126.583 266.563 C 123.054 267.491,119.871 268.364,119.509 268.503 C 119.148 268.641,115.995 268.348,112.504 267.851 L 106.156 266.947 103.178 264.732 C 89.935 254.885,88.247 250.670,88.341 227.698 C 88.413 210.053,89.299 206.084,94.392 200.584 C 95.826 199.035,97.582 196.676,98.293 195.341 C 101.442 189.431,104.162 188.089,113.223 187.974 C 122.939 187.851,128.009 189.050,138.156 193.871 L 143.711 196.510 148.156 191.900 C 150.600 189.364,153.500 186.703,154.600 185.986 C 160.748 181.979,160.735 180.834,154.484 176.053 C 152.788 174.756,149.839 172.050,147.932 170.039 C 144.134 166.036,143.066 165.411,135.800 162.939 C 132.583 161.845,130.781 161.502,126.600 161.188 C 123.740 160.974,120.680 160.732,119.800 160.651 C 118.920 160.570,114.870 160.829,110.800 161.226 M134.710 166.256 C 139.506 168.189,139.934 168.464,142.800 171.450 C 147.709 176.565,149.321 178.027,151.877 179.680 L 154.438 181.336 152.119 182.566 C 150.836 183.246,148.414 185.172,146.699 186.875 L 143.598 189.954 141.851 189.181 C 135.610 186.421,123.927 184.691,112.728 184.870 L 104.600 185.000 101.997 186.233 C 98.835 187.732,97.200 189.303,95.778 192.209 C 94.638 194.539,94.078 195.163,91.214 197.292 C 89.040 198.908,87.035 202.176,86.240 205.400 C 84.536 212.312,84.384 239.264,85.994 249.003 C 87.289 256.832,88.154 258.630,92.012 261.513 C 98.073 266.043,100.111 267.728,102.884 270.500 C 104.590 272.205,106.330 273.600,106.750 273.600 C 107.171 273.600,110.052 273.868,113.154 274.195 C 119.423 274.857,120.912 274.691,127.542 272.595 C 130.027 271.810,131.326 271.131,132.605 269.953 C 134.631 268.085,142.705 264.589,144.152 264.952 C 145.143 265.201,150.060 268.282,150.455 268.902 C 150.596 269.122,150.831 270.224,150.978 271.351 C 151.125 272.478,151.694 275.176,152.242 277.348 C 152.790 279.519,153.185 281.342,153.119 281.398 C 153.054 281.455,152.218 281.896,151.263 282.378 C 150.307 282.860,148.332 283.984,146.875 284.877 C 145.417 285.769,142.689 286.940,140.812 287.479 C 137.416 288.454,133.724 290.230,132.200 291.620 C 131.680 292.095,130.281 292.494,128.200 292.762 C 126.440 292.988,123.603 293.355,121.895 293.577 C 118.941 293.962,118.631 293.924,115.495 292.795 C 113.683 292.142,110.850 291.259,109.200 290.832 C 107.550 290.405,105.194 289.703,103.964 289.271 C 102.734 288.840,99.944 288.087,97.764 287.598 C 95.584 287.108,92.630 286.305,91.200 285.812 C 89.770 285.318,86.916 284.504,84.858 284.002 C 80.426 282.921,79.613 282.280,78.444 278.934 C 77.026 274.879,75.741 273.015,72.018 269.617 L 68.478 266.384 66.790 261.692 C 63.184 251.663,62.268 223.237,64.822 200.650 C 65.783 192.159,66.688 189.893,69.943 187.834 C 71.965 186.555,73.921 184.491,74.885 182.618 C 76.177 180.110,79.938 176.446,82.600 175.102 C 85.565 173.605,87.185 172.293,88.769 170.106 C 90.656 167.501,92.811 166.647,99.600 165.814 C 114.631 163.970,129.504 164.157,134.710 166.256 M313.200 327.462 C 312.430 327.535,310.509 327.700,308.931 327.829 C 306.246 328.047,305.962 328.164,304.477 329.665 C 299.890 334.297,299.926 353.289,304.529 357.859 L 306.200 359.518 312.400 359.962 C 316.336 360.244,333.462 360.405,359.300 360.403 L 400.000 360.400 400.000 358.300 L 400.000 356.200 358.625 356.332 L 317.249 356.464 312.088 354.995 C 305.584 353.143,306.257 353.765,304.882 348.326 L 303.703 343.661 304.869 339.133 C 306.273 333.683,305.546 334.378,311.655 332.639 L 316.710 331.200 358.355 331.200 L 400.000 331.200 400.000 329.200 L 400.000 327.200 357.300 327.264 C 333.815 327.299,313.970 327.388,313.200 327.462 " stroke="none" fill="#a4acac" fill-rule="evenodd"></path><path id="path3" d="M0.000 36.000 L 0.000 37.600 134.408 37.600 L 268.816 37.600 270.308 38.555 C 271.902 39.575,273.466 41.171,274.477 42.809 C 274.839 43.396,275.381 46.157,275.772 49.409 C 276.798 57.932,276.524 348.441,275.486 353.367 C 274.701 357.088,273.504 359.076,270.894 360.991 L 269.000 362.380 134.500 362.390 L 0.000 362.400 0.000 364.000 L 0.000 365.600 134.700 365.600 L 269.400 365.599 271.800 364.450 C 276.231 362.328,277.800 359.628,278.536 352.860 C 279.213 346.640,279.200 51.848,278.523 46.274 C 277.766 40.040,275.684 36.837,271.333 35.209 C 269.177 34.403,268.712 34.400,134.585 34.400 L 0.000 34.400 0.000 36.000 M40.602 76.206 C 37.547 77.539,33.726 79.885,32.810 80.988 C 32.506 81.354,32.304 116.413,32.124 200.071 L 31.868 318.635 33.834 320.075 C 36.037 321.689,39.834 323.695,42.399 324.600 C 43.893 325.127,55.504 325.200,137.689 325.200 L 231.278 325.200 234.539 323.601 C 236.333 322.722,238.655 321.268,239.700 320.370 L 241.600 318.738 241.600 199.991 L 241.600 81.244 239.366 79.424 C 238.137 78.423,235.802 76.973,234.177 76.202 L 231.223 74.800 137.511 74.805 L 43.800 74.810 40.602 76.206 M233.900 79.594 L 236.400 81.180 236.400 199.980 L 236.400 318.781 233.900 320.382 L 231.400 321.983 137.600 321.985 L 43.800 321.988 41.000 320.464 L 38.200 318.941 38.075 253.970 C 38.006 218.237,38.073 164.682,38.224 134.961 L 38.497 80.921 41.149 79.469 L 43.800 78.018 137.600 78.013 L 231.400 78.008 233.900 79.594 M115.354 154.749 C 112.258 156.247,111.721 156.360,100.145 157.954 C 82.327 160.407,78.501 161.772,75.556 166.728 C 74.284 168.867,69.249 173.931,67.483 174.847 C 65.146 176.059,63.161 178.380,61.323 182.050 C 59.716 185.259,59.117 187.304,57.176 196.200 C 56.417 199.684,56.107 200.414,54.780 201.860 C 51.034 205.943,49.824 212.303,49.846 227.800 C 49.867 243.239,50.445 246.173,54.523 251.562 C 56.260 253.857,56.538 254.522,57.204 257.962 C 60.034 272.591,61.607 276.017,66.583 278.392 C 69.351 279.713,69.948 280.402,70.950 283.438 C 72.245 287.359,74.557 289.533,78.796 290.814 C 84.004 292.389,86.168 293.506,86.999 295.050 C 89.693 300.053,95.717 301.930,112.000 302.842 C 134.233 304.087,147.297 301.326,149.995 294.812 C 150.458 293.694,154.373 291.144,157.465 289.948 C 163.891 287.462,165.461 284.307,164.780 275.253 C 163.989 264.749,161.242 261.718,148.400 257.188 C 146.970 256.684,145.343 255.853,144.785 255.342 L 143.769 254.413 142.785 255.355 C 139.476 258.522,125.062 261.051,113.006 260.579 L 106.213 260.313 103.843 258.333 C 101.754 256.587,101.362 256.020,100.527 253.542 C 99.106 249.321,96.064 245.149,93.715 244.198 C 93.322 244.039,92.739 233.444,92.769 227.000 C 92.814 217.404,93.219 214.902,95.130 212.413 C 95.895 211.416,96.959 209.615,97.495 208.410 C 98.031 207.206,99.100 205.522,99.872 204.668 C 101.634 202.718,103.327 199.170,103.992 196.037 C 104.711 192.652,105.011 192.515,112.489 192.173 C 120.360 191.813,123.398 192.520,125.564 195.215 C 127.295 197.369,129.567 198.980,132.329 200.014 C 142.548 203.837,149.059 202.563,152.165 196.132 C 153.690 192.973,154.932 191.741,158.000 190.345 C 167.349 186.088,167.335 175.703,157.974 171.426 C 155.361 170.232,154.454 169.332,153.060 166.545 C 151.781 163.988,149.344 161.863,146.432 160.765 C 142.832 159.407,134.324 157.312,130.313 156.796 C 127.922 156.488,125.461 155.848,123.400 154.998 C 118.626 153.030,118.893 153.038,115.354 154.749 M125.800 159.205 C 136.927 160.133,145.482 163.534,149.557 168.651 C 151.095 170.581,153.507 172.742,156.600 174.961 C 158.597 176.393,160.192 178.164,161.206 180.072 L 161.988 181.544 160.399 183.553 C 159.526 184.659,157.685 186.327,156.310 187.261 C 153.094 189.445,150.721 191.643,148.586 194.418 C 147.647 195.638,146.175 197.124,145.315 197.720 L 143.751 198.804 140.976 197.860 C 138.012 196.851,134.186 195.044,133.200 194.187 C 130.169 191.553,121.045 189.461,113.047 189.567 C 104.246 189.684,103.087 190.329,99.650 197.018 C 98.468 199.318,97.194 201.021,95.190 202.982 C 93.646 204.492,92.298 206.104,92.195 206.564 C 90.010 216.251,89.429 226.879,90.377 239.800 C 91.110 249.793,94.660 255.753,104.039 262.737 L 106.277 264.404 112.336 265.071 L 118.394 265.739 124.297 264.618 C 128.087 263.898,132.409 262.717,136.371 261.319 C 144.075 258.602,143.904 258.602,149.326 261.319 C 159.039 266.186,159.433 266.794,161.353 279.859 C 161.657 281.929,159.337 284.787,155.678 286.852 C 152.081 288.881,145.160 293.243,143.340 294.628 C 137.286 299.236,125.505 300.799,110.000 299.052 C 103.026 298.265,93.985 295.594,93.021 294.034 C 92.615 293.377,87.232 290.760,82.717 289.023 C 77.989 287.205,75.825 285.423,73.539 281.462 C 72.466 279.602,70.522 277.248,67.988 274.740 C 64.811 271.597,63.930 270.458,63.235 268.601 C 62.051 265.437,60.162 258.440,59.434 254.522 C 59.099 252.719,58.385 249.479,57.847 247.322 C 54.944 235.685,55.381 217.587,58.956 201.400 C 59.491 198.980,60.222 195.624,60.582 193.942 C 61.991 187.354,67.643 179.558,76.829 171.535 C 78.173 170.361,80.426 168.382,81.835 167.138 C 86.403 163.104,90.179 161.938,104.200 160.230 C 108.820 159.667,113.860 159.042,115.400 158.842 C 116.940 158.642,118.740 158.545,119.400 158.625 C 120.060 158.706,122.940 158.967,125.800 159.205 M303.800 323.152 C 298.650 325.622,297.374 328.146,296.731 337.136 C 295.533 353.887,297.516 361.655,303.703 364.452 L 305.800 365.400 352.900 365.514 L 400.000 365.628 400.000 364.042 L 400.000 362.457 354.100 362.272 C 328.855 362.170,307.574 361.951,306.809 361.785 C 304.228 361.224,301.018 357.493,300.452 354.395 C 299.038 346.655,298.838 343.741,299.431 339.500 C 300.526 331.665,300.745 330.948,302.708 328.765 C 306.030 325.069,300.979 325.416,353.500 325.275 L 400.000 325.149 400.000 323.575 L 400.000 322.000 353.100 322.000 L 306.200 322.001 303.800 323.152 " stroke="none" fill="#74747c" fill-rule="evenodd"></path><path id="path4" d="M0.000 17.200 L 0.000 34.400 134.585 34.400 C 268.712 34.400,269.177 34.403,271.333 35.209 C 275.684 36.837,277.766 40.040,278.523 46.274 C 279.200 51.848,279.213 346.640,278.536 352.860 C 277.800 359.628,276.231 362.328,271.800 364.450 L 269.400 365.599 134.700 365.600 L 0.000 365.600 0.000 382.800 L 0.000 400.000 200.000 400.000 L 400.000 400.000 400.000 382.814 L 400.000 365.628 352.900 365.514 L 305.800 365.400 303.703 364.452 C 297.516 361.655,295.533 353.887,296.731 337.136 C 297.374 328.146,298.650 325.622,303.800 323.152 L 306.200 322.001 353.100 322.000 L 400.000 322.000 400.000 161.000 L 400.000 0.000 200.000 0.000 L 0.000 0.000 0.000 17.200 M41.149 79.469 L 38.497 80.921 38.224 134.961 C 38.073 164.682,38.006 218.237,38.075 253.970 L 38.200 318.941 41.000 320.464 L 43.800 321.988 137.600 321.985 L 231.400 321.983 233.900 320.382 L 236.400 318.781 236.400 199.980 L 236.400 81.180 233.900 79.594 L 231.400 78.008 137.600 78.013 L 43.800 78.018 41.149 79.469 M123.400 154.998 C 125.461 155.848,127.922 156.488,130.313 156.796 C 134.324 157.312,142.832 159.407,146.432 160.765 C 149.344 161.863,151.781 163.988,153.060 166.545 C 154.454 169.332,155.361 170.232,157.974 171.426 C 167.335 175.703,167.349 186.088,158.000 190.345 C 154.932 191.741,153.690 192.973,152.165 196.132 C 149.059 202.563,142.548 203.837,132.329 200.014 C 129.567 198.980,127.295 197.369,125.564 195.215 C 123.398 192.520,120.360 191.813,112.489 192.173 C 105.011 192.515,104.711 192.652,103.992 196.037 C 103.327 199.170,101.634 202.718,99.872 204.668 C 99.100 205.522,98.031 207.206,97.495 208.410 C 96.959 209.615,95.895 211.416,95.130 212.413 C 93.219 214.902,92.814 217.404,92.769 227.000 C 92.739 233.444,93.322 244.039,93.715 244.198 C 96.064 245.149,99.106 249.321,100.527 253.542 C 101.362 256.020,101.754 256.587,103.843 258.333 L 106.213 260.313 113.006 260.579 C 125.062 261.051,139.476 258.522,142.785 255.355 L 143.769 254.413 144.785 255.342 C 145.343 255.853,146.970 256.684,148.400 257.188 C 161.242 261.718,163.989 264.749,164.780 275.253 C 165.461 284.307,163.891 287.462,157.465 289.948 C 154.373 291.144,150.458 293.694,149.995 294.812 C 147.297 301.326,134.233 304.087,112.000 302.842 C 95.717 301.930,89.693 300.053,86.999 295.050 C 86.168 293.506,84.004 292.389,78.796 290.814 C 74.557 289.533,72.245 287.359,70.950 283.438 C 69.948 280.402,69.351 279.713,66.583 278.392 C 61.607 276.017,60.034 272.591,57.204 257.962 C 56.538 254.522,56.260 253.857,54.523 251.562 C 50.445 246.173,49.867 243.239,49.846 227.800 C 49.824 212.303,51.034 205.943,54.780 201.860 C 56.107 200.414,56.417 199.684,57.176 196.200 C 59.117 187.304,59.716 185.259,61.323 182.050 C 63.161 178.380,65.146 176.059,67.483 174.847 C 69.249 173.931,74.284 168.867,75.556 166.728 C 78.501 161.772,82.327 160.407,100.145 157.954 C 111.721 156.360,112.258 156.247,115.354 154.749 C 118.893 153.038,118.626 153.030,123.400 154.998 " stroke="none" fill="#2c343c" fill-rule="evenodd"></path></g></svg>