<svg id="svg" version="1.1" xmlns="http://www.w3.org/2000/svg" xmlns:xlink="http://www.w3.org/1999/xlink" width="400" height="400" viewBox="0, 0, 400,400"><g id="svgg"><path id="path0" d="M121.227 229.750 C 121.230 290.347,121.325 293.011,123.790 302.210 C 131.095 329.469,151.030 345.974,183.689 351.803 C 193.479 353.550,211.093 352.976,222.243 350.548 C 246.211 345.326,264.949 330.864,272.965 311.399 C 275.065 306.299,275.941 303.208,277.688 294.717 C 278.576 290.404,278.765 278.955,278.771 229.194 L 278.777 176.460 258.215 176.460 L 237.653 176.460 237.523 230.120 C 237.376 290.252,237.622 284.806,234.713 292.315 C 222.786 323.107,175.327 322.724,164.956 291.752 C 162.357 283.991,162.611 290.280,162.472 230.306 L 162.347 176.460 141.785 176.460 L 121.223 176.460 121.227 229.750 " stroke="none" fill="#060606" fill-rule="evenodd"></path><path id="path1" d="M198.878 47.953 C 198.475 48.229,197.396 48.871,196.478 49.379 C 194.416 50.523,187.484 54.510,185.728 55.564 C 185.014 55.992,184.180 56.456,183.874 56.596 C 183.568 56.736,182.734 57.211,182.020 57.653 C 181.307 58.094,179.972 58.872,179.055 59.382 C 176.263 60.933,167.465 66.044,165.994 66.970 C 165.234 67.449,164.528 67.841,164.425 67.841 C 164.323 67.841,163.149 68.508,161.816 69.323 C 160.484 70.139,159.319 70.806,159.228 70.806 C 159.137 70.806,157.847 71.529,156.362 72.413 C 154.876 73.296,151.909 75.032,149.768 76.270 C 138.312 82.897,129.537 87.954,128.156 88.728 C 125.466 90.234,122.546 92.039,121.872 92.612 C 121.268 93.126,121.223 94.668,121.223 115.142 C 121.223 137.013,121.287 138.164,122.444 137.243 C 122.873 136.902,131.086 132.123,134.569 130.188 C 135.487 129.678,136.860 128.871,137.620 128.393 C 138.381 127.916,139.084 127.525,139.182 127.525 C 139.281 127.525,140.577 126.803,142.063 125.919 C 143.548 125.036,146.599 123.256,148.842 121.964 C 151.084 120.672,154.254 118.826,155.885 117.862 C 157.516 116.899,159.435 115.787,160.148 115.392 C 163.198 113.702,164.904 112.728,166.821 111.586 C 167.943 110.917,171.529 108.836,174.791 106.960 C 181.249 103.249,188.267 99.192,195.106 95.219 C 200.612 92.021,199.384 91.944,206.117 95.912 C 207.850 96.933,211.520 99.070,214.272 100.660 C 221.433 104.797,231.198 110.428,233.364 111.671 C 234.384 112.256,235.802 113.078,236.515 113.497 C 238.336 114.567,245.336 118.594,246.895 119.468 C 248.392 120.307,254.007 123.589,257.937 125.922 C 259.423 126.804,260.719 127.525,260.818 127.525 C 260.916 127.525,261.619 127.916,262.380 128.393 C 263.140 128.871,264.513 129.678,265.431 130.188 C 268.914 132.123,277.127 136.902,277.556 137.243 C 278.713 138.164,278.777 137.013,278.777 115.142 C 278.777 94.666,278.732 93.127,278.128 92.618 C 277.430 92.031,272.528 88.971,272.285 88.971 C 272.204 88.971,269.753 87.578,266.838 85.874 C 260.570 82.212,249.628 75.896,247.266 74.578 C 246.348 74.066,244.552 73.008,243.274 72.227 C 241.996 71.446,240.873 70.806,240.778 70.806 C 240.684 70.806,239.516 70.139,238.184 69.323 C 236.851 68.508,235.683 67.841,235.589 67.841 C 235.494 67.841,234.371 67.201,233.093 66.420 C 231.815 65.639,230.019 64.581,229.101 64.069 C 228.184 63.558,225.191 61.841,222.452 60.255 C 219.712 58.668,216.949 57.077,216.311 56.719 C 215.674 56.361,212.910 54.766,210.171 53.175 C 207.431 51.585,204.773 50.054,204.263 49.775 C 203.753 49.495,202.669 48.865,201.854 48.375 C 200.109 47.326,199.846 47.289,198.878 47.953 " stroke="none" fill="#a435f3" fill-rule="evenodd"></path><path id="path2" d="M0.000 200.000 L 0.000 400.000 200.000 400.000 L 400.000 400.000 400.000 200.000 L 400.000 0.000 200.000 0.000 L 0.000 0.000 0.000 200.000 M204.028 48.903 C 205.388 49.736,206.561 50.417,206.635 50.417 C 206.754 50.417,214.412 54.806,216.924 56.314 C 217.971 56.943,222.249 59.402,224.096 60.436 C 224.708 60.779,227.711 62.518,230.769 64.302 C 233.828 66.085,236.914 67.882,237.627 68.294 C 238.341 68.706,241.094 70.303,243.744 71.842 C 246.395 73.382,250.649 75.835,253.197 77.294 C 255.746 78.753,260.083 81.253,262.836 82.849 C 265.589 84.446,268.591 86.170,269.509 86.679 C 270.426 87.189,271.761 87.970,272.475 88.416 C 273.188 88.861,274.773 89.768,275.996 90.431 C 279.870 92.530,279.519 90.055,279.512 115.240 C 279.506 139.747,279.508 139.728,276.685 137.477 C 276.452 137.292,273.700 135.666,270.568 133.864 C 265.058 130.694,255.989 125.455,240.964 116.765 C 236.988 114.465,233.234 112.301,232.623 111.956 C 231.435 111.285,227.512 109.020,219.486 104.371 C 216.747 102.784,213.983 101.192,213.346 100.834 C 210.139 99.033,202.134 94.366,201.493 93.924 C 200.330 93.122,199.530 93.312,196.605 95.088 C 195.093 96.006,193.782 96.756,193.691 96.756 C 193.600 96.756,192.480 97.396,191.202 98.177 C 189.924 98.958,188.128 100.016,187.210 100.528 C 186.293 101.039,183.290 102.762,180.538 104.357 C 172.266 109.149,168.551 111.293,167.354 111.967 C 165.412 113.060,136.172 129.974,128.682 134.336 C 126.362 135.688,124.339 136.793,124.186 136.793 C 124.034 136.793,123.715 137.027,123.478 137.313 C 122.834 138.089,121.168 138.413,120.801 137.834 C 120.355 137.131,120.397 93.530,120.844 92.694 C 121.149 92.125,123.843 90.458,131.071 86.368 C 131.696 86.014,134.448 84.424,137.188 82.833 C 139.927 81.242,143.503 79.180,145.134 78.249 C 146.766 77.319,148.394 76.390,148.753 76.184 C 151.467 74.632,167.096 65.581,170.528 63.575 C 172.873 62.204,175.292 60.797,175.904 60.448 C 180.587 57.775,181.927 57.003,182.562 56.611 C 183.929 55.769,185.911 54.614,187.581 53.686 C 188.499 53.176,191.418 51.507,194.069 49.976 C 200.590 46.209,199.770 46.297,204.028 48.903 M163.138 229.842 C 163.364 288.119,163.252 284.966,165.314 290.979 C 171.807 309.918,193.531 319.531,213.531 312.315 C 215.061 311.763,216.745 310.963,219.633 309.418 C 225.767 306.135,232.060 298.269,234.690 290.598 C 236.747 284.598,236.636 287.720,236.862 229.657 L 237.071 175.904 258.202 175.904 L 279.333 175.904 279.438 230.584 C 279.549 287.591,279.525 288.694,278.005 296.571 C 274.176 316.419,264.311 330.881,247.637 341.089 C 242.391 344.301,238.918 345.986,232.994 348.193 C 219.685 353.152,198.548 355.005,184.059 352.483 C 182.836 352.270,181.001 351.967,179.981 351.809 C 178.317 351.550,175.754 350.978,172.011 350.029 C 169.936 349.503,167.089 348.546,164.041 347.350 C 148.449 341.229,134.353 328.761,128.009 315.477 C 126.315 311.930,125.301 309.577,125.301 309.194 C 125.301 308.974,125.143 308.505,124.950 308.151 C 123.821 306.079,121.996 298.124,121.045 291.128 C 120.453 286.771,120.153 176.541,120.732 175.962 C 120.870 175.825,130.420 175.755,141.955 175.808 L 162.929 175.904 163.138 229.842 " stroke="none" fill="#fbfbfb" fill-rule="evenodd"></path><path id="path3" d="M120.732 175.962 C 120.153 176.541,120.453 286.771,121.045 291.128 C 121.996 298.124,123.821 306.079,124.950 308.151 C 125.143 308.505,125.301 308.974,125.301 309.194 C 125.301 309.577,126.315 311.930,128.009 315.477 C 134.353 328.761,148.449 341.229,164.041 347.350 C 167.089 348.546,169.936 349.503,172.011 350.029 C 175.754 350.978,178.317 351.550,179.981 351.809 C 181.001 351.967,182.836 352.270,184.059 352.483 C 199.651 355.197,220.734 353.058,235.403 347.275 C 258.744 338.074,273.353 320.686,278.005 296.571 C 279.525 288.694,279.549 287.591,279.438 230.584 L 279.333 175.904 258.202 175.904 L 237.071 175.904 236.862 229.657 C 236.636 287.720,236.747 284.598,234.690 290.598 C 232.060 298.269,225.767 306.135,219.633 309.418 C 216.745 310.963,215.061 311.763,213.531 312.315 C 193.531 319.531,171.807 309.918,165.314 290.979 C 163.252 284.966,163.364 288.119,163.138 229.842 L 162.929 175.904 141.955 175.808 C 130.420 175.755,120.870 175.825,120.732 175.962 M162.472 230.306 C 162.611 290.280,162.357 283.991,164.956 291.752 C 175.327 322.724,222.786 323.107,234.713 292.315 C 237.622 284.806,237.376 290.252,237.523 230.120 L 237.653 176.460 258.215 176.460 L 278.777 176.460 278.771 229.194 C 278.765 278.955,278.576 290.404,277.688 294.717 C 275.941 303.208,275.065 306.299,272.965 311.399 C 264.949 330.864,246.211 345.326,222.243 350.548 C 211.093 352.976,193.479 353.550,183.689 351.803 C 151.030 345.974,131.095 329.469,123.790 302.210 C 121.325 293.011,121.230 290.347,121.227 229.750 L 121.223 176.460 141.785 176.460 L 162.347 176.460 162.472 230.306 " stroke="none" fill="#a8a8a8" fill-rule="evenodd"></path><path id="path4" d="M199.444 47.004 C 199.138 47.108,196.719 48.445,194.069 49.976 C 191.418 51.507,188.499 53.176,187.581 53.686 C 185.911 54.614,183.929 55.769,182.562 56.611 C 181.927 57.003,180.587 57.775,175.904 60.448 C 175.292 60.797,172.873 62.204,170.528 63.575 C 167.096 65.581,151.467 74.632,148.753 76.184 C 148.394 76.390,146.766 77.319,145.134 78.249 C 143.503 79.180,139.927 81.242,137.188 82.833 C 134.448 84.424,131.696 86.014,131.071 86.368 C 123.843 90.458,121.149 92.125,120.844 92.694 C 120.397 93.530,120.355 137.131,120.801 137.834 C 121.168 138.413,122.834 138.089,123.478 137.313 C 123.715 137.027,124.034 136.793,124.186 136.793 C 124.339 136.793,126.362 135.688,128.682 134.336 C 136.172 129.974,165.412 113.060,167.354 111.967 C 168.551 111.293,172.266 109.149,180.538 104.357 C 183.290 102.762,186.293 101.039,187.210 100.528 C 188.128 100.016,189.924 98.958,191.202 98.177 C 192.480 97.396,193.600 96.756,193.691 96.756 C 193.782 96.756,195.093 96.006,196.605 95.088 C 199.530 93.312,200.330 93.122,201.493 93.924 C 202.134 94.366,210.139 99.033,213.346 100.834 C 213.983 101.192,216.747 102.784,219.486 104.371 C 227.512 109.020,231.435 111.285,232.623 111.956 C 233.234 112.301,236.988 114.465,240.964 116.765 C 255.989 125.455,265.058 130.694,270.568 133.864 C 273.700 135.666,276.452 137.292,276.685 137.477 C 279.508 139.728,279.506 139.747,279.512 115.240 C 279.519 90.055,279.870 92.530,275.996 90.431 C 274.773 89.768,273.188 88.861,272.475 88.416 C 271.761 87.970,270.426 87.189,269.509 86.679 C 268.591 86.170,265.589 84.446,262.836 82.849 C 260.083 81.253,255.746 78.753,253.197 77.294 C 250.649 75.835,246.395 73.382,243.744 71.842 C 241.094 70.303,238.341 68.706,237.627 68.294 C 236.914 67.882,233.828 66.085,230.769 64.302 C 227.711 62.518,224.708 60.779,224.096 60.436 C 222.249 59.402,217.971 56.943,216.924 56.314 C 214.412 54.806,206.754 50.417,206.635 50.417 C 206.561 50.417,205.388 49.736,204.028 48.903 C 201.135 47.133,200.204 46.747,199.444 47.004 M201.854 48.375 C 202.669 48.865,203.753 49.495,204.263 49.775 C 204.773 50.054,207.431 51.585,210.171 53.175 C 212.910 54.766,215.674 56.361,216.311 56.719 C 216.949 57.077,219.712 58.668,222.452 60.255 C 225.191 61.841,228.184 63.558,229.101 64.069 C 230.019 64.581,231.815 65.639,233.093 66.420 C 234.371 67.201,235.494 67.841,235.589 67.841 C 235.683 67.841,236.851 68.508,238.184 69.323 C 239.516 70.139,240.684 70.806,240.778 70.806 C 240.873 70.806,241.996 71.446,243.274 72.227 C 244.552 73.008,246.348 74.066,247.266 74.578 C 249.628 75.896,260.570 82.212,266.838 85.874 C 269.753 87.578,272.204 88.971,272.285 88.971 C 272.528 88.971,277.430 92.031,278.128 92.618 C 278.732 93.127,278.777 94.666,278.777 115.142 C 278.777 137.013,278.713 138.164,277.556 137.243 C 277.127 136.902,268.914 132.123,265.431 130.188 C 264.513 129.678,263.140 128.871,262.380 128.393 C 261.619 127.916,260.916 127.525,260.818 127.525 C 260.719 127.525,259.423 126.804,257.937 125.922 C 254.007 123.589,248.392 120.307,246.895 119.468 C 245.336 118.594,238.336 114.567,236.515 113.497 C 235.802 113.078,234.384 112.256,233.364 111.671 C 231.198 110.428,221.433 104.797,214.272 100.660 C 211.520 99.070,207.850 96.933,206.117 95.912 C 199.384 91.944,200.612 92.021,195.106 95.219 C 188.267 99.192,181.249 103.249,174.791 106.960 C 171.529 108.836,167.943 110.917,166.821 111.586 C 164.904 112.728,163.198 113.702,160.148 115.392 C 159.435 115.787,157.516 116.899,155.885 117.862 C 154.254 118.826,151.084 120.672,148.842 121.964 C 146.599 123.256,143.548 125.036,142.063 125.919 C 140.577 126.803,139.281 127.525,139.182 127.525 C 139.084 127.525,138.381 127.916,137.620 128.393 C 136.860 128.871,135.487 129.678,134.569 130.188 C 131.086 132.123,122.873 136.902,122.444 137.243 C 121.287 138.164,121.223 137.013,121.223 115.142 C 121.223 94.668,121.268 93.126,121.872 92.612 C 122.546 92.039,125.466 90.234,128.156 88.728 C 129.537 87.954,138.312 82.897,149.768 76.270 C 151.909 75.032,154.876 73.296,156.362 72.413 C 157.847 71.529,159.137 70.806,159.228 70.806 C 159.319 70.806,160.484 70.139,161.816 69.323 C 163.149 68.508,164.323 67.841,164.425 67.841 C 164.528 67.841,165.234 67.449,165.994 66.970 C 167.465 66.044,176.263 60.933,179.055 59.382 C 179.972 58.872,181.307 58.094,182.020 57.653 C 182.734 57.211,183.568 56.736,183.874 56.596 C 184.180 56.456,185.014 55.992,185.728 55.564 C 187.484 54.510,194.416 50.523,196.478 49.379 C 197.396 48.871,198.475 48.229,198.878 47.953 C 199.846 47.289,200.109 47.326,201.854 48.375 " stroke="none" fill="#cc90f5" fill-rule="evenodd"></path></g></svg>