<svg xmlns="http://www.w3.org/2000/svg" xmlns:xlink="http://www.w3.org/1999/xlink" version="1.1" width="1000" height="1000" viewBox="0 0 1000 1000" xml:space="preserve">
<desc>Created with Fabric.js 3.5.0</desc>
<defs>
</defs>
<rect x="0" y="0" width="100%" height="100%" fill="rgba(255,255,255,0)"/>
<g transform="matrix(1.7756 0 0 1.7756 500.0081 500.0022)" id="137732">
<g style="" vector-effect="non-scaling-stroke">
		<g transform="matrix(1 0 0 1 -189.25 0.2)">
<path style="stroke: none; stroke-width: 1; stroke-dasharray: none; stroke-linecap: butt; stroke-dashoffset: 0; stroke-linejoin: miter; stroke-miterlimit: 4; is-custom-font: none; font-file-url: none; fill: rgb(0,0,0); fill-rule: nonzero; opacity: 1;" transform=" translate(-66.75, -67.75)" d="m 9.9 2.5 h 113.7 c 4.6 0 8.4 4.1 8.4 9.1 v 112.3 c 0 5 -3.7 9.1 -8.4 9.1 h -113.7 c -4.6 0 -8.4 -4.1 -8.4 -9.1 v -112.3 c 0 -5 3.8 -9.1 8.4 -9.1 z" stroke-linecap="round"/>
</g>
		<g transform="matrix(1 0 0 1 -167.8181 23.6795)">
<path style="stroke: none; stroke-width: 1; stroke-dasharray: none; stroke-linecap: butt; stroke-dashoffset: 0; stroke-linejoin: miter; stroke-miterlimit: 4; is-custom-font: none; font-file-url: none; fill: rgb(255,255,255); fill-rule: nonzero; opacity: 1;" transform=" translate(-88.1819, -91.2295)" d="m 93.6 85.9 c -1.1 -1.1 -2.4 -1.8 -3.9 -2.1 s -3 -0.1 -4.4 0.4 c -1.4 0.6 -2.6 1.5 -3.4 2.8 c -0.8 1.2 -1.3 2.7 -1.3 4.2 c 0 1 0.2 2 0.6 2.9 s 0.9 1.8 1.6 2.5 s 1.5 1.3 2.5 1.6 c 0.9 0.4 1.9 0.6 2.9 0.6 c 1.5 0 3 -0.4 4.2 -1.3 c 1.2 -0.8 2.2 -2 2.8 -3.4 s 0.7 -2.9 0.4 -4.4 c -0.2 -1.4 -0.9 -2.7 -2 -3.8 z m -5.3 9.1 c -2 0 -3.7 -1.7 -3.7 -3.7 s 1.7 -3.7 3.7 -3.7 s 3.8 1.7 3.8 3.7 s -1.8 3.7 -3.8 3.7 z" stroke-linecap="round"/>
</g>
		<g transform="matrix(1 0 0 1 -189.2 15)">
<path style="stroke: none; stroke-width: 1; stroke-dasharray: none; stroke-linecap: butt; stroke-dashoffset: 0; stroke-linejoin: miter; stroke-miterlimit: 4; is-custom-font: none; font-file-url: none; fill: rgb(255,255,255); fill-rule: nonzero; opacity: 1;" transform=" translate(-66.8, -82.55)" d="m 107 81.5 h -2.2 c -2 0 -3 -0.9 -3.9 -1.9 c -1.6 -1.8 -3.5 -3.2 -5.7 -4.2 s -4.5 -1.4 -6.9 -1.4 h -61.2 c -0.2 0 -0.4 0.1 -0.6 0.2 s -0.3 0.2 -0.5 0.3 c -0.1 0.1 -0.2 0.3 -0.3 0.5 s -0.2 0.4 -0.2 0.6 v 2.8 v 7.3 c 0 1.1 -0.9 0.7 -0.9 2.5 v 1 c 0 1.2 0.7 1.9 1.8 1.9 h 2 c 0.3 0 1 -0.2 1 -1 c 0 -6.2 5.1 -11.3 11.1 -11.3 s 11.3 4.8 11.3 11.3 c 0 0.6 0.4 0.9 0.9 0.9 h 23.3 c 0.6 0 1 -0.4 1 -1 c 0 -5.9 4.7 -11.3 11.3 -11.3 c 6.2 0 11.2 5.1 11.2 11.3 c 0 0.4 0.2 1 1 1 h 6.6 c 1 0 1.9 -1 1.9 -1.9 v -5.6 c -0.2 -1.3 -0.8 -2 -2 -2 z" stroke-linecap="round"/>
</g>
		<g transform="matrix(1 0 0 1 -215.5181 23.6795)">
<path style="stroke: none; stroke-width: 1; stroke-dasharray: none; stroke-linecap: butt; stroke-dashoffset: 0; stroke-linejoin: miter; stroke-miterlimit: 4; is-custom-font: none; font-file-url: none; fill: rgb(255,255,255); fill-rule: nonzero; opacity: 1;" transform=" translate(-40.4819, -91.2295)" d="m 45.9 85.9 c -1.1 -1.1 -2.4 -1.8 -3.9 -2.1 s -3 -0.1 -4.4 0.4 c -1.4 0.6 -2.6 1.5 -3.4 2.8 c -0.8 1.2 -1.3 2.7 -1.3 4.2 c 0 1 0.2 2 0.6 2.9 s 0.9 1.8 1.6 2.5 s 1.5 1.3 2.5 1.6 c 0.9 0.4 1.9 0.6 2.9 0.6 c 1.5 0 3 -0.4 4.2 -1.3 c 1.2 -0.8 2.2 -2 2.8 -3.4 s 0.7 -2.9 0.4 -4.4 c -0.2 -1.4 -0.9 -2.7 -2 -3.8 z m -5.3 9.1 c -2 0 -3.7 -1.7 -3.7 -3.7 s 1.7 -3.7 3.7 -3.7 s 3.8 1.7 3.8 3.7 s -1.8 3.7 -3.8 3.7 z" stroke-linecap="round"/>
</g>
		<g transform="matrix(1 0 0 1 -189.7 -11.0924)">
<path style="stroke: none; stroke-width: 1; stroke-dasharray: none; stroke-linecap: butt; stroke-dashoffset: 0; stroke-linejoin: miter; stroke-miterlimit: 4; is-custom-font: none; font-file-url: none; fill: rgb(255,255,255); fill-rule: nonzero; opacity: 1;" transform=" translate(-66.3, -56.4576)" d="m 25.9 68.3 c 0.1 0.2 0.3 0.3 0.5 0.4 s 0.4 0.1 0.6 0.1 h 61.2 c 5.3 -0.1 10.5 2 14.3 5.6 c 0.6 0.6 1.4 1.9 2.6 1.9 h 1.2 c 0.6 0 0.8 -0.3 0.8 -1 v -8.7 c 0 -12.2 -7.4 -22 -20 -26.8 c -13.1 -5.2 -44.3 -3.2 -56.9 0.1 c -2 0.5 -4.7 1.5 -4.7 5.3 v 20 l 0.1 1.9 c -0.1 0.5 0.1 0.9 0.3 1.2 z m 50.8 -21 c 0 -0.6 0.2 -1 1 -1 h 3.9 c 9.4 0 15.8 6.4 19.3 15.9 c 0.2 0.5 0.1 1.3 -0.9 1.3 h -22.3 c -0.6 0 -1 -0.6 -1 -1 z m -22.8 0 c 0 -0.1 0 -0.3 0.1 -0.4 c 0 -0.1 0.1 -0.2 0.2 -0.3 s 0.2 -0.2 0.3 -0.2 s 0.2 -0.1 0.4 -0.1 h 16.5 c 0.6 0 1 0.4 1 1 v 15.1 c 0 0.5 -0.4 1 -1 1 h -16.6 c -0.5 0 -1 -0.2 -1 -1 v -15.1 z m -23.1 0 c 0 -0.2 0 -1 0.9 -1 h 16.9 c 0.6 0 1 0.4 1 0.9 v 15.3 c 0 0.3 -0.2 0.9 -1 0.9 h -16.9 c -0.7 0 -0.9 -0.6 -0.9 -1 z" stroke-linecap="round"/>
</g>
		<g transform="matrix(1 0 0 1 -80.65 0.2154)">
<path style="stroke: none; stroke-width: 1; stroke-dasharray: none; stroke-linecap: butt; stroke-dashoffset: 0; stroke-linejoin: miter; stroke-miterlimit: 4; is-custom-font: none; font-file-url: none; fill: rgb(0,0,0); fill-rule: nonzero; opacity: 1;" transform=" translate(-175.35, -67.7654)" d="m 166.2 37.9 c -0.1 0 -0.2 0 -0.3 0.1 c -0.1 0 -0.2 0.1 -0.2 0.2 c -0.1 0.1 -0.1 0.2 -0.2 0.2 c 0 0.1 -0.1 0.2 -0.1 0.3 v 44.6 c 0 5.4 1.5 9.3 4.6 11.7 c 3.3 2.7 8.6 3.3 14.7 1.9 c 0.2 0 0.3 -0.1 0.4 -0.3 c 0.1 -0.1 0.2 -0.3 0.2 -0.5 l -0.1 -7.6 c 0 -0.1 0 -0.2 -0.1 -0.3 c 0 -0.1 -0.1 -0.2 -0.2 -0.3 s -0.2 -0.1 -0.3 -0.1 s -0.2 0 -0.3 0 c -2.4 0.5 -4.2 0.2 -5.5 -0.8 c -1.4 -1.1 -2 -3.1 -2 -6 v -42.3 c 0 -0.2 -0.1 -0.4 -0.2 -0.5 s -0.3 -0.2 -0.5 -0.2 h -9.9 z" stroke-linecap="round"/>
</g>
		<g transform="matrix(1 0 0 1 -46.6 6.7)">
<path style="stroke: none; stroke-width: 1; stroke-dasharray: none; stroke-linecap: butt; stroke-dashoffset: 0; stroke-linejoin: miter; stroke-miterlimit: 4; is-custom-font: none; font-file-url: none; fill: rgb(0,0,0); fill-rule: nonzero; opacity: 1;" transform=" translate(-209.4, -74.25)" d="m 209.3 50.7 c -6.6 0 -12 2.3 -16.1 6.8 s -6.2 10.1 -6.2 16.7 c 0 6.8 2.1 12.4 6.2 16.9 c 4.1 4.4 9.6 6.7 16.3 6.7 c 5.1 0 9.6 -1.4 13.4 -4.2 c 3.7 -2.7 6.5 -6.6 7.8 -11.1 c 0 -0.1 0 -0.2 0 -0.3 s -0.1 -0.2 -0.1 -0.3 c -0.1 -0.1 -0.1 -0.2 -0.2 -0.2 s -0.2 -0.1 -0.3 -0.1 h -10.1 c -0.1 0 -0.3 0 -0.4 0.1 s -0.2 0.2 -0.2 0.3 c -0.7 1.8 -2 3.3 -3.7 4.2 c -1.8 1.1 -3.8 1.6 -5.9 1.6 c -3.3 0 -5.9 -0.9 -7.9 -2.9 c -1.9 -1.9 -3.1 -4.3 -3.4 -6.9 v -0.2 h 32.5 c 0.2 0 0.3 -0.1 0.5 -0.2 c 0.1 -0.1 0.2 -0.3 0.2 -0.5 l 0.1 -3.1 c 0 -6.6 -2.1 -12.2 -6.1 -16.6 c -4.5 -4.5 -9.8 -6.7 -16.4 -6.7 z m 10.7 18.3 h -21.6 l 0.1 -0.2 c 0.5 -2.3 1.7 -4.4 3.5 -6 c 2 -1.8 4.4 -2.6 7.4 -2.6 s 5.5 0.9 7.4 2.6 c 1.7 1.6 2.9 3.7 3.3 6 z" stroke-linecap="round"/>
</g>
		<g transform="matrix(1 0 0 1 124.35 16.05)">
<path style="stroke: none; stroke-width: 1; stroke-dasharray: none; stroke-linecap: butt; stroke-dashoffset: 0; stroke-linejoin: miter; stroke-miterlimit: 4; is-custom-font: none; font-file-url: none; fill: rgb(0,0,0); fill-rule: nonzero; opacity: 1;" transform=" translate(-380.35, -83.6)" d="m 442.7 86.8 c -6.9 0 -12.4 -5.6 -12.4 -12.4 s 5.6 -12.4 12.4 -12.4 s 12.4 5.6 12.4 12.4 s -5.6 12.4 -12.4 12.4 z m 0 -35.8 c -9.5 0 -17.8 5.6 -21.6 14.4 c -1.8 4.2 -2.2 8.9 -1.3 13.5 c 0.9 4.5 3.1 8.6 6.4 11.9 s 7.4 5.4 11.9 6.4 c 4.5 0.9 9.2 0.4 13.5 -1.3 c 4.3 -1.8 7.9 -4.8 10.5 -8.6 c 2.5 -3.9 3.9 -8.3 3.9 -12.9 c -0.1 -12.8 -10.2 -23.4 -23.3 -23.4 z m 63.9 4.9 c -2.9 -3.3 -7.1 -4.9 -12.4 -4.9 c -3.3 0 -6.3 0.7 -8.7 2 c -1.3 0.8 -2.5 1.8 -3.6 2.9 l -0.3 0.3 v -3.6 c 0 -0.1 -0.1 -0.3 -0.2 -0.4 s -0.3 -0.2 -0.5 -0.2 h -9.2 c -0.1 0 -0.3 0.1 -0.4 0.2 s -0.2 0.3 -0.2 0.4 v 43.3 c 0 0.1 0 0.2 0.1 0.3 c 0 0.1 0.1 0.2 0.2 0.2 c 0.1 0.1 0.3 0.2 0.4 0.2 h 10 c 0.1 0 0.4 -0.1 0.4 -0.2 c 0.2 -0.1 0.2 -0.3 0.2 -0.5 v -25.1 c 0 -3 0.9 -5.6 2.5 -7.3 c 1.7 -1.8 4 -2.7 7 -2.7 c 2.7 0 4.7 0.8 6 2.4 s 2 3.9 2 6.8 v 25.9 c 0 0.2 0 0.4 0.1 0.5 c 0.2 0.1 0.4 0.2 0.6 0.2 h 9.8 c 0.2 0 0.4 -0.1 0.5 -0.2 l 0.2 -0.2 c 0 -0.1 0.1 -0.2 0.1 -0.3 v -27.2 c -0.2 -5.3 -1.7 -9.6 -4.6 -12.8 z m -103.2 17.6 c 0 7.1 -4.6 12.4 -11.4 12.4 c -6.6 0 -11.4 -5.1 -11.4 -12.4 c 0 -6.9 4.1 -12.4 11.4 -12.4 c 7 0.1 11.4 5.3 11.4 12.4 z m 10.1 -21.5 h -9.2 c -0.1 0 -0.2 0 -0.3 0.1 c -0.1 0 -0.2 0.1 -0.2 0.2 c -0.1 0.1 -0.2 0.3 -0.2 0.4 v 4.1 l -0.3 -0.3 c -3.1 -3.6 -7.6 -5.4 -13.4 -5.4 c -12.6 0 -20.6 9.8 -20.6 22.5 c 0 6.3 1.9 11.7 5.6 15.9 c 3.7 4.3 8.8 6.5 15 6.5 c 5.4 0 9.7 -1.7 12.7 -5 l 0.3 -0.4 v 4.7 c 0 5.9 -4.8 10.5 -10.3 10.5 c -5.6 0 -8.3 -3.3 -9.6 -5.7 c -0.3 -0.5 -0.4 -0.6 -0.7 -0.5 c -1 0.5 -8.6 4.5 -9 4.7 c -0.2 0.1 -0.2 0.4 -0.1 0.6 c 3.1 6.9 10 11.3 19.5 11.3 c 11.9 0 21.5 -8.4 21.5 -22.3 v -41.3 c 0 -0.1 0 -0.3 -0.2 -0.4 s -0.3 -0.2 -0.5 -0.2 z m -60.3 22.3 c 0 7.6 -4.2 13.2 -11.5 13.2 s -11.5 -5.9 -11.5 -13.2 c 0 -7.1 4.1 -13.1 11.5 -13.1 c 7.1 0 11.5 5.3 11.5 13.1 z m 10.2 -22.2 h -9.2 c -0.1 0 -0.3 0.1 -0.5 0.2 c -0.1 0.1 -0.1 0.3 -0.1 0.4 v 4.1 l -0.4 -0.3 c -3 -3.6 -7.6 -5.4 -13.6 -5.4 c -12.9 0 -20.5 10 -20.5 23.2 s 7.6 23.3 20.5 23.3 c 5.9 0 10.6 -1.8 13.6 -5.4 l 0.4 -0.4 v 4.1 c 0 0.2 0.1 0.3 0.1 0.5 c 0.2 0.1 0.4 0.2 0.5 0.2 h 9.2 c 0.2 0 0.4 -0.1 0.4 -0.2 c 0.2 -0.1 0.2 -0.3 0.2 -0.5 v -43.2 c 0 -0.1 0 -0.3 -0.2 -0.4 c -0.1 0 -0.2 -0.2 -0.4 -0.2 z m -43.9 0.5 c 0 -0.1 -0.1 -0.1 -0.1 -0.3 c -0.1 -0.1 -0.2 -0.2 -0.3 -0.2 c -0.1 -0.1 -0.2 -0.1 -0.3 -0.1 h -10.1 c -0.1 0 -0.2 0 -0.3 0.1 c -0.2 0.1 -0.2 0.2 -0.3 0.4 l -8.9 28.5 l -9 -28.4 c -0.1 -0.2 -0.1 -0.3 -0.3 -0.4 c -0.1 0 -0.2 -0.1 -0.4 -0.1 h -9.5 c -0.2 0 -0.3 0.1 -0.4 0.1 c -0.1 0.1 -0.2 0.2 -0.2 0.4 l -9.3 28.8 l -9.1 -28.9 c 0 -0.2 -0.1 -0.3 -0.2 -0.4 c -0.1 0 -0.3 -0.1 -0.4 -0.1 h -10.3 c -0.1 0 -0.2 0 -0.4 0.1 c -0.1 0 -0.1 0.1 -0.1 0.2 c -0.1 0.1 -0.1 0.2 -0.1 0.3 v 0.4 l 15.1 43.2 c 0 0.1 0.1 0.2 0.2 0.3 c 0.2 0.1 0.3 0.1 0.4 0.1 h 9.2 h 0.2 c 0.1 0 0.1 -0.1 0.2 -0.1 s 0.1 -0.1 0.1 -0.1 s 0.1 -0.1 0.1 -0.2 l 9.4 -28.2 l 9.3 28.1 c 0 0.1 0.1 0.3 0.2 0.4 c 0.1 0 0.3 0.1 0.4 0.1 h 9.3 c 0.2 0 0.4 -0.1 0.4 -0.1 c 0.1 -0.1 0.2 -0.2 0.3 -0.4 l 15.2 -43.1 z" stroke-linecap="round"/>
</g>
</g>
</g>
</svg>