<svg xmlns="http://www.w3.org/2000/svg" xmlns:xlink="http://www.w3.org/1999/xlink" version="1.1" width="1000" height="1000" viewBox="0 0 1000 1000" xml:space="preserve">
<desc>Created with Fabric.js 3.5.0</desc>
<defs>
</defs>
<rect x="0" y="0" width="100%" height="100%" fill="rgba(255,255,255,0)"/>
<g transform="matrix(2.0292 0 0 2.0292 499.4961 499.4953)" id="44273">
<path style="stroke: none; stroke-width: 0; stroke-dasharray: none; stroke-linecap: butt; stroke-dashoffset: 0; stroke-linejoin: miter; stroke-miterlimit: 4; is-custom-font: none; font-file-url: none; fill: rgb(245,245,245); fill-rule: nonzero; opacity: 1;" vector-effect="non-scaling-stroke" transform=" translate(-192.0722, -256)" d="M 223.5 32 C 100 32 0 132.3 0 256 S 100 480 223.5 480 c 60.6 0 115.5 -24.2 155.8 -63.4 c 5 -4.9 6.3 -12.5 3.1 -18.7 s -10.1 -9.7 -17 -8.5 c -9.8 1.7 -19.8 2.6 -30.1 2.6 c -96.9 0 -175.5 -78.8 -175.5 -176 c 0 -65.8 36 -123.1 89.3 -153.3 c 6.1 -3.5 9.2 -10.5 7.7 -17.3 s -7.3 -11.9 -14.3 -12.5 c -6.3 -0.5 -12.6 -0.8 -19 -0.8 z" stroke-linecap="round"/>
</g>
</svg>