<svg id="svg" version="1.1" xmlns="http://www.w3.org/2000/svg" xmlns:xlink="http://www.w3.org/1999/xlink" width="400" height="400" viewBox="0, 0, 400,400"><g id="svgg"><path id="path0" d="M208.800 67.443 C 192.653 70.334,180.267 83.247,178.341 99.200 C 177.953 102.412,178.221 109.426,178.808 111.400 C 179.004 112.060,179.452 113.590,179.804 114.800 C 183.457 127.364,195.037 137.431,208.600 139.832 C 212.767 140.570,364.410 140.689,368.767 139.958 C 390.266 136.351,404.162 114.866,398.492 94.000 C 395.115 81.574,383.501 70.336,371.619 67.997 C 370.508 67.779,368.686 67.420,367.569 67.200 C 364.192 66.535,212.578 66.766,208.800 67.443 M214.800 163.470 C 201.678 164.346,188.151 174.923,183.813 187.700 C 176.710 208.623,188.501 230.081,210.288 235.878 C 214.454 236.987,281.544 236.988,285.709 235.879 C 319.801 226.806,324.980 181.183,293.542 166.872 C 290.968 165.701,289.964 165.337,286.000 164.142 C 283.922 163.516,222.766 162.939,214.800 163.470 M30.400 260.195 C 16.372 262.919,4.658 273.795,1.529 287.000 C 0.492 291.378,0.292 292.896,0.292 296.400 C 0.292 328.895,40.303 345.217,63.144 322.040 C 77.277 307.698,77.229 285.353,63.032 270.469 C 59.062 266.307,52.529 262.483,46.600 260.851 C 41.779 259.523,35.223 259.258,30.400 260.195 M123.200 260.213 C 113.479 262.168,106.449 266.458,100.303 274.183 C 94.875 281.006,91.640 293.396,93.230 301.269 C 93.875 304.460,94.894 308.521,95.221 309.200 C 95.380 309.530,96.013 310.880,96.629 312.200 C 99.306 317.946,103.624 322.981,108.907 326.516 C 111.772 328.433,113.316 329.254,117.000 330.820 C 118.029 331.257,121.924 332.199,125.024 332.761 C 128.443 333.380,279.157 333.380,282.576 332.761 C 291.888 331.074,300.203 326.671,305.247 320.754 C 324.249 298.465,312.199 264.916,283.427 260.005 C 279.567 259.346,126.520 259.545,123.200 260.213 " stroke="none" fill="#fbfbfb" fill-rule="evenodd"></path><path id="path1" d="M0.034 145.100 C 0.067 283.467,0.100 290.079,0.761 287.600 C 1.142 286.170,1.592 284.640,1.762 284.200 C 3.282 280.258,3.868 279.037,5.476 276.457 C 9.804 269.513,17.658 263.376,25.499 260.810 C 45.175 254.372,67.182 265.918,72.750 285.600 C 72.968 286.370,73.382 287.810,73.672 288.800 C 74.746 292.478,74.211 303.522,72.789 307.000 C 72.609 307.440,72.143 308.700,71.752 309.800 C 71.064 311.740,70.794 312.289,68.748 315.906 C 67.039 318.930,62.979 323.216,58.239 327.003 C 56.109 328.704,50.202 331.399,46.600 332.313 C 42.257 333.415,40.875 333.600,37.000 333.600 C 33.118 333.600,31.668 333.405,27.400 332.308 C 23.781 331.377,18.977 329.253,17.200 327.796 C 16.870 327.526,16.389 327.236,16.132 327.152 C 11.785 325.738,2.382 312.798,1.053 306.400 C 0.938 305.850,0.673 304.770,0.463 304.000 C 0.215 303.089,0.068 319.626,0.041 351.300 L 0.000 400.000 200.000 400.000 L 400.000 400.000 399.954 254.900 C 399.928 175.095,399.834 110.160,399.743 110.600 C 399.485 111.861,398.739 114.522,398.397 115.400 C 398.226 115.840,397.699 117.187,397.227 118.393 C 393.016 129.136,381.600 138.227,369.493 140.476 C 365.939 141.137,216.038 141.445,211.200 140.802 C 207.798 140.349,203.129 139.323,202.000 138.779 C 201.670 138.619,199.839 137.747,197.931 136.840 C 189.565 132.864,182.224 124.439,179.426 115.600 C 176.958 107.807,176.833 104.213,178.662 93.696 C 178.786 92.979,179.049 92.294,179.244 92.173 C 179.440 92.052,179.600 91.620,179.600 91.213 C 179.600 90.807,180.311 89.108,181.181 87.437 C 187.002 76.252,195.450 69.886,208.506 66.844 C 211.254 66.204,365.975 66.216,369.376 66.857 C 377.902 68.464,385.755 72.972,391.158 79.361 C 393.556 82.198,396.799 87.003,396.800 87.722 C 396.800 87.899,397.187 88.889,397.660 89.922 C 398.489 91.731,398.891 93.001,399.584 96.000 C 399.762 96.770,399.929 75.485,399.954 48.700 L 400.000 0.000 200.000 0.000 L 0.000 0.000 0.034 145.100 M284.000 163.202 C 287.929 163.975,289.123 164.324,292.200 165.600 C 293.960 166.330,295.878 167.259,296.462 167.664 C 297.046 168.069,297.685 168.400,297.882 168.400 C 298.328 168.400,302.419 171.981,304.728 174.394 C 318.523 188.808,318.523 211.192,304.728 225.606 C 302.419 228.019,298.328 231.600,297.882 231.600 C 297.685 231.600,297.046 231.931,296.462 232.336 C 295.075 233.298,289.442 235.628,287.400 236.084 C 286.520 236.280,284.830 236.618,283.644 236.835 C 280.221 237.460,211.778 237.131,210.000 236.481 C 209.230 236.200,207.970 235.782,207.200 235.552 C 203.406 234.419,199.316 232.263,195.800 229.543 C 169.887 209.497,180.481 168.072,212.800 163.064 C 214.917 162.736,282.295 162.866,284.000 163.202 M284.184 259.508 C 294.506 261.440,303.318 267.283,309.159 276.069 C 310.282 277.758,311.200 279.260,311.200 279.409 C 311.200 279.558,311.455 280.246,311.767 280.940 C 313.571 284.949,315.208 292.288,315.193 296.300 C 315.180 299.781,313.584 308.007,312.733 308.980 C 312.550 309.189,312.400 309.595,312.400 309.882 C 312.400 310.443,311.093 313.226,309.636 315.767 C 306.725 320.847,300.896 326.302,295.200 329.277 C 291.686 331.113,289.501 331.863,283.894 333.159 C 281.185 333.786,125.996 333.783,123.306 333.156 C 106.475 329.238,96.762 319.525,92.844 302.694 C 92.272 300.237,92.271 292.566,92.843 290.106 C 94.037 284.964,94.582 283.195,95.708 280.800 C 101.070 269.393,111.746 261.354,124.104 259.419 C 128.525 258.727,280.462 258.811,284.184 259.508 " stroke="none" fill="#2c2c34" fill-rule="evenodd"></path><path id="path2" d="M387.200 75.725 C 387.200 75.794,387.785 76.379,388.500 77.025 L 389.800 78.200 388.625 76.900 C 387.530 75.688,387.200 75.416,387.200 75.725 M8.800 320.525 C 8.800 320.594,9.385 321.179,10.100 321.825 L 11.400 323.000 10.225 321.700 C 9.130 320.488,8.800 320.216,8.800 320.525 " stroke="none" fill="#94949c" fill-rule="evenodd"></path><path id="path3" d="M209.115 66.728 C 208.738 66.878,244.704 67.000,289.039 67.000 C 333.373 67.000,369.232 66.883,368.724 66.740 C 367.489 66.392,209.991 66.380,209.115 66.728 M370.833 67.344 C 370.925 67.423,371.540 67.608,372.200 67.756 C 373.076 67.952,373.238 67.915,372.800 67.618 C 372.260 67.253,370.432 66.998,370.833 67.344 M376.000 68.934 C 376.000 69.037,376.581 69.324,377.291 69.572 C 378.001 69.819,378.406 69.857,378.191 69.656 C 377.735 69.229,376.000 68.658,376.000 68.934 M198.800 70.000 C 198.030 70.422,197.580 70.766,197.800 70.766 C 198.020 70.766,198.830 70.422,199.600 70.000 C 200.370 69.578,200.820 69.234,200.600 69.234 C 200.380 69.234,199.570 69.578,198.800 70.000 M381.400 71.407 C 381.840 71.766,382.560 72.235,383.000 72.451 L 383.800 72.844 383.000 72.193 C 382.560 71.834,381.840 71.365,381.400 71.149 L 380.600 70.756 381.400 71.407 M384.000 72.933 C 384.000 73.043,384.720 73.703,385.600 74.400 C 386.480 75.097,387.200 75.577,387.200 75.467 C 387.200 75.357,386.480 74.697,385.600 74.000 C 384.720 73.303,384.000 72.823,384.000 72.933 M188.574 77.300 C 186.160 79.795,183.106 83.307,184.834 81.600 C 186.779 79.680,191.711 74.400,191.559 74.400 C 191.461 74.400,190.117 75.705,188.574 77.300 M390.800 79.400 C 391.546 80.170,392.247 80.800,392.357 80.800 C 392.467 80.800,391.946 80.170,391.200 79.400 C 390.454 78.630,389.753 78.000,389.643 78.000 C 389.533 78.000,390.054 78.630,390.800 79.400 M393.199 82.300 C 393.722 83.015,394.213 83.600,394.289 83.600 C 394.593 83.600,393.601 82.100,392.945 81.567 C 392.513 81.216,392.610 81.496,393.199 82.300 M183.753 82.900 C 182.376 85.236,182.286 85.435,182.987 84.600 C 183.800 83.632,184.500 82.400,184.238 82.400 C 184.133 82.400,183.915 82.625,183.753 82.900 M396.110 87.191 C 396.573 88.286,397.022 89.111,397.109 89.024 C 397.298 88.835,395.727 85.200,395.457 85.200 C 395.353 85.200,395.647 86.096,396.110 87.191 M180.344 89.033 C 179.898 90.042,179.604 90.938,179.691 91.024 C 179.778 91.111,180.227 90.286,180.690 89.191 C 181.153 88.096,181.447 87.200,181.343 87.200 C 181.240 87.200,180.790 88.025,180.344 89.033 M399.058 95.200 C 399.375 96.925,399.602 97.251,399.594 95.967 C 399.591 95.435,399.411 94.730,399.194 94.400 C 398.918 93.978,398.877 94.215,399.058 95.200 M178.249 95.415 C 178.112 95.773,178.018 96.456,178.041 96.933 C 178.067 97.481,178.203 97.286,178.410 96.403 C 178.760 94.916,178.665 94.333,178.249 95.415 M177.314 103.800 C 177.317 104.900,177.395 105.303,177.487 104.695 C 177.579 104.086,177.577 103.186,177.482 102.695 C 177.387 102.203,177.311 102.700,177.314 103.800 M178.006 110.433 C 178.009 110.965,178.189 111.670,178.406 112.000 C 178.682 112.422,178.723 112.185,178.542 111.200 C 178.225 109.475,177.998 109.149,178.006 110.433 M399.254 111.067 C 399.225 111.544,399.096 112.264,398.970 112.667 C 398.752 113.361,398.764 113.362,399.196 112.688 C 399.447 112.297,399.575 111.577,399.481 111.088 C 399.309 110.201,399.309 110.201,399.254 111.067 M396.081 120.209 C 395.602 121.194,395.294 122.000,395.397 122.000 C 395.668 122.000,397.284 118.751,397.103 118.570 C 397.019 118.486,396.559 119.224,396.081 120.209 M181.600 120.961 C 181.600 121.343,183.976 124.800,184.238 124.800 C 184.348 124.800,183.861 123.945,183.154 122.900 C 181.588 120.583,181.600 120.597,181.600 120.961 M393.271 124.900 C 392.317 126.318,392.067 126.850,392.694 126.130 C 393.786 124.877,395.383 122.400,395.099 122.400 C 395.019 122.400,394.196 123.525,393.271 124.900 M190.800 132.200 C 191.546 132.970,192.247 133.600,192.357 133.600 C 192.467 133.600,191.946 132.970,191.200 132.200 C 190.454 131.430,189.753 130.800,189.643 130.800 C 189.533 130.800,190.054 131.430,190.800 132.200 M384.815 133.616 C 383.008 135.161,383.451 135.149,385.400 133.600 C 386.231 132.940,386.750 132.407,386.555 132.416 C 386.360 132.425,385.577 132.965,384.815 133.616 M381.900 135.429 C 380.405 136.240,380.496 136.578,382.000 135.800 C 382.660 135.459,383.200 135.094,383.200 134.990 C 383.200 134.732,383.157 134.747,381.900 135.429 M374.000 139.000 C 373.230 139.297,372.870 139.545,373.200 139.552 C 373.530 139.558,374.340 139.317,375.000 139.014 C 376.545 138.307,375.826 138.297,374.000 139.000 M206.000 140.000 C 207.368 140.438,208.419 140.438,207.400 140.000 C 206.960 139.811,206.240 139.662,205.800 139.668 C 205.157 139.677,205.196 139.743,206.000 140.000 M370.200 140.000 C 369.181 140.438,370.232 140.438,371.600 140.000 C 372.404 139.743,372.443 139.677,371.800 139.668 C 371.360 139.662,370.640 139.811,370.200 140.000 M211.423 140.853 C 212.070 140.992,246.980 141.105,289.000 141.105 C 331.020 141.105,365.930 140.992,366.577 140.853 C 367.225 140.714,332.315 140.600,289.000 140.600 C 245.685 140.600,210.775 140.714,211.423 140.853 M280.900 163.076 C 281.285 163.176,281.915 163.176,282.300 163.076 C 282.685 162.975,282.370 162.893,281.600 162.893 C 280.830 162.893,280.515 162.975,280.900 163.076 M211.300 163.476 C 211.685 163.576,212.315 163.576,212.700 163.476 C 213.085 163.375,212.770 163.293,212.000 163.293 C 211.230 163.293,210.915 163.375,211.300 163.476 M283.233 163.343 C 283.325 163.422,284.120 163.597,285.000 163.732 C 286.090 163.899,286.409 163.855,286.000 163.595 C 285.453 163.246,282.845 163.009,283.233 163.343 M287.233 164.144 C 287.325 164.223,287.940 164.408,288.600 164.556 C 289.476 164.752,289.638 164.715,289.200 164.418 C 288.660 164.053,286.832 163.798,287.233 164.144 M196.600 169.844 L 195.000 171.276 196.800 169.961 C 197.790 169.237,198.675 168.590,198.767 168.523 C 198.858 168.455,198.768 168.403,198.567 168.406 C 198.365 168.409,197.480 169.056,196.600 169.844 M298.646 169.268 C 299.281 169.745,300.261 170.510,300.825 170.968 C 301.389 171.426,301.034 171.035,300.036 170.100 C 299.038 169.165,298.058 168.400,297.857 168.400 C 297.656 168.400,298.011 168.791,298.646 169.268 M193.178 172.700 L 191.800 174.200 193.300 172.822 C 194.125 172.063,194.800 171.388,194.800 171.322 C 194.800 171.016,194.462 171.304,193.178 172.700 M190.175 175.700 L 189.000 177.000 190.300 175.825 C 191.512 174.730,191.784 174.400,191.475 174.400 C 191.406 174.400,190.821 174.985,190.175 175.700 M305.200 175.325 C 305.200 175.394,305.785 175.979,306.500 176.625 L 307.800 177.800 306.625 176.500 C 305.530 175.288,305.200 175.016,305.200 175.325 M186.941 180.005 C 185.916 181.547,185.149 182.872,185.238 182.949 C 185.327 183.026,186.250 181.764,187.289 180.144 C 188.328 178.525,189.095 177.200,188.992 177.200 C 188.890 177.200,187.967 178.462,186.941 180.005 M309.400 180.800 C 309.741 181.460,310.111 182.000,310.221 182.000 C 310.331 182.000,310.141 181.460,309.800 180.800 C 309.459 180.140,309.089 179.600,308.979 179.600 C 308.869 179.600,309.059 180.140,309.400 180.800 M313.444 190.200 C 313.773 191.671,314.002 191.990,313.994 190.967 C 313.991 190.545,313.805 189.930,313.582 189.600 C 313.285 189.162,313.248 189.324,313.444 190.200 M181.849 192.215 C 181.712 192.573,181.615 193.166,181.634 193.533 C 181.653 193.900,181.827 193.669,182.021 193.020 C 182.398 191.758,182.265 191.133,181.849 192.215 M314.600 200.000 C 314.600 202.945,314.714 204.825,314.853 204.177 C 314.992 203.530,315.105 201.650,315.105 200.000 C 315.105 198.350,314.992 196.470,314.853 195.823 C 314.714 195.175,314.600 197.055,314.600 200.000 M181.111 198.100 C 181.000 199.255,181.031 201.100,181.180 202.200 C 181.392 203.772,181.456 203.322,181.481 200.100 C 181.517 195.536,181.411 194.965,181.111 198.100 M181.606 206.633 C 181.609 207.055,181.795 207.670,182.018 208.000 C 182.315 208.438,182.352 208.276,182.156 207.400 C 181.827 205.929,181.598 205.610,181.606 206.633 M313.646 208.867 C 313.621 209.234,313.496 209.864,313.370 210.267 C 313.152 210.962,313.163 210.963,313.597 210.287 C 313.848 209.896,313.973 209.266,313.873 208.887 C 313.711 208.268,313.688 208.266,313.646 208.867 M185.360 217.308 C 185.618 218.135,188.735 222.800,189.030 222.800 C 189.140 222.800,188.532 221.765,187.680 220.500 C 186.828 219.235,185.907 217.840,185.635 217.400 C 185.253 216.783,185.190 216.762,185.360 217.308 M309.400 219.200 C 309.059 219.860,308.869 220.400,308.979 220.400 C 309.089 220.400,309.459 219.860,309.800 219.200 C 310.141 218.540,310.331 218.000,310.221 218.000 C 310.111 218.000,309.741 218.540,309.400 219.200 M306.175 223.700 L 305.000 225.000 306.300 223.825 C 307.015 223.179,307.600 222.594,307.600 222.525 C 307.600 222.216,307.270 222.488,306.175 223.700 M189.200 223.325 C 189.200 223.394,189.785 223.979,190.500 224.625 L 191.800 225.800 190.625 224.500 C 189.530 223.288,189.200 223.016,189.200 223.325 M193.200 227.400 C 193.946 228.170,194.647 228.800,194.757 228.800 C 194.867 228.800,194.346 228.170,193.600 227.400 C 192.854 226.630,192.153 226.000,192.043 226.000 C 191.933 226.000,192.454 226.630,193.200 227.400 M299.685 229.828 C 298.522 230.803,297.717 231.600,297.896 231.600 C 298.075 231.600,299.117 230.798,300.211 229.818 C 302.772 227.523,302.429 227.530,299.685 229.828 M196.600 230.156 C 197.480 230.944,198.365 231.591,198.567 231.594 C 198.768 231.597,198.858 231.545,198.767 231.477 C 198.675 231.410,197.790 230.763,196.800 230.039 L 195.000 228.724 196.600 230.156 M288.000 235.600 C 287.176 235.864,287.141 235.926,287.800 235.954 C 288.240 235.973,288.870 235.813,289.200 235.600 C 289.901 235.147,289.414 235.147,288.000 235.600 M284.400 236.400 C 283.016 236.691,283.014 236.695,284.200 236.741 C 284.860 236.767,285.670 236.613,286.000 236.400 C 286.666 235.970,286.445 235.970,284.400 236.400 M211.300 236.676 C 211.685 236.776,212.315 236.776,212.700 236.676 C 213.085 236.575,212.770 236.493,212.000 236.493 C 211.230 236.493,210.915 236.575,211.300 236.676 M280.900 237.076 C 281.285 237.176,281.915 237.176,282.300 237.076 C 282.685 236.975,282.370 236.893,281.600 236.893 C 280.830 236.893,280.515 236.975,280.900 237.076 M33.400 259.153 C 32.740 259.295,34.360 259.412,37.000 259.412 C 39.640 259.412,41.260 259.295,40.600 259.153 C 39.940 259.011,38.320 258.895,37.000 258.895 C 35.680 258.895,34.060 259.011,33.400 259.153 M126.000 259.153 C 125.230 259.289,160.140 259.400,203.577 259.400 C 247.015 259.400,282.025 259.286,281.377 259.147 C 279.855 258.821,127.850 258.826,126.000 259.153 M120.800 260.000 C 119.996 260.257,119.957 260.323,120.600 260.332 C 121.040 260.338,121.760 260.189,122.200 260.000 C 123.219 259.562,122.168 259.562,120.800 260.000 M25.000 260.986 C 23.455 261.693,24.174 261.703,26.000 261.000 C 26.770 260.703,27.130 260.455,26.800 260.448 C 26.470 260.442,25.660 260.683,25.000 260.986 M52.433 262.551 C 52.842 262.921,56.000 264.395,56.000 264.216 C 56.000 263.989,52.981 262.400,52.549 262.400 C 52.394 262.400,52.342 262.468,52.433 262.551 M17.900 264.229 C 16.405 265.040,16.496 265.378,18.000 264.600 C 18.660 264.259,19.200 263.894,19.200 263.790 C 19.200 263.532,19.157 263.547,17.900 264.229 M108.385 265.629 L 107.000 266.858 108.600 265.745 C 109.480 265.133,110.275 264.580,110.367 264.516 C 110.458 264.452,110.362 264.400,110.152 264.400 C 109.942 264.400,109.147 264.953,108.385 265.629 M14.731 266.280 C 13.999 266.874,13.325 267.414,13.233 267.480 C 13.142 267.546,13.142 267.672,13.233 267.760 C 13.325 267.848,14.105 267.308,14.967 266.560 C 16.825 264.946,16.642 264.729,14.731 266.280 M63.398 270.400 C 65.146 272.270,66.651 273.890,66.743 274.000 C 66.834 274.110,66.717 273.840,66.482 273.400 C 66.248 272.960,64.743 271.340,63.138 269.800 L 60.220 267.000 63.398 270.400 M104.778 268.700 L 103.400 270.200 104.900 268.822 C 106.296 267.538,106.584 267.200,106.278 267.200 C 106.212 267.200,105.537 267.875,104.778 268.700 M301.201 267.212 C 301.201 267.315,302.775 269.019,304.698 270.999 C 306.621 272.978,307.805 274.058,307.328 273.399 C 306.432 272.161,301.199 266.877,301.201 267.212 M101.568 271.900 C 99.706 273.903,98.638 275.200,98.849 275.200 C 98.944 275.200,99.973 274.120,101.135 272.800 C 103.469 270.148,103.762 269.540,101.568 271.900 M7.073 274.100 C 5.875 275.711,4.511 277.942,5.056 277.400 C 5.687 276.773,8.419 272.800,8.220 272.800 C 8.121 272.800,7.605 273.385,7.073 274.100 M67.215 274.600 C 67.217 274.820,67.586 275.450,68.036 276.000 C 68.579 276.664,68.715 276.731,68.440 276.200 C 67.766 274.895,67.212 274.172,67.215 274.600 M69.625 278.700 C 70.096 279.635,70.536 280.400,70.603 280.400 C 70.924 280.400,70.271 278.891,69.564 278.000 C 68.832 277.078,68.837 277.133,69.625 278.700 M3.580 279.639 C 3.120 280.540,2.813 281.346,2.897 281.430 C 2.981 281.514,3.441 280.776,3.919 279.791 C 5.009 277.547,4.715 277.415,3.580 279.639 M94.444 283.644 C 94.198 284.351,94.066 285.000,94.152 285.085 C 94.238 285.171,94.509 284.662,94.756 283.956 C 95.002 283.249,95.134 282.600,95.048 282.515 C 94.962 282.429,94.691 282.938,94.444 283.644 M72.644 286.200 C 72.973 287.671,73.202 287.990,73.194 286.967 C 73.191 286.545,73.005 285.930,72.782 285.600 C 72.485 285.162,72.448 285.324,72.644 286.200 M313.444 286.600 C 313.773 288.071,314.002 288.390,313.994 287.367 C 313.991 286.945,313.805 286.330,313.582 286.000 C 313.285 285.562,313.248 285.724,313.444 286.600 M93.429 287.029 C 93.281 287.615,93.238 288.172,93.332 288.266 C 93.427 288.360,93.624 287.958,93.771 287.371 C 93.919 286.785,93.962 286.228,93.868 286.134 C 93.773 286.040,93.576 286.442,93.429 287.029 M73.482 290.021 C 73.608 290.999,73.775 291.875,73.855 291.967 C 74.181 292.342,73.960 289.355,73.621 288.821 C 73.384 288.446,73.335 288.870,73.482 290.021 M92.656 290.884 C 92.521 291.388,92.434 292.700,92.462 293.800 C 92.509 295.629,92.539 295.561,92.806 293.000 C 93.113 290.052,93.065 289.360,92.656 290.884 M314.599 296.391 C 314.598 299.619,314.708 301.111,314.876 300.165 C 315.213 298.268,315.200 293.839,314.853 292.226 C 314.714 291.580,314.600 293.454,314.599 296.391 M74.144 296.400 C 74.144 298.490,74.212 299.345,74.294 298.300 C 74.376 297.255,74.376 295.545,74.294 294.500 C 74.212 293.455,74.144 294.310,74.144 296.400 M92.460 299.000 C 92.458 300.320,92.602 301.760,92.780 302.200 C 92.968 302.665,93.026 301.827,92.919 300.200 C 92.678 296.542,92.464 295.984,92.460 299.000 M73.701 301.800 C 73.705 302.680,73.787 302.993,73.883 302.495 C 73.979 301.998,73.975 301.278,73.875 300.895 C 73.775 300.513,73.696 300.920,73.701 301.800 M0.258 303.000 C 0.392 303.880,0.656 304.870,0.844 305.200 C 1.258 305.926,0.834 303.371,0.346 302.200 C 0.136 301.695,0.103 301.991,0.258 303.000 M313.800 304.400 C 313.648 305.091,313.607 305.741,313.709 305.842 C 313.811 305.944,314.009 305.453,314.150 304.750 C 314.291 304.047,314.331 303.398,314.241 303.308 C 314.150 303.217,313.952 303.709,313.800 304.400 M93.212 304.800 C 93.212 305.130,93.387 305.670,93.600 306.000 C 93.945 306.533,93.988 306.533,93.988 306.000 C 93.988 305.670,93.813 305.130,93.600 304.800 C 93.255 304.267,93.212 304.267,93.212 304.800 M4.800 314.961 C 4.800 315.343,7.176 318.800,7.438 318.800 C 7.548 318.800,7.061 317.945,6.354 316.900 C 4.788 314.583,4.800 314.597,4.800 314.961 M308.492 317.029 C 307.997 317.783,307.672 318.400,307.769 318.400 C 308.047 318.400,309.704 315.971,309.539 315.806 C 309.457 315.724,308.986 316.274,308.492 317.029 M100.305 319.400 C 100.763 320.060,102.273 321.680,103.660 323.000 C 106.125 325.347,106.115 325.330,103.210 322.200 C 99.247 317.930,99.356 318.035,100.305 319.400 M65.178 320.300 L 63.800 321.800 65.300 320.422 C 66.696 319.138,66.984 318.800,66.678 318.800 C 66.612 318.800,65.937 319.475,65.178 320.300 M306.598 319.602 C 306.198 320.044,305.966 320.499,306.082 320.615 C 306.197 320.730,306.590 320.369,306.955 319.812 C 307.752 318.596,307.593 318.502,306.598 319.602 M8.330 320.300 C 8.761 320.905,9.528 321.760,10.034 322.200 C 10.540 322.640,10.251 322.145,9.392 321.100 C 7.673 319.008,7.103 318.579,8.330 320.300 M12.400 324.200 C 13.146 324.970,13.847 325.600,13.957 325.600 C 14.067 325.600,13.546 324.970,12.800 324.200 C 12.054 323.430,11.353 322.800,11.243 322.800 C 11.133 322.800,11.654 323.430,12.400 324.200 M60.200 325.068 C 59.320 325.857,58.960 326.316,59.400 326.088 C 60.141 325.704,62.351 323.579,61.970 323.617 C 61.876 323.626,61.080 324.279,60.200 325.068 M106.400 325.346 C 106.400 325.456,106.940 325.930,107.600 326.400 C 108.260 326.870,108.800 327.164,108.800 327.054 C 108.800 326.944,108.260 326.470,107.600 326.000 C 106.940 325.530,106.400 325.236,106.400 325.346 M15.089 326.430 C 15.578 326.939,16.078 327.255,16.201 327.132 C 16.324 327.009,15.924 326.592,15.312 326.206 L 14.200 325.504 15.089 326.430 M298.614 326.846 C 296.513 328.426,296.316 328.687,297.927 327.762 C 299.062 327.110,300.847 325.545,300.362 325.627 C 300.273 325.642,299.486 326.191,298.614 326.846 M57.000 327.457 L 55.800 328.485 57.100 327.756 C 57.815 327.355,58.400 326.886,58.400 326.714 C 58.400 326.275,58.346 326.303,57.000 327.457 M109.800 327.807 C 110.240 328.166,110.960 328.635,111.400 328.851 L 112.200 329.244 111.400 328.593 C 110.960 328.234,110.240 327.765,109.800 327.549 L 109.000 327.156 109.800 327.807 M17.200 327.779 C 17.200 327.889,17.740 328.259,18.400 328.600 C 19.060 328.941,19.600 329.131,19.600 329.021 C 19.600 328.911,19.060 328.541,18.400 328.200 C 17.740 327.859,17.200 327.669,17.200 327.779 M114.800 330.600 C 115.350 330.914,115.980 331.172,116.200 331.172 C 116.420 331.172,116.150 330.914,115.600 330.600 C 115.050 330.286,114.420 330.028,114.200 330.028 C 113.980 330.028,114.250 330.286,114.800 330.600 M120.000 332.382 C 120.330 332.605,120.945 332.791,121.367 332.794 C 122.390 332.802,122.071 332.573,120.600 332.244 C 119.724 332.048,119.562 332.085,120.000 332.382 M31.515 333.272 C 31.892 333.421,34.360 333.544,37.000 333.544 C 39.640 333.544,42.108 333.421,42.485 333.272 C 42.862 333.122,40.394 333.000,37.000 333.000 C 33.606 333.000,31.138 333.122,31.515 333.272 M123.915 333.272 C 124.292 333.421,160.150 333.544,203.600 333.544 C 247.050 333.544,282.908 333.421,283.285 333.272 C 283.662 333.122,247.804 333.000,203.600 333.000 C 159.396 333.000,123.538 333.122,123.915 333.272 " stroke="none" fill="#787980" fill-rule="evenodd"></path><path id="path4" d="M207.700 67.476 C 208.085 67.576,208.715 67.576,209.100 67.476 C 209.485 67.375,209.170 67.293,208.400 67.293 C 207.630 67.293,207.315 67.375,207.700 67.476 M368.500 67.476 C 368.885 67.576,369.515 67.576,369.900 67.476 C 370.285 67.375,369.970 67.293,369.200 67.293 C 368.430 67.293,368.115 67.375,368.500 67.476 M384.000 73.318 C 384.000 73.420,384.847 74.197,385.881 75.045 C 386.916 75.893,387.634 76.378,387.476 76.123 C 387.140 75.579,384.000 73.045,384.000 73.318 M188.388 77.900 L 185.800 80.600 188.500 78.012 C 191.008 75.607,191.383 75.200,191.088 75.200 C 191.027 75.200,189.812 76.415,188.388 77.900 M390.200 79.200 C 391.059 80.080,391.852 80.800,391.962 80.800 C 392.072 80.800,391.459 80.080,390.600 79.200 C 389.741 78.320,388.948 77.600,388.838 77.600 C 388.728 77.600,389.341 78.320,390.200 79.200 M393.949 83.800 C 394.165 84.240,394.634 84.960,394.993 85.400 L 395.644 86.200 395.251 85.400 C 395.035 84.960,394.566 84.240,394.207 83.800 L 393.556 83.000 393.949 83.800 M183.000 84.800 C 182.659 85.460,182.469 86.000,182.579 86.000 C 182.689 86.000,183.059 85.460,183.400 84.800 C 183.741 84.140,183.931 83.600,183.821 83.600 C 183.711 83.600,183.341 84.140,183.000 84.800 M181.180 88.039 C 180.720 88.940,180.413 89.746,180.497 89.830 C 180.581 89.914,181.041 89.176,181.519 88.191 C 182.609 85.947,182.315 85.815,181.180 88.039 M399.234 98.200 C 399.222 98.640,399.387 99.270,399.600 99.600 C 400.114 100.395,400.114 99.396,399.600 98.200 L 399.256 97.400 399.234 98.200 M178.093 99.600 C 178.093 100.370,178.175 100.685,178.276 100.300 C 178.376 99.915,178.376 99.285,178.276 98.900 C 178.175 98.515,178.093 98.830,178.093 99.600 M177.724 103.800 C 177.726 105.120,177.801 105.612,177.890 104.893 C 177.979 104.174,177.977 103.094,177.886 102.493 C 177.795 101.892,177.722 102.480,177.724 103.800 M178.101 107.800 C 178.105 108.680,178.187 108.993,178.283 108.495 C 178.379 107.998,178.375 107.278,178.275 106.895 C 178.175 106.513,178.096 106.920,178.101 107.800 M399.473 107.753 C 399.323 108.145,399.211 108.766,399.225 109.133 C 399.242 109.575,399.381 109.474,399.637 108.834 C 399.849 108.303,399.961 107.682,399.885 107.454 C 399.809 107.227,399.624 107.361,399.473 107.753 M178.644 111.800 C 178.973 113.271,179.202 113.590,179.194 112.567 C 179.191 112.145,179.005 111.530,178.782 111.200 C 178.485 110.762,178.448 110.924,178.644 111.800 M393.385 124.100 C 392.768 125.035,392.520 125.589,392.832 125.331 C 393.433 124.834,394.964 122.400,394.676 122.400 C 394.583 122.400,394.002 123.165,393.385 124.100 M390.975 127.300 L 389.800 128.600 391.100 127.425 C 391.815 126.779,392.400 126.194,392.400 126.125 C 392.400 125.816,392.070 126.088,390.975 127.300 M388.575 130.100 L 387.400 131.400 388.700 130.225 C 389.415 129.579,390.000 128.994,390.000 128.925 C 390.000 128.616,389.670 128.888,388.575 130.100 M190.800 131.800 C 191.546 132.570,192.247 133.200,192.357 133.200 C 192.467 133.200,191.946 132.570,191.200 131.800 C 190.454 131.030,189.753 130.400,189.643 130.400 C 189.533 130.400,190.054 131.030,190.800 131.800 M385.593 132.513 C 385.039 133.001,384.049 133.799,383.393 134.287 C 382.737 134.775,382.313 135.180,382.452 135.187 C 382.590 135.194,383.747 134.390,385.022 133.400 C 386.297 132.410,387.173 131.606,386.970 131.613 C 386.766 131.620,386.147 132.025,385.593 132.513 M204.200 139.200 C 204.640 139.389,205.270 139.544,205.600 139.544 C 205.978 139.544,205.904 139.417,205.400 139.200 C 204.960 139.011,204.330 138.856,204.000 138.856 C 203.622 138.856,203.696 138.983,204.200 139.200 M251.532 140.700 C 272.284 140.757,306.124 140.757,326.732 140.700 C 347.339 140.643,330.360 140.596,289.000 140.596 C 247.640 140.596,230.779 140.643,251.532 140.700 M232.500 163.100 C 241.025 163.160,254.975 163.160,263.500 163.100 C 272.025 163.040,265.050 162.990,248.000 162.990 C 230.950 162.990,223.975 163.040,232.500 163.100 M214.300 163.482 C 214.795 163.578,215.605 163.578,216.100 163.482 C 216.595 163.387,216.190 163.309,215.200 163.309 C 214.210 163.309,213.805 163.387,214.300 163.482 M280.305 163.483 C 280.802 163.579,281.522 163.575,281.905 163.475 C 282.287 163.375,281.880 163.296,281.000 163.301 C 280.120 163.305,279.807 163.387,280.305 163.483 M285.000 164.000 C 285.440 164.189,286.070 164.344,286.400 164.344 C 286.778 164.344,286.704 164.217,286.200 164.000 C 285.760 163.811,285.130 163.656,284.800 163.656 C 284.422 163.656,284.496 163.783,285.000 164.000 M191.385 174.900 L 189.400 177.000 191.500 175.015 C 192.655 173.923,193.600 172.978,193.600 172.915 C 193.600 172.617,193.229 172.949,191.385 174.900 M185.781 182.437 C 185.429 183.118,185.212 183.745,185.299 183.832 C 185.386 183.919,185.756 183.362,186.122 182.595 C 186.944 180.870,186.659 180.738,185.781 182.437 M311.829 186.400 C 311.976 186.950,312.264 187.670,312.467 188.000 C 312.725 188.417,312.757 188.295,312.571 187.600 C 312.424 187.050,312.136 186.330,311.933 186.000 C 311.675 185.583,311.643 185.705,311.829 186.400 M313.680 192.600 C 313.680 193.040,313.824 193.850,314.000 194.400 C 314.254 195.192,314.320 195.233,314.320 194.600 C 314.320 194.160,314.176 193.350,314.000 192.800 C 313.746 192.008,313.680 191.967,313.680 192.600 M181.724 197.000 C 181.726 198.320,181.801 198.812,181.890 198.093 C 181.979 197.374,181.977 196.294,181.886 195.693 C 181.795 195.092,181.722 195.680,181.724 197.000 M314.509 200.000 C 314.509 200.990,314.587 201.395,314.682 200.900 C 314.778 200.405,314.778 199.595,314.682 199.100 C 314.587 198.605,314.509 199.010,314.509 200.000 M181.724 203.000 C 181.726 204.320,181.801 204.812,181.890 204.093 C 181.979 203.374,181.977 202.294,181.886 201.693 C 181.795 201.092,181.722 201.680,181.724 203.000 M313.822 206.222 C 313.672 207.025,313.628 207.762,313.726 207.860 C 313.824 207.957,314.027 207.381,314.178 206.578 C 314.328 205.775,314.372 205.038,314.274 204.940 C 314.176 204.843,313.973 205.419,313.822 206.222 M312.044 212.844 C 311.798 213.551,311.666 214.200,311.752 214.285 C 311.838 214.371,312.109 213.862,312.356 213.156 C 312.602 212.449,312.734 211.800,312.648 211.715 C 312.562 211.629,312.291 212.138,312.044 212.844 M185.200 216.153 C 185.200 216.582,186.390 218.800,186.621 218.800 C 186.731 218.800,186.523 218.215,186.159 217.500 C 185.417 216.040,185.200 215.736,185.200 216.153 M191.686 225.398 C 192.943 226.698,194.029 227.681,194.100 227.581 C 194.171 227.482,193.143 226.417,191.815 225.217 L 189.400 223.033 191.686 225.398 M285.000 236.000 C 284.496 236.217,284.422 236.344,284.800 236.344 C 285.130 236.344,285.760 236.189,286.200 236.000 C 286.704 235.783,286.778 235.656,286.400 235.656 C 286.070 235.656,285.440 235.811,285.000 236.000 M214.300 236.682 C 214.795 236.778,215.605 236.778,216.100 236.682 C 216.595 236.587,216.190 236.509,215.200 236.509 C 214.210 236.509,213.805 236.587,214.300 236.682 M280.305 236.683 C 280.802 236.779,281.522 236.775,281.905 236.675 C 282.287 236.575,281.880 236.496,281.000 236.501 C 280.120 236.505,279.807 236.587,280.305 236.683 M232.500 237.100 C 241.025 237.160,254.975 237.160,263.500 237.100 C 272.025 237.040,265.050 236.990,248.000 236.990 C 230.950 236.990,223.975 237.040,232.500 237.100 M166.332 259.500 C 187.084 259.557,220.924 259.557,241.532 259.500 C 262.139 259.443,245.160 259.396,203.800 259.396 C 162.440 259.396,145.579 259.443,166.332 259.500 M114.400 262.600 C 113.850 262.914,113.580 263.172,113.800 263.172 C 114.020 263.172,114.650 262.914,115.200 262.600 C 115.750 262.286,116.020 262.028,115.800 262.028 C 115.580 262.028,114.950 262.286,114.400 262.600 M52.800 263.200 C 53.570 263.622,54.380 263.966,54.600 263.966 C 54.820 263.966,54.370 263.622,53.600 263.200 C 52.830 262.778,52.020 262.434,51.800 262.434 C 51.580 262.434,52.030 262.778,52.800 263.200 M15.236 266.409 C 14.116 267.294,13.200 268.116,13.200 268.236 C 13.200 268.356,14.055 267.776,15.100 266.947 C 17.690 264.893,17.794 264.800,17.516 264.800 C 17.382 264.800,16.356 265.524,15.236 266.409 M56.400 264.911 C 56.400 264.987,56.985 265.478,57.700 266.001 C 58.504 266.590,58.784 266.687,58.433 266.255 C 57.900 265.599,56.400 264.607,56.400 264.911 M106.189 267.831 L 104.200 269.661 106.300 267.968 C 108.184 266.449,108.638 266.000,108.289 266.000 C 108.228 266.000,107.283 266.824,106.189 267.831 M62.200 269.600 C 63.059 270.480,63.852 271.200,63.962 271.200 C 64.072 271.200,63.459 270.480,62.600 269.600 C 61.741 268.720,60.948 268.000,60.838 268.000 C 60.728 268.000,61.341 268.720,62.200 269.600 M304.010 270.623 C 305.435 272.176,307.099 274.066,307.710 274.823 C 308.344 275.610,308.226 275.342,307.435 274.200 C 306.674 273.100,305.009 271.210,303.736 270.000 L 301.421 267.800 304.010 270.623 M10.175 270.900 L 9.000 272.200 10.300 271.025 C 11.015 270.379,11.600 269.794,11.600 269.725 C 11.600 269.416,11.270 269.688,10.175 270.900 M101.578 272.300 L 100.200 273.800 101.700 272.422 C 103.096 271.138,103.384 270.800,103.078 270.800 C 103.012 270.800,102.337 271.475,101.578 272.300 M65.656 273.418 C 66.374 274.418,67.230 275.453,67.559 275.718 C 67.887 275.983,67.379 275.165,66.430 273.900 C 64.387 271.178,63.772 270.795,65.656 273.418 M6.493 275.500 C 5.457 276.996,5.121 277.600,5.323 277.600 C 5.417 277.600,5.970 276.880,6.553 276.000 C 7.736 274.212,7.684 273.779,6.493 275.500 M96.580 279.640 C 96.011 280.762,95.613 281.747,95.695 281.829 C 95.777 281.911,96.327 280.993,96.918 279.789 C 97.508 278.585,97.906 277.600,97.802 277.600 C 97.698 277.600,97.148 278.518,96.580 279.640 M1.246 286.867 C 1.221 287.234,1.096 287.864,0.970 288.267 C 0.752 288.962,0.763 288.963,1.197 288.287 C 1.448 287.896,1.573 287.266,1.473 286.887 C 1.311 286.268,1.288 286.266,1.246 286.867 M0.229 291.429 C 0.081 292.015,0.051 292.584,0.161 292.694 C 0.271 292.804,0.481 292.415,0.629 291.829 C 0.776 291.242,0.806 290.673,0.696 290.563 C 0.586 290.453,0.376 290.842,0.229 291.429 M73.742 296.200 C 73.741 298.180,73.808 299.040,73.892 298.112 C 73.976 297.184,73.977 295.564,73.895 294.512 C 73.812 293.460,73.743 294.220,73.742 296.200 M314.509 296.400 C 314.509 297.390,314.587 297.795,314.682 297.300 C 314.778 296.805,314.778 295.995,314.682 295.500 C 314.587 295.005,314.509 295.410,314.509 296.400 M0.034 300.400 C 0.046 300.730,0.211 301.360,0.400 301.800 L 0.744 302.600 0.766 301.800 C 0.778 301.360,0.613 300.730,0.400 300.400 C 0.055 299.867,0.015 299.867,0.034 300.400 M313.850 302.450 C 313.709 303.153,313.669 303.802,313.759 303.892 C 313.850 303.983,314.048 303.491,314.200 302.800 C 314.352 302.109,314.393 301.459,314.291 301.358 C 314.189 301.256,313.991 301.747,313.850 302.450 M93.293 302.800 C 93.293 303.570,93.375 303.885,93.476 303.500 C 93.576 303.115,93.576 302.485,93.476 302.100 C 93.375 301.715,93.293 302.030,93.293 302.800 M73.000 303.200 C 72.848 303.891,72.807 304.541,72.909 304.642 C 73.011 304.744,73.209 304.253,73.350 303.550 C 73.683 301.883,73.360 301.560,73.000 303.200 M310.153 313.700 C 308.776 316.036,308.686 316.235,309.387 315.400 C 310.200 314.432,310.900 313.200,310.638 313.200 C 310.533 313.200,310.315 313.425,310.153 313.700 M67.631 316.473 C 66.922 317.613,66.587 318.343,66.885 318.096 C 67.453 317.624,69.373 314.400,69.085 314.400 C 68.994 314.400,68.340 315.333,67.631 316.473 M102.400 321.400 C 103.146 322.170,103.847 322.800,103.957 322.800 C 104.067 322.800,103.546 322.170,102.800 321.400 C 102.054 320.630,101.353 320.000,101.243 320.000 C 101.133 320.000,101.654 320.630,102.400 321.400 M12.000 323.347 C 12.770 324.184,13.940 325.243,14.600 325.700 C 16.009 326.674,15.756 326.404,12.800 323.778 C 11.042 322.217,10.882 322.130,12.000 323.347 M16.600 327.007 C 17.040 327.366,17.760 327.835,18.200 328.051 L 19.000 328.444 18.200 327.793 C 17.760 327.434,17.040 326.965,16.600 326.749 L 15.800 326.356 16.600 327.007 M55.096 328.150 C 53.175 329.331,52.638 329.889,54.200 329.081 C 55.454 328.433,57.145 327.226,56.800 327.225 C 56.690 327.225,55.923 327.641,55.096 328.150 M293.600 329.400 C 292.610 329.930,291.942 330.372,292.116 330.382 C 292.541 330.406,295.600 328.834,295.600 328.592 C 295.600 328.327,295.617 328.320,293.600 329.400 M30.100 332.676 C 30.485 332.776,31.115 332.776,31.500 332.676 C 31.885 332.575,31.570 332.493,30.800 332.493 C 30.030 332.493,29.715 332.575,30.100 332.676 M42.500 332.676 C 42.885 332.776,43.515 332.776,43.900 332.676 C 44.285 332.575,43.970 332.493,43.200 332.493 C 42.430 332.493,42.115 332.575,42.500 332.676 M122.433 332.549 C 122.525 332.631,123.500 332.801,124.600 332.928 C 125.949 333.084,126.274 333.049,125.600 332.820 C 124.601 332.480,122.118 332.268,122.433 332.549 M283.300 332.676 C 283.685 332.776,284.315 332.776,284.700 332.676 C 285.085 332.575,284.770 332.493,284.000 332.493 C 283.230 332.493,282.915 332.575,283.300 332.676 " stroke="none" fill="#9c9c9d" fill-rule="evenodd"></path></g></svg>