<svg xmlns="http://www.w3.org/2000/svg" xmlns:xlink="http://www.w3.org/1999/xlink" version="1.1" width="1000" height="1000" viewBox="0 0 1000 1000" xml:space="preserve">
<desc>Created with Fabric.js 3.5.0</desc>
<defs>
</defs>
<rect x="0" y="0" width="100%" height="100%" fill="rgba(255,255,255,0)"/>
<g transform="matrix(0.9091 0 0 0.9091 500.0045 500.0045)" id="887284">
<g style="" vector-effect="non-scaling-stroke">
		<g transform="matrix(1 0 0 1 -450 -450)">
<rect style="stroke: none; stroke-width: 1; stroke-dasharray: none; stroke-linecap: butt; stroke-dashoffset: 0; stroke-linejoin: miter; stroke-miterlimit: 4; is-custom-font: none; font-file-url: none; fill: rgb(255,255,255); fill-opacity: 0; fill-rule: nonzero; opacity: 1;" x="-50" y="-50" rx="0" ry="0" width="100" height="100"/>
</g>
		<g transform="matrix(0.9091 0 0 0.9091 -409.0905 -409.0905)" id="358671">
<rect style="stroke: none; stroke-width: 1; stroke-dasharray: none; stroke-linecap: butt; stroke-dashoffset: 0; stroke-linejoin: miter; stroke-miterlimit: 4; is-custom-font: none; font-file-url: none; fill: rgb(255,255,255); fill-opacity: 0; fill-rule: nonzero; opacity: 1;" vector-effect="non-scaling-stroke" x="-50" y="-50" rx="0" ry="0" width="100" height="100"/>
</g>
		<g transform="matrix(9.0819 0 0 9.0819 -349.418 -117.552)" id="336247">
<path style="stroke: none; stroke-width: 1; stroke-dasharray: none; stroke-linecap: butt; stroke-dashoffset: 0; stroke-linejoin: miter; stroke-miterlimit: 4; is-custom-font: none; font-file-url: none; fill: rgb(0,0,0); fill-rule: nonzero; opacity: 1;" vector-effect="non-scaling-stroke" transform=" translate(-7.0255, -4.056)" d="M 14.05 8.112 L 7.024 4.056 L 0 8.112 V 4.056 L 7.025 0 l 7.026 4.056 v 4.056 h -0.001 z" stroke-linecap="round"/>
</g>
		<g transform="matrix(9.0819 0 0 9.0819 -2.5347 25.656)" id="336247">
<path style="stroke: none; stroke-width: 1; stroke-dasharray: none; stroke-linecap: butt; stroke-dashoffset: 0; stroke-linejoin: miter; stroke-miterlimit: 4; is-custom-font: none; font-file-url: none; fill: rgb(0,0,0); fill-rule: nonzero; opacity: 1;" vector-effect="non-scaling-stroke" transform=" translate(-45.2205, -19.8245)" d="M 0 11.518 h 3.68 v 8.941 c 0 2.31 1.725 3.436 3.345 3.436 c 1.634 0 3.346 -1.156 3.346 -3.467 v -8.91 h 3.68 v 9.154 c 0 2.128 -0.669 3.77 -2.007 4.896 c -1.339 1.125 -3.011 1.673 -5.05 1.673 c -2.037 0 -3.71 -0.547 -5.017 -1.673 C 0.669 24.443 0 22.862 0 20.763 v -9.245 z M 45.866 22.63 c -1.114 0.992 -2.383 1.478 -3.83 1.478 c -2.64 0 -4.41 -1.504 -4.61 -3.833 h 11.89 s 0.08 -0.752 0.08 -1.458 c 0 -2.19 -0.7 -4.015 -2.13 -5.505 c -1.398 -1.49 -3.222 -2.22 -5.443 -2.22 c -2.341 0 -4.258 0.73 -5.779 2.22 c -1.49 1.49 -2.25 3.436 -2.25 5.87 v 0.12 c 0 2.403 0.76 4.319 2.25 5.749 c 1.49 1.429 3.467 2.159 5.87 2.159 c 2.794 0 5.017 -1.102 6.685 -3.002 l -2.733 -1.578 z m -6.994 -7.463 c 0.82 -0.639 1.825 -0.973 2.95 -0.973 c 1.064 0 1.946 0.334 2.707 1.004 c 0.726 0.61 1.118 1.359 1.152 2.22 H 37.52 c 0.118 -0.89 0.568 -1.64 1.353 -2.25 z M 82.91 29.276 C 81.417 32.801 79.855 34 77.46 34 H 75.8 v -3.262 h 1.342 c 0.824 0 1.59 -0.31 2.32 -1.994 l 0.73 -1.686 l -6.296 -15.54 h 3.741 l 4.471 11.192 l 4.593 -11.192 h 3.74 l -7.53 17.758 z M 28.377 5.649 v 7.257 c -1.206 -1.08 -3.082 -1.723 -4.896 -1.723 c -2.16 0 -3.984 0.76 -5.474 2.31 c -1.46 1.521 -2.19 3.406 -2.19 5.687 c 0 2.282 0.73 4.167 2.19 5.718 c 1.49 1.521 3.315 2.282 5.474 2.282 c 2.49 0 4.064 -0.979 4.896 -1.746 v 1.411 h 3.65 V 5.65 h -3.65 z m -1.095 16.878 c -0.882 0.882 -2.007 1.339 -3.315 1.339 c -1.308 0 -2.372 -0.457 -3.254 -1.339 c -0.85 -0.882 -1.277 -2.007 -1.277 -3.345 c 0 -1.339 0.426 -2.464 1.277 -3.346 c 0.882 -0.882 1.946 -1.338 3.254 -1.338 s 2.433 0.456 3.315 1.338 c 0.912 0.882 1.37 2.007 1.37 3.346 c 0 1.338 -0.458 2.463 -1.37 3.345 z M 68.222 11.214 c -2.772 0 -4.213 1.15 -5.2 2.258 c -0.395 -0.753 -1.507 -2.258 -4.105 -2.258 c -2.196 0 -3.49 1.11 -4.136 1.9 V 11.52 h -3.618 v 15.327 h 3.618 v -8.82 c 0 -2.068 1.278 -3.558 2.98 -3.558 c 1.735 0 2.738 1.308 2.738 3.406 v 8.971 h 3.619 v -8.82 c 0 -2.098 1.246 -3.558 3.04 -3.558 c 1.734 0 2.737 1.308 2.737 3.405 v 8.972 h 3.65 v -9.488 c 0 -3.996 -2.148 -6.142 -5.323 -6.142 z" stroke-linecap="round"/>
</g>
</g>
</g>
</svg>