<?xml version="1.0" standalone="no"?>
<!DOCTYPE svg PUBLIC "-//W3C//DTD SVG 20010904//EN"
 "http://www.w3.org/TR/2001/REC-SVG-20010904/DTD/svg10.dtd">
<svg version="1.0" xmlns="http://www.w3.org/2000/svg"
 width="805.000000pt" height="317.000000pt" viewBox="0 0 805.000000 317.000000"
 preserveAspectRatio="xMidYMid meet">

<g transform="translate(0.000000,317.000000) scale(0.100000,-0.100000)"
fill="#000000" stroke="none">
<path d="M638 2812 l-288 -166 0 -163 c0 -90 4 -163 8 -163 5 0 134 73 288
162 153 88 284 161 289 161 6 0 135 -73 287 -162 153 -88 280 -161 283 -161 3
0 4 75 3 166 l-3 166 -284 164 c-156 90 -286 164 -290 164 -3 -1 -135 -76
-293 -168z"/>
<path d="M2700 2220 l0 -300 -62 40 c-129 84 -324 119 -478 86 -222 -47 -406
-221 -476 -452 -26 -83 -26 -305 0 -389 91 -303 346 -482 656 -462 127 8 232
47 338 123 l22 16 0 -56 0 -56 150 0 150 0 0 875 0 875 -150 0 -150 0 0 -300z
m-220 -463 c67 -25 162 -111 196 -178 143 -284 -92 -608 -405 -558 -129 20
-220 91 -278 215 -25 53 -28 70 -28 164 0 97 2 110 31 170 88 184 286 261 484
187z"/>
<path d="M3665 2056 c-140 -27 -271 -99 -359 -198 -59 -64 -121 -185 -142
-276 -22 -91 -22 -286 0 -372 54 -213 198 -366 411 -437 73 -25 93 -27 240
-27 154 0 163 1 242 30 102 38 178 84 254 153 l60 54 -112 63 c-61 35 -114 64
-118 64 -4 0 -23 -12 -42 -26 -157 -119 -413 -117 -552 6 -38 33 -90 130 -100
188 l-6 32 496 0 496 0 -6 133 c-5 151 -24 225 -84 325 -75 127 -192 222 -325
267 -96 32 -250 41 -353 21z m259 -267 c97 -36 195 -145 196 -216 l0 -23 -334
0 -335 0 8 28 c28 97 119 181 236 218 63 20 166 17 229 -7z"/>
<path d="M5130 2049 c-71 -12 -153 -52 -207 -102 l-43 -40 0 62 0 61 -150 0
-150 0 0 -630 0 -630 150 0 150 0 0 398 c0 460 0 462 86 548 42 43 60 54 108
65 95 21 180 -11 226 -86 46 -74 50 -115 50 -532 l0 -393 150 0 150 0 0 393
c0 465 1 472 84 553 53 52 106 74 176 74 69 0 143 -51 183 -125 21 -39 22 -51
25 -468 l3 -427 154 0 154 0 0 367 c1 383 -8 543 -33 628 -24 77 -90 169 -154
215 -78 57 -145 75 -268 74 -157 -2 -277 -47 -376 -142 l-37 -35 -47 52 c-59
66 -114 98 -200 116 -77 16 -104 17 -184 4z"/>
<path d="M350 1626 c0 -449 5 -499 62 -616 58 -119 193 -220 339 -255 85 -20
286 -20 364 0 140 36 275 134 333 243 58 109 62 143 62 610 l0 422 -150 0
-149 0 -3 -402 c-3 -293 -7 -413 -17 -441 -20 -62 -105 -142 -170 -161 -73
-21 -119 -20 -186 5 -75 28 -113 62 -146 134 l-29 60 0 403 0 402 -155 0 -155
0 0 -404z"/>
<path d="M6460 2025 c0 -3 115 -288 255 -634 140 -346 255 -636 255 -643 0
-23 -78 -189 -106 -225 -45 -59 -78 -73 -171 -73 l-83 0 0 -135 0 -135 110 0
c173 0 269 44 356 163 66 91 86 135 428 942 l313 740 -150 3 c-82 1 -152 0
-155 -2 -2 -3 -89 -210 -192 -461 l-187 -457 -184 461 -184 461 -152 0 c-84 0
-153 -2 -153 -5z"/>
</g>
</svg>
