<svg width="208" height="400" viewBox="0 0 208 400" fill="none" xmlns="http://www.w3.org/2000/svg">
<path fill-rule="evenodd" clip-rule="evenodd" d="M101.049 1.99999C99.543 2.87999 98.224 3.59999 98.117 3.59999C98.011 3.59999 97.446 3.93399 96.862 4.34299C96.278 4.75099 94.99 5.53899 94 6.09299C93.01 6.64799 91.03 7.77599 89.6 8.59999C85.523 10.949 84.759 11.382 82.2 12.791C80.88 13.518 79.322 14.448 78.738 14.857C78.154 15.265 77.561 15.6 77.419 15.6C77.277 15.6 76.177 16.23 74.973 17C73.769 17.77 72.713 18.4 72.625 18.4C72.538 18.4 71.146 19.18 69.533 20.134C65.796 22.344 53.563 29.4 51.2 30.71C50.21 31.258 49.22 31.844 49 32.012C48.78 32.179 47.7 32.815 46.6 33.424C45.5 34.033 43.97 34.881 43.2 35.308C42.43 35.736 41.62 36.222 41.4 36.389C41.18 36.556 40.19 37.144 39.2 37.695C38.21 38.246 34.34 40.455 30.6 42.603C26.86 44.751 22.99 46.959 22 47.508C21.01 48.057 20.02 48.644 19.8 48.811C19.58 48.978 18.77 49.464 18 49.892C13.674 52.292 12.733 52.832 11.248 53.77C10.35 54.336 9.526 54.8 9.416 54.8C9.306 54.8 8.231 55.43 7.027 56.2C5.823 56.97 4.736 57.6 4.611 57.6C4.485 57.6 3.667 58.074 2.791 58.653L1.2 59.706V89.053C1.2 105.194 1.273 118.4 1.362 118.4C1.504 118.4 2.721 117.722 7.924 114.745C12.742 111.987 15.226 110.573 16.8 109.693C17.79 109.139 19.078 108.351 19.662 107.943C20.246 107.534 20.839 107.2 20.981 107.2C21.123 107.2 22.223 106.57 23.427 105.8C24.631 105.03 25.687 104.4 25.775 104.4C25.862 104.4 27.344 103.566 29.067 102.546C32.988 100.226 44.795 93.417 47.2 92.088C48.19 91.54 49.18 90.956 49.4 90.788C49.745 90.526 51.665 89.435 54.6 87.836C55.04 87.596 55.49 87.31 55.6 87.2C55.71 87.09 56.16 86.804 56.6 86.564C59.36 85.06 61.324 83.932 62.752 83.03C63.65 82.464 64.495 82 64.63 82C64.766 82 65.354 81.666 65.938 81.257C66.522 80.849 67.81 80.061 68.8 79.507C70.759 78.41 72.007 77.692 82.2 71.805C85.94 69.644 89.573 67.554 90.274 67.16C90.975 66.766 92.276 65.983 93.166 65.421C94.056 64.86 94.886 64.4 95.011 64.4C95.136 64.4 96.223 63.77 97.427 63C98.631 62.23 99.706 61.6 99.816 61.6C99.926 61.6 100.729 61.15 101.6 60.6C103.587 59.346 104.413 59.346 106.4 60.6C107.271 61.15 108.074 61.6 108.184 61.6C108.294 61.6 109.369 62.23 110.573 63C111.777 63.77 112.864 64.4 112.989 64.4C113.114 64.4 113.944 64.86 114.834 65.421C115.724 65.983 117.025 66.766 117.726 67.16C118.427 67.554 122.06 69.644 125.8 71.805C135.993 77.692 137.241 78.41 139.2 79.507C140.19 80.061 141.478 80.849 142.062 81.257C142.646 81.666 143.234 82 143.37 82C143.505 82 144.35 82.464 145.248 83.03C146.676 83.932 148.64 85.06 151.4 86.564C151.84 86.804 152.29 87.09 152.4 87.2C152.51 87.31 152.96 87.596 153.4 87.836C156.335 89.435 158.255 90.526 158.6 90.788C158.82 90.956 159.81 91.54 160.8 92.088C163.205 93.417 175.012 100.226 178.933 102.546C180.656 103.566 182.138 104.4 182.225 104.4C182.313 104.4 183.369 105.03 184.573 105.8C185.777 106.57 186.877 107.2 187.019 107.2C187.161 107.2 187.754 107.534 188.338 107.943C188.922 108.351 190.21 109.139 191.2 109.693C192.774 110.573 195.258 111.987 200.076 114.745C205.279 117.722 206.496 118.4 206.638 118.4C206.727 118.4 206.8 105.194 206.8 89.053V59.706L205.209 58.653C204.333 58.074 203.515 57.6 203.389 57.6C203.264 57.6 202.177 56.97 200.973 56.2C199.769 55.43 198.694 54.8 198.584 54.8C198.474 54.8 197.65 54.336 196.752 53.77C195.267 52.832 194.326 52.292 190 49.892C189.23 49.464 188.42 48.978 188.2 48.811C187.98 48.644 186.99 48.057 186 47.508C185.01 46.959 181.14 44.751 177.4 42.603C173.66 40.455 169.79 38.246 168.8 37.695C167.81 37.144 166.82 36.556 166.6 36.388C166.38 36.221 165.3 35.585 164.2 34.976C163.1 34.367 161.57 33.519 160.8 33.092C160.03 32.664 159.22 32.178 159 32.011C158.78 31.844 157.79 31.258 156.8 30.71C155.81 30.161 152.03 27.999 148.4 25.905C144.77 23.812 141.137 21.726 140.326 21.271C139.515 20.815 138.124 19.983 137.234 19.421C136.344 18.86 135.526 18.4 135.416 18.4C135.306 18.4 134.231 17.77 133.027 17C131.823 16.23 130.723 15.6 130.581 15.6C130.439 15.6 129.846 15.265 129.262 14.857C128.678 14.448 127.12 13.518 125.8 12.791C123.241 11.382 122.477 10.949 118.4 8.59999C116.97 7.77599 114.99 6.64799 114 6.09299C113.01 5.53899 111.722 4.75099 111.138 4.34299C110.554 3.93399 109.989 3.59999 109.883 3.59999C109.776 3.59999 108.457 2.87999 106.951 1.99999C105.445 1.11999 104.117 0.399994 104 0.399994C103.883 0.399994 102.555 1.11999 101.049 1.99999ZM1.237 238.9C1.277 314.893 1.396 319.81 3.414 328.8C5.04 336.042 5.257 336.811 6.742 340.6C7.432 342.36 7.997 343.919 7.998 344.065C8.012 346.007 16.078 360.107 19.725 364.562C28.577 375.377 44.509 387.019 56.2 391.218C56.64 391.376 58.35 391.992 60 392.587C63.983 394.023 64.587 394.22 67.4 395.009C68.72 395.379 70.25 395.827 70.8 396.004C71.35 396.182 72.88 396.522 74.2 396.76C75.52 396.999 77.68 397.393 79 397.637C95.456 400.671 116.481 400.279 133.8 396.614C143.027 394.662 156.052 389.536 164.102 384.69C165.646 383.76 167.457 382.671 168.126 382.268C173.794 378.861 183.918 369.597 188.8 363.352C190.554 361.108 191.6 359.623 191.6 359.377C191.6 359.226 192.38 357.999 193.334 356.651C198.368 349.538 203.562 334.965 205.185 323.4C205.432 321.64 205.844 319.21 206.099 318C206.44 316.389 206.601 296.19 206.701 242.5L206.838 169.2H180.019H153.2V237.33C153.2 315.873 153.44 310.224 149.665 320.4C144.38 334.643 130.282 346.954 116.2 349.621C106.948 351.374 103.134 351.57 97 350.607C78.035 347.631 63.871 336.465 57.92 319.8C54.873 311.266 55.076 316.75 54.925 239.1L54.789 169.2H27.995H1.2L1.237 238.9Z" fill="white"/>
<path fill-rule="evenodd" clip-rule="evenodd" d="M101.2 1.23599C100.536 1.77899 100.469 1.91499 101 1.63999C102.305 0.965994 103.028 0.411994 102.6 0.414994C102.38 0.416994 101.75 0.785994 101.2 1.23599ZM105.6 0.819994C106.987 1.76099 107.778 2.03499 106.8 1.23599C106.25 0.785994 105.62 0.416994 105.4 0.414994C105.18 0.412994 105.27 0.595994 105.6 0.819994ZM85.5 10.229C84.005 11.04 84.096 11.378 85.6 10.6C86.26 10.259 86.8 9.89399 86.8 9.78999C86.8 9.53199 86.757 9.54699 85.5 10.229ZM121.2 9.77899C121.2 9.88899 121.74 10.259 122.4 10.6C123.06 10.941 123.6 11.131 123.6 11.021C123.6 10.911 123.06 10.541 122.4 10.2C121.74 9.85899 121.2 9.66899 121.2 9.77899ZM77.5 14.827C76.675 15.263 76 15.708 76 15.818C76 15.927 76.72 15.649 77.6 15.2C78.48 14.751 79.2 14.297 79.2 14.192C79.2 13.93 79.197 13.931 77.5 14.827ZM128.8 14.184C128.8 14.294 129.52 14.751 130.4 15.2C131.28 15.649 132 15.926 132 15.816C132 15.706 131.28 15.249 130.4 14.8C129.52 14.351 128.8 14.074 128.8 14.184ZM30.7 41.829C29.205 42.64 29.296 42.978 30.8 42.2C31.46 41.859 32 41.494 32 41.39C32 41.132 31.957 41.147 30.7 41.829ZM176 41.379C176 41.489 176.54 41.859 177.2 42.2C177.86 42.541 178.4 42.731 178.4 42.621C178.4 42.511 177.86 42.141 177.2 41.8C176.54 41.459 176 41.269 176 41.379ZM23.496 45.958C21.06 47.387 20.519 47.944 22.6 46.88C24.145 46.091 26.01 44.818 25.6 44.833C25.49 44.837 24.543 45.343 23.496 45.958ZM183.6 45.784C183.6 45.894 184.32 46.351 185.2 46.8C186.08 47.249 186.8 47.526 186.8 47.416C186.8 47.306 186.08 46.849 185.2 46.4C184.32 45.951 183.6 45.674 183.6 45.784ZM14.7 51.029C13.205 51.84 13.296 52.178 14.8 51.4C15.46 51.059 16 50.694 16 50.59C16 50.332 15.957 50.347 14.7 51.029ZM192 50.579C192 50.689 192.54 51.059 193.2 51.4C193.86 51.741 194.4 51.931 194.4 51.821C194.4 51.711 193.86 51.341 193.2 51C192.54 50.659 192 50.469 192 50.579ZM59.5 85.227C58.675 85.663 58 86.108 58 86.218C58 86.327 58.72 86.049 59.6 85.6C60.48 85.151 61.2 84.697 61.2 84.592C61.2 84.33 61.197 84.331 59.5 85.227ZM146.8 84.584C146.8 84.694 147.52 85.151 148.4 85.6C149.28 86.049 150 86.326 150 86.216C150 86.106 149.28 85.649 148.4 85.2C147.52 84.751 146.8 84.474 146.8 84.584ZM56.2 87.2C55.54 87.637 55.18 87.992 55.4 87.988C55.801 87.982 57.976 86.423 57.6 86.412C57.49 86.408 56.86 86.763 56.2 87.2ZM44.9 93.646C43.537 94.519 43.095 95.106 44.3 94.443C45.218 93.939 46.656 92.827 46.4 92.819C46.29 92.816 45.615 93.188 44.9 93.646ZM162.2 93.407C162.64 93.766 163.36 94.235 163.8 94.451L164.6 94.844L163.8 94.193C163.36 93.834 162.64 93.365 162.2 93.149L161.4 92.756L162.2 93.407ZM27.899 169.099L54.798 169.206L54.901 235.803L55.004 302.4L55.002 235.7L55 169L28 168.996L1.00001 168.992L27.899 169.099ZM152.985 169.3C152.88 169.575 152.841 199.59 152.898 236L153.002 302.2L153.101 235.703L153.2 169.206L180.3 169.1L207.4 168.994L180.287 168.897C158.894 168.82 153.135 168.905 152.985 169.3ZM152.514 304.6C152.517 305.7 152.595 306.103 152.687 305.495C152.779 304.886 152.777 303.986 152.682 303.495C152.587 303.003 152.511 303.5 152.514 304.6ZM55.314 305.4C55.317 306.5 55.395 306.903 55.487 306.295C55.579 305.686 55.577 304.786 55.482 304.295C55.387 303.803 55.311 304.3 55.314 305.4ZM151.84 310.44C151.693 311.357 151.652 312.185 151.747 312.28C151.842 312.376 152.046 311.71 152.2 310.8C152.354 309.89 152.396 309.062 152.293 308.96C152.19 308.857 151.987 309.523 151.84 310.44ZM55.687 310C55.683 310.55 55.824 311.45 56 312C56.431 313.344 56.431 311.892 56 310.2C55.726 309.122 55.694 309.102 55.687 310ZM206.931 312.2C206.933 313.74 207.005 314.321 207.092 313.491C207.179 312.661 207.177 311.401 207.089 310.691C207 309.981 206.929 310.66 206.931 312.2ZM0.93101 313.4C0.93301 314.94 1.00501 315.521 1.09201 314.691C1.17901 313.861 1.17701 312.601 1.08901 311.891C1.00001 311.181 0.92901 311.86 0.93101 313.4ZM56.644 315C56.973 316.471 57.202 316.79 57.194 315.767C57.191 315.345 57.005 314.73 56.782 314.4C56.485 313.962 56.448 314.124 56.644 315ZM206.509 316.8C206.509 317.79 206.587 318.195 206.682 317.7C206.778 317.205 206.778 316.395 206.682 315.9C206.587 315.405 206.509 315.81 206.509 316.8ZM1.31401 318.2C1.31701 319.3 1.39501 319.703 1.48701 319.095C1.57901 318.486 1.57701 317.586 1.48201 317.095C1.38701 316.603 1.31101 317.1 1.31401 318.2ZM150.044 317.644C149.798 318.351 149.666 319 149.752 319.085C149.838 319.171 150.109 318.662 150.356 317.956C150.602 317.249 150.734 316.6 150.648 316.515C150.562 316.429 150.291 316.938 150.044 317.644ZM57.429 317.6C57.576 318.15 57.864 318.87 58.067 319.2C58.325 319.617 58.357 319.495 58.171 318.8C58.024 318.25 57.736 317.53 57.533 317.2C57.275 316.783 57.243 316.905 57.429 317.6ZM205.667 322.867C205.63 323.674 205.496 324.664 205.37 325.067C205.153 325.757 205.166 325.759 205.594 325.093C205.843 324.704 205.977 323.714 205.891 322.893L205.734 321.4L205.667 322.867ZM2.00601 325.033C2.00901 325.895 2.17001 326.849 2.36301 327.154C2.57801 327.493 2.63201 326.949 2.50401 325.754C2.24201 323.317 1.99801 322.964 2.00601 325.033ZM61.188 326.3C61.867 327.565 62.798 329.05 63.255 329.6C64.054 330.561 64.053 330.545 63.228 329.2C62.756 328.43 61.923 326.945 61.378 325.9C60.833 324.855 60.289 324 60.17 324C60.051 324 60.509 325.035 61.188 326.3ZM146.678 325.805C146.312 326.572 146.095 327.2 146.196 327.2C146.47 327.2 147.684 324.751 147.501 324.568C147.414 324.481 147.044 325.038 146.678 325.805ZM2.85601 329.2C2.85601 329.53 3.01101 330.16 3.20001 330.6C3.41701 331.104 3.54401 331.178 3.54401 330.8C3.54401 330.47 3.38901 329.84 3.20001 329.4C2.98301 328.896 2.85601 328.822 2.85601 329.2ZM142.663 331.902C140.661 334.555 140.585 334.713 142.129 333C143.724 331.232 145.461 328.796 145.123 328.802C145.055 328.803 143.948 330.198 142.663 331.902ZM69 336.8C70.528 338.34 71.869 339.6 71.979 339.6C72.089 339.6 70.928 338.34 69.4 336.8C67.872 335.26 66.531 334 66.421 334C66.311 334 67.472 335.26 69 336.8ZM134.1 340.425C132.945 341.311 132 342.124 132 342.231C132 342.338 132.99 341.678 134.2 340.765C136.11 339.323 136.691 338.781 136.3 338.807C136.245 338.81 135.255 339.538 134.1 340.425ZM72.873 340.226C73.243 340.652 74.143 341.341 74.873 341.757C76.439 342.65 76.026 342.207 73.8 340.604C72.869 339.934 72.482 339.776 72.873 340.226ZM129.496 343.558C127.06 344.987 126.519 345.544 128.6 344.48C130.145 343.691 132.01 342.418 131.6 342.433C131.49 342.437 130.543 342.943 129.496 343.558ZM82.8 346.134C82.8 346.237 83.381 346.524 84.091 346.772C84.801 347.019 85.206 347.057 84.991 346.856C84.535 346.429 82.8 345.858 82.8 346.134ZM123.7 346.412C122.361 346.951 122.611 347.224 124 346.74C124.66 346.51 125.2 346.249 125.2 346.161C125.2 345.924 124.713 346.005 123.7 346.412ZM197.682 349.421C196.757 351.286 196.009 352.944 196.02 353.106C196.031 353.268 196.853 351.806 197.845 349.859C198.838 347.911 199.586 346.252 199.507 346.174C199.428 346.095 198.607 347.556 197.682 349.421ZM92.033 349.344C92.125 349.423 92.74 349.608 93.4 349.756C94.276 349.952 94.438 349.915 94 349.618C93.46 349.253 91.632 348.998 92.033 349.344ZM113.2 349.595C112.791 349.855 113.11 349.899 114.2 349.732C116.177 349.429 116.514 349.198 114.967 349.206C114.325 349.209 113.53 349.384 113.2 349.595ZM97.6 350.399C99.45 350.75 102.664 350.919 102.367 350.649C102.275 350.565 100.76 350.398 99 350.277C96.594 350.112 96.247 350.142 97.6 350.399ZM107.2 350.4L105.4 350.68L107.2 350.693C108.19 350.7 109.54 350.568 110.2 350.4L111.4 350.095L110.2 350.107C109.54 350.114 108.19 350.246 107.2 350.4ZM195.353 354.1C193.976 356.436 193.886 356.635 194.587 355.8C195.4 354.832 196.1 353.6 195.838 353.6C195.733 353.6 195.515 353.825 195.353 354.1ZM12.002 354.086C12.001 354.243 12.54 355.224 13.2 356.264C13.86 357.305 14.399 357.986 14.398 357.778C14.397 357.57 13.858 356.59 13.2 355.6C12.542 354.61 12.003 353.929 12.002 354.086ZM14.8 358.561C14.8 358.943 17.176 362.4 17.438 362.4C17.548 362.4 17.061 361.545 16.354 360.5C14.788 358.183 14.8 358.197 14.8 358.561ZM191.597 360.005C191.36 360.448 190.355 361.843 189.363 363.105L187.559 365.4L189.28 363.524C190.947 361.706 192.661 359.2 192.237 359.2C192.122 359.2 191.834 359.562 191.597 360.005ZM18.751 364.338C19.421 365.185 20.287 366.13 20.674 366.438C21.061 366.747 20.59 366.055 19.626 364.9C17.606 362.478 16.938 362.049 18.751 364.338ZM185.983 367.3C185.24 368.235 184.948 368.746 185.335 368.436C186.063 367.851 187.777 365.6 187.494 365.6C187.406 365.6 186.726 366.365 185.983 367.3ZM25.2 371.342C27.29 373.495 29.72 375.817 30.6 376.5C31.48 377.183 32.02 377.565 31.8 377.347C26.674 372.283 21.879 367.92 25.2 371.342ZM181.787 371.7L179.4 374.2L181.9 371.813C183.275 370.499 184.4 369.374 184.4 369.313C184.4 369.017 184.005 369.378 181.787 371.7ZM175.8 377.044L174.2 378.476L175.9 377.204C177.363 376.11 177.891 375.583 177.5 375.606C177.445 375.609 176.68 376.256 175.8 377.044ZM33.964 378.935C34.549 379.663 36.8 381.377 36.8 381.094C36.8 381.006 36.035 380.326 35.1 379.583C34.165 378.84 33.654 378.548 33.964 378.935ZM168.9 382.046C167.537 382.919 167.095 383.506 168.3 382.843C169.218 382.339 170.656 381.227 170.4 381.219C170.29 381.216 169.615 381.588 168.9 382.046ZM39 382.607C39.44 382.966 40.16 383.435 40.6 383.651L41.4 384.044L40.6 383.393C40.16 383.034 39.44 382.565 39 382.349L38.2 381.956L39 382.607ZM165.7 384.046C164.337 384.919 163.895 385.506 165.1 384.843C166.018 384.339 167.456 383.227 167.2 383.219C167.09 383.216 166.415 383.588 165.7 384.046ZM42.8 384.986C42.8 385.299 45.25 386.883 45.44 386.693C45.547 386.586 44.996 386.123 44.217 385.663C43.438 385.203 42.8 384.899 42.8 384.986ZM53.2 390.631C53.2 390.901 55.278 391.656 55.476 391.457C55.567 391.367 55.092 391.101 54.42 390.867C53.749 390.633 53.2 390.527 53.2 390.631ZM60.8 393.533C61.13 393.736 61.85 394.024 62.4 394.171C63.095 394.357 63.217 394.325 62.8 394.067C62.47 393.864 61.75 393.576 61.2 393.429C60.505 393.243 60.383 393.275 60.8 393.533ZM144.8 393.8C144.03 394.097 143.67 394.345 144 394.352C144.33 394.358 145.14 394.117 145.8 393.814C147.345 393.107 146.626 393.097 144.8 393.8ZM135.4 396.615C133.816 397.163 133.814 397.166 135.2 396.938C135.97 396.812 136.87 396.554 137.2 396.366C138.081 395.864 137.23 395.982 135.4 396.615ZM75.6 397.6C76.968 398.038 78.019 398.038 77 397.6C76.56 397.411 75.84 397.262 75.4 397.268C74.757 397.277 74.796 397.343 75.6 397.6ZM130 397.6C129.208 397.854 129.167 397.92 129.8 397.92C130.24 397.92 131.05 397.776 131.6 397.6C132.392 397.346 132.433 397.28 131.8 397.28C131.36 397.28 130.55 397.424 130 397.6ZM80 398.379C80.33 398.604 81.125 398.791 81.767 398.794C83.304 398.802 82.984 398.57 81 398.238C79.854 398.046 79.57 398.086 80 398.379ZM125.4 398.4C124.311 398.677 124.293 398.707 125.2 398.725C125.75 398.735 126.56 398.589 127 398.4C127.986 397.976 127.066 397.976 125.4 398.4ZM87.705 399.487C88.314 399.579 89.214 399.577 89.705 399.482C90.197 399.387 89.7 399.311 88.6 399.314C87.5 399.317 87.097 399.395 87.705 399.487ZM117.705 399.487C118.314 399.579 119.214 399.577 119.705 399.482C120.197 399.387 119.7 399.311 118.6 399.314C117.5 399.317 117.097 399.395 117.705 399.487Z" fill="white"/>
<path fill-rule="evenodd" clip-rule="evenodd" d="M1.689 59.023L0.800003 59.645V89.223C0.800003 105.49 0.934998 118.8 1.1 118.8C1.265 118.8 1.353 105.528 1.295 89.306L1.19 59.811L2.095 59.115C3.22 58.248 2.899 58.175 1.689 59.023ZM205.905 59.057L206.81 59.811L206.705 89.306C206.647 105.528 206.736 118.8 206.903 118.8C207.069 118.8 207.159 105.457 207.103 89.149L207 59.498L206 58.9L205 58.302L205.905 59.057ZM0.996002 239.2C0.996002 277.81 1.043 293.605 1.1 274.3C1.157 254.995 1.157 223.405 1.1 204.1C1.043 184.795 0.996002 200.59 0.996002 239.2ZM206.996 238.6C206.996 276.88 207.043 292.481 207.1 273.268C207.157 254.056 207.157 222.736 207.1 203.668C207.043 184.601 206.996 200.32 206.996 238.6ZM152.909 305.2C152.909 306.19 152.987 306.595 153.082 306.1C153.178 305.605 153.178 304.795 153.082 304.3C152.987 303.805 152.909 304.21 152.909 305.2ZM54.847 305.633C54.873 306.605 55.037 307.94 55.211 308.6C55.402 309.328 55.441 308.698 55.309 307C55.061 303.821 54.776 302.976 54.847 305.633ZM206.531 311.4C206.533 312.94 206.605 313.521 206.692 312.691C206.779 311.861 206.777 310.601 206.689 309.891C206.6 309.181 206.529 309.86 206.531 311.4ZM1.331 312.6C1.333 314.14 1.405 314.721 1.492 313.891C1.579 313.061 1.577 311.801 1.489 311.091C1.4 310.381 1.329 311.06 1.331 312.6ZM205.869 317.956C205.721 318.695 205.62 319.683 205.644 320.15C205.668 320.618 205.847 320.19 206.042 319.2C206.237 318.21 206.338 317.223 206.267 317.006C206.196 316.79 206.017 317.217 205.869 317.956ZM1.881 320.4C2.006 321.61 2.174 322.675 2.254 322.767C2.535 323.087 2.317 320.191 1.987 319.2C1.771 318.554 1.734 318.98 1.881 320.4ZM58.8 322.153C58.8 322.582 59.99 324.8 60.221 324.8C60.331 324.8 60.123 324.215 59.759 323.5C59.017 322.04 58.8 321.736 58.8 322.153ZM203.85 330.05C203.709 330.753 203.669 331.402 203.759 331.492C203.85 331.583 204.048 331.091 204.2 330.4C204.352 329.709 204.393 329.059 204.291 328.958C204.189 328.856 203.991 329.347 203.85 330.05ZM64.391 331.988C64.857 332.641 65.442 333.302 65.691 333.456C65.941 333.611 65.641 333.076 65.025 332.268C63.688 330.515 63.184 330.292 64.391 331.988ZM203.049 333.415C202.912 333.773 202.815 334.366 202.834 334.733C202.853 335.1 203.027 334.869 203.221 334.22C203.598 332.958 203.465 332.333 203.049 333.415ZM66 334.11C66 334.171 67.395 335.566 69.1 337.21L72.2 340.2L69.21 337.1C66.433 334.221 66 333.817 66 334.11ZM133.014 341.646C130.913 343.226 130.716 343.487 132.327 342.562C133.462 341.91 135.247 340.345 134.762 340.427C134.673 340.442 133.886 340.991 133.014 341.646ZM127.9 344.827C127.075 345.263 126.4 345.708 126.4 345.818C126.4 345.927 127.12 345.649 128 345.2C128.88 344.751 129.6 344.297 129.6 344.192C129.6 343.93 129.597 343.931 127.9 344.827ZM199.265 345.417C198.595 346.888 198.723 347.202 199.447 345.865C199.786 345.24 199.988 344.654 199.896 344.563C199.805 344.471 199.521 344.856 199.265 345.417ZM8.828 346.6C8.828 346.82 9.086 347.45 9.4 348C9.714 348.55 9.972 348.82 9.972 348.6C9.972 348.38 9.714 347.75 9.4 347.2C9.086 346.65 8.828 346.38 8.828 346.6ZM93.2 349.982C93.53 350.205 94.145 350.391 94.567 350.394C95.59 350.402 95.271 350.173 93.8 349.844C92.924 349.648 92.762 349.685 93.2 349.982ZM101.7 351.096C102.965 351.175 105.035 351.175 106.3 351.096C107.565 351.016 106.53 350.951 104 350.951C101.47 350.951 100.435 351.016 101.7 351.096ZM11.2 351.753C11.2 352.182 12.39 354.4 12.621 354.4C12.731 354.4 12.523 353.815 12.159 353.1C11.417 351.64 11.2 351.336 11.2 351.753ZM192.781 357.428C192.089 358.434 191.586 359.319 191.662 359.396C191.739 359.473 192.388 358.65 193.104 357.568C194.746 355.087 194.473 354.969 192.781 357.428ZM183.387 369.7L181 372.2L183.5 369.813C184.875 368.499 186 367.374 186 367.313C186 367.017 185.605 367.378 183.387 369.7ZM25.8 371.6C27.992 373.8 29.875 375.6 29.985 375.6C30.095 375.6 28.392 373.8 26.2 371.6C24.008 369.4 22.125 367.6 22.015 367.6C21.905 367.6 23.608 369.4 25.8 371.6ZM177 375.477C175.568 376.814 175.245 377.225 176.2 376.498C177.709 375.349 179.939 373.178 179.57 373.218C179.476 373.228 178.32 374.245 177 375.477ZM32 376.933C32 377.043 32.72 377.703 33.6 378.4C34.48 379.097 35.2 379.577 35.2 379.467C35.2 379.357 34.48 378.697 33.6 378C32.72 377.303 32 376.823 32 376.933ZM41.4 383.807C41.84 384.166 42.56 384.635 43 384.851L43.8 385.244L43 384.593C42.56 384.234 41.84 383.765 41.4 383.549L40.6 383.156L41.4 383.807ZM160.3 386.827C159.475 387.263 158.8 387.708 158.8 387.818C158.8 387.927 159.52 387.649 160.4 387.2C161.28 386.751 162 386.297 162 386.192C162 385.93 161.997 385.931 160.3 386.827ZM57.6 391.933C57.93 392.136 58.65 392.424 59.2 392.571C59.895 392.757 60.017 392.725 59.6 392.467C59.27 392.264 58.55 391.976 58 391.829C57.305 391.643 57.183 391.675 57.6 391.933ZM148.2 392.214C147.2 392.696 147.166 392.751 148 392.548C149.133 392.271 150.407 391.621 149.8 391.63C149.58 391.633 148.86 391.896 148.2 392.214ZM72.8 396.8C73.35 396.976 74.16 397.12 74.6 397.12C75.233 397.12 75.192 397.054 74.4 396.8C73.85 396.624 73.04 396.48 72.6 396.48C71.967 396.48 72.008 396.546 72.8 396.8ZM84.033 398.546C84.125 398.626 85.19 398.794 86.4 398.919C87.82 399.066 88.246 399.029 87.6 398.813C86.609 398.483 83.713 398.265 84.033 398.546ZM121.105 398.683C121.602 398.779 122.322 398.775 122.705 398.675C123.087 398.575 122.68 398.496 121.8 398.501C120.92 398.505 120.607 398.587 121.105 398.683ZM92.2 399.6C92.86 399.768 94.48 399.904 95.8 399.903L98.2 399.9L96.4 399.58C93.939 399.142 90.465 399.159 92.2 399.6ZM110.4 399.6C108.699 399.864 108.743 399.881 111.2 399.893C112.63 399.9 114.34 399.768 115 399.6C116.603 399.192 113.024 399.192 110.4 399.6Z" fill="white"/>
<path fill-rule="evenodd" clip-rule="evenodd" d="M179.2 373.8C178.228 374.79 177.523 375.6 177.633 375.6C177.743 375.6 178.628 374.79 179.6 373.8C180.572 372.81 181.277 372 181.167 372C181.057 372 180.172 372.81 179.2 373.8Z" fill="white"/>
</svg>
