<?xml version="1.0" encoding="UTF-8"?>
<svg xmlns="http://www.w3.org/2000/svg" xmlns:xlink="http://www.w3.org/1999/xlink" width="1000px" height="px" viewBox="0 0 1000 394" version="1.1">
<defs>
<filter id="alpha" filterUnits="objectBoundingBox" x="0%" y="0%" width="100%" height="100%">
  <feColorMatrix type="matrix" in="SourceGraphic" values="0 0 0 0 1 0 0 0 0 1 0 0 0 0 1 0 0 0 1 0"/>
</filter>
<mask id="mask0">
  <g filter="url(#alpha)">
<rect x="0" y="0" width="1000" height="394" style="fill:rgb(0%,0%,0%);fill-opacity:0.952941;stroke:none;"/>
  </g>
</mask>
<clipPath id="clip1">
  <rect x="0" y="0" width="1000" height="394"/>
</clipPath>
<g id="surface5" clip-path="url(#clip1)">
<path style=" stroke:none;fill-rule:evenodd;fill:rgb(99.607843%,99.607843%,99.607843%);fill-opacity:1;" d="M 114.90625 20.507812 C 139.402344 34.109375 163.625 48.195312 187.578125 62.765625 C 188.609375 76.871094 188.40625 90.957031 186.957031 105.023438 C 162.941406 91.351562 138.921875 77.679688 114.90625 64.007812 C 91.507812 77.996094 67.90625 91.667969 44.097656 105.023438 C 42.441406 90.523438 42.441406 76.023438 44.097656 61.523438 C 67.984375 48.132812 91.585938 34.460938 114.90625 20.507812 Z M 114.90625 20.507812 "/>
</g>
<mask id="mask1">
  <g filter="url(#alpha)">
<rect x="0" y="0" width="1000" height="394" style="fill:rgb(0%,0%,0%);fill-opacity:0.968627;stroke:none;"/>
  </g>
</mask>
<clipPath id="clip2">
  <rect x="0" y="0" width="1000" height="394"/>
</clipPath>
<g id="surface8" clip-path="url(#clip2)">
<path style=" stroke:none;fill-rule:evenodd;fill:rgb(99.607843%,99.607843%,99.607843%);fill-opacity:1;" d="M 333.539062 78.925781 C 346.375 78.925781 359.214844 78.925781 372.050781 78.925781 C 372.050781 151.839844 372.050781 224.757812 372.050781 297.675781 C 359.214844 297.675781 346.375 297.675781 333.539062 297.675781 C 333.746094 293.097656 333.539062 288.542969 332.917969 284.003906 C 323.332031 292.007812 312.359375 297.1875 300 299.539062 C 260.371094 305.128906 231.179688 290.421875 212.421875 255.417969 C 205.367188 236.035156 203.710938 216.148438 207.453125 195.757812 C 221.722656 152.25 251.742188 132.570312 297.515625 136.71875 C 310.933594 138.359375 322.738281 143.539062 332.917969 152.253906 C 333.539062 127.816406 333.746094 103.371094 333.539062 78.925781 Z M 278.882812 170.898438 C 319.027344 169.84375 337.871094 189.316406 335.402344 229.316406 C 326.464844 256.6875 307.621094 268.496094 278.882812 264.738281 C 256.03125 257.804688 244.023438 242.269531 242.855469 218.128906 C 244.144531 193.9375 256.152344 178.195312 278.882812 170.898438 Z M 278.882812 170.898438 "/>
</g>
<mask id="mask2">
  <g filter="url(#alpha)">
<rect x="0" y="0" width="1000" height="394" style="fill:rgb(0%,0%,0%);fill-opacity:0.968627;stroke:none;"/>
  </g>
</mask>
<clipPath id="clip3">
  <rect x="0" y="0" width="1000" height="394"/>
</clipPath>
<g id="surface11" clip-path="url(#clip3)">
<path style=" stroke:none;fill-rule:evenodd;fill:rgb(99.607843%,100%,99.607843%);fill-opacity:1;" d="M 457.765625 134.855469 C 503.035156 130.246094 533.058594 149.300781 547.824219 192.027344 C 551.109375 204.335938 551.730469 216.761719 549.6875 229.316406 C 509.109375 229.316406 468.53125 229.316406 427.949219 229.316406 C 430.777344 250.582031 442.785156 263.21875 463.976562 267.222656 C 482.78125 270.132812 499.34375 265.371094 513.664062 252.929688 C 523.1875 258.523438 532.710938 264.117188 542.234375 269.710938 C 512.484375 300.453125 477.289062 308.742188 436.644531 294.566406 C 400.386719 276.085938 384.859375 246.464844 390.0625 205.699219 C 393.722656 174.972656 409.667969 153.222656 437.886719 140.449219 C 444.5625 138.160156 451.1875 136.296875 457.765625 134.855469 Z M 467.703125 167.171875 C 484.113281 166.578125 497.15625 172.792969 506.832031 185.8125 C 509.242188 190.074219 510.691406 194.632812 511.179688 199.484375 C 483.851562 199.484375 456.523438 199.484375 429.191406 199.484375 C 431.851562 185.84375 439.714844 176.519531 452.796875 171.519531 C 457.816406 169.667969 462.785156 168.21875 467.703125 167.171875 Z M 467.703125 167.171875 "/>
</g>
<mask id="mask3">
  <g filter="url(#alpha)">
<rect x="0" y="0" width="1000" height="394" style="fill:rgb(0%,0%,0%);fill-opacity:0.960784;stroke:none;"/>
  </g>
</mask>
<clipPath id="clip4">
  <rect x="0" y="0" width="1000" height="394"/>
</clipPath>
<g id="surface14" clip-path="url(#clip4)">
<path style=" stroke:none;fill-rule:evenodd;fill:rgb(99.607843%,100%,99.607843%);fill-opacity:1;" d="M 637.886719 136.097656 C 660.128906 132.734375 677.519531 140.191406 690.0625 158.46875 C 707.488281 139.800781 729.019531 132.550781 754.660156 136.71875 C 781.066406 143.683594 795.355469 160.875 797.515625 188.300781 C 798.136719 224.753906 798.34375 261.214844 798.136719 297.675781 C 785.300781 297.675781 772.464844 297.675781 759.628906 297.675781 C 760.195312 261.992188 759.574219 226.363281 757.765625 190.785156 C 752.632812 174.644531 741.660156 168.222656 724.84375 171.519531 C 712.960938 174.792969 705.714844 182.457031 703.105469 194.515625 C 701.308594 228.855469 700.6875 263.242188 701.242188 297.675781 C 688.40625 297.675781 675.570312 297.675781 662.734375 297.675781 C 662.941406 263.285156 662.734375 228.898438 662.113281 194.515625 C 654.933594 170.570312 640.234375 164.5625 618.011719 176.492188 C 612.308594 182.726562 608.371094 189.980469 606.210938 198.242188 C 605.589844 231.386719 605.382812 264.527344 605.589844 297.675781 C 592.753906 297.675781 579.917969 297.675781 567.082031 297.675781 C 567.082031 244.644531 567.082031 191.613281 567.082031 138.582031 C 579.917969 138.582031 592.753906 138.582031 605.589844 138.582031 C 605.382812 143.984375 605.589844 149.371094 606.210938 154.742188 C 614.53125 144.476562 625.089844 138.261719 637.886719 136.097656 Z M 637.886719 136.097656 "/>
</g>
<mask id="mask4">
  <g filter="url(#alpha)">
<rect x="0" y="0" width="1000" height="394" style="fill:rgb(0%,0%,0%);fill-opacity:0.968627;stroke:none;"/>
  </g>
</mask>
<clipPath id="clip5">
  <rect x="0" y="0" width="1000" height="394"/>
</clipPath>
<g id="surface17" clip-path="url(#clip5)">
<path style=" stroke:none;fill-rule:evenodd;fill:rgb(99.607843%,100%,99.607843%);fill-opacity:1;" d="M 42.855469 138.582031 C 55.695312 138.582031 68.53125 138.582031 81.367188 138.582031 C 80.800781 173.023438 81.421875 207.410156 83.230469 241.746094 C 87.957031 257.453125 98.515625 265.324219 114.90625 265.359375 C 132.117188 265.347656 143.089844 257.0625 147.824219 240.5 C 149.601562 206.566406 150.222656 172.59375 149.6875 138.582031 C 162.527344 138.582031 175.363281 138.582031 188.199219 138.582031 C 188.40625 172.972656 188.199219 207.359375 187.578125 241.746094 C 183.886719 273.613281 166.289062 292.878906 134.78125 299.539062 C 113.636719 303.675781 93.34375 301.191406 73.914062 292.082031 C 56.273438 281.472656 46.128906 265.933594 43.476562 245.472656 C 42.855469 209.84375 42.648438 174.214844 42.855469 138.582031 Z M 42.855469 138.582031 "/>
</g>
<mask id="mask5">
  <g filter="url(#alpha)">
<rect x="0" y="0" width="1000" height="394" style="fill:rgb(0%,0%,0%);fill-opacity:0.964706;stroke:none;"/>
  </g>
</mask>
<clipPath id="clip6">
  <rect x="0" y="0" width="1000" height="394"/>
</clipPath>
<g id="surface20" clip-path="url(#clip6)">
<path style=" stroke:none;fill-rule:evenodd;fill:rgb(99.607843%,100%,99.607843%);fill-opacity:1;" d="M 800.621094 138.582031 C 813.871094 138.582031 827.121094 138.582031 840.371094 138.582031 C 854.636719 176.628906 869.75 214.332031 885.714844 251.6875 C 901.277344 214.5 916.597656 177.214844 931.675781 139.828125 C 945.039062 138.394531 958.496094 138.1875 972.050781 139.203125 C 945.519531 201.019531 919.226562 262.957031 893.167969 325.019531 C 887.585938 339.300781 879.097656 351.523438 867.703125 361.683594 C 853.160156 370.292969 837.425781 373.398438 820.496094 371.007812 C 820.496094 359.40625 820.496094 347.804688 820.496094 336.203125 C 826.722656 336.410156 832.933594 336.203125 839.128906 335.582031 C 846.355469 333.722656 851.527344 329.371094 854.660156 322.53125 C 858.175781 314.660156 861.699219 306.789062 865.21875 298.917969 C 843.324219 245.585938 821.792969 192.144531 800.621094 138.582031 Z M 800.621094 138.582031 "/>
</g>
</defs>
<g id="surface1">
<use xlink:href="#surface5" mask="url(#mask0)"/>
<use xlink:href="#surface8" mask="url(#mask1)"/>
<use xlink:href="#surface11" mask="url(#mask2)"/>
<use xlink:href="#surface14" mask="url(#mask3)"/>
<use xlink:href="#surface17" mask="url(#mask4)"/>
<use xlink:href="#surface20" mask="url(#mask5)"/>
</g>
</svg>
