<svg id="svg" version="1.1" xmlns="http://www.w3.org/2000/svg" xmlns:xlink="http://www.w3.org/1999/xlink" width="400" height="400" viewBox="0, 0, 400,400"><g id="svgg"><path id="path0" d="M197.049 2.000 C 195.543 2.880,194.224 3.600,194.117 3.600 C 194.011 3.600,193.446 3.934,192.862 4.343 C 192.278 4.751,190.990 5.539,190.000 6.093 C 189.010 6.648,187.030 7.776,185.600 8.600 C 181.523 10.949,180.759 11.382,178.200 12.791 C 176.880 13.518,175.322 14.448,174.738 14.857 C 174.154 15.265,173.561 15.600,173.419 15.600 C 173.277 15.600,172.177 16.230,170.973 17.000 C 169.769 17.770,168.713 18.400,168.625 18.400 C 168.538 18.400,167.146 19.180,165.533 20.134 C 161.796 22.344,149.563 29.400,147.200 30.710 C 146.210 31.258,145.220 31.844,145.000 32.012 C 144.780 32.179,143.700 32.815,142.600 33.424 C 141.500 34.033,139.970 34.881,139.200 35.308 C 138.430 35.736,137.620 36.222,137.400 36.389 C 137.180 36.556,136.190 37.144,135.200 37.695 C 134.210 38.246,130.340 40.455,126.600 42.603 C 122.860 44.751,118.990 46.959,118.000 47.508 C 117.010 48.057,116.020 48.644,115.800 48.811 C 115.580 48.978,114.770 49.464,114.000 49.892 C 109.674 52.292,108.733 52.832,107.248 53.770 C 106.350 54.336,105.526 54.800,105.416 54.800 C 105.306 54.800,104.231 55.430,103.027 56.200 C 101.823 56.970,100.736 57.600,100.611 57.600 C 100.485 57.600,99.667 58.074,98.791 58.653 L 97.200 59.706 97.200 89.053 C 97.200 105.194,97.273 118.400,97.362 118.400 C 97.504 118.400,98.721 117.722,103.924 114.745 C 108.742 111.987,111.226 110.573,112.800 109.693 C 113.790 109.139,115.078 108.351,115.662 107.943 C 116.246 107.534,116.839 107.200,116.981 107.200 C 117.123 107.200,118.223 106.570,119.427 105.800 C 120.631 105.030,121.687 104.400,121.775 104.400 C 121.862 104.400,123.344 103.566,125.067 102.546 C 128.988 100.226,140.795 93.417,143.200 92.088 C 144.190 91.540,145.180 90.956,145.400 90.788 C 145.745 90.526,147.665 89.435,150.600 87.836 C 151.040 87.596,151.490 87.310,151.600 87.200 C 151.710 87.090,152.160 86.804,152.600 86.564 C 155.360 85.060,157.324 83.932,158.752 83.030 C 159.650 82.464,160.495 82.000,160.630 82.000 C 160.766 82.000,161.354 81.666,161.938 81.257 C 162.522 80.849,163.810 80.061,164.800 79.507 C 166.759 78.410,168.007 77.692,178.200 71.805 C 181.940 69.644,185.573 67.554,186.274 67.160 C 186.975 66.766,188.276 65.983,189.166 65.421 C 190.056 64.860,190.886 64.400,191.011 64.400 C 191.136 64.400,192.223 63.770,193.427 63.000 C 194.631 62.230,195.706 61.600,195.816 61.600 C 195.926 61.600,196.729 61.150,197.600 60.600 C 199.587 59.346,200.413 59.346,202.400 60.600 C 203.271 61.150,204.074 61.600,204.184 61.600 C 204.294 61.600,205.369 62.230,206.573 63.000 C 207.777 63.770,208.864 64.400,208.989 64.400 C 209.114 64.400,209.944 64.860,210.834 65.421 C 211.724 65.983,213.025 66.766,213.726 67.160 C 214.427 67.554,218.060 69.644,221.800 71.805 C 231.993 77.692,233.241 78.410,235.200 79.507 C 236.190 80.061,237.478 80.849,238.062 81.257 C 238.646 81.666,239.234 82.000,239.370 82.000 C 239.505 82.000,240.350 82.464,241.248 83.030 C 242.676 83.932,244.640 85.060,247.400 86.564 C 247.840 86.804,248.290 87.090,248.400 87.200 C 248.510 87.310,248.960 87.596,249.400 87.836 C 252.335 89.435,254.255 90.526,254.600 90.788 C 254.820 90.956,255.810 91.540,256.800 92.088 C 259.205 93.417,271.012 100.226,274.933 102.546 C 276.656 103.566,278.138 104.400,278.225 104.400 C 278.313 104.400,279.369 105.030,280.573 105.800 C 281.777 106.570,282.877 107.200,283.019 107.200 C 283.161 107.200,283.754 107.534,284.338 107.943 C 284.922 108.351,286.210 109.139,287.200 109.693 C 288.774 110.573,291.258 111.987,296.076 114.745 C 301.279 117.722,302.496 118.400,302.638 118.400 C 302.727 118.400,302.800 105.194,302.800 89.053 L 302.800 59.706 301.209 58.653 C 300.333 58.074,299.515 57.600,299.389 57.600 C 299.264 57.600,298.177 56.970,296.973 56.200 C 295.769 55.430,294.694 54.800,294.584 54.800 C 294.474 54.800,293.650 54.336,292.752 53.770 C 291.267 52.832,290.326 52.292,286.000 49.892 C 285.230 49.464,284.420 48.978,284.200 48.811 C 283.980 48.644,282.990 48.057,282.000 47.508 C 281.010 46.959,277.140 44.751,273.400 42.603 C 269.660 40.455,265.790 38.246,264.800 37.695 C 263.810 37.144,262.820 36.556,262.600 36.388 C 262.380 36.221,261.300 35.585,260.200 34.976 C 259.100 34.367,257.570 33.519,256.800 33.092 C 256.030 32.664,255.220 32.178,255.000 32.011 C 254.780 31.844,253.790 31.258,252.800 30.710 C 251.810 30.161,248.030 27.999,244.400 25.905 C 240.770 23.812,237.137 21.726,236.326 21.271 C 235.515 20.815,234.124 19.983,233.234 19.421 C 232.344 18.860,231.526 18.400,231.416 18.400 C 231.306 18.400,230.231 17.770,229.027 17.000 C 227.823 16.230,226.723 15.600,226.581 15.600 C 226.439 15.600,225.846 15.265,225.262 14.857 C 224.678 14.448,223.120 13.518,221.800 12.791 C 219.241 11.382,218.477 10.949,214.400 8.600 C 212.970 7.776,210.990 6.648,210.000 6.093 C 209.010 5.539,207.722 4.751,207.138 4.343 C 206.554 3.934,205.989 3.600,205.883 3.600 C 205.776 3.600,204.457 2.880,202.951 2.000 C 201.445 1.120,200.117 0.400,200.000 0.400 C 199.883 0.400,198.555 1.120,197.049 2.000 M97.237 238.900 C 97.277 314.893,97.396 319.810,99.414 328.800 C 101.040 336.042,101.257 336.811,102.742 340.600 C 103.432 342.360,103.997 343.919,103.998 344.065 C 104.012 346.007,112.078 360.107,115.725 364.562 C 124.577 375.377,140.509 387.019,152.200 391.218 C 152.640 391.376,154.350 391.992,156.000 392.587 C 159.983 394.023,160.587 394.220,163.400 395.009 C 164.720 395.379,166.250 395.827,166.800 396.004 C 167.350 396.182,168.880 396.522,170.200 396.760 C 171.520 396.999,173.680 397.393,175.000 397.637 C 191.456 400.671,212.481 400.279,229.800 396.614 C 239.027 394.662,252.052 389.536,260.102 384.690 C 261.646 383.760,263.457 382.671,264.126 382.268 C 269.794 378.861,279.918 369.597,284.800 363.352 C 286.554 361.108,287.600 359.623,287.600 359.377 C 287.600 359.226,288.380 357.999,289.334 356.651 C 294.368 349.538,299.562 334.965,301.185 323.400 C 301.432 321.640,301.844 319.210,302.099 318.000 C 302.440 316.389,302.601 296.190,302.701 242.500 L 302.838 169.200 276.019 169.200 L 249.200 169.200 249.200 237.330 C 249.200 315.873,249.440 310.224,245.665 320.400 C 240.380 334.643,226.282 346.954,212.200 349.621 C 202.948 351.374,199.134 351.570,193.000 350.607 C 174.035 347.631,159.871 336.465,153.920 319.800 C 150.873 311.266,151.076 316.750,150.925 239.100 L 150.789 169.200 123.995 169.200 L 97.200 169.200 97.237 238.900 " stroke="none" fill="#fbfbfb" fill-rule="evenodd"></path><path id="path1" d="M0.000 200.000 L 0.000 400.000 93.500 399.941 C 144.925 399.909,186.010 399.753,184.800 399.595 C 183.590 399.437,181.430 399.184,180.000 399.033 C 178.570 398.883,176.770 398.601,176.000 398.407 C 175.230 398.214,173.250 397.847,171.600 397.592 C 169.950 397.336,167.700 396.871,166.600 396.559 C 165.500 396.246,163.970 395.815,163.200 395.601 C 150.425 392.048,139.651 386.530,127.800 377.470 C 122.876 373.705,111.914 361.610,110.879 358.800 C 110.758 358.470,110.554 358.110,110.425 358.000 C 109.868 357.521,108.049 354.380,106.836 351.800 C 104.166 346.121,103.655 344.937,102.607 342.000 C 102.018 340.350,101.383 338.640,101.196 338.200 C 100.693 337.017,100.156 334.988,99.397 331.400 C 99.024 329.640,98.572 327.750,98.392 327.200 C 98.213 326.650,97.958 325.030,97.827 323.600 C 97.696 322.170,97.419 319.650,97.212 318.000 C 96.989 316.225,96.828 285.155,96.818 241.897 L 96.800 168.794 123.900 168.897 L 151.000 169.000 151.243 238.800 C 151.499 312.290,151.425 309.241,153.127 315.600 C 156.563 328.433,165.984 339.882,177.485 345.200 C 182.021 347.298,183.200 347.755,186.200 348.579 C 190.743 349.826,191.413 349.951,195.800 350.366 C 201.950 350.947,212.148 349.623,217.000 347.613 C 221.976 345.552,222.412 345.345,225.398 343.626 C 235.651 337.727,243.691 327.084,246.873 315.200 C 248.572 308.853,248.498 311.852,248.756 238.600 L 249.000 169.000 276.100 168.897 L 303.200 168.794 303.188 241.297 C 303.179 289.988,303.037 314.785,302.753 316.800 C 302.520 318.450,302.176 320.970,301.988 322.400 C 301.800 323.830,301.468 325.810,301.249 326.800 C 301.031 327.790,300.576 329.950,300.238 331.600 C 294.316 360.552,268.845 386.586,238.400 394.805 C 237.410 395.073,236.240 395.433,235.800 395.606 C 234.262 396.210,230.577 397.114,227.800 397.567 C 226.260 397.819,224.100 398.189,223.000 398.391 C 221.900 398.593,219.470 398.949,217.600 399.183 C 215.730 399.416,213.750 399.671,213.200 399.749 C 212.650 399.827,254.455 399.916,306.100 399.946 L 400.000 400.000 400.000 200.000 L 400.000 0.000 300.300 0.032 C 245.465 0.049,200.870 0.165,201.200 0.289 C 201.530 0.413,202.250 0.823,202.800 1.200 C 203.350 1.577,204.610 2.339,205.600 2.893 C 206.590 3.448,208.570 4.576,210.000 5.400 C 211.430 6.224,213.230 7.256,214.000 7.694 C 214.770 8.132,216.570 9.170,218.000 10.000 C 219.430 10.830,221.230 11.868,222.000 12.306 C 223.305 13.048,224.315 13.632,230.900 17.449 C 232.275 18.246,234.210 19.351,235.200 19.903 C 236.190 20.455,237.180 21.044,237.400 21.212 C 237.745 21.474,239.665 22.565,242.600 24.164 C 243.040 24.404,243.490 24.690,243.600 24.800 C 243.710 24.910,244.160 25.196,244.600 25.437 C 248.662 27.653,250.260 28.551,250.600 28.811 C 250.945 29.074,252.860 30.162,255.800 31.764 C 256.240 32.004,256.690 32.290,256.800 32.400 C 256.910 32.510,257.360 32.796,257.800 33.036 C 259.108 33.749,262.026 35.401,264.800 37.000 C 266.230 37.824,268.030 38.856,268.800 39.294 C 269.570 39.732,271.370 40.770,272.800 41.600 C 274.230 42.430,276.030 43.465,276.800 43.898 C 277.570 44.332,280.630 46.090,283.600 47.804 C 291.440 52.329,296.061 54.989,297.200 55.634 C 297.750 55.945,298.290 56.290,298.400 56.400 C 298.618 56.618,300.864 57.864,302.297 58.563 L 303.194 59.000 303.197 89.100 C 303.199 105.655,303.100 119.200,302.978 119.200 C 302.659 119.200,298.390 116.820,297.138 115.943 C 296.554 115.535,295.966 115.200,295.830 115.200 C 295.695 115.200,294.850 114.736,293.952 114.170 C 292.524 113.268,290.560 112.140,287.800 110.636 C 287.360 110.396,286.910 110.110,286.800 110.000 C 286.620 109.820,285.243 109.033,283.000 107.829 C 282.560 107.593,282.110 107.310,282.000 107.200 C 281.890 107.090,281.440 106.804,281.000 106.564 C 280.560 106.324,279.300 105.624,278.200 105.008 C 277.100 104.392,275.390 103.439,274.400 102.891 C 273.410 102.342,272.420 101.756,272.200 101.588 C 271.980 101.421,270.900 100.785,269.800 100.176 C 265.920 98.027,265.237 97.633,263.634 96.621 C 262.744 96.060,261.914 95.600,261.789 95.600 C 261.664 95.600,260.577 94.970,259.373 94.200 C 258.169 93.430,257.089 92.800,256.973 92.800 C 256.857 92.800,255.777 92.170,254.573 91.400 C 253.369 90.630,252.330 90.000,252.264 90.000 C 252.156 90.000,246.143 86.565,239.900 82.937 C 234.291 79.677,232.486 78.638,230.800 77.697 C 229.810 77.145,228.820 76.556,228.600 76.388 C 228.255 76.126,226.335 75.035,223.400 73.436 C 222.960 73.196,222.510 72.910,222.400 72.800 C 222.220 72.620,220.843 71.833,218.600 70.629 C 218.160 70.393,217.710 70.110,217.600 70.000 C 217.490 69.890,217.040 69.604,216.600 69.364 C 213.840 67.860,211.876 66.732,210.448 65.830 C 209.550 65.264,208.737 64.800,208.641 64.800 C 208.544 64.800,206.636 63.720,204.400 62.400 C 199.503 59.509,200.497 59.509,195.600 62.400 C 193.364 63.720,191.456 64.800,191.359 64.800 C 191.263 64.800,190.450 65.264,189.552 65.830 C 188.124 66.732,186.160 67.860,183.400 69.364 C 182.960 69.604,182.510 69.890,182.400 70.000 C 182.220 70.180,180.843 70.967,178.600 72.171 C 178.160 72.407,177.710 72.690,177.600 72.800 C 177.490 72.910,177.040 73.196,176.600 73.436 C 173.665 75.035,171.745 76.126,171.400 76.388 C 171.180 76.556,170.190 77.145,169.200 77.697 C 167.428 78.686,164.727 80.243,160.000 83.000 C 154.081 86.453,151.566 87.896,147.726 90.044 C 147.025 90.436,145.724 91.217,144.834 91.779 C 143.944 92.340,143.126 92.800,143.016 92.800 C 142.906 92.800,141.831 93.430,140.627 94.200 C 139.423 94.970,138.336 95.600,138.211 95.600 C 138.086 95.600,137.250 96.064,136.352 96.630 C 134.867 97.568,133.926 98.108,129.600 100.508 C 128.830 100.936,128.020 101.422,127.800 101.589 C 127.580 101.756,126.545 102.367,125.500 102.946 C 124.455 103.526,122.745 104.479,121.700 105.064 C 120.655 105.649,119.440 106.324,119.000 106.564 C 118.560 106.804,118.110 107.090,118.000 107.200 C 117.820 107.380,116.443 108.167,114.200 109.371 C 113.760 109.607,113.310 109.890,113.200 110.000 C 113.090 110.110,112.640 110.396,112.200 110.636 C 109.440 112.140,107.476 113.268,106.048 114.170 C 105.150 114.736,104.305 115.200,104.170 115.200 C 104.034 115.200,103.446 115.535,102.862 115.943 C 101.610 116.820,97.341 119.200,97.022 119.200 C 96.900 119.200,96.801 105.655,96.803 89.100 L 96.806 59.000 97.703 58.563 C 99.719 57.580,101.408 56.582,101.533 56.300 C 101.607 56.135,101.836 56.000,102.042 56.000 C 102.248 56.000,103.088 55.574,103.909 55.053 C 105.285 54.179,119.323 46.054,123.000 44.002 C 123.880 43.511,125.770 42.430,127.200 41.600 C 128.630 40.770,130.430 39.732,131.200 39.294 C 131.970 38.856,133.770 37.824,135.200 37.000 C 137.974 35.401,140.892 33.749,142.200 33.036 C 142.640 32.796,143.090 32.510,143.200 32.400 C 143.310 32.290,143.760 32.004,144.200 31.764 C 147.140 30.162,149.055 29.074,149.400 28.811 C 149.740 28.551,151.338 27.653,155.400 25.437 C 155.840 25.196,156.290 24.910,156.400 24.800 C 156.510 24.690,156.960 24.404,157.400 24.164 C 160.335 22.565,162.255 21.474,162.600 21.212 C 162.820 21.044,163.810 20.455,164.800 19.903 C 165.790 19.351,167.725 18.246,169.100 17.449 C 175.685 13.632,176.695 13.048,178.000 12.306 C 178.770 11.868,180.570 10.830,182.000 10.000 C 183.430 9.170,185.230 8.132,186.000 7.694 C 186.770 7.256,188.570 6.224,190.000 5.400 C 191.430 4.576,193.410 3.448,194.400 2.893 C 195.390 2.339,196.650 1.577,197.200 1.200 C 197.750 0.823,198.470 0.413,198.800 0.289 C 199.130 0.165,154.535 0.049,99.700 0.032 L 0.000 0.000 0.000 200.000 " stroke="none" fill="#2c2c34" fill-rule="evenodd"></path><path id="path2" d="M197.200 1.236 C 196.536 1.779,196.469 1.915,197.000 1.640 C 198.305 0.966,199.028 0.412,198.600 0.415 C 198.380 0.417,197.750 0.786,197.200 1.236 M201.600 0.820 C 202.987 1.761,203.778 2.035,202.800 1.236 C 202.250 0.786,201.620 0.417,201.400 0.415 C 201.180 0.413,201.270 0.596,201.600 0.820 M181.500 10.229 C 180.005 11.040,180.096 11.378,181.600 10.600 C 182.260 10.259,182.800 9.894,182.800 9.790 C 182.800 9.532,182.757 9.547,181.500 10.229 M217.200 9.779 C 217.200 9.889,217.740 10.259,218.400 10.600 C 219.060 10.941,219.600 11.131,219.600 11.021 C 219.600 10.911,219.060 10.541,218.400 10.200 C 217.740 9.859,217.200 9.669,217.200 9.779 M173.500 14.827 C 172.675 15.263,172.000 15.708,172.000 15.818 C 172.000 15.927,172.720 15.649,173.600 15.200 C 174.480 14.751,175.200 14.297,175.200 14.192 C 175.200 13.930,175.197 13.931,173.500 14.827 M224.800 14.184 C 224.800 14.294,225.520 14.751,226.400 15.200 C 227.280 15.649,228.000 15.926,228.000 15.816 C 228.000 15.706,227.280 15.249,226.400 14.800 C 225.520 14.351,224.800 14.074,224.800 14.184 M126.700 41.829 C 125.205 42.640,125.296 42.978,126.800 42.200 C 127.460 41.859,128.000 41.494,128.000 41.390 C 128.000 41.132,127.957 41.147,126.700 41.829 M272.000 41.379 C 272.000 41.489,272.540 41.859,273.200 42.200 C 273.860 42.541,274.400 42.731,274.400 42.621 C 274.400 42.511,273.860 42.141,273.200 41.800 C 272.540 41.459,272.000 41.269,272.000 41.379 M119.496 45.958 C 117.060 47.387,116.519 47.944,118.600 46.880 C 120.145 46.091,122.010 44.818,121.600 44.833 C 121.490 44.837,120.543 45.343,119.496 45.958 M279.600 45.784 C 279.600 45.894,280.320 46.351,281.200 46.800 C 282.080 47.249,282.800 47.526,282.800 47.416 C 282.800 47.306,282.080 46.849,281.200 46.400 C 280.320 45.951,279.600 45.674,279.600 45.784 M110.700 51.029 C 109.205 51.840,109.296 52.178,110.800 51.400 C 111.460 51.059,112.000 50.694,112.000 50.590 C 112.000 50.332,111.957 50.347,110.700 51.029 M288.000 50.579 C 288.000 50.689,288.540 51.059,289.200 51.400 C 289.860 51.741,290.400 51.931,290.400 51.821 C 290.400 51.711,289.860 51.341,289.200 51.000 C 288.540 50.659,288.000 50.469,288.000 50.579 M155.500 85.227 C 154.675 85.663,154.000 86.108,154.000 86.218 C 154.000 86.327,154.720 86.049,155.600 85.600 C 156.480 85.151,157.200 84.697,157.200 84.592 C 157.200 84.330,157.197 84.331,155.500 85.227 M242.800 84.584 C 242.800 84.694,243.520 85.151,244.400 85.600 C 245.280 86.049,246.000 86.326,246.000 86.216 C 246.000 86.106,245.280 85.649,244.400 85.200 C 243.520 84.751,242.800 84.474,242.800 84.584 M152.200 87.200 C 151.540 87.637,151.180 87.992,151.400 87.988 C 151.801 87.982,153.976 86.423,153.600 86.412 C 153.490 86.408,152.860 86.763,152.200 87.200 M140.900 93.646 C 139.537 94.519,139.095 95.106,140.300 94.443 C 141.218 93.939,142.656 92.827,142.400 92.819 C 142.290 92.816,141.615 93.188,140.900 93.646 M258.200 93.407 C 258.640 93.766,259.360 94.235,259.800 94.451 L 260.600 94.844 259.800 94.193 C 259.360 93.834,258.640 93.365,258.200 93.149 L 257.400 92.756 258.200 93.407 M123.899 169.099 L 150.798 169.206 150.901 235.803 L 151.004 302.400 151.002 235.700 L 151.000 169.000 124.000 168.996 L 97.000 168.992 123.899 169.099 M248.985 169.300 C 248.880 169.575,248.841 199.590,248.898 236.000 L 249.002 302.200 249.101 235.703 L 249.200 169.206 276.300 169.100 L 303.400 168.994 276.287 168.897 C 254.894 168.820,249.135 168.905,248.985 169.300 M248.514 304.600 C 248.517 305.700,248.595 306.103,248.687 305.495 C 248.779 304.886,248.777 303.986,248.682 303.495 C 248.587 303.003,248.511 303.500,248.514 304.600 M151.314 305.400 C 151.317 306.500,151.395 306.903,151.487 306.295 C 151.579 305.686,151.577 304.786,151.482 304.295 C 151.387 303.803,151.311 304.300,151.314 305.400 M247.840 310.440 C 247.693 311.357,247.652 312.185,247.747 312.280 C 247.842 312.376,248.046 311.710,248.200 310.800 C 248.354 309.890,248.396 309.062,248.293 308.960 C 248.190 308.857,247.987 309.523,247.840 310.440 M151.687 310.000 C 151.683 310.550,151.824 311.450,152.000 312.000 C 152.431 313.344,152.431 311.892,152.000 310.200 C 151.726 309.122,151.694 309.102,151.687 310.000 M302.931 312.200 C 302.933 313.740,303.005 314.321,303.092 313.491 C 303.179 312.661,303.177 311.401,303.089 310.691 C 303.000 309.981,302.929 310.660,302.931 312.200 M96.931 313.400 C 96.933 314.940,97.005 315.521,97.092 314.691 C 97.179 313.861,97.177 312.601,97.089 311.891 C 97.000 311.181,96.929 311.860,96.931 313.400 M152.644 315.000 C 152.973 316.471,153.202 316.790,153.194 315.767 C 153.191 315.345,153.005 314.730,152.782 314.400 C 152.485 313.962,152.448 314.124,152.644 315.000 M302.509 316.800 C 302.509 317.790,302.587 318.195,302.682 317.700 C 302.778 317.205,302.778 316.395,302.682 315.900 C 302.587 315.405,302.509 315.810,302.509 316.800 M97.314 318.200 C 97.317 319.300,97.395 319.703,97.487 319.095 C 97.579 318.486,97.577 317.586,97.482 317.095 C 97.387 316.603,97.311 317.100,97.314 318.200 M246.044 317.644 C 245.798 318.351,245.666 319.000,245.752 319.085 C 245.838 319.171,246.109 318.662,246.356 317.956 C 246.602 317.249,246.734 316.600,246.648 316.515 C 246.562 316.429,246.291 316.938,246.044 317.644 M153.429 317.600 C 153.576 318.150,153.864 318.870,154.067 319.200 C 154.325 319.617,154.357 319.495,154.171 318.800 C 154.024 318.250,153.736 317.530,153.533 317.200 C 153.275 316.783,153.243 316.905,153.429 317.600 M301.667 322.867 C 301.630 323.674,301.496 324.664,301.370 325.067 C 301.153 325.757,301.166 325.759,301.594 325.093 C 301.843 324.704,301.977 323.714,301.891 322.893 L 301.734 321.400 301.667 322.867 M98.006 325.033 C 98.009 325.895,98.170 326.849,98.363 327.154 C 98.578 327.493,98.632 326.949,98.504 325.754 C 98.242 323.317,97.998 322.964,98.006 325.033 M157.188 326.300 C 157.867 327.565,158.798 329.050,159.255 329.600 C 160.054 330.561,160.053 330.545,159.228 329.200 C 158.756 328.430,157.923 326.945,157.378 325.900 C 156.833 324.855,156.289 324.000,156.170 324.000 C 156.051 324.000,156.509 325.035,157.188 326.300 M242.678 325.805 C 242.312 326.572,242.095 327.200,242.196 327.200 C 242.470 327.200,243.684 324.751,243.501 324.568 C 243.414 324.481,243.044 325.038,242.678 325.805 M98.856 329.200 C 98.856 329.530,99.011 330.160,99.200 330.600 C 99.417 331.104,99.544 331.178,99.544 330.800 C 99.544 330.470,99.389 329.840,99.200 329.400 C 98.983 328.896,98.856 328.822,98.856 329.200 M238.663 331.902 C 236.661 334.555,236.585 334.713,238.129 333.000 C 239.724 331.232,241.461 328.796,241.123 328.802 C 241.055 328.803,239.948 330.198,238.663 331.902 M165.000 336.800 C 166.528 338.340,167.869 339.600,167.979 339.600 C 168.089 339.600,166.928 338.340,165.400 336.800 C 163.872 335.260,162.531 334.000,162.421 334.000 C 162.311 334.000,163.472 335.260,165.000 336.800 M230.100 340.425 C 228.945 341.311,228.000 342.124,228.000 342.231 C 228.000 342.338,228.990 341.678,230.200 340.765 C 232.110 339.323,232.691 338.781,232.300 338.807 C 232.245 338.810,231.255 339.538,230.100 340.425 M168.873 340.226 C 169.243 340.652,170.143 341.341,170.873 341.757 C 172.439 342.650,172.026 342.207,169.800 340.604 C 168.869 339.934,168.482 339.776,168.873 340.226 M225.496 343.558 C 223.060 344.987,222.519 345.544,224.600 344.480 C 226.145 343.691,228.010 342.418,227.600 342.433 C 227.490 342.437,226.543 342.943,225.496 343.558 M178.800 346.134 C 178.800 346.237,179.381 346.524,180.091 346.772 C 180.801 347.019,181.206 347.057,180.991 346.856 C 180.535 346.429,178.800 345.858,178.800 346.134 M219.700 346.412 C 218.361 346.951,218.611 347.224,220.000 346.740 C 220.660 346.510,221.200 346.249,221.200 346.161 C 221.200 345.924,220.713 346.005,219.700 346.412 M293.682 349.421 C 292.757 351.286,292.009 352.944,292.020 353.106 C 292.031 353.268,292.853 351.806,293.845 349.859 C 294.838 347.911,295.586 346.252,295.507 346.174 C 295.428 346.095,294.607 347.556,293.682 349.421 M188.033 349.344 C 188.125 349.423,188.740 349.608,189.400 349.756 C 190.276 349.952,190.438 349.915,190.000 349.618 C 189.460 349.253,187.632 348.998,188.033 349.344 M209.200 349.595 C 208.791 349.855,209.110 349.899,210.200 349.732 C 212.177 349.429,212.514 349.198,210.967 349.206 C 210.325 349.209,209.530 349.384,209.200 349.595 M193.600 350.399 C 195.450 350.750,198.664 350.919,198.367 350.649 C 198.275 350.565,196.760 350.398,195.000 350.277 C 192.594 350.112,192.247 350.142,193.600 350.399 M203.200 350.400 L 201.400 350.680 203.200 350.693 C 204.190 350.700,205.540 350.568,206.200 350.400 L 207.400 350.095 206.200 350.107 C 205.540 350.114,204.190 350.246,203.200 350.400 M291.353 354.100 C 289.976 356.436,289.886 356.635,290.587 355.800 C 291.400 354.832,292.100 353.600,291.838 353.600 C 291.733 353.600,291.515 353.825,291.353 354.100 M108.002 354.086 C 108.001 354.243,108.540 355.224,109.200 356.264 C 109.860 357.305,110.399 357.986,110.398 357.778 C 110.397 357.570,109.858 356.590,109.200 355.600 C 108.542 354.610,108.003 353.929,108.002 354.086 M110.800 358.561 C 110.800 358.943,113.176 362.400,113.438 362.400 C 113.548 362.400,113.061 361.545,112.354 360.500 C 110.788 358.183,110.800 358.197,110.800 358.561 M287.597 360.005 C 287.360 360.448,286.355 361.843,285.363 363.105 L 283.559 365.400 285.280 363.524 C 286.947 361.706,288.661 359.200,288.237 359.200 C 288.122 359.200,287.834 359.562,287.597 360.005 M114.751 364.338 C 115.421 365.185,116.287 366.130,116.674 366.438 C 117.061 366.747,116.590 366.055,115.626 364.900 C 113.606 362.478,112.938 362.049,114.751 364.338 M281.983 367.300 C 281.240 368.235,280.948 368.746,281.335 368.436 C 282.063 367.851,283.777 365.600,283.494 365.600 C 283.406 365.600,282.726 366.365,281.983 367.300 M121.200 371.342 C 123.290 373.495,125.720 375.817,126.600 376.500 C 127.480 377.183,128.020 377.565,127.800 377.347 C 122.674 372.283,117.879 367.920,121.200 371.342 M277.787 371.700 L 275.400 374.200 277.900 371.813 C 279.275 370.499,280.400 369.374,280.400 369.313 C 280.400 369.017,280.005 369.378,277.787 371.700 M271.800 377.044 L 270.200 378.476 271.900 377.204 C 273.363 376.110,273.891 375.583,273.500 375.606 C 273.445 375.609,272.680 376.256,271.800 377.044 M129.964 378.935 C 130.549 379.663,132.800 381.377,132.800 381.094 C 132.800 381.006,132.035 380.326,131.100 379.583 C 130.165 378.840,129.654 378.548,129.964 378.935 M264.900 382.046 C 263.537 382.919,263.095 383.506,264.300 382.843 C 265.218 382.339,266.656 381.227,266.400 381.219 C 266.290 381.216,265.615 381.588,264.900 382.046 M135.000 382.607 C 135.440 382.966,136.160 383.435,136.600 383.651 L 137.400 384.044 136.600 383.393 C 136.160 383.034,135.440 382.565,135.000 382.349 L 134.200 381.956 135.000 382.607 M261.700 384.046 C 260.337 384.919,259.895 385.506,261.100 384.843 C 262.018 384.339,263.456 383.227,263.200 383.219 C 263.090 383.216,262.415 383.588,261.700 384.046 M138.800 384.986 C 138.800 385.299,141.250 386.883,141.440 386.693 C 141.547 386.586,140.996 386.123,140.217 385.663 C 139.438 385.203,138.800 384.899,138.800 384.986 M149.200 390.631 C 149.200 390.901,151.278 391.656,151.476 391.457 C 151.567 391.367,151.092 391.101,150.420 390.867 C 149.749 390.633,149.200 390.527,149.200 390.631 M156.800 393.533 C 157.130 393.736,157.850 394.024,158.400 394.171 C 159.095 394.357,159.217 394.325,158.800 394.067 C 158.470 393.864,157.750 393.576,157.200 393.429 C 156.505 393.243,156.383 393.275,156.800 393.533 M240.800 393.800 C 240.030 394.097,239.670 394.345,240.000 394.352 C 240.330 394.358,241.140 394.117,241.800 393.814 C 243.345 393.107,242.626 393.097,240.800 393.800 M231.400 396.615 C 229.816 397.163,229.814 397.166,231.200 396.938 C 231.970 396.812,232.870 396.554,233.200 396.366 C 234.081 395.864,233.230 395.982,231.400 396.615 M171.600 397.600 C 172.968 398.038,174.019 398.038,173.000 397.600 C 172.560 397.411,171.840 397.262,171.400 397.268 C 170.757 397.277,170.796 397.343,171.600 397.600 M226.000 397.600 C 225.208 397.854,225.167 397.920,225.800 397.920 C 226.240 397.920,227.050 397.776,227.600 397.600 C 228.392 397.346,228.433 397.280,227.800 397.280 C 227.360 397.280,226.550 397.424,226.000 397.600 M176.000 398.379 C 176.330 398.604,177.125 398.791,177.767 398.794 C 179.304 398.802,178.984 398.570,177.000 398.238 C 175.854 398.046,175.570 398.086,176.000 398.379 M221.400 398.400 C 220.311 398.677,220.293 398.707,221.200 398.725 C 221.750 398.735,222.560 398.589,223.000 398.400 C 223.986 397.976,223.066 397.976,221.400 398.400 M183.705 399.487 C 184.314 399.579,185.214 399.577,185.705 399.482 C 186.197 399.387,185.700 399.311,184.600 399.314 C 183.500 399.317,183.097 399.395,183.705 399.487 M213.705 399.487 C 214.314 399.579,215.214 399.577,215.705 399.482 C 216.197 399.387,215.700 399.311,214.600 399.314 C 213.500 399.317,213.097 399.395,213.705 399.487 " stroke="none" fill="#767a7f" fill-rule="evenodd"></path><path id="path3" d="M97.689 59.023 L 96.800 59.645 96.800 89.223 C 96.800 105.490,96.935 118.800,97.100 118.800 C 97.265 118.800,97.353 105.528,97.295 89.306 L 97.190 59.811 98.095 59.115 C 99.220 58.248,98.899 58.175,97.689 59.023 M301.905 59.057 L 302.810 59.811 302.705 89.306 C 302.647 105.528,302.736 118.800,302.903 118.800 C 303.069 118.800,303.159 105.457,303.103 89.149 L 303.000 59.498 302.000 58.900 L 301.000 58.302 301.905 59.057 M96.996 239.200 C 96.996 277.810,97.043 293.605,97.100 274.300 C 97.157 254.995,97.157 223.405,97.100 204.100 C 97.043 184.795,96.996 200.590,96.996 239.200 M302.996 238.600 C 302.996 276.880,303.043 292.481,303.100 273.268 C 303.157 254.056,303.157 222.736,303.100 203.668 C 303.043 184.601,302.996 200.320,302.996 238.600 M248.909 305.200 C 248.909 306.190,248.987 306.595,249.082 306.100 C 249.178 305.605,249.178 304.795,249.082 304.300 C 248.987 303.805,248.909 304.210,248.909 305.200 M150.847 305.633 C 150.873 306.605,151.037 307.940,151.211 308.600 C 151.402 309.328,151.441 308.698,151.309 307.000 C 151.061 303.821,150.776 302.976,150.847 305.633 M302.531 311.400 C 302.533 312.940,302.605 313.521,302.692 312.691 C 302.779 311.861,302.777 310.601,302.689 309.891 C 302.600 309.181,302.529 309.860,302.531 311.400 M97.331 312.600 C 97.333 314.140,97.405 314.721,97.492 313.891 C 97.579 313.061,97.577 311.801,97.489 311.091 C 97.400 310.381,97.329 311.060,97.331 312.600 M301.869 317.956 C 301.721 318.695,301.620 319.683,301.644 320.150 C 301.668 320.618,301.847 320.190,302.042 319.200 C 302.237 318.210,302.338 317.223,302.267 317.006 C 302.196 316.790,302.017 317.217,301.869 317.956 M97.881 320.400 C 98.006 321.610,98.174 322.675,98.254 322.767 C 98.535 323.087,98.317 320.191,97.987 319.200 C 97.771 318.554,97.734 318.980,97.881 320.400 M154.800 322.153 C 154.800 322.582,155.990 324.800,156.221 324.800 C 156.331 324.800,156.123 324.215,155.759 323.500 C 155.017 322.040,154.800 321.736,154.800 322.153 M299.850 330.050 C 299.709 330.753,299.669 331.402,299.759 331.492 C 299.850 331.583,300.048 331.091,300.200 330.400 C 300.352 329.709,300.393 329.059,300.291 328.958 C 300.189 328.856,299.991 329.347,299.850 330.050 M160.391 331.988 C 160.857 332.641,161.442 333.302,161.691 333.456 C 161.941 333.611,161.641 333.076,161.025 332.268 C 159.688 330.515,159.184 330.292,160.391 331.988 M299.049 333.415 C 298.912 333.773,298.815 334.366,298.834 334.733 C 298.853 335.100,299.027 334.869,299.221 334.220 C 299.598 332.958,299.465 332.333,299.049 333.415 M162.000 334.110 C 162.000 334.171,163.395 335.566,165.100 337.210 L 168.200 340.200 165.210 337.100 C 162.433 334.221,162.000 333.817,162.000 334.110 M229.014 341.646 C 226.913 343.226,226.716 343.487,228.327 342.562 C 229.462 341.910,231.247 340.345,230.762 340.427 C 230.673 340.442,229.886 340.991,229.014 341.646 M223.900 344.827 C 223.075 345.263,222.400 345.708,222.400 345.818 C 222.400 345.927,223.120 345.649,224.000 345.200 C 224.880 344.751,225.600 344.297,225.600 344.192 C 225.600 343.930,225.597 343.931,223.900 344.827 M295.265 345.417 C 294.595 346.888,294.723 347.202,295.447 345.865 C 295.786 345.240,295.988 344.654,295.896 344.563 C 295.805 344.471,295.521 344.856,295.265 345.417 M104.828 346.600 C 104.828 346.820,105.086 347.450,105.400 348.000 C 105.714 348.550,105.972 348.820,105.972 348.600 C 105.972 348.380,105.714 347.750,105.400 347.200 C 105.086 346.650,104.828 346.380,104.828 346.600 M189.200 349.982 C 189.530 350.205,190.145 350.391,190.567 350.394 C 191.590 350.402,191.271 350.173,189.800 349.844 C 188.924 349.648,188.762 349.685,189.200 349.982 M197.700 351.096 C 198.965 351.175,201.035 351.175,202.300 351.096 C 203.565 351.016,202.530 350.951,200.000 350.951 C 197.470 350.951,196.435 351.016,197.700 351.096 M107.200 351.753 C 107.200 352.182,108.390 354.400,108.621 354.400 C 108.731 354.400,108.523 353.815,108.159 353.100 C 107.417 351.640,107.200 351.336,107.200 351.753 M288.781 357.428 C 288.089 358.434,287.586 359.319,287.662 359.396 C 287.739 359.473,288.388 358.650,289.104 357.568 C 290.746 355.087,290.473 354.969,288.781 357.428 M279.387 369.700 L 277.000 372.200 279.500 369.813 C 280.875 368.499,282.000 367.374,282.000 367.313 C 282.000 367.017,281.605 367.378,279.387 369.700 M121.800 371.600 C 123.992 373.800,125.875 375.600,125.985 375.600 C 126.095 375.600,124.392 373.800,122.200 371.600 C 120.008 369.400,118.125 367.600,118.015 367.600 C 117.905 367.600,119.608 369.400,121.800 371.600 M273.000 375.477 C 271.568 376.814,271.245 377.225,272.200 376.498 C 273.709 375.349,275.939 373.178,275.570 373.218 C 275.476 373.228,274.320 374.245,273.000 375.477 M128.000 376.933 C 128.000 377.043,128.720 377.703,129.600 378.400 C 130.480 379.097,131.200 379.577,131.200 379.467 C 131.200 379.357,130.480 378.697,129.600 378.000 C 128.720 377.303,128.000 376.823,128.000 376.933 M137.400 383.807 C 137.840 384.166,138.560 384.635,139.000 384.851 L 139.800 385.244 139.000 384.593 C 138.560 384.234,137.840 383.765,137.400 383.549 L 136.600 383.156 137.400 383.807 M256.300 386.827 C 255.475 387.263,254.800 387.708,254.800 387.818 C 254.800 387.927,255.520 387.649,256.400 387.200 C 257.280 386.751,258.000 386.297,258.000 386.192 C 258.000 385.930,257.997 385.931,256.300 386.827 M153.600 391.933 C 153.930 392.136,154.650 392.424,155.200 392.571 C 155.895 392.757,156.017 392.725,155.600 392.467 C 155.270 392.264,154.550 391.976,154.000 391.829 C 153.305 391.643,153.183 391.675,153.600 391.933 M244.200 392.214 C 243.200 392.696,243.166 392.751,244.000 392.548 C 245.133 392.271,246.407 391.621,245.800 391.630 C 245.580 391.633,244.860 391.896,244.200 392.214 M168.800 396.800 C 169.350 396.976,170.160 397.120,170.600 397.120 C 171.233 397.120,171.192 397.054,170.400 396.800 C 169.850 396.624,169.040 396.480,168.600 396.480 C 167.967 396.480,168.008 396.546,168.800 396.800 M180.033 398.546 C 180.125 398.626,181.190 398.794,182.400 398.919 C 183.820 399.066,184.246 399.029,183.600 398.813 C 182.609 398.483,179.713 398.265,180.033 398.546 M217.105 398.683 C 217.602 398.779,218.322 398.775,218.705 398.675 C 219.087 398.575,218.680 398.496,217.800 398.501 C 216.920 398.505,216.607 398.587,217.105 398.683 M188.200 399.600 C 188.860 399.768,190.480 399.904,191.800 399.903 L 194.200 399.900 192.400 399.580 C 189.939 399.142,186.465 399.159,188.200 399.600 M206.400 399.600 C 204.699 399.864,204.743 399.881,207.200 399.893 C 208.630 399.900,210.340 399.768,211.000 399.600 C 212.603 399.192,209.024 399.192,206.400 399.600 " stroke="none" fill="#9c9ca1" fill-rule="evenodd"></path><path id="path4" d="M275.200 373.800 C 274.228 374.790,273.523 375.600,273.633 375.600 C 273.743 375.600,274.628 374.790,275.600 373.800 C 276.572 372.810,277.277 372.000,277.167 372.000 C 277.057 372.000,276.172 372.810,275.200 373.800 " stroke="none" fill="#94949c" fill-rule="evenodd"></path></g></svg>