<svg id="svg" version="1.1" xmlns="http://www.w3.org/2000/svg" xmlns:xlink="http://www.w3.org/1999/xlink" width="400" height="400" viewBox="0, 0, 400,400"><g id="svgg"><path id="path0" d="M0.000 200.000 L 0.000 400.000 200.000 400.000 L 400.000 400.000 400.000 200.000 L 400.000 0.000 200.000 0.000 L 0.000 0.000 0.000 200.000 M249.400 72.022 C 285.557 72.623,309.494 73.185,315.800 73.583 C 324.433 74.127,337.846 75.175,341.400 75.583 C 343.160 75.785,345.680 76.063,347.000 76.200 C 354.719 77.003,361.638 78.922,366.800 81.691 C 372.860 84.943,375.733 87.256,380.617 92.815 C 383.225 95.783,388.800 105.604,388.800 107.229 C 388.800 107.439,388.971 107.923,389.181 108.305 C 390.064 109.917,392.102 116.523,393.213 121.378 C 393.871 124.250,394.586 127.368,394.804 128.306 C 395.022 129.244,395.200 130.573,395.200 131.259 C 395.200 131.946,395.366 133.158,395.569 133.954 C 396.242 136.593,397.042 145.352,398.002 160.600 C 400.650 202.616,399.457 266.018,395.602 288.200 C 395.411 289.300,395.046 291.460,394.792 293.000 C 390.871 316.745,380.130 333.679,364.803 340.278 C 363.591 340.800,362.240 341.404,361.800 341.620 C 360.475 342.270,354.379 344.016,351.400 344.599 C 345.531 345.746,335.550 346.800,330.600 346.794 C 328.620 346.792,323.580 346.968,319.400 347.185 C 315.220 347.402,305.320 347.775,297.400 348.013 C 289.480 348.252,277.240 348.628,270.200 348.849 C 256.951 349.264,246.665 349.580,219.465 350.406 C 206.961 350.786,199.728 350.785,185.865 350.401 C 176.149 350.133,162.890 349.767,156.400 349.588 C 149.910 349.410,138.750 349.079,131.600 348.854 C 124.450 348.628,112.300 348.249,104.600 348.012 C 96.900 347.775,87.180 347.403,83.000 347.186 C 78.820 346.968,74.071 346.792,72.446 346.795 C 70.821 346.798,68.391 346.628,67.046 346.418 C 65.701 346.207,62.350 345.748,59.600 345.396 C 53.497 344.616,51.753 344.272,44.400 342.392 C 37.629 340.661,28.676 335.861,24.613 331.784 C 23.561 330.729,20.409 327.203,19.469 326.030 C 18.050 324.260,16.100 320.966,14.714 318.000 C 12.466 313.186,12.138 312.364,11.204 309.200 C 10.717 307.550,10.163 305.840,9.973 305.400 C 9.599 304.534,8.790 301.221,8.019 297.400 C 7.753 296.080,7.375 294.280,7.180 293.400 C 6.829 291.816,5.928 284.970,5.207 278.400 C 4.023 267.624,3.240 255.371,2.791 240.600 C 2.590 234.000,2.313 226.710,2.175 224.400 C 1.929 220.293,2.978 168.342,3.410 163.200 C 3.531 161.770,3.803 157.450,4.015 153.600 C 4.227 149.750,4.566 145.250,4.769 143.600 C 5.475 137.846,6.417 130.984,6.800 128.800 C 7.391 125.439,8.756 119.817,9.717 116.788 C 10.029 115.805,10.522 114.190,10.813 113.200 C 16.828 92.707,30.367 80.367,51.400 76.206 C 53.164 75.857,76.471 74.643,117.400 72.768 C 141.936 71.644,205.135 71.287,249.400 72.022 M160.400 206.400 C 160.400 236.540,160.535 261.199,160.700 261.197 C 161.031 261.195,165.527 258.934,172.000 255.515 C 174.310 254.295,179.350 251.678,183.200 249.700 C 187.050 247.722,191.910 245.205,194.000 244.107 C 199.083 241.437,207.938 236.845,216.000 232.699 C 219.630 230.832,224.130 228.495,226.000 227.506 C 227.870 226.516,232.100 224.307,235.400 222.596 C 238.700 220.885,243.560 218.366,246.200 216.998 C 255.958 211.941,264.230 207.650,265.266 207.108 C 266.558 206.432,266.954 206.722,259.364 202.781 C 256.319 201.200,252.472 199.184,250.814 198.300 C 249.156 197.417,245.010 195.249,241.600 193.483 C 232.737 188.893,229.627 187.273,224.200 184.418 C 221.560 183.029,217.240 180.769,214.600 179.396 C 201.736 172.707,190.665 166.932,187.000 164.999 C 183.943 163.387,181.055 161.875,169.400 155.788 C 166.540 154.295,163.610 152.741,162.888 152.336 C 160.178 150.816,160.400 146.002,160.400 206.400 " stroke="none" fill="#2c2c34" fill-rule="evenodd"></path><path id="path1" d="M156.400 72.444 C 142.870 72.590,127.570 72.904,122.400 73.141 C 111.608 73.635,89.244 74.689,78.400 75.214 C 74.330 75.411,67.400 75.744,63.000 75.954 C 55.080 76.333,49.721 76.903,47.400 77.615 C 38.893 80.223,32.927 83.120,28.800 86.645 C 28.250 87.115,26.502 88.604,24.916 89.954 C 21.022 93.270,16.119 100.366,14.383 105.200 C 14.106 105.970,13.619 107.230,13.299 108.000 C 12.216 110.611,12.081 110.998,11.408 113.400 C 11.038 114.720,10.575 116.250,10.379 116.800 C 10.182 117.350,9.590 119.510,9.063 121.600 C 7.112 129.334,6.273 134.492,5.161 145.600 C 3.294 164.235,2.342 223.496,3.544 246.200 C 4.703 268.093,5.592 279.430,6.663 286.000 C 6.789 286.770,7.035 288.480,7.209 289.800 C 7.490 291.914,7.880 293.953,9.201 300.200 C 9.756 302.823,11.480 308.655,12.395 311.000 C 14.984 317.640,16.828 321.352,19.152 324.600 C 21.813 328.319,27.362 334.000,28.335 334.000 C 28.514 334.000,29.083 334.450,29.600 335.000 C 30.117 335.550,30.671 336.000,30.831 336.000 C 30.992 336.000,32.175 336.590,33.462 337.312 C 37.973 339.843,43.802 341.946,49.200 342.991 C 51.070 343.352,53.251 343.818,54.046 344.024 C 54.842 344.231,55.991 344.400,56.600 344.400 C 57.209 344.400,58.358 344.568,59.154 344.773 C 64.095 346.046,83.763 346.901,151.000 348.765 C 159.580 349.002,171.010 349.393,176.400 349.633 C 189.032 350.195,217.146 350.196,228.304 349.635 C 233.087 349.395,243.480 349.003,251.400 348.764 C 345.628 345.920,342.681 346.076,353.800 343.341 C 367.696 339.923,376.565 333.797,383.755 322.653 C 386.142 318.952,388.697 313.815,389.065 311.975 C 389.196 311.320,389.460 310.686,389.652 310.568 C 389.843 310.450,390.000 310.001,390.000 309.571 C 390.000 309.141,390.179 308.477,390.398 308.095 C 391.037 306.981,392.614 301.134,393.607 296.200 C 396.231 283.165,396.993 274.414,398.502 240.000 C 399.311 221.560,399.038 184.427,397.986 169.800 C 397.765 166.720,397.394 161.230,397.162 157.600 C 396.022 139.797,394.797 129.787,392.802 122.000 C 392.605 121.230,392.186 119.520,391.871 118.200 C 391.293 115.779,391.010 114.862,390.386 113.400 C 390.199 112.960,389.581 111.250,389.014 109.600 C 388.448 107.950,387.825 106.240,387.632 105.800 C 387.438 105.360,386.886 104.100,386.405 103.000 C 382.605 94.311,374.273 85.793,365.520 81.647 C 362.291 80.118,355.991 78.000,354.671 78.000 C 354.148 78.000,353.198 77.829,352.560 77.619 C 351.922 77.409,349.420 77.032,347.000 76.781 C 344.580 76.530,341.070 76.157,339.200 75.953 C 326.597 74.578,306.368 73.606,282.200 73.214 C 269.440 73.008,255.850 72.741,252.000 72.623 C 240.425 72.266,182.687 72.158,156.400 72.444 M163.040 151.846 C 167.134 154.032,183.162 162.379,188.800 165.262 C 190.670 166.218,192.290 167.090,192.400 167.200 C 192.510 167.310,194.850 168.550,197.600 169.955 C 200.350 171.361,204.130 173.311,206.000 174.289 C 207.870 175.267,212.100 177.467,215.400 179.178 C 218.700 180.889,222.840 183.060,224.600 184.002 C 226.360 184.944,230.140 186.924,233.000 188.402 C 243.893 194.033,249.495 196.950,252.200 198.402 C 253.740 199.228,257.520 201.201,260.600 202.785 C 267.765 206.471,267.782 206.488,265.551 207.622 C 262.601 209.123,248.562 216.393,237.400 222.199 C 234.540 223.687,229.680 226.203,226.600 227.792 C 223.520 229.380,219.110 231.675,216.800 232.892 C 214.490 234.110,209.810 236.542,206.400 238.298 C 202.990 240.054,198.220 242.528,195.800 243.795 C 193.380 245.063,188.520 247.586,185.000 249.402 C 181.480 251.218,176.350 253.875,173.600 255.305 C 163.708 260.451,160.636 262.000,160.320 262.000 C 160.144 262.000,160.000 236.980,160.000 206.400 C 160.000 159.969,160.089 150.800,160.540 150.800 C 160.838 150.800,161.963 151.271,163.040 151.846 " stroke="none" fill="#fbfbfb" fill-rule="evenodd"></path><path id="path2" d="M172.100 71.897 C 173.805 71.972,176.595 71.972,178.300 71.897 C 180.005 71.822,178.610 71.761,175.200 71.761 C 171.790 71.761,170.395 71.822,172.100 71.897 M202.700 71.898 C 204.515 71.972,207.485 71.972,209.300 71.898 C 211.115 71.823,209.630 71.763,206.000 71.763 C 202.370 71.763,200.885 71.823,202.700 71.898 M146.500 72.287 C 147.105 72.378,148.095 72.378,148.700 72.287 C 149.305 72.195,148.810 72.120,147.600 72.120 C 146.390 72.120,145.895 72.195,146.500 72.287 M235.891 72.289 C 236.601 72.377,237.861 72.379,238.691 72.292 C 239.521 72.205,238.940 72.133,237.400 72.131 C 235.860 72.129,235.181 72.200,235.891 72.289 M266.700 72.682 C 267.195 72.778,268.005 72.778,268.500 72.682 C 268.995 72.587,268.590 72.509,267.600 72.509 C 266.610 72.509,266.205 72.587,266.700 72.682 M118.500 73.076 C 118.885 73.176,119.515 73.176,119.900 73.076 C 120.285 72.975,119.970 72.893,119.200 72.893 C 118.430 72.893,118.115 72.975,118.500 73.076 M290.100 73.091 C 290.925 73.178,292.275 73.178,293.100 73.091 C 293.925 73.005,293.250 72.934,291.600 72.934 C 289.950 72.934,289.275 73.005,290.100 73.091 M59.700 75.876 C 60.085 75.976,60.715 75.976,61.100 75.876 C 61.485 75.775,61.170 75.693,60.400 75.693 C 59.630 75.693,59.315 75.775,59.700 75.876 M3.293 174.000 C 3.293 174.770,3.375 175.085,3.476 174.700 C 3.576 174.315,3.576 173.685,3.476 173.300 C 3.375 172.915,3.293 173.230,3.293 174.000 M398.514 175.000 C 398.517 176.100,398.595 176.503,398.687 175.895 C 398.779 175.286,398.777 174.386,398.682 173.895 C 398.587 173.403,398.511 173.900,398.514 175.000 M2.893 183.600 C 2.893 184.370,2.975 184.685,3.076 184.300 C 3.176 183.915,3.176 183.285,3.076 182.900 C 2.975 182.515,2.893 182.830,2.893 183.600 M2.551 212.400 C 2.551 214.930,2.616 215.965,2.696 214.700 C 2.775 213.435,2.775 211.365,2.696 210.100 C 2.616 208.835,2.551 209.870,2.551 212.400 M2.493 224.800 C 2.493 225.570,2.575 225.885,2.676 225.500 C 2.776 225.115,2.776 224.485,2.676 224.100 C 2.575 223.715,2.493 224.030,2.493 224.800 M2.893 242.800 C 2.893 243.570,2.975 243.885,3.076 243.500 C 3.176 243.115,3.176 242.485,3.076 242.100 C 2.975 241.715,2.893 242.030,2.893 242.800 M398.501 243.400 C 398.505 244.280,398.587 244.593,398.683 244.095 C 398.779 243.598,398.775 242.878,398.675 242.495 C 398.575 242.113,398.496 242.520,398.501 243.400 M97.105 347.483 C 97.602 347.579,98.322 347.575,98.705 347.475 C 99.087 347.375,98.680 347.296,97.800 347.301 C 96.920 347.305,96.607 347.387,97.105 347.483 M303.505 347.483 C 304.002 347.579,304.722 347.575,305.105 347.475 C 305.487 347.375,305.080 347.296,304.200 347.301 C 303.320 347.305,303.007 347.387,303.505 347.483 M122.100 348.276 C 122.485 348.376,123.115 348.376,123.500 348.276 C 123.885 348.175,123.570 348.093,122.800 348.093 C 122.030 348.093,121.715 348.175,122.100 348.276 M278.100 348.276 C 278.485 348.376,279.115 348.376,279.500 348.276 C 279.885 348.175,279.570 348.093,278.800 348.093 C 278.030 348.093,277.715 348.175,278.100 348.276 M157.500 349.482 C 157.995 349.578,158.805 349.578,159.300 349.482 C 159.795 349.387,159.390 349.309,158.400 349.309 C 157.410 349.309,157.005 349.387,157.500 349.482 M243.905 349.483 C 244.402 349.579,245.122 349.575,245.505 349.475 C 245.887 349.375,245.480 349.296,244.600 349.301 C 243.720 349.305,243.407 349.387,243.905 349.483 M187.100 350.282 C 187.595 350.378,188.405 350.378,188.900 350.282 C 189.395 350.187,188.990 350.109,188.000 350.109 C 187.010 350.109,186.605 350.187,187.100 350.282 M216.700 350.282 C 217.195 350.378,218.005 350.378,218.500 350.282 C 218.995 350.187,218.590 350.109,217.600 350.109 C 216.610 350.109,216.205 350.187,216.700 350.282 " stroke="none" fill="#949499" fill-rule="evenodd"></path><path id="path3" d="M185.700 71.899 C 188.285 71.968,192.515 71.968,195.100 71.899 C 197.685 71.829,195.570 71.772,190.400 71.772 C 185.230 71.772,183.115 71.829,185.700 71.899 M157.300 72.300 C 161.645 72.364,168.755 72.364,173.100 72.300 C 177.445 72.235,173.890 72.182,165.200 72.182 C 156.510 72.182,152.955 72.235,157.300 72.300 M209.500 72.300 C 214.175 72.364,221.825 72.364,226.500 72.300 C 231.175 72.236,227.350 72.183,218.000 72.183 C 208.650 72.183,204.825 72.236,209.500 72.300 M124.800 72.800 L 120.200 73.040 124.200 73.081 C 126.400 73.103,129.730 72.986,131.600 72.822 L 135.000 72.524 132.200 72.542 C 130.660 72.552,127.330 72.668,124.800 72.800 M260.800 72.816 C 267.928 73.111,289.040 73.292,288.767 73.056 C 288.675 72.976,280.860 72.828,271.400 72.727 C 261.940 72.625,257.170 72.665,260.800 72.816 M112.307 73.490 C 113.026 73.579,114.106 73.577,114.707 73.486 C 115.308 73.395,114.720 73.322,113.400 73.324 C 112.080 73.326,111.588 73.401,112.307 73.490 M300.300 73.495 C 301.455 73.576,303.345 73.576,304.500 73.495 C 305.655 73.414,304.710 73.348,302.400 73.348 C 300.090 73.348,299.145 73.414,300.300 73.495 M102.900 73.896 C 104.165 73.975,106.235 73.975,107.500 73.896 C 108.765 73.816,107.730 73.751,105.200 73.751 C 102.670 73.751,101.635 73.816,102.900 73.896 M309.312 73.895 C 310.364 73.977,311.984 73.976,312.912 73.892 C 313.840 73.808,312.980 73.741,311.000 73.742 C 309.020 73.743,308.260 73.812,309.312 73.895 M95.900 74.289 C 96.615 74.378,97.785 74.378,98.500 74.289 C 99.215 74.201,98.630 74.128,97.200 74.128 C 95.770 74.128,95.185 74.201,95.900 74.289 M316.505 74.287 C 317.114 74.379,318.014 74.377,318.505 74.282 C 318.997 74.187,318.500 74.111,317.400 74.114 C 316.300 74.117,315.897 74.195,316.505 74.287 M81.600 74.800 L 78.600 75.056 81.200 75.081 C 82.630 75.095,84.970 74.975,86.400 74.814 L 89.000 74.522 86.800 74.533 C 85.590 74.539,83.250 74.659,81.600 74.800 M325.400 74.818 C 326.500 74.990,328.120 75.120,329.000 75.109 C 330.393 75.090,330.316 75.048,328.400 74.783 C 327.190 74.616,325.570 74.485,324.800 74.493 C 323.678 74.504,323.797 74.569,325.400 74.818 M65.200 75.600 L 61.400 75.847 64.800 75.884 C 66.670 75.904,69.190 75.784,70.400 75.617 C 73.234 75.225,71.080 75.218,65.200 75.600 M335.800 75.585 C 337.022 75.911,340.270 76.120,339.967 75.853 C 339.875 75.772,338.630 75.607,337.200 75.485 C 335.562 75.346,335.044 75.382,335.800 75.585 M55.300 76.276 C 55.685 76.376,56.315 76.376,56.700 76.276 C 57.085 76.175,56.770 76.093,56.000 76.093 C 55.230 76.093,54.915 76.175,55.300 76.276 M51.505 76.683 C 52.002 76.779,52.722 76.775,53.105 76.675 C 53.487 76.575,53.080 76.496,52.200 76.501 C 51.320 76.505,51.007 76.587,51.505 76.683 M345.305 76.687 C 345.914 76.779,346.814 76.777,347.305 76.682 C 347.797 76.587,347.300 76.511,346.200 76.514 C 345.100 76.517,344.697 76.595,345.305 76.687 M352.600 77.600 C 353.040 77.789,353.760 77.938,354.200 77.932 C 354.843 77.923,354.804 77.857,354.000 77.600 C 352.632 77.162,351.581 77.162,352.600 77.600 M41.000 79.414 C 40.000 79.896,39.966 79.951,40.800 79.748 C 41.933 79.471,43.207 78.821,42.600 78.830 C 42.380 78.833,41.660 79.096,41.000 79.414 M31.300 84.446 C 29.937 85.319,29.495 85.906,30.700 85.243 C 31.618 84.739,33.056 83.627,32.800 83.619 C 32.690 83.616,32.015 83.988,31.300 84.446 M371.000 84.665 C 372.022 85.633,374.533 87.271,373.927 86.574 C 373.557 86.148,372.657 85.459,371.927 85.043 C 371.197 84.627,370.780 84.457,371.000 84.665 M26.976 87.904 C 25.862 88.947,25.412 89.428,25.976 88.973 C 26.539 88.518,27.599 87.663,28.331 87.073 C 29.063 86.483,29.513 86.002,29.331 86.004 C 29.149 86.007,28.089 86.862,26.976 87.904 M376.783 89.300 C 378.441 91.066,378.800 91.384,378.800 91.083 C 378.800 91.019,377.945 90.164,376.900 89.183 L 375.000 87.400 376.783 89.300 M22.581 91.700 L 21.000 93.400 22.700 91.819 C 23.635 90.949,24.400 90.184,24.400 90.119 C 24.400 89.816,24.052 90.119,22.581 91.700 M380.800 94.000 C 381.497 94.880,382.157 95.600,382.267 95.600 C 382.377 95.600,381.897 94.880,381.200 94.000 C 380.503 93.120,379.843 92.400,379.733 92.400 C 379.623 92.400,380.103 93.120,380.800 94.000 M382.749 96.600 C 382.965 97.040,383.434 97.760,383.793 98.200 L 384.444 99.000 384.051 98.200 C 383.835 97.760,383.366 97.040,383.007 96.600 L 382.356 95.800 382.749 96.600 M15.600 101.600 C 15.151 102.480,14.874 103.200,14.984 103.200 C 15.094 103.200,15.551 102.480,16.000 101.600 C 16.449 100.720,16.726 100.000,16.616 100.000 C 16.506 100.000,16.049 100.720,15.600 101.600 M13.267 107.180 C 13.033 107.851,12.927 108.400,13.031 108.400 C 13.301 108.400,14.056 106.322,13.857 106.124 C 13.767 106.033,13.501 106.508,13.267 107.180 M389.029 109.600 C 389.176 110.150,389.464 110.870,389.667 111.200 C 389.925 111.617,389.957 111.495,389.771 110.800 C 389.624 110.250,389.336 109.530,389.133 109.200 C 388.875 108.783,388.843 108.905,389.029 109.600 M9.429 118.629 C 9.281 119.215,9.238 119.772,9.332 119.866 C 9.427 119.960,9.624 119.558,9.771 118.971 C 9.919 118.385,9.962 117.828,9.868 117.734 C 9.773 117.640,9.576 118.042,9.429 118.629 M392.006 119.033 C 392.009 119.455,392.195 120.070,392.418 120.400 C 392.715 120.838,392.752 120.676,392.556 119.800 C 392.227 118.329,391.998 118.010,392.006 119.033 M8.629 121.829 C 8.481 122.415,8.438 122.972,8.532 123.066 C 8.627 123.160,8.824 122.758,8.971 122.171 C 9.119 121.585,9.162 121.028,9.068 120.934 C 8.973 120.840,8.776 121.242,8.629 121.829 M392.806 122.233 C 392.809 122.655,392.995 123.270,393.218 123.600 C 393.515 124.038,393.552 123.876,393.356 123.000 C 393.027 121.529,392.798 121.210,392.806 122.233 M7.649 125.800 C 7.616 126.240,7.496 127.050,7.383 127.600 L 7.177 128.600 7.606 127.619 C 7.842 127.079,7.961 126.269,7.872 125.819 C 7.713 125.021,7.707 125.021,7.649 125.800 M393.862 126.600 C 393.996 127.480,394.172 128.275,394.253 128.367 C 394.556 128.710,394.329 126.568,393.981 125.800 C 393.729 125.242,393.693 125.485,393.862 126.600 M6.849 130.200 C 6.816 130.640,6.696 131.450,6.583 132.000 L 6.377 133.000 6.806 132.019 C 7.042 131.479,7.161 130.669,7.072 130.219 C 6.913 129.421,6.907 129.421,6.849 130.200 M394.901 133.000 C 394.905 133.880,394.987 134.193,395.083 133.695 C 395.179 133.198,395.175 132.478,395.075 132.095 C 394.975 131.713,394.896 132.120,394.901 133.000 M395.640 139.433 C 395.662 140.295,395.827 141.450,396.007 142.000 C 396.211 142.621,396.251 142.091,396.112 140.600 C 395.854 137.821,395.582 137.149,395.640 139.433 M4.920 146.000 C 4.920 147.210,4.995 147.705,5.087 147.100 C 5.178 146.495,5.178 145.505,5.087 144.900 C 4.995 144.295,4.920 144.790,4.920 146.000 M396.682 149.800 C 396.799 152.000,396.964 153.875,397.048 153.967 C 397.306 154.249,397.139 150.322,396.794 148.000 C 396.559 146.410,396.527 146.909,396.682 149.800 M4.501 150.200 C 4.505 151.080,4.587 151.393,4.683 150.895 C 4.779 150.398,4.775 149.678,4.675 149.295 C 4.575 148.913,4.496 149.320,4.501 150.200 M3.821 161.021 C 3.662 164.015,3.618 166.552,3.724 166.657 C 3.829 166.763,4.047 164.400,4.207 161.407 C 4.367 158.414,4.411 155.877,4.304 155.770 C 4.197 155.663,3.979 158.026,3.821 161.021 M397.309 158.800 C 397.309 159.790,397.387 160.195,397.482 159.700 C 397.578 159.205,397.578 158.395,397.482 157.900 C 397.387 157.405,397.309 157.810,397.309 158.800 M397.737 165.000 C 397.739 166.760,397.809 167.430,397.893 166.489 C 397.978 165.549,397.977 164.109,397.891 163.289 C 397.805 162.470,397.736 163.240,397.737 165.000 M398.101 170.200 C 398.105 171.080,398.187 171.393,398.283 170.895 C 398.379 170.398,398.375 169.678,398.275 169.295 C 398.175 168.913,398.096 169.320,398.101 170.200 M3.353 179.800 C 3.353 182.440,3.418 183.468,3.497 182.084 C 3.575 180.701,3.574 178.541,3.495 177.284 C 3.416 176.028,3.352 177.160,3.353 179.800 M398.447 182.633 C 398.473 185.915,398.625 190.400,398.785 192.600 C 398.954 194.911,398.995 192.461,398.883 186.800 C 398.776 181.410,398.624 176.925,398.545 176.833 C 398.465 176.742,398.421 179.352,398.447 182.633 M2.954 189.600 C 2.954 192.350,3.018 193.475,3.096 192.100 C 3.174 190.725,3.174 188.475,3.096 187.100 C 3.018 185.725,2.954 186.850,2.954 189.600 M266.357 206.149 C 266.719 206.585,266.563 206.801,265.598 207.201 C 264.930 207.478,264.278 207.874,264.150 208.082 C 264.021 208.289,264.669 208.075,265.588 207.606 C 267.065 206.853,267.386 205.600,266.102 205.600 C 265.992 205.600,266.107 205.847,266.357 206.149 M2.542 220.200 C 2.541 222.180,2.608 223.040,2.692 222.112 C 2.776 221.184,2.777 219.564,2.695 218.512 C 2.612 217.460,2.543 218.220,2.542 220.200 M398.683 232.400 C 398.530 234.270,398.430 237.240,398.462 239.000 C 398.504 241.352,398.608 240.610,398.857 236.200 C 399.232 229.556,399.118 227.079,398.683 232.400 M2.954 236.800 C 2.954 239.550,3.018 240.675,3.096 239.300 C 3.174 237.925,3.174 235.675,3.096 234.300 C 3.018 232.925,2.954 234.050,2.954 236.800 M3.342 245.400 C 3.341 247.380,3.408 248.240,3.492 247.312 C 3.576 246.384,3.577 244.764,3.495 243.712 C 3.412 242.660,3.343 243.420,3.342 245.400 M398.124 250.200 C 398.126 251.520,398.201 252.012,398.290 251.293 C 398.379 250.574,398.377 249.494,398.286 248.893 C 398.195 248.292,398.122 248.880,398.124 250.200 M3.898 257.400 C 4.015 259.600,4.175 261.475,4.255 261.567 C 4.527 261.879,4.342 257.005,4.013 255.200 C 3.794 253.997,3.756 254.726,3.898 257.400 M397.748 257.600 C 397.748 259.910,397.814 260.855,397.895 259.700 C 397.976 258.545,397.976 256.655,397.895 255.500 C 397.814 254.345,397.748 255.290,397.748 257.600 M397.314 265.000 C 397.317 266.100,397.395 266.503,397.487 265.895 C 397.579 265.286,397.577 264.386,397.482 263.895 C 397.387 263.403,397.311 263.900,397.314 265.000 M4.501 267.000 C 4.505 267.880,4.587 268.193,4.683 267.695 C 4.779 267.198,4.775 266.478,4.675 266.095 C 4.575 265.713,4.496 266.120,4.501 267.000 M4.928 271.600 C 4.928 273.030,5.001 273.615,5.089 272.900 C 5.178 272.185,5.178 271.015,5.089 270.300 C 5.001 269.585,4.928 270.170,4.928 271.600 M396.622 273.222 C 396.466 275.010,396.423 276.556,396.526 276.659 C 396.629 276.762,396.842 275.385,397.000 273.600 C 397.158 271.815,397.201 270.268,397.097 270.163 C 396.992 270.058,396.778 271.435,396.622 273.222 M5.647 280.433 C 5.673 281.185,5.841 282.340,6.020 283.000 C 6.235 283.789,6.270 283.378,6.123 281.800 C 5.877 279.155,5.573 278.281,5.647 280.433 M395.869 281.556 C 395.721 282.295,395.620 283.282,395.644 283.750 C 395.668 284.218,395.847 283.790,396.042 282.800 C 396.237 281.810,396.338 280.823,396.267 280.606 C 396.196 280.390,396.017 280.817,395.869 281.556 M6.673 288.000 C 6.804 288.990,6.976 289.875,7.056 289.967 C 7.357 290.314,7.128 287.764,6.790 287.000 C 6.553 286.466,6.514 286.798,6.673 288.000 M395.056 287.284 C 394.921 287.788,394.830 288.740,394.853 289.400 C 394.881 290.228,394.997 289.984,395.226 288.613 C 395.576 286.523,395.474 285.726,395.056 287.284 M7.458 293.200 C 7.775 294.925,8.002 295.251,7.994 293.967 C 7.991 293.435,7.811 292.730,7.594 292.400 C 7.318 291.978,7.277 292.215,7.458 293.200 M393.800 294.800 C 393.648 295.491,393.607 296.141,393.709 296.242 C 393.811 296.344,394.009 295.853,394.150 295.150 C 394.291 294.447,394.331 293.798,394.241 293.708 C 394.150 293.617,393.952 294.109,393.800 294.800 M8.468 298.000 C 8.488 299.039,9.118 300.746,9.132 299.800 C 9.138 299.360,8.989 298.640,8.800 298.200 C 8.589 297.710,8.461 297.632,8.468 298.000 M393.029 298.629 C 392.881 299.215,392.838 299.772,392.932 299.866 C 393.027 299.960,393.224 299.558,393.371 298.971 C 393.519 298.385,393.562 297.828,393.468 297.734 C 393.373 297.640,393.176 298.042,393.029 298.629 M385.046 320.600 C 384.691 321.150,384.109 322.095,383.753 322.700 L 383.105 323.800 383.965 322.800 C 384.867 321.752,386.138 319.600,385.856 319.600 C 385.766 319.600,385.401 320.050,385.046 320.600 M17.964 323.533 C 18.180 323.936,18.671 324.521,19.055 324.833 C 19.487 325.184,19.390 324.904,18.801 324.100 C 17.751 322.665,17.357 322.398,17.964 323.533 M20.800 327.052 C 20.800 327.264,21.565 328.149,22.500 329.019 L 24.200 330.600 22.600 328.806 C 21.720 327.820,20.955 326.935,20.900 326.839 C 20.845 326.744,20.800 326.840,20.800 327.052 M376.800 331.400 C 375.828 332.390,375.123 333.200,375.233 333.200 C 375.343 333.200,376.228 332.390,377.200 331.400 C 378.172 330.410,378.877 329.600,378.767 329.600 C 378.657 329.600,377.772 330.410,376.800 331.400 M28.033 334.100 C 28.125 334.155,28.740 334.650,29.400 335.200 L 30.600 336.200 29.630 335.100 C 29.097 334.495,28.482 334.000,28.264 334.000 C 28.045 334.000,27.942 334.045,28.033 334.100 M32.400 336.984 C 32.400 337.094,33.120 337.551,34.000 338.000 C 34.880 338.449,35.600 338.726,35.600 338.616 C 35.600 338.506,34.880 338.049,34.000 337.600 C 33.120 337.151,32.400 336.874,32.400 336.984 M368.500 337.646 C 367.137 338.519,366.695 339.106,367.900 338.443 C 368.818 337.939,370.256 336.827,370.000 336.819 C 369.890 336.816,369.215 337.188,368.500 337.646 M38.800 340.200 C 39.350 340.514,39.980 340.772,40.200 340.772 C 40.420 340.772,40.150 340.514,39.600 340.200 C 39.050 339.886,38.420 339.628,38.200 339.628 C 37.980 339.628,38.250 339.886,38.800 340.200 M51.633 343.747 C 51.725 343.828,52.520 344.004,53.400 344.138 C 54.515 344.307,54.758 344.271,54.200 344.019 C 53.432 343.671,51.290 343.444,51.633 343.747 M56.433 344.547 C 56.525 344.628,57.320 344.804,58.200 344.938 C 59.315 345.107,59.558 345.071,59.000 344.819 C 58.232 344.471,56.090 344.244,56.433 344.547 M346.800 344.800 C 346.008 345.054,345.967 345.120,346.600 345.120 C 347.040 345.120,347.850 344.976,348.400 344.800 C 349.192 344.546,349.233 344.480,348.600 344.480 C 348.160 344.480,347.350 344.624,346.800 344.800 M65.105 345.883 C 65.602 345.979,66.322 345.975,66.705 345.875 C 67.087 345.775,66.680 345.696,65.800 345.701 C 64.920 345.705,64.607 345.787,65.105 345.883 M338.900 345.887 C 339.505 345.978,340.495 345.978,341.100 345.887 C 341.705 345.795,341.210 345.720,340.000 345.720 C 338.790 345.720,338.295 345.795,338.900 345.887 M69.905 346.283 C 70.402 346.379,71.122 346.375,71.505 346.275 C 71.887 346.175,71.480 346.096,70.600 346.101 C 69.720 346.105,69.407 346.187,69.905 346.283 M332.505 346.287 C 333.114 346.379,334.014 346.377,334.505 346.282 C 334.997 346.187,334.500 346.111,333.400 346.114 C 332.300 346.117,331.897 346.195,332.505 346.287 M76.300 346.697 C 77.895 346.773,80.505 346.773,82.100 346.697 C 83.695 346.621,82.390 346.559,79.200 346.559 C 76.010 346.559,74.705 346.621,76.300 346.697 M320.518 346.698 C 322.233 346.773,324.933 346.772,326.518 346.697 C 328.103 346.621,326.700 346.559,323.400 346.560 C 320.100 346.561,318.803 346.622,320.518 346.698 M86.691 347.089 C 87.401 347.177,88.661 347.179,89.491 347.092 C 90.321 347.005,89.740 346.933,88.200 346.931 C 86.660 346.929,85.981 347.000,86.691 347.089 M312.500 347.091 C 313.325 347.178,314.675 347.178,315.500 347.091 C 316.325 347.005,315.650 346.934,314.000 346.934 C 312.350 346.934,311.675 347.005,312.500 347.091 M99.233 347.345 C 99.325 347.425,102.820 347.581,107.000 347.692 C 111.841 347.820,113.366 347.782,111.200 347.587 C 107.665 347.267,98.942 347.091,99.233 347.345 M290.000 347.611 C 288.350 347.758,290.510 347.792,294.800 347.685 C 299.090 347.579,302.675 347.426,302.767 347.346 C 303.031 347.114,293.309 347.317,290.000 347.611 M125.913 348.295 C 127.076 348.376,128.876 348.376,129.913 348.293 C 130.951 348.211,130.000 348.145,127.800 348.146 C 125.600 348.147,124.751 348.214,125.913 348.295 M271.500 348.295 C 272.655 348.376,274.545 348.376,275.700 348.295 C 276.855 348.214,275.910 348.148,273.600 348.148 C 271.290 348.148,270.345 348.214,271.500 348.295 M134.900 348.697 C 136.385 348.774,138.815 348.774,140.300 348.697 C 141.785 348.620,140.570 348.557,137.600 348.557 C 134.630 348.557,133.415 348.620,134.900 348.697 M261.317 348.697 C 262.811 348.774,265.151 348.774,266.517 348.696 C 267.882 348.618,266.660 348.555,263.800 348.555 C 260.940 348.556,259.822 348.620,261.317 348.697 M150.500 349.094 C 151.545 349.176,153.255 349.176,154.300 349.094 C 155.345 349.012,154.490 348.944,152.400 348.944 C 150.310 348.944,149.455 349.012,150.500 349.094 M248.300 349.093 C 249.235 349.177,250.765 349.177,251.700 349.093 C 252.635 349.009,251.870 348.940,250.000 348.940 C 248.130 348.940,247.365 349.009,248.300 349.093 M163.300 349.498 C 165.225 349.571,168.375 349.571,170.300 349.498 C 172.225 349.425,170.650 349.365,166.800 349.365 C 162.950 349.365,161.375 349.425,163.300 349.498 M233.919 349.498 C 235.744 349.572,238.624 349.572,240.319 349.497 C 242.014 349.422,240.520 349.361,237.000 349.362 C 233.480 349.362,232.094 349.424,233.919 349.498 M176.311 349.893 C 177.251 349.978,178.691 349.977,179.511 349.891 C 180.330 349.805,179.560 349.736,177.800 349.737 C 176.040 349.739,175.370 349.809,176.311 349.893 M225.700 349.891 C 226.525 349.978,227.875 349.978,228.700 349.891 C 229.525 349.805,228.850 349.734,227.200 349.734 C 225.550 349.734,224.875 349.805,225.700 349.891 M196.491 350.441 C 200.392 350.592,206.422 350.594,209.891 350.444 C 214.932 350.226,213.506 350.170,202.800 350.168 C 191.330 350.165,190.421 350.204,196.491 350.441 " stroke="none" fill="#adafb2" fill-rule="evenodd"></path><path id="path4" d="M154.700 71.899 C 157.395 71.968,161.805 71.968,164.500 71.899 C 167.195 71.830,164.990 71.773,159.600 71.773 C 154.210 71.773,152.005 71.830,154.700 71.899 M217.700 71.899 C 220.725 71.967,225.675 71.967,228.700 71.899 C 231.725 71.831,229.250 71.775,223.200 71.775 C 217.150 71.775,214.675 71.831,217.700 71.899 M133.500 72.298 C 135.755 72.370,139.445 72.370,141.700 72.298 C 143.955 72.227,142.110 72.169,137.600 72.169 C 133.090 72.169,131.245 72.227,133.500 72.298 M245.900 72.299 C 249.255 72.366,254.745 72.366,258.100 72.299 C 261.455 72.232,258.710 72.178,252.000 72.178 C 245.290 72.178,242.545 72.232,245.900 72.299 M124.707 72.690 C 125.426 72.779,126.506 72.777,127.107 72.686 C 127.708 72.595,127.120 72.522,125.800 72.524 C 124.480 72.526,123.988 72.601,124.707 72.690 M272.118 72.698 C 273.833 72.773,276.533 72.772,278.118 72.697 C 279.703 72.621,278.300 72.559,275.000 72.560 C 271.700 72.561,270.403 72.622,272.118 72.698 M112.313 73.095 C 113.476 73.176,115.276 73.176,116.313 73.093 C 117.351 73.011,116.400 72.945,114.200 72.946 C 112.000 72.947,111.151 73.014,112.313 73.095 M297.500 73.098 C 299.315 73.172,302.285 73.172,304.100 73.098 C 305.915 73.023,304.430 72.963,300.800 72.963 C 297.170 72.963,295.685 73.023,297.500 73.098 M106.707 73.490 C 107.426 73.579,108.506 73.577,109.107 73.486 C 109.708 73.395,109.120 73.322,107.800 73.324 C 106.480 73.326,105.988 73.401,106.707 73.490 M308.300 73.482 C 308.795 73.578,309.605 73.578,310.100 73.482 C 310.595 73.387,310.190 73.309,309.200 73.309 C 308.210 73.309,307.805 73.387,308.300 73.482 M95.091 73.889 C 95.801 73.977,97.061 73.979,97.891 73.892 C 98.721 73.805,98.140 73.733,96.600 73.731 C 95.060 73.729,94.381 73.800,95.091 73.889 M316.707 73.890 C 317.426 73.979,318.506 73.977,319.107 73.886 C 319.708 73.795,319.120 73.722,317.800 73.724 C 316.480 73.726,315.988 73.801,316.707 73.890 M89.900 74.289 C 90.615 74.378,91.785 74.378,92.500 74.289 C 93.215 74.201,92.630 74.128,91.200 74.128 C 89.770 74.128,89.185 74.201,89.900 74.289 M321.100 74.282 C 321.595 74.378,322.405 74.378,322.900 74.282 C 323.395 74.187,322.990 74.109,322.000 74.109 C 321.010 74.109,320.605 74.187,321.100 74.282 M79.907 74.690 C 80.626 74.779,81.706 74.777,82.307 74.686 C 82.908 74.595,82.320 74.522,81.000 74.524 C 79.680 74.526,79.188 74.601,79.907 74.690 M328.305 74.683 C 328.802 74.779,329.522 74.775,329.905 74.675 C 330.287 74.575,329.880 74.496,329.000 74.501 C 328.120 74.505,327.807 74.587,328.305 74.683 M71.513 75.095 C 72.676 75.176,74.476 75.176,75.513 75.093 C 76.551 75.011,75.600 74.945,73.400 74.946 C 71.200 74.947,70.351 75.014,71.513 75.095 M332.700 75.089 C 333.415 75.178,334.585 75.178,335.300 75.089 C 336.015 75.001,335.430 74.928,334.000 74.928 C 332.570 74.928,331.985 75.001,332.700 75.089 M64.905 75.487 C 65.514 75.579,66.414 75.577,66.905 75.482 C 67.397 75.387,66.900 75.311,65.800 75.314 C 64.700 75.317,64.297 75.395,64.905 75.487 M53.000 75.994 C 52.340 76.158,53.420 76.202,55.400 76.091 C 57.380 75.980,59.075 75.824,59.167 75.745 C 59.473 75.478,54.216 75.691,53.000 75.994 M341.905 75.883 C 342.402 75.979,343.122 75.975,343.505 75.875 C 343.887 75.775,343.480 75.696,342.600 75.701 C 341.720 75.705,341.407 75.787,341.905 75.883 M48.600 76.800 C 48.096 77.017,48.022 77.144,48.400 77.144 C 48.730 77.144,49.360 76.989,49.800 76.800 C 50.304 76.583,50.378 76.456,50.000 76.456 C 49.670 76.456,49.040 76.611,48.600 76.800 M349.800 76.800 C 351.492 77.231,352.944 77.231,351.600 76.800 C 351.050 76.624,350.150 76.483,349.600 76.487 C 348.702 76.494,348.722 76.526,349.800 76.800 M355.233 77.743 C 355.325 77.821,356.030 78.001,356.800 78.142 C 357.785 78.323,358.022 78.282,357.600 78.006 C 357.058 77.650,354.837 77.403,355.233 77.743 M36.700 80.827 C 35.875 81.263,35.200 81.708,35.200 81.818 C 35.200 81.996,38.359 80.519,38.767 80.151 C 39.227 79.734,38.025 80.128,36.700 80.827 M363.233 80.151 C 363.642 80.521,366.800 81.995,366.800 81.816 C 366.800 81.589,363.781 80.000,363.349 80.000 C 363.194 80.000,363.142 80.068,363.233 80.151 M376.800 89.000 C 377.995 90.210,379.063 91.200,379.173 91.200 C 379.283 91.200,378.395 90.210,377.200 89.000 C 376.005 87.790,374.937 86.800,374.827 86.800 C 374.717 86.800,375.605 87.790,376.800 89.000 M22.400 91.400 C 21.428 92.390,20.723 93.200,20.833 93.200 C 20.943 93.200,21.828 92.390,22.800 91.400 C 23.772 90.410,24.477 89.600,24.367 89.600 C 24.257 89.600,23.372 90.410,22.400 91.400 M19.600 94.800 C 19.130 95.460,18.836 96.000,18.946 96.000 C 19.056 96.000,19.530 95.460,20.000 94.800 C 20.470 94.140,20.764 93.600,20.654 93.600 C 20.544 93.600,20.070 94.140,19.600 94.800 M391.656 116.000 C 391.656 116.330,391.811 116.960,392.000 117.400 C 392.217 117.904,392.344 117.978,392.344 117.600 C 392.344 117.270,392.189 116.640,392.000 116.200 C 391.783 115.696,391.656 115.622,391.656 116.000 M7.056 126.884 C 6.921 127.388,6.827 128.160,6.846 128.600 C 6.865 129.040,7.045 128.698,7.246 127.840 C 7.636 126.178,7.470 125.340,7.056 126.884 M394.662 129.400 C 394.796 130.280,394.972 131.075,395.053 131.167 C 395.356 131.510,395.129 129.368,394.781 128.600 C 394.529 128.042,394.493 128.285,394.662 129.400 M6.101 133.400 C 6.105 134.280,6.187 134.593,6.283 134.095 C 6.379 133.598,6.375 132.878,6.275 132.495 C 6.175 132.113,6.096 132.520,6.101 133.400 M395.473 134.800 C 395.604 135.790,395.776 136.675,395.856 136.767 C 396.157 137.114,395.928 134.564,395.590 133.800 C 395.353 133.266,395.314 133.598,395.473 134.800 M396.514 143.400 C 396.517 144.500,396.595 144.903,396.687 144.295 C 396.779 143.686,396.777 142.786,396.682 142.295 C 396.587 141.803,396.511 142.300,396.514 143.400 M4.493 146.800 C 4.493 147.570,4.575 147.885,4.676 147.500 C 4.776 147.115,4.776 146.485,4.676 146.100 C 4.575 145.715,4.493 146.030,4.493 146.800 M396.901 147.400 C 396.905 148.280,396.987 148.593,397.083 148.095 C 397.179 147.598,397.175 146.878,397.075 146.495 C 396.975 146.113,396.896 146.520,396.901 147.400 M4.134 151.200 C 4.134 152.850,4.205 153.525,4.291 152.700 C 4.378 151.875,4.378 150.525,4.291 149.700 C 4.205 148.875,4.134 149.550,4.134 151.200 M160.000 206.400 C 160.000 264.052,159.949 262.323,161.600 261.168 C 162.070 260.839,162.005 260.803,161.300 261.001 L 160.400 261.254 160.400 206.460 C 160.400 163.000,160.503 151.625,160.900 151.465 C 161.199 151.344,161.118 151.250,160.700 151.232 C 160.037 151.202,160.000 154.083,160.000 206.400 M397.485 156.800 C 397.604 158.890,397.769 160.675,397.851 160.767 C 398.115 161.061,397.941 157.065,397.600 155.000 C 397.364 153.574,397.331 154.090,397.485 156.800 M3.701 158.600 C 3.705 159.480,3.787 159.793,3.883 159.295 C 3.979 158.798,3.975 158.078,3.875 157.695 C 3.775 157.313,3.696 157.720,3.701 158.600 M3.354 168.000 C 3.354 170.750,3.418 171.875,3.496 170.500 C 3.574 169.125,3.574 166.875,3.496 165.500 C 3.418 164.125,3.354 165.250,3.354 168.000 M398.101 166.600 C 398.105 167.480,398.187 167.793,398.283 167.295 C 398.379 166.798,398.375 166.078,398.275 165.695 C 398.175 165.313,398.096 165.720,398.101 166.600 M398.528 170.800 C 398.528 172.230,398.601 172.815,398.689 172.100 C 398.778 171.385,398.778 170.215,398.689 169.500 C 398.601 168.785,398.528 169.370,398.528 170.800 M2.944 178.800 C 2.944 180.890,3.012 181.745,3.094 180.700 C 3.176 179.655,3.176 177.945,3.094 176.900 C 3.012 175.855,2.944 176.710,2.944 178.800 M398.944 184.000 C 398.944 186.090,399.012 186.945,399.094 185.900 C 399.176 184.855,399.176 183.145,399.094 182.100 C 399.012 181.055,398.944 181.910,398.944 184.000 M399.386 212.000 C 399.386 223.330,399.437 227.965,399.500 222.300 C 399.562 216.635,399.562 207.365,399.500 201.700 C 399.437 196.035,399.386 200.670,399.386 212.000 M2.567 200.400 C 2.567 204.690,2.626 206.445,2.698 204.300 C 2.770 202.155,2.770 198.645,2.698 196.500 C 2.626 194.355,2.567 196.110,2.567 200.400 M2.167 217.800 C 2.167 221.980,2.226 223.636,2.298 221.479 C 2.371 219.323,2.370 215.903,2.298 213.879 C 2.225 211.856,2.166 213.620,2.167 217.800 M2.546 229.800 C 2.547 232.000,2.614 232.849,2.695 231.687 C 2.776 230.524,2.776 228.724,2.693 227.687 C 2.611 226.649,2.545 227.600,2.546 229.800 M398.924 237.400 C 398.926 238.720,399.001 239.212,399.090 238.493 C 399.179 237.774,399.177 236.694,399.086 236.093 C 398.995 235.492,398.922 236.080,398.924 237.400 M2.928 246.400 C 2.928 247.830,3.001 248.415,3.089 247.700 C 3.178 246.985,3.178 245.815,3.089 245.100 C 3.001 244.385,2.928 244.970,2.928 246.400 M398.550 249.000 C 398.551 251.420,398.616 252.358,398.696 251.085 C 398.776 249.812,398.775 247.832,398.694 246.685 C 398.614 245.538,398.549 246.580,398.550 249.000 M3.334 252.800 C 3.334 254.450,3.405 255.125,3.491 254.300 C 3.578 253.475,3.578 252.125,3.491 251.300 C 3.405 250.475,3.334 251.150,3.334 252.800 M398.114 255.400 C 398.117 256.500,398.195 256.903,398.287 256.295 C 398.379 255.686,398.377 254.786,398.282 254.295 C 398.187 253.803,398.111 254.300,398.114 255.400 M3.701 259.000 C 3.705 259.880,3.787 260.193,3.883 259.695 C 3.979 259.198,3.975 258.478,3.875 258.095 C 3.775 257.713,3.696 258.120,3.701 259.000 M4.134 266.000 C 4.134 267.650,4.205 268.325,4.291 267.500 C 4.378 266.675,4.378 265.325,4.291 264.500 C 4.205 263.675,4.134 264.350,4.134 266.000 M397.724 265.400 C 397.726 266.720,397.801 267.212,397.890 266.493 C 397.979 265.774,397.977 264.694,397.886 264.093 C 397.795 263.492,397.722 264.080,397.724 265.400 M397.293 269.200 C 397.293 269.970,397.375 270.285,397.476 269.900 C 397.576 269.515,397.576 268.885,397.476 268.500 C 397.375 268.115,397.293 268.430,397.293 269.200 M4.493 270.400 C 4.493 271.170,4.575 271.485,4.676 271.100 C 4.776 270.715,4.776 270.085,4.676 269.700 C 4.575 269.315,4.493 269.630,4.493 270.400 M396.901 275.800 C 396.905 276.680,396.987 276.993,397.083 276.495 C 397.179 275.998,397.175 275.278,397.075 274.895 C 396.975 274.513,396.896 274.920,396.901 275.800 M4.893 276.000 C 4.893 276.770,4.975 277.085,5.076 276.700 C 5.176 276.315,5.176 275.685,5.076 275.300 C 4.975 274.915,4.893 275.230,4.893 276.000 M396.514 279.800 C 396.517 280.900,396.595 281.303,396.687 280.695 C 396.779 280.086,396.777 279.186,396.682 278.695 C 396.587 278.203,396.511 278.700,396.514 279.800 M6.101 285.800 C 6.105 286.680,6.187 286.993,6.283 286.495 C 6.379 285.998,6.375 285.278,6.275 284.895 C 6.175 284.513,6.096 284.920,6.101 285.800 M395.693 286.400 C 395.693 287.170,395.775 287.485,395.876 287.100 C 395.976 286.715,395.976 286.085,395.876 285.700 C 395.775 285.315,395.693 285.630,395.693 286.400 M7.668 295.800 C 7.662 296.240,7.811 296.960,8.000 297.400 C 8.438 298.419,8.438 297.368,8.000 296.000 C 7.743 295.196,7.677 295.157,7.668 295.800 M393.856 296.084 C 393.721 296.588,393.627 297.360,393.646 297.800 C 393.665 298.240,393.845 297.898,394.046 297.040 C 394.436 295.378,394.270 294.540,393.856 296.084 M392.846 300.867 C 392.821 301.234,392.696 301.864,392.570 302.267 C 392.352 302.962,392.363 302.963,392.797 302.287 C 393.048 301.896,393.173 301.266,393.073 300.887 C 392.911 300.268,392.888 300.266,392.846 300.867 M387.472 316.619 C 386.532 318.589,386.664 318.924,387.647 317.062 C 388.093 316.216,388.387 315.454,388.301 315.367 C 388.214 315.281,387.841 315.844,387.472 316.619 M21.600 328.600 C 22.346 329.370,23.047 330.000,23.157 330.000 C 23.267 330.000,22.746 329.370,22.000 328.600 C 21.254 327.830,20.553 327.200,20.443 327.200 C 20.333 327.200,20.854 327.830,21.600 328.600 M376.975 331.700 L 375.800 333.000 377.100 331.825 C 377.815 331.179,378.400 330.594,378.400 330.525 C 378.400 330.216,378.070 330.488,376.975 331.700 M29.167 335.345 C 29.700 336.001,31.200 336.993,31.200 336.689 C 31.200 336.613,30.615 336.122,29.900 335.599 C 29.096 335.010,28.816 334.913,29.167 335.345 M49.200 343.582 C 49.530 343.805,50.145 343.991,50.567 343.994 C 51.590 344.002,51.271 343.773,49.800 343.444 C 48.924 343.248,48.762 343.285,49.200 343.582 M350.800 344.400 C 349.416 344.691,349.414 344.695,350.600 344.741 C 351.260 344.767,352.070 344.613,352.400 344.400 C 353.066 343.970,352.845 343.970,350.800 344.400 M54.100 344.676 C 54.485 344.776,55.115 344.776,55.500 344.676 C 55.885 344.575,55.570 344.493,54.800 344.493 C 54.030 344.493,53.715 344.575,54.100 344.676 M59.700 345.476 C 60.085 345.576,60.715 345.576,61.100 345.476 C 61.485 345.375,61.170 345.293,60.400 345.293 C 59.630 345.293,59.315 345.375,59.700 345.476 M344.900 345.476 C 345.285 345.576,345.915 345.576,346.300 345.476 C 346.685 345.375,346.370 345.293,345.600 345.293 C 344.830 345.293,344.515 345.375,344.900 345.476 M67.400 346.394 C 68.613 346.709,72.675 346.922,72.367 346.656 C 72.275 346.576,70.850 346.415,69.200 346.297 C 67.442 346.172,66.697 346.212,67.400 346.394 M333.400 346.400 L 330.600 346.659 333.000 346.690 C 334.320 346.707,336.390 346.584,337.600 346.417 C 340.525 346.012,337.716 346.001,333.400 346.400 M79.891 347.089 C 80.601 347.177,81.861 347.179,82.691 347.092 C 83.521 347.005,82.940 346.933,81.400 346.931 C 79.860 346.929,79.181 347.000,79.891 347.089 M319.491 347.089 C 320.201 347.177,321.461 347.179,322.291 347.092 C 323.121 347.005,322.540 346.933,321.000 346.931 C 319.460 346.929,318.781 347.000,319.491 347.089 M87.900 347.497 C 89.495 347.573,92.105 347.573,93.700 347.497 C 95.295 347.421,93.990 347.359,90.800 347.359 C 87.610 347.359,86.305 347.421,87.900 347.497 M308.518 347.498 C 310.233 347.573,312.933 347.572,314.518 347.497 C 316.103 347.421,314.700 347.359,311.400 347.360 C 308.100 347.361,306.803 347.422,308.518 347.498 M102.500 347.891 C 103.325 347.978,104.675 347.978,105.500 347.891 C 106.325 347.805,105.650 347.734,104.000 347.734 C 102.350 347.734,101.675 347.805,102.500 347.891 M296.311 347.893 C 297.251 347.978,298.691 347.977,299.511 347.891 C 300.330 347.805,299.560 347.736,297.800 347.737 C 296.040 347.739,295.370 347.809,296.311 347.893 M114.117 348.297 C 115.611 348.374,117.951 348.374,119.317 348.296 C 120.682 348.218,119.460 348.155,116.600 348.155 C 113.740 348.156,112.622 348.220,114.117 348.297 M282.500 348.297 C 283.985 348.374,286.415 348.374,287.900 348.297 C 289.385 348.220,288.170 348.157,285.200 348.157 C 282.230 348.157,281.015 348.220,282.500 348.297 M125.312 348.695 C 126.364 348.777,127.984 348.776,128.912 348.692 C 129.840 348.608,128.980 348.541,127.000 348.542 C 125.020 348.543,124.260 348.612,125.312 348.695 M272.500 348.694 C 273.545 348.776,275.255 348.776,276.300 348.694 C 277.345 348.612,276.490 348.544,274.400 348.544 C 272.310 348.544,271.455 348.612,272.500 348.694 M141.712 349.095 C 142.764 349.177,144.384 349.176,145.312 349.092 C 146.240 349.008,145.380 348.941,143.400 348.942 C 141.420 348.943,140.660 349.012,141.712 349.095 M256.700 349.093 C 257.635 349.177,259.165 349.177,260.100 349.093 C 261.035 349.009,260.270 348.940,258.400 348.940 C 256.530 348.940,255.765 349.009,256.700 349.093 M149.500 349.496 C 150.875 349.574,153.125 349.574,154.500 349.496 C 155.875 349.418,154.750 349.354,152.000 349.354 C 149.250 349.354,148.125 349.418,149.500 349.496 M248.100 349.496 C 249.365 349.575,251.435 349.575,252.700 349.496 C 253.965 349.416,252.930 349.351,250.400 349.351 C 247.870 349.351,246.835 349.416,248.100 349.496 M168.311 349.893 C 169.251 349.978,170.691 349.977,171.511 349.891 C 172.330 349.805,171.560 349.736,169.800 349.737 C 168.040 349.739,167.370 349.809,168.311 349.893 M232.691 349.889 C 233.401 349.977,234.661 349.979,235.491 349.892 C 236.321 349.805,235.740 349.733,234.200 349.731 C 232.660 349.729,231.981 349.800,232.691 349.889 M177.119 350.298 C 178.944 350.372,181.824 350.372,183.519 350.297 C 185.214 350.222,183.720 350.161,180.200 350.162 C 176.680 350.162,175.294 350.224,177.119 350.298 M221.900 350.297 C 223.495 350.373,226.105 350.373,227.700 350.297 C 229.295 350.221,227.990 350.159,224.800 350.159 C 221.610 350.159,220.305 350.221,221.900 350.297 M193.500 350.693 C 194.435 350.777,195.965 350.777,196.900 350.693 C 197.835 350.609,197.070 350.540,195.200 350.540 C 193.330 350.540,192.565 350.609,193.500 350.693 M209.511 350.693 C 210.451 350.778,211.891 350.777,212.711 350.691 C 213.530 350.605,212.760 350.536,211.000 350.537 C 209.240 350.539,208.570 350.609,209.511 350.693 " stroke="none" fill="#8c9494" fill-rule="evenodd"></path></g></svg>